<?xml version="1.0" encoding="UTF-8" standalone="no"?>
<svg
   xmlns:dc="http://purl.org/dc/elements/1.1/"
   xmlns:cc="http://creativecommons.org/ns#"
   xmlns:rdf="http://www.w3.org/1999/02/22-rdf-syntax-ns#"
   xmlns:svg="http://www.w3.org/2000/svg"
   xmlns="http://www.w3.org/2000/svg"
   xmlns:sodipodi="http://sodipodi.sourceforge.net/DTD/sodipodi-0.dtd"
   xmlns:inkscape="http://www.inkscape.org/namespaces/inkscape"
   id="svg4773"
   version="1.1"
   viewBox="0 0 99.033539 102.07625"
   height="102.07625mm"
   width="99.033539mm"
   sodipodi:docname="spray_01.svg"
   inkscape:version="1.0 (4035a4f, 2020-05-01)">
  <sodipodi:namedview
     inkscape:document-rotation="0"
     pagecolor="#ffffff"
     bordercolor="#666666"
     borderopacity="1"
     objecttolerance="10"
     gridtolerance="10"
     guidetolerance="10"
     inkscape:pageopacity="0"
     inkscape:pageshadow="2"
     inkscape:window-width="1440"
     inkscape:window-height="792"
     id="namedview94"
     showgrid="false"
     inkscape:zoom="1.5707621"
     inkscape:cx="52.183657"
     inkscape:cy="204.99604"
     inkscape:window-x="0"
     inkscape:window-y="23"
     inkscape:window-maximized="0"
     inkscape:current-layer="layer1" />
  <defs
     id="defs4767" />
  <metadata
     id="metadata4770">
    <rdf:RDF>
      <cc:Work
         rdf:about="">
        <dc:format>image/svg+xml</dc:format>
        <dc:type
           rdf:resource="http://purl.org/dc/dcmitype/StillImage" />
        <dc:title />
      </cc:Work>
    </rdf:RDF>
  </metadata>
  <g
     transform="translate(-56.316563,-97.128542)"
     id="layer1"
     style="opacity:0.5">
    <g
       transform="matrix(0.26458333,0,0,0.26458333,45.41573,-0.76728979)"
       id="g3980">
      <path
         fill-rule="evenodd"
         clip-rule="evenodd"
         d="m 48.7,531.9 c 0,0.8 -0.8,0.9 -0.7,2.3 0.1,1.7 2.5,2.7 2.5,2.7 2.1,0 3,-2.2 3.2,-2.2 0,-1.8 -0.6,-3.2 -2.5,-3.4 0.2,-0.6 0.5,-1 0.8,-1.3 -0.4,-1.9 -0.1,-1.7 -1.6,-3.7 -1.8,0 -3.8,0.3 -3.8,3.2 -0.1,1.3 2.1,1.5 2.1,2.4 z"
         id="path3822" />
      <path
         fill-rule="evenodd"
         clip-rule="evenodd"
         d="m 58.9,617.2 c 0.3,0.5 -0.1,0.9 0.9,0.9 0.3,0 0.4,0 0.5,-0.6 0,-0.1 -0.1,-0.1 -0.1,-0.5 -0.6,-0.1 -0.9,0 -1.3,0.2 z"
         id="path3824" />
      <path
         fill-rule="evenodd"
         clip-rule="evenodd"
         d="m 46.5,573.7 c -3.2,0 -4.2,2.9 -4.2,3.4 -0.4,0.3 -0.9,1.2 -1.1,1.4 0,3.1 0.8,6.1 3.2,6.6 0.1,0.1 0.1,0.1 0.1,0.2 0,0.1 -0.1,0.1 -0.1,0.3 0,0.5 3.1,1 3.3,0.9 0,-0.1 -0.1,-0.1 -0.1,-0.1 3.6,0 5.2,-3 5.3,-3 0,-1.4 1,-1.8 1,-3.2 0,-0.8 -0.3,-1.5 -0.5,-2.3 -0.1,-3.1 -4.9,-4.3 -6.9,-4.2 z"
         id="path3826" />
      <path
         fill-rule="evenodd"
         clip-rule="evenodd"
         d="m 50.5,477.3 c 0.4,-0.1 0.6,-0.3 0.6,-0.4 0,-0.4 -0.8,-0.9 -1.3,-1 -0.2,0.4 -0.4,0.8 -0.4,1 0.1,0.4 0.2,0.4 1.1,0.4 z"
         id="path3828" />
      <path
         fill-rule="evenodd"
         clip-rule="evenodd"
         d="m 63.6,498.6 c 0.5,0 0.9,-0.1 1.1,-0.4 -0.3,-0.6 -0.3,-1.3 -1.6,-1.3 0,0 -1,0.1 -1,0.7 0.1,0.7 0.7,1.1 1.5,1 z"
         id="path3830" />
      <path
         fill-rule="evenodd"
         clip-rule="evenodd"
         d="m 160,417.4 c -0.2,-0.9 -0.8,-1.3 -1.5,-1.3 -0.4,0 -0.9,0.2 -1.7,0.2 0.2,1.5 2.3,1.1 3.2,1.1 z"
         id="path3832" />
      <path
         fill-rule="evenodd"
         clip-rule="evenodd"
         d="m 151.5,404 c 0.2,0 0.4,-0.9 0.5,-1.5 0.4,-0.6 0.7,-1.3 0.7,-2 0,-0.6 -0.4,-0.9 -1.1,-1.1 0,1.5 -0.3,2.6 -0.3,3.7 0,0.7 0,0.9 0.2,0.9 z"
         id="path3834" />
      <path
         fill-rule="evenodd"
         clip-rule="evenodd"
         d="m 156.1,395.4 c 0.3,-0.9 0.6,-1.9 1,-2.8 -2,-0.8 -3.8,-1.4 -4.3,0.9 0.6,0.9 1.6,1.6 3.3,1.9 z"
         id="path3836" />
      <path
         fill-rule="evenodd"
         clip-rule="evenodd"
         d="m 60.5,614.2 c 0,0 0,0 0.3,0 -0.4,0 -1.4,0 -1.4,0.9 0,0.4 0.6,0.6 0.8,0.6 1.1,0 6.5,-1.2 7,-3.2 -0.6,-0.2 -1.3,-0.2 -1.9,-0.2 -0.5,0.7 -4.8,1.8 -4.8,1.9 z"
         id="path3838" />
      <path
         fill-rule="evenodd"
         clip-rule="evenodd"
         d="m 71.9,535.6 c 0.1,4.3 3.5,8.1 8.8,8.1 3.1,0 5.2,-1.4 6.4,-3.3 0.4,0.1 0.9,0.2 1.2,0.2 0.3,0 1.2,0.1 1.1,-0.3 -0.6,-0.2 -1.3,-0.5 -1.9,-0.7 0.9,-1.7 1.2,-3.8 1.2,-5.6 -0.1,-4.3 -4.9,-8.1 -8.3,-8.1 -4.8,0.1 -8.6,4 -8.5,9.7 z"
         id="path3840" />
      <path
         fill-rule="evenodd"
         clip-rule="evenodd"
         d="m 110.9,417.1 c 0.6,0 0.4,0 0.7,0.5 h 2.2 c -0.6,-3.9 -3,-3.9 -5.4,-4.6 0,1.3 1,3.7 2.5,4.1 z"
         id="path3842" />
      <path
         fill-rule="evenodd"
         clip-rule="evenodd"
         d="m 139.4,370 c -0.8,0.4 -1.1,1.8 -2.1,1.6 -4.5,11.7 14.2,1.9 2.1,-1.6 z"
         id="path3844" />
      <path
         fill-rule="evenodd"
         clip-rule="evenodd"
         d="m 89.7,543.5 c 0.2,0 0.4,0 0.4,-0.2 0,0 -0.2,-0.2 -0.9,-0.2 -0.1,0.4 0.1,0.4 0.5,0.4 z"
         id="path3846" />
      <path
         fill-rule="evenodd"
         clip-rule="evenodd"
         d="m 149.1,449.6 c 0,-1.5 -0.4,-4.1 -1.9,-4.1 -0.7,0 -0.7,0.8 -0.7,1.9 0,2.6 1.6,7.4 1.6,7.8 1.1,-0.4 1,-4.4 1,-5.6 z"
         id="path3848" />
      <path
         fill-rule="evenodd"
         clip-rule="evenodd"
         d="m 69.5,526 c 0.3,-0.1 0.5,-0.1 0.6,-0.1 0.4,0 0.6,0.1 0.9,0.1 2,0 3.1,-1.5 3.5,-3 -0.3,0 -0.4,-0.3 -0.4,-0.4 0,-0.5 0.4,-1.2 0.4,-1.3 -0.7,-0.8 -1.8,-2.2 -3.2,-2.1 -1.4,0 -3.7,0.7 -3.7,3 0.1,2.9 1.5,2.1 1.9,3.8 z"
         id="path3850" />
      <path
         fill-rule="evenodd"
         clip-rule="evenodd"
         d="m 151.3,404.3 c -0.4,0.7 -0.3,1.9 -0.3,2.8 0.4,-0.4 0.9,-1.5 0.9,-2.2 0,-0.4 -0.2,-0.6 -0.6,-0.6 z"
         id="path3852" />
      <path
         fill-rule="evenodd"
         clip-rule="evenodd"
         d="m 174.9,434.6 c 3.5,0.7 3.9,4.2 7.1,4.2 0.7,-0.4 1.7,0.2 1.6,-1.9 -0.1,-5.3 -6.7,-6.8 -7.7,-7.2 -0.6,0.3 -1.9,0.9 -2.2,1.6 0.8,0 1,2.6 1.2,3.3 z"
         id="path3854" />
      <path
         fill-rule="evenodd"
         clip-rule="evenodd"
         d="m 71.6,439.4 c -1.1,-1.3 -3.2,-3.7 -5.4,-2.6 -0.3,0.9 -0.6,1.9 -1,2.8 2.5,1.6 5,3.2 6.4,-0.2 z"
         id="path3856" />
      <path
         fill-rule="evenodd"
         clip-rule="evenodd"
         d="m 88.6,543.1 c 0.4,0 0.4,0 0.4,-0.2 0,-0.2 -1.5,-0.7 -1.7,-0.7 0,0.7 0.3,0.9 1.3,0.9 z"
         id="path3858" />
      <path
         fill-rule="evenodd"
         clip-rule="evenodd"
         d="m 205.6,412.5 c 0,-2 0.3,-4.5 -1.9,-5 -0.2,0.2 -0.2,0.7 -0.2,1.1 0,1.7 0.6,3.9 2.1,3.9 z"
         id="path3860" />
      <path
         fill-rule="evenodd"
         clip-rule="evenodd"
         d="m 318.9,390.7 c -2.5,-1.5 -3.6,2.3 -2.9,3.8 1.9,0.5 2.2,-1.9 2.9,-3.8 z"
         id="path3862" />
      <path
         fill-rule="evenodd"
         clip-rule="evenodd"
         d="m 272.7,394 c -1.2,5.9 -6.7,3.2 -8.8,7.3 2.4,2 13.1,-3.3 8.8,-7.3 z"
         id="path3864" />
      <path
         fill-rule="evenodd"
         clip-rule="evenodd"
         d="m 265.7,431.8 c 0,0.2 0.2,0.5 0.7,0.5 0.2,0 0.5,0 1,-0.2 0.5,0 0.5,-0.5 0.5,-0.7 0,-0.5 -0.7,-1.2 -1.5,-1.2 -0.2,0.3 -0.7,1.1 -0.7,1.6 z"
         id="path3866" />
      <path
         fill-rule="evenodd"
         clip-rule="evenodd"
         d="m 175.9,429.7 c 0.2,-0.1 0.4,-0.1 0.4,-0.1 -0.5,0 -0.6,0 -0.4,0.1 z"
         id="path3868" />
      <path
         fill-rule="evenodd"
         clip-rule="evenodd"
         d="m 348.6,430.2 c 0.2,0.2 0.5,0.5 0.7,0.5 1.7,0 3.3,-4.4 3.3,-5.6 -1.9,0.3 -4.8,2.5 -4.7,4.6 0,0.3 0.2,0.5 0.7,0.5 z"
         id="path3870" />
      <path
         fill-rule="evenodd"
         clip-rule="evenodd"
         d="m 411.5,491.6 c 0.8,0 0.6,-0.1 0.7,-1 -0.1,-0.1 -0.1,0 -0.3,-0.1 -0.4,0 -0.8,0 -1.1,0.1 0,0.5 0,1 0.7,1 z"
         id="path3872" />
      <path
         fill-rule="evenodd"
         clip-rule="evenodd"
         d="m 364.8,434.8 c -5.1,-2.9 -7.2,5.3 -6,8.2 2.9,-0.9 4.4,-4.6 6,-8.2 z"
         id="path3874" />
      <path
         fill-rule="evenodd"
         clip-rule="evenodd"
         d="m 250.9,410.9 c 0.7,0 1.1,-0.4 1.1,-1.1 0,-0.4 0,-0.7 -1.1,-0.7 -0.7,0 -1.1,0.4 -1.1,0.8 0,0.2 0.4,1 1.1,1 z"
         id="path3876" />
      <path
         fill-rule="evenodd"
         clip-rule="evenodd"
         d="m 349.9,449.4 c -0.6,-1.5 -1.5,-1.3 -3,-1.4 1,1.1 1.5,1.4 3,1.4 z"
         id="path3878" />
      <path
         fill-rule="evenodd"
         clip-rule="evenodd"
         d="m 254.2,434.7 c 0.4,0 0.9,-0.4 1.5,-0.6 0.2,-0.7 0.4,-1.3 1.1,-1.7 v -1.5 c -0.2,0 -0.2,0.2 -0.2,0.2 -0.2,0 -0.4,-0.2 -0.4,-0.4 0,0 0.2,0 0.2,-0.2 -1.5,0.6 -1.8,1.3 -2.9,1.9 0,0.8 0,2.3 0.7,2.3 z"
         id="path3880" />
      <path
         fill-rule="evenodd"
         clip-rule="evenodd"
         d="m 193.7,391.6 c -1.8,-1.2 -1.9,0.9 -3.3,0.5 -0.5,1.2 0.4,1.8 -0.3,3.1 3.4,1.5 5.1,-1.6 3.6,-3.6 z"
         id="path3882" />
      <path
         fill-rule="evenodd"
         clip-rule="evenodd"
         d="m 187.5,390.9 c 0.5,-0.9 2,-2.6 2,-3.6 -1.1,0 -4.4,3.2 -4.4,5.1 h 1.3 c 0,-0.9 0.3,-0.9 1.1,-1.5 z"
         id="path3884" />
      <path
         fill-rule="evenodd"
         clip-rule="evenodd"
         d="m 197.9,437.5 c -0.4,-1.9 -0.8,-4.1 -1.2,-5.9 0,-1.1 0,-2.2 -1.1,-2.2 0.1,6.7 1.1,3 1.2,5.9 l 0.4,-0.4 c 0,0.4 -0.4,1.1 -0.4,1.5 0,0.4 0.3,1.1 1.1,1.1 z"
         id="path3886" />
      <path
         fill-rule="evenodd"
         clip-rule="evenodd"
         d="m 185,418 c 1.1,-0.2 1.7,-0.2 1.7,-0.9 0,-2.8 -1.3,-2.8 -3.2,-4.6 -1.7,0 -1.8,0.2 -1.8,1.9 0.2,0.7 0.8,2 1.3,2.6 0.5,0.4 2,0.2 2,1 z"
         id="path3888" />
      <path
         fill-rule="evenodd"
         clip-rule="evenodd"
         d="m 204.5,416 c 0.5,1.4 0.5,2.9 2,2.9 0.2,0 0.5,-0.2 0.7,-0.2 0.5,-0.2 0.5,-0.5 0.5,-1 0,-0.2 0,-0.5 -0.1,-0.8 0.4,0.2 0.8,0.4 1.2,0.5 0,-0.2 -0.2,-0.2 -0.2,-0.4 0,-0.4 0.6,0.4 0.6,-0.7 0,-1.7 -0.8,-4.1 -3.2,-4 0,0.4 -0.2,0.7 -0.2,1.1 0,0.6 0.2,1.3 0.4,2 -0.6,0.1 -1.2,0.6 -1.7,0.6 z"
         id="path3890" />
      <path
         fill-rule="evenodd"
         clip-rule="evenodd"
         d="m 60.2,574.3 c -1.5,0 -2.2,0 -2.4,1.3 1,0 2.4,-0.6 2.4,-1.3 z"
         id="path3892" />
      <path
         fill-rule="evenodd"
         clip-rule="evenodd"
         d="m 196.5,403.4 c 0,1.1 2.1,2.8 1.9,2.8 0.2,0 0.4,-0.4 0.9,-0.4 -0.4,-0.7 -0.2,-1.3 -0.2,-2.4 0,-1.3 -1.4,-5.5 -3.8,-6.1 -0.2,0.2 -0.6,0.4 -0.7,0.8 0,-0.1 0.4,4.5 1.9,5.3 z"
         id="path3894" />
      <path
         fill-rule="evenodd"
         clip-rule="evenodd"
         d="m 203,401.8 c 0,-0.6 0.2,-0.6 0.2,-1.5 -0.4,0 -0.6,-0.4 -1.3,-0.4 0,1.4 -0.2,1.6 1.1,1.9 z"
         id="path3896" />
      <path
         fill-rule="evenodd"
         clip-rule="evenodd"
         d="m 202,407.9 c -0.2,-0.6 0,-0.4 -0.4,-0.7 0,0.2 -0.2,0.4 -0.2,0.6 0,0.1 0.2,0.1 0.6,0.1 z"
         id="path3898" />
      <path
         fill-rule="evenodd"
         clip-rule="evenodd"
         d="m 249.1,665.7 c 0,-1 -2.3,-2 -3.5,-2.4 0,1 2.4,2 3.5,2.4 z"
         id="path3900" />
      <path
         fill-rule="evenodd"
         clip-rule="evenodd"
         d="m 369.1,537.4 c 0,2 2.3,2.8 3.4,2.7 2.8,0 5.4,-0.4 5.3,-3.2 -1.3,-0.4 -2.4,-1.1 -3.5,-1.4 -0.4,-0.2 -0.7,-0.2 -0.9,-0.2 -1.6,0 -4.4,1 -4.3,2.1 z"
         id="path3902" />
      <path
         fill-rule="evenodd"
         clip-rule="evenodd"
         d="m 381.5,554.5 c 0,-1 0,-1.9 -0.3,-2.9 h -3.8 c -0.5,0.7 -1.4,1.2 -1.4,2.2 0,0.5 2.7,1.4 2.7,1.4 1,-0.3 1.7,-0.3 2.6,-0.3 l -0.2,-0.2 c -0.1,-0.2 0.1,-0.2 0.4,-0.2 z"
         id="path3904" />
      <path
         fill-rule="evenodd"
         clip-rule="evenodd"
         d="m 403.9,504.7 c 0,-1 -0.3,-1.7 -1.2,-2.1 -1.2,-0.5 -1.2,-0.9 -2.7,-0.9 -9.4,0.1 -8.4,4.2 -13.2,4.3 0,2.2 -9.1,4 -9.1,5.2 -6.7,1.8 -6.2,5.4 -7.9,5.6 -1.9,5.1 -4,3.9 -5.9,6.6 -0.8,0 -1.7,0 -2.5,-0.1 -1.5,-3 -4.1,-5.8 -7.1,-8.2 1.6,-2.4 3.5,-5.8 3.7,-5.8 0,0 -0.2,0.2 -0.2,0.5 2.2,0 3.4,-0.8 5.3,-1.5 -0.1,-5.3 -5.8,-1.4 -5.8,-5.7 -0.1,-5.5 5,-2.9 6.2,-6.3 -3.1,0 -5.3,-4 -6.1,-9.3 0.9,-1 1.9,-2.4 2.4,-2.4 0.2,0 0.5,0.2 0.7,0.2 1.4,0 2.6,-5.1 3.1,-5.1 0,-2.2 -1.2,-2.9 -2.9,-2.9 -1,0 -3.1,0.5 -3.6,0.5 -1,0 -3.4,-3.8 -3.4,-5 0,-0.5 0.2,-0.2 0.2,-0.7 0,-1.4 -0.7,-2.2 -0.8,-3.1 0,-1.9 2.4,-3.4 2.6,-3.4 0,-0.2 -0.3,-0.2 -0.3,-0.2 0,-0.2 0.2,-0.5 1.2,-0.5 0,-1.7 -0.3,-2.6 -2,-3.1 0,1 -2.6,1 -3.3,1 -1.9,0 -6.3,-7.4 -7.8,-7.3 0,-0.7 0,-2.6 0.9,-2.7 0,-1.7 0,-2.9 -1.5,-2.9 -1.7,0 -1.9,0.7 -2.9,0.8 -1.2,0 -1.9,-0.5 -1.9,-0.9 0,-1.4 3.8,-4.1 3.8,-5.3 -1.2,0.3 -1.7,1.2 -2.4,1.2 -1.4,0 -1.2,-2.9 -3.6,-2.8 -1.9,0 -4.6,1.5 -6.2,1.5 -0.8,0 -1.3,-0.1 -1.9,-0.2 -0.1,-0.1 -0.2,-0.2 -0.5,-0.2 -0.1,0 -0.2,0.1 -0.3,0.1 -5.7,-1.4 -2.2,-8 -5.6,-8 -1.2,0 -2.1,1.7 -3.1,3.2 -3.1,0 -4.3,-1.6 -4.4,-3.1 0,-1.9 1.1,-4.3 1.1,-6 0,0 2.5,-7.5 2.5,-11.3 -6,0.1 -5.6,16.4 -9.9,16.5 -1.4,0 -1.9,-1.2 -3.1,-1.2 -3.6,0 -2.4,3.2 -6,3.2 -0.7,0 -1.7,-1.2 -2.9,-1.2 0.2,-0.5 0.5,-1.2 0.5,-1.9 0,-1.4 -1,-3.1 -2.4,-3.6 -0.9,2.4 -2.8,7 -6.4,7.1 -2.4,0 -2.4,-3.1 -5.1,-3.1 -1.4,0 -0.2,5.8 -3.3,5.8 -3.4,0 -0.5,-2.9 -4.1,-2.8 -1,0 -1.9,0.5 -1.9,1.2 0,0.5 0.2,1 0.3,1.4 0,1.9 -0.9,5.1 -5.5,5.1 -2.9,0 -2,-2.1 -4.4,-2.1 -0.9,0 -1.3,0.9 -1.8,1.9 -0.6,-0.5 -1.3,-0.9 -2.2,-1.4 -2.2,1.1 -1,2.6 -0.9,4.2 -0.1,0 -0.2,0.1 -0.3,0.1 -3.4,-3.4 -5.1,-6.1 -6.2,-8.1 0,-0.1 0,-0.2 0,-0.3 -0.1,0 -0.1,0 -0.2,-0.1 -1.1,-2.3 -1.5,-3.7 -2.7,-4.2 0,-1.9 -0.8,-4 -1.6,-5.4 1.4,-1.4 1.3,-4.3 -1.6,-5.1 -0.5,0.5 -1.1,1.1 -1.9,0.9 -1.1,1.8 -0.2,2.6 0.3,3.5 -0.6,0.6 -0.9,1.4 -0.9,2 0,2.7 4.9,4.3 5.6,7.2 -0.2,-0.1 -0.4,-0.1 -0.6,-0.2 -2.5,2.2 -0.3,3.6 -1.5,6.6 -1.3,1.8 -4.2,0.3 -5.9,1.2 -3.7,-1.3 -0.4,-6.1 -5.6,-6.7 -3.6,11.7 -14.3,2.6 -21.1,6.3 -0.6,-1.3 -1.3,-2.5 -2.3,-3.6 0.3,0.3 0.5,0.5 0.5,0.6 0.2,0 1.8,-0.6 1.8,-1.5 0,-0.4 -0.2,-0.7 -0.2,-1.1 0,-0.2 0,-0.4 0.4,-0.4 -0.4,-1.7 -4,-5.3 -4.7,-5.3 -0.7,0 -1.3,1.1 -1.8,1.1 0,2 0.9,3.5 1.8,4.6 -1.4,-1 -3.2,-1.9 -5.4,-2.5 -4,1.9 -6.4,2.1 -7.8,4.4 -5.3,9 8.8,18.7 -5.1,23.2 -0.7,-0.4 -1.3,-0.9 -1.7,-1.4 0.4,-3.4 1.4,-6.3 1.3,-9.2 0,-0.5 0,-1 -0.5,-1 -6.2,0.1 -1.8,9.6 -11.4,9.8 -2.4,0 -8.7,0.1 -8.7,-3.7 0,-1.4 0.4,-2.4 0.4,-3.4 0,-1.9 -0.5,-3.8 -2,-5.3 -0.3,-2.6 -0.4,-8.8 -0.7,-14.3 0.2,-0.2 0.2,-0.4 0.2,-0.6 0,-0.6 -0.1,-1 -0.3,-1.4 -0.3,-4.6 -0.9,-8.2 -1.9,-8.2 0.5,2.3 0.7,4.7 0.9,7.3 -0.5,-0.2 -1.1,-0.3 -1.8,-0.3 -0.4,0.7 -0.9,1.1 -0.9,1.7 0,1.7 2.2,1.8 2.8,1.8 0.1,4.5 0.2,9.3 0.7,14 -0.5,1.5 -1.9,3.4 -1.8,6.8 0,1 0.5,1.9 0.5,2.9 0,2.4 -5.2,3.9 -8.6,4 -4.3,0.1 -6.3,-7.6 -7.8,-11.4 0.1,6.7 -2.8,6.3 -2.8,8.2 0,1.4 1,3.8 1,3.8 -0.5,0 -2.7,3.1 -5.1,5.8 -1.6,-0.9 -3.1,-1.9 -4.2,-3.1 -1.7,-0.3 -2.6,-2.3 -3.8,-4.3 0.1,0.1 0.2,0.1 0.2,0.1 h 2.6 c 2.2,0 3.7,-3.6 3.6,-5.4 0,-0.9 -2.8,-4.2 -5.1,-4.2 -2.6,0 -3.8,2.1 -4.2,4.3 -0.7,-1.6 -1.4,-3.1 -2.7,-3.3 -0.9,1.4 0.9,3 1.9,4.3 -0.3,0.1 -0.2,0.5 -0.7,0.5 0,0.3 0,0.6 0.1,0.7 -1.7,-0.5 -3,-1.6 -4.5,-2.6 -0.8,-0.5 -1.2,-1.3 -1.9,-1.8 -0.5,-0.4 -1.2,-0.3 -1.7,-0.7 -2.7,-2 -4.4,-5.9 -7.7,-6.8 -0.9,0.7 -1.5,0.5 -2,1.3 -0.1,4.4 4.7,5.2 7.2,7.1 0.8,0.6 1.5,1.6 2.2,2.5 -0.2,0 -0.3,0 -0.5,0 -1.4,0 -1,1.2 -1.6,1.2 0,1.5 0.4,1.5 1.3,2.5 0.8,0 1.4,-0.1 2.2,-0.5 0,-0.3 0.1,-0.7 0.2,-1.2 0.4,0.4 0.7,0.7 1.1,1 1.5,0.9 3.3,1.7 4.9,2.9 3.5,2.5 6.8,4.9 9.8,8.1 -0.5,-0.2 -1.1,-0.2 -1.6,-0.2 -0.5,0 -1,0.5 -1.6,1 -1.7,-1.9 -3.6,-5.7 -4.7,-5.7 -1,0 -1.9,1.5 -1.9,2.4 0,1.7 1.6,3.1 2.8,4.6 -0.2,0.3 -0.4,0.7 -0.5,0.9 -1.1,-0.2 -1.4,-2.3 -1.6,-2.3 v 0.3 c -0.2,0 -0.1,-0.2 -0.1,-0.8 -1.1,-1.9 -1.6,-2.4 -1.8,-2.4 -0.3,0 -0.4,0.3 -0.4,0.3 0,0 0,0 0,-0.3 0,-0.6 -2.6,-3 -2.6,-3.2 -0.4,-0.3 -0.6,-0.8 -1,-1.2 0.1,-0.7 0.2,-1.3 0.4,-2.1 -1.3,-0.5 -2.1,0 -2.8,0.7 -0.3,0 -0.7,-0.1 -1.1,-0.1 -0.9,0 -0.6,0.6 -1.9,0.8 h 0.1 c 0,0 -0.1,0 -0.2,0.1 -3.3,-2.6 -7.8,-6.7 -10.2,-3 -0.1,0 -0.1,-0.1 -0.2,-0.1 -0.2,-0.2 -0.4,-0.3 -0.5,-0.5 -1,-1.4 0.2,-3.8 -2.3,-4.4 -3.9,6.5 -10.6,7.2 -15.7,11.3 1.6,3.3 -1.7,4.5 -2.4,7.1 -0.2,0.8 -0.3,1.5 -0.4,2.3 -0.4,0.2 -0.7,0.4 -1.1,0.8 0.5,0.8 0.1,1.4 0.4,2.2 0.2,0.1 0.3,0.3 0.5,0.4 0.2,5.9 3.1,10.8 5,16.4 4.8,-0.5 4.3,2.8 7.1,4.8 2.9,-0.7 6.6,0.4 9.9,0.6 3.4,0.7 6.8,1.9 6.8,5 0,0.7 -0.2,1.1 -0.4,1.9 -0.9,0.5 -1.6,1.2 -2.2,1.8 -0.1,-0.6 -0.3,-1.1 -0.9,-1.1 0,0.4 0.2,1.7 -0.3,1.7 0.1,0.4 0.2,0.5 0.3,0.7 -0.4,0.6 -0.6,1 -0.7,1 0,0 0,0 0,-0.4 -0.1,0.3 -0.3,0.6 -0.4,0.8 -0.3,0.3 -0.5,0.8 -0.6,1.4 -0.3,0.7 -0.4,1.1 -0.4,1.1 0.4,1.5 0.8,2.6 0.8,3.7 0,0.7 0,1.1 -0.7,1.1 0.9,2.1 1.1,5 1.2,6.3 0,0.4 -0.3,1.1 -0.3,1.4 0,0 0.1,0 0.1,0.1 0,0 0,0 0,0 0,0 0,0 0,0 -1.8,0 -2.2,1 -2.5,2.2 -0.7,-1.2 -1.1,-2.7 -2.3,-2.6 -0.7,0.7 -1.5,1.5 -2.2,1.5 -2.2,0 -3.7,-1.8 -5.6,-1.8 1.9,1.6 3.7,4 5.9,5.2 -0.1,0.3 -0.2,0.5 -0.2,0.8 0,0.2 0,0.4 0.1,0.6 -6.1,0.3 -3.3,6.4 -6.2,7.8 0,-0.2 -0.2,-0.4 -0.4,-0.4 -0.9,0 -2.9,1.2 -3.5,1.2 0.4,0.4 0.7,0.2 0.7,0.4 0,0 -0.2,0.2 -0.4,0.7 1.5,1.4 2.2,2.7 2.7,3.6 0,0 -0.1,0.1 -0.1,0.1 0.1,0.1 0.2,0.3 0.2,0.6 -6.8,-0.6 -13.6,-1.3 -20.4,-2.1 0.3,-0.3 0.5,-0.5 0.5,-0.8 -1.3,-0.4 -2.8,-1.1 -4.3,-1.1 -0.4,0 -1.8,0.6 -2.4,1.2 -4.5,-0.5 -8.9,-1.1 -13.3,-1.7 -0.6,-0.1 -1,0.2 -1.3,0.5 -1.3,-0.5 -2.4,-0.8 -2.3,-0.7 -0.6,0.9 -2.4,-0.1 -2.4,0.8 -0.1,0 -0.3,-0.1 -0.4,-0.1 -3.7,0 -4.8,5.8 -5.2,6.1 0,3.2 1.1,6 1.4,6 0.1,0 0.1,-0.1 0.1,-0.3 0,1.2 1.4,1.9 1.5,2.1 0,0 0.1,-0.1 0.2,-0.1 0.1,0 0.3,0.6 0.4,0.6 0.1,0 0.1,0 0.1,-0.1 0.6,0 3.5,0.9 3.5,1.9 0,0.5 -0.2,1.2 -0.2,1.5 0.4,0.1 1.3,1.7 1.4,1.7 0.1,0 0.1,0 0.1,-0.1 0,2.6 2.9,2.9 3,2.9 0,0.5 0.4,0.5 0.9,0.5 0.6,0 1.4,-0.4 2,-0.4 0.4,0 0.9,0.1 1.3,0.1 0.3,0 0.5,-0.1 0.6,-0.1 0.1,0 3.1,-1.4 3,-2.7 0,-0.1 -0.1,0 -0.1,-0.1 0,0 0.1,-0.1 0.5,-0.4 0.5,-0.4 0.6,-1.2 1,-1.2 0,-1.7 -0.5,-2.8 -0.6,-4.3 v -1 h -0.3 c 0,-0.2 -0.2,-0.3 -0.4,-0.5 9,0.5 18,1.1 26.9,1.8 -0.1,0.6 -0.2,1.1 -1,1.1 -0.3,0 -1.6,3.3 -1.6,5 0,0.5 0.1,0.9 0.5,0.9 -0.1,0.7 -0.1,1.5 -0.3,2.1 -0.6,0.3 -1.2,0.6 -1.3,0.7 -0.3,-0.1 -0.5,-0.3 -1,-0.3 -1.1,0.2 -1.1,0.6 -1.1,1.5 0.1,-0.1 1.8,-0.9 3.2,-1.3 -0.3,0.8 -0.8,1.4 -1.8,1.7 -0.4,0.1 -3.6,0.6 -3.6,0.7 v 2.2 c -0.8,0.5 -1.5,0.9 -2,1.5 -2.3,0.9 -4.4,1.9 -6.5,1.9 0,0.9 0.2,1.1 0.8,1.1 0.4,0 0.7,-0.2 1.5,-0.2 0.6,-1.8 2.7,-1.8 4.4,-1.9 0.9,0.6 1.3,2.8 1.3,4 0,1.4 -1.2,3.2 -1.2,4.6 0,3.6 3.6,2.8 4.2,4.8 0.9,0 1.2,0.8 1.4,1.9 -0.7,0.2 -3.4,1.5 -3.7,3.3 0.8,-0.1 2.5,-1.4 3.8,-2.6 17.5,-5.4 2.7,3.2 14.5,2.1 0.5,0 0.9,0.2 1.3,0.4 0.2,0.4 0.6,0.6 1.4,0.6 0,0 0,0 0,-0.1 0.1,0 0.1,0 0.2,0 0.6,0 0.7,-0.6 0.7,-1.3 1,-0.9 2.6,-1.6 3.6,-1.6 0.2,1.9 0.6,2.8 3,2.7 0.6,0 1.1,0 1.1,-0.6 0,0.6 2.2,0.5 2.3,2.4 0,1.5 -0.9,2 -0.9,4.1 0,0.7 0.2,1.3 0.6,1.3 0,2.6 -0.6,4.4 -1.3,5.8 -1.8,-0.4 -3.6,-0.7 -4.5,0.2 0.5,1.3 2.3,1.1 3.9,1 -0.6,0.9 -1.2,1.8 -1.5,2.6 -0.6,0.2 -1.2,0.4 -1.8,0.7 -0.8,0.3 -1.8,0.2 -2.5,0.5 -0.6,0.2 -0.9,0.8 -1.5,1 -3.2,1 -7.3,0.2 -10,2.3 0,1.1 -0.5,1.5 -0.1,2.4 3.5,2.7 7,-0.8 10,-1.7 2.2,-0.7 5.4,0 7.3,-0.8 1.6,-0.7 3.3,-1.7 5.2,-2.3 4.5,-1.6 8.9,-3 13.8,-3.4 0.1,0 0.3,0.1 0.5,0.1 v -0.2 c 1,-0.1 2,-0.1 3.1,-0.1 -0.8,-0.8 -2.1,-0.5 -3.1,-0.7 v -0.6 c 1,-0.4 2.3,-0.3 3.2,0.2 4.4,-1.5 10.8,1.8 13.9,-2.2 2.7,-1.3 5.9,-1.8 8.7,-2.9 0.4,0.6 0.6,1.1 1.4,1.1 0.1,0 0.2,0 0.4,0 0,0.7 0.4,1.2 0.9,1.4 0.6,0.2 1,0.1 1.2,-0.2 0,0 0,0 0.1,0.1 -0.1,0.2 -0.1,0.6 -0.1,1 0.4,0.1 0.3,1.3 1.2,1.5 0.1,-0.4 0.2,-0.8 0.2,-1.2 0,0 0,0 0.1,0.1 0.3,0.9 0.4,1.7 0.4,2.4 -1.2,0.5 -2.4,1.1 -3.5,1.5 -5,1.3 -7,5.3 -12.6,6.1 -1.1,0.8 -4,2.4 -1.8,4 4.6,-1 5.8,-5.1 10.8,-5.7 1.2,-1.1 3,-2.5 4.8,-2.3 0,0.5 -0.1,0.9 -0.2,1.3 -0.4,0.4 -0.8,0.7 -1.2,1.1 0,0.3 -0.1,0.6 -0.1,1 -0.5,0.5 -1,1.1 -1.3,1.7 -4.6,3.5 -8.2,8.8 -13.6,10.9 -1.2,1.4 -3.4,1.9 -3.8,4.1 1.3,2.7 3.2,0.6 5.3,-1 2,-1.5 3.8,-4.8 6.6,-4 0,0.3 0.1,0.6 0.2,0.8 -0.6,1.3 -2.5,1.4 -3.5,2.3 -0.4,2.3 1.5,2.3 2.4,2.1 -3.1,1 -5.6,3.5 -8.7,4.6 -0.8,0.3 -1.7,0.2 -2.5,0.5 -2.6,0.9 -4.5,2.7 -7,3.8 -2.1,0.9 -4.2,1.6 -6.2,2.6 -0.4,0 -0.8,0 -1.2,0 -0.4,0.6 -1.2,0.9 -2.3,0.9 -5.4,3.1 -12.1,4.9 -18.1,7.5 -0.7,1.2 -2.3,1.6 -1.8,4 0.9,0 1.2,0.8 2,0.9 2.1,-0.7 4.5,-1.2 6.2,-2.2 1.8,-2.9 6,-3.5 9.5,-4.8 3.2,-1.9 7.1,-4.3 11.7,-4.3 0.7,-1.1 2.1,-0.7 3.3,-1.1 2.2,-0.6 3.8,-2.5 5.8,-3.3 1,-0.4 1.6,0.1 2.4,0.1 3.2,0.2 6,-2.5 9.6,-2.1 0.7,-0.2 1.5,-0.3 2.3,-0.4 0,0.3 0,0.6 0.1,1 0.4,-0.2 0.9,-0.5 1.5,-0.7 0.1,0.1 0.2,0.1 0.3,0.2 0.5,0.2 1.1,-0.1 1.6,-0.1 0,0.1 0.1,0.2 0.1,0.3 0.2,0.1 0.5,0 0.8,-0.1 0.4,0.3 0.5,0.7 0.4,1.1 -0.9,1.1 -1.4,1.1 -2,0.9 -0.3,-0.1 -0.5,-0.3 -0.7,-0.4 -0.2,-0.1 -0.4,0 -0.7,0.6 -0.1,0.4 -0.2,0.9 -0.2,1.2 0.9,0.3 1.8,0.3 2.2,-0.5 0.1,-0.2 0,-0.3 0.1,-0.6 0.2,-0.5 2,-0.1 2.3,0 0.4,0.1 0.6,0.3 0.8,0.6 -0.3,0.2 -0.1,0.8 -0.3,0.9 -4.4,1 -9.6,-0.6 -13.7,1.8 -0.8,-0.1 -1.7,-1 -2.4,-0.5 0.3,2.1 2.7,3.4 4.3,3.6 3.4,0.5 7.7,-1.4 11.3,-1.9 0,0.1 0,0.3 0,0.4 -0.3,-0.1 -1.2,0.7 -1.4,1.4 1,0.3 2.1,-0.7 3,-1.9 0.8,0 1.6,0.1 2.3,0.4 0.7,0 0.3,-1 0.9,-1 0.4,0 0.8,0 1.1,0 0.2,0.3 0.3,0.5 0.4,0.5 -0.7,0.8 -1.7,2.9 -2.1,4 0.5,0.2 2,-2.6 2.6,-3.4 0.4,0.1 0.5,0.5 0.4,0.9 -0.2,0.5 -0.9,0.5 -1,0.9 -0.1,0.4 -0.2,0.8 -0.3,1.1 -0.3,0.8 -1.3,0.5 -1.7,1.4 -0.2,-0.2 -0.2,-0.3 -0.3,-0.4 -0.5,-0.2 -1,1.1 -1.2,1.8 -0.1,0.3 0.1,0.6 0.1,0.6 0.2,0 1.1,-1.5 1.2,-1.4 0.1,0 0.1,0.1 0,0.3 0.8,0 4,-2.9 4.2,-2.9 1.1,0.4 2.1,-0.2 2.9,0.1 0.1,0 1.6,2.3 1.5,2.3 0.1,0 0.1,-0.1 0.2,-0.3 l 0.4,0.1 c 0,0.3 0,0.7 0.1,1 -0.1,0.1 -0.2,0.2 -0.3,0.3 -0.1,0.3 0,0.7 -0.1,0.8 0.9,0.2 1.5,0.3 1.9,-0.4 0.4,0 0.9,-0.1 1.4,-0.1 -0.1,0.7 -0.2,1.3 -0.4,1.8 1.7,0.2 2.6,-1.9 2.8,-1.8 0,0 0,0 0,0.1 0.1,-0.2 0.3,-0.4 0.6,-0.7 0.9,-0.7 1.7,-1.7 2.7,-2.2 0.3,-0.2 0.6,-0.2 1,-0.3 0.2,0 0.4,0.1 0.6,0.1 0,0.3 -0.1,0.7 -0.2,1.1 -1,-0.4 -2,2.3 -2,2.2 -0.3,0.7 -0.3,1.3 0.8,1.7 0.8,0.3 1.5,0.3 2.5,-0.2 1,-2.9 -1.3,-2.9 -0.8,-5.2 0.3,-0.1 0.6,-0.1 0.8,-0.2 0.2,-0.1 0.4,-0.2 0.6,-0.3 0.7,0.2 1.2,0.4 0.8,1.3 -0.1,0.3 -0.9,0.5 -1,0.8 -0.1,0.4 0.4,1.2 0.3,1.6 1,0 1.8,-0.3 2.3,-0.7 0.1,0.4 0.2,0.9 0.3,1.3 -0.1,0.2 -0.3,0.3 -0.4,0.5 0.3,0.1 0.1,0.3 0.3,0.6 0,-0.1 0.1,-0.2 0.2,-0.3 0.2,0.8 0.3,1.7 0.3,2.5 -0.1,0.6 -0.1,1.3 0.1,1.8 0.1,3.9 -0.4,8 -0.5,11.8 0,0.8 -0.5,1.8 -0.6,2.7 -0.1,1 0.4,1.9 0.3,2.8 -0.2,1.4 -1.2,2.8 -1.3,4.2 0.9,2 0.7,3.7 1.7,4.6 3,0.5 2.7,-2.8 2.8,-4.7 0.7,-0.2 1,0 1.5,-0.5 0.1,-1 -0.2,-1.3 -0.6,-2.5 -0.4,-0.1 -1,0.2 -1.2,0 -0.7,-2.5 0.3,-4.4 -0.3,-7.3 1.3,-6 1.5,-13.1 2.3,-19.5 1.2,0 2.4,0 2.8,-0.2 0,0 0.1,0.1 0.1,0.1 -2.4,6.1 -1.6,14.2 -1,22.1 0,0.1 0,0.2 0,0.3 -0.1,0 -0.3,0 -0.4,0 0,0.3 0,0.5 0,0.8 0.2,0 0.3,0 0.5,0 0.4,3.4 1.5,6.7 1.8,9.7 0.2,2.3 0.8,5 1.8,7.3 0.2,0.6 -0.9,0.6 -0.6,1.2 2.9,3.3 1.3,10.5 3.6,14.8 0.8,1.4 2.8,3.2 4.8,2.8 0.2,-0.8 -0.9,-1.4 -1.3,-2.1 0.9,-4.7 -2.4,-9 -3,-13.5 0.1,-0.2 0.9,-0.2 0.7,-0.9 -0.4,-0.9 -0.4,0.3 -0.9,0.3 -1,-2.5 0.5,-3.8 0.3,-5.9 0.7,-0.3 1.6,0.3 2.1,-0.5 -0.4,-1.3 -1.3,-1.7 -2.3,-1.9 -0.2,-1.2 0.8,-2.8 2.2,-2.2 0.4,6.1 3.9,12.3 4.4,17.8 1.6,3.2 0.1,6.7 1.3,9.7 0.3,0.7 1,1.1 0.9,2.2 -0.1,2.2 -1.3,4.3 -1.2,6.6 0.1,1.3 0.9,2.4 0.1,3.5 1.5,4.3 0.7,8.8 -0.1,12.4 0,3.7 0.8,7.9 -1.3,10.6 -0.4,2 0,4.4 0.1,6.6 0.4,0.7 1.2,0.7 1.5,1.6 2.4,-0.3 2.2,-2 3.1,-3.1 0.3,-6.5 -0.2,-13.4 0.8,-19.5 -0.5,-1.1 -0.4,-1.9 0,-2.5 -0.1,-0.4 -0.2,-0.8 -0.4,-1.1 0.2,-2.2 0.2,-4.4 0.3,-6.7 0.1,-2.7 1.2,-5 1.2,-7.8 0,-0.9 -0.4,-1.7 -0.4,-2.6 0,-3.3 1.5,-6.5 1.4,-9.8 0.1,1 0.7,2.8 2.8,1.6 0.5,-1.2 0,-3 1,-4 0.2,0.1 0.5,0.1 0.8,-0.1 1.8,2.3 -0.7,5.2 -1.5,7.5 -0.8,2.5 -2.1,5 0.9,5.3 1.8,-1.1 1.6,-3.4 2.5,-5 0.1,-5.8 3.9,-11 5.6,-16.5 1.2,-1.5 1.5,-3.4 3.8,-4.3 0.8,1.7 0.1,3.9 -0.5,5.3 1.2,4.9 -2.3,7.5 -1.6,12.1 2.3,1.5 2.7,-1.7 3.1,-3.1 -1.1,-5.3 1.7,-8.6 1.5,-13.5 0.5,0.6 1,1.2 1.2,1.8 l 0.8,0.3 c -0.1,0.2 -0.1,0.3 0,0.3 0.2,0.1 0.6,-0.1 0.7,-0.1 0.1,-0.7 -0.3,-1 -0.7,-1.5 0.2,-0.5 -1,-0.6 -0.8,-1 -0.6,-0.2 -0.9,-0.7 -1.2,-1.2 0.3,-4.3 0.8,-9.5 -1.3,-13.6 0.6,0.6 1.3,1 2,0.8 0.4,-1.1 -0.4,-5 -1.9,-5.7 0.2,-0.8 0,-1.8 0.3,-2.3 0.6,-1.6 2.6,-3.4 3.5,-5.7 0.4,-1.1 0.6,-2.5 1.3,-3.7 0.2,-0.3 0.3,-0.7 0.5,-1 0.3,0.3 0.6,0.5 1,0.6 1.1,0.4 2.3,0.6 2.6,-0.4 -0.9,-0.5 -1.7,-1.2 -2.7,-1.7 -0.1,0 -0.3,-0.1 -0.4,0 0.2,-0.6 0.4,-1.2 0.6,-1.7 0.3,-0.7 1,-1.9 1.7,-2.9 0.8,0.3 0.7,0.8 1.2,1 1.1,0.4 1.3,-0.5 2.1,-0.2 0.8,0.3 1,0.3 1.2,1.1 0.3,0.1 0.6,0 0.8,0 0.8,3.7 0.1,7.7 -0.9,10.9 0.4,3 0.7,5.6 2.4,7.9 -1.5,1 -1.4,3 -1.8,4.5 -1.3,-1.3 -0.9,-4.7 -3.2,-4.7 0,3 1,6.5 1.8,10 -1,0.1 -0.7,-1.4 -1.8,-1.7 -1.5,1.1 0,2.8 0.1,4.1 0.1,1.2 -0.7,1.8 -0.9,3 -0.6,3.5 0.5,7.4 0.1,11 -2.7,4.3 2.5,9.1 2.7,13.8 0.9,0.9 1.5,2.4 1.2,3.7 -1.2,-0.7 -1,-2.6 -2.3,-3.2 2.4,6.1 2.6,11.7 2.7,17.6 0,2.1 -0.3,4 -0.4,5.7 -0.1,2 1.6,4.8 1.7,7.1 0.2,3.1 -1.9,7.6 1.8,10 1,0 1.1,-0.6 2.2,-0.9 1.1,-3.2 -1.1,-6.8 -1.3,-10.1 0,-0.6 0.4,-1.1 0.4,-1.8 0,-0.8 -0.5,-1.7 -0.4,-2.6 0.1,-2.1 -0.1,-4.3 0.8,-6.3 1.5,0.7 1.1,5.2 3.4,5.3 0.8,-1.9 -1.8,-4.6 -2.8,-6.7 -0.3,-0.6 -0.6,-1.4 -0.9,-2.2 -0.9,-2.3 -2.4,-4.5 -1.6,-6.1 -0.8,-3.4 0.3,-7.6 0.4,-10.9 0.1,-2.5 -0.3,-4.8 1.8,-6.4 0.4,-1.3 0.2,-2.3 -0.1,-4.1 -0.7,-5 0.4,-9.8 0.3,-14.8 0.4,-0.9 0.8,-1.8 1.7,-2.4 2,0.9 2.3,5.1 4.8,5.1 -0.4,-3.1 -4.9,-4.3 -4.4,-7.7 0,-0.3 0.5,-0.5 0.6,-0.8 0,-0.4 -0.4,-0.4 -0.4,-0.7 -0.1,-0.9 0.9,-5.4 1.8,-6 -0.2,-0.5 -0.4,-1 -0.2,-1.4 1.7,-3.3 1.3,-6.9 -0.3,-10.9 -1,-2.5 -2,-5.8 -1.1,-7.7 -0.2,-0.9 -0.3,-1.8 -0.2,-2.6 0.1,0 0.1,0 0.2,0 0.2,0.1 0.4,0.3 0.7,0.4 0.2,0.1 0.5,0.1 0.6,-0.2 0.2,-0.6 -0.3,-1.1 -0.2,-1.4 0.1,-0.3 0.3,-0.6 0.5,-0.8 1.6,1.7 3.3,3.3 5,4.9 0,0 0,0 0,0.1 -0.4,1.2 -0.2,2.1 0.4,2.6 -0.1,0 -0.1,-0.1 -0.2,-0.1 -1.6,-0.6 -4.1,-0.9 -4.7,-0.2 0.3,0.1 0.4,0.4 0.8,0.5 0.1,-0.1 0.1,-0.2 0.3,-0.1 0.3,0.1 0.1,0.3 0.2,0.3 0,0 0.1,0 0.2,-0.2 l 0.8,0.3 c 0.7,0.3 0.8,0.5 1.4,0.7 0.9,0.3 1.1,0.2 2.1,0 0.1,-0.4 0.2,-0.5 0,-0.7 0.2,0.1 0.5,0.2 0.7,0.3 1.4,0.5 2.4,-0.6 2.9,-2.2 -0.1,0 -0.2,-0.2 -0.2,-0.4 2.3,-0.4 3.9,1.4 6.8,2 2,-1.7 0.4,-3.4 2.4,-4.7 2.3,-1.4 5.5,0 5.4,2.6 3.1,-1.8 8.4,0.5 10.6,3.6 -0.7,1.8 -3.3,-0.3 -3.3,2.8 4.3,-2.3 8.1,-0.3 10.9,2.7 0.3,1 0.6,2 1.4,2.8 -0.1,0.7 -0.6,1.1 -0.1,2.1 0.3,0.6 0.9,0.7 1.6,0.5 -0.1,1.2 1,1.8 1.5,2.6 0.6,1.1 1.1,2.4 1.5,3.7 -1.3,3.4 -0.6,8.4 2.1,9.3 0.8,0.3 1.7,0.2 2.5,0 0.3,0 0.6,0 0.9,-0.2 0.4,-0.2 0.6,-0.4 0.8,-0.7 3.7,-2.8 5.2,-9.9 -3.1,-11.4 -0.3,0.1 -0.7,0.2 -1,0.3 -0.5,-1.2 -1.1,-2.5 -1.6,-3.8 4.2,-0.7 7.3,-3.8 11.6,-4.5 2.8,0.7 1.1,5.6 4,4.5 0.1,-3.6 2.7,-6.5 7.1,-7.1 2.9,0.7 3,2.8 5.9,3.6 3,-2.5 -0.1,-4.3 -0.9,-6.6 2.3,0 3.7,-1.2 4.7,-2.9 2.3,1.9 4.6,3.9 6.9,5.7 1.2,0.9 3,-0.6 2.3,-1.9 -2,-3.5 -4.3,-6.5 -7,-9.2 1.2,-3.4 2.7,-6.6 6.6,-6.2 1.1,-2.9 -2.7,-3.4 -0.9,-6.6 0.8,-3.5 5.1,0 5.9,-3.5 -1.9,-1.6 -4.1,-0.6 -5.2,-3.3 0.1,-0.1 0.1,-0.3 0.2,-0.4 0.4,-0.3 0.6,-0.7 0.7,-1.1 l 4,2 c 1.5,0.7 2.5,-1.2 1.7,-2.3 0,-0.6 -0.2,-1.2 -0.9,-1.5 -1.6,-0.9 -3.3,-1.7 -4.9,-2.6 -0.7,-1.5 -1.9,-2.9 -1.7,-4.9 1.6,1.1 3.2,2.5 3.8,2.5 0,0.5 0.5,1 0.5,1 0,-0.2 -0.8,-2.2 -1.7,-4.1 1.6,0.2 3.4,0.7 4.6,0.2 -0.1,-0.5 -0.3,-1 -0.6,-1.4 h 1.8 c 0.9,-0.1 3.2,-3 3.3,-3.5 2.3,-1.2 0.4,-5.8 3.8,-5.8 0.6,0 1,0.4 1,0.9 0.6,0 2.2,-0.3 2.2,-1.2 0,-0.9 -0.9,-1.5 -0.9,-2.3 1.4,-2.6 1.6,-3.1 1.6,-3.9 l -0.1,-4.4 c 0,-0.3 -0.3,0 -0.3,-0.3 0,-0.7 -0.2,-1.3 -0.5,-1.8 1,0 2.3,-0.1 2.8,-1 -0.5,-0.5 -1,-0.5 -1.4,-0.5 -0.7,0 -1.5,0.1 -2.1,0.3 -0.8,-0.9 -1.7,-1.4 -1.7,-1.4 -0.3,-0.9 -1.9,-1.3 -2.5,-1.9 -0.5,0 -1,0.1 -1.5,0.3 l -1,-0.1 c 1.2,-0.7 2.5,-1.6 3.3,-2.4 -1.5,-0.5 -4.8,-0.4 -5.3,-0.9 -0.2,-0.3 -0.3,-0.7 -0.5,-1 0.9,-0.3 1.6,-0.6 2.5,-0.1 4.2,-1.9 8.7,-1.4 12.4,-1 3.7,-0.3 7.8,-1.4 10.6,0.4 2,0.2 4.4,-0.4 6.6,-0.6 0.7,-0.5 0.6,-1.3 1.4,-1.7 -0.5,-2.4 -2.2,-2.1 -3.3,-2.9 -6.5,0.2 -13.3,1.3 -19.5,0.8 -1,0.6 -1.8,0.6 -2.5,0.2 -0.4,0.2 -0.7,0.3 -1.1,0.5 -2.3,0 -4.4,0.2 -6.7,0.3 -0.2,0 -0.4,0 -0.6,0 0.9,-3.2 3.5,-4.7 3.4,-5.9 0,-2.4 -4.3,-0.9 -5.8,-2.3 -1.5,-2.4 -2,-5.3 -3.5,-8.1 1.6,-1.6 4.2,-2.6 5.6,-4.6 0.6,0.2 1.2,0.4 1.9,0.4 l -0.2,-0.2 c 0,-0.2 0.4,-0.2 0.6,-0.2 -0.3,-0.9 -1,-1.7 -1.8,-2.1 -0.2,-0.4 -0.6,-0.6 -1.2,-0.6 -0.7,0 -1.2,0.2 -1.5,0.5 0,0 0,0 -0.1,0 0,0 0,0 0,0.1 -1.4,1.3 -1.2,4.3 -4.6,4.3 -1.9,0 -2.6,-0.6 -3,-1.4 1.6,-2.4 3.5,-4.2 5.4,-6.2 5.5,2.7 8.3,0.2 12.5,0.3 0.3,-4.1 -5.6,-1.8 -6.8,-5.5 -3,-0.9 -4.5,1.3 -6.9,1.6 0,-0.7 0,-1.3 0.2,-1.9 2.9,-0.6 5.9,-0.9 8.9,-1.2 1.8,-0.2 3.4,-0.1 5,-0.1 1.9,0.9 3.7,3.1 5.8,3.1 4.1,-0.1 5.5,-5.1 5.7,-5.4 v 0 c 1.2,0 2.5,0 3.6,-0.4 v 0.3 c 0,0.3 0.1,0.1 0.3,0.1 0,0 0.1,1.2 0.1,1.4 2.8,0 1.9,1.9 4,1.9 3.7,0 3,-3.5 4.4,-4.2 -0.3,-1.5 -0.9,-2.7 -1.6,-3.4 -0.9,-0.9 -1.8,-1 -2.8,-1 -0.8,0 -2,0.2 -3,0.7 0,0 0,-0.1 -0.1,-0.1 -2.3,-0.6 -4.7,0.5 -7,1.3 -0.5,0 -1.1,0 -1.6,-0.1 0,0.6 -0.9,0.4 -1.5,0.9 -0.6,0.1 -1.2,-0.3 -1.8,-0.3 -0.3,0 -0.7,0.1 -1,0.3 -2,-0.5 -3.8,-1 -5.3,-1.5 1.3,-0.5 2.5,-1.1 2.5,-2.3 -1.3,-0.4 -2.8,0.7 -4.3,1.8 -1.8,-0.5 -3.2,-1 -4.4,-1.3 2,-2.4 3.8,-5 4.4,-7.8 0.3,-1.5 0.3,-2.9 0.1,-4.3 0.6,-0.4 0.9,-0.7 1,-0.7 6.7,-2.2 7.4,-7.1 16.2,-8.9 6.7,-1.3 8.6,-3.7 9.3,-3.7 2.4,0 3.6,-2.4 5.5,-2.5 1.4,0 2.9,0.4 4.3,0.4 3.1,-0.8 4.8,-3.7 4.7,-7.1 z M 250.1,707.3 c -1,-2.4 -3.4,-7.1 -2.6,-9.7 1.7,2.9 2.7,7.1 2.6,9.7 z m 2.4,-261.4 c 0,0.3 -0.1,0.5 -0.1,0.8 -0.1,-0.3 -0.2,-0.7 -0.3,-1 0,0.1 0.2,0.2 0.4,0.2 z m -0.6,-2.9 c 0,0.4 -0.1,0.9 -0.2,1.3 -0.1,-0.5 -0.1,-1 -0.1,-1.4 0.1,0 0.2,0.1 0.3,0.1 z M 147.3,599.3 c -0.3,-0.5 -0.5,-0.8 -0.5,-0.8 0,-0.6 -0.5,-1.3 -1.1,-1.9 0.2,-0.2 0.5,-0.4 0.7,-0.7 1.1,0.9 2.2,1.9 3.2,2.6 -0.6,0.3 -1.4,0.6 -2.3,0.8 z m -11,0.6 c -0.2,0.2 -0.4,0.5 -0.9,0.5 0.2,-0.2 0.5,-0.3 0.9,-0.5 z M 98,557.7 c 0.5,-0.1 0.9,-0.2 1.1,-0.4 0,0.1 0,0.2 0,0.3 -0.2,0.1 -0.4,0.1 -0.6,0.1 -0.2,0 -0.4,0 -0.5,0 z m 47.5,41.8 c 0.1,0.1 0.1,0.2 0.2,0.2 -0.1,0 -0.1,0 -0.2,0 0,0 0,-0.1 0,-0.2 z m -7.8,-124.7 c 0.3,0 0.7,0 1.2,0.1 -0.4,0.2 -0.7,0.4 -1,0.4 -0.2,-0.1 -0.3,-0.2 -0.5,-0.4 0.1,-0.1 0.2,-0.1 0.3,-0.1 z M 89.1,556 c 0.1,0.6 0.6,0.9 1.2,1 -4.7,-0.4 -9.3,-0.7 -14,-1 0,0 0,-0.1 0,-0.1 0,-0.7 -0.3,-0.8 -1,-1.3 0.7,0 1.1,0.2 1.2,0.5 0.2,-0.1 0.5,-0.3 0.7,-0.3 0.1,0 -0.1,0.3 0.3,0.3 0.1,0 0.1,-0.4 0.1,-0.5 -0.9,-0.4 -1.8,-0.5 -2.7,-0.7 -4.2,-0.5 -4.9,-1.1 -7.2,-1.3 0,2.6 4.1,2.2 6.7,2.2 -0.5,0.2 -0.7,0.5 -0.7,1 0,0.1 0,0.2 0,0.3 -3.2,-0.2 -6.4,-0.4 -9.6,-0.6 -0.3,0 -0.5,0.1 -0.7,0.2 -0.3,-1.3 -2.5,-3.1 -2.6,-5.2 0,-0.1 0.1,-0.4 0.1,-0.5 0,0 -0.2,0 -0.5,-0.2 12.8,2.4 25.7,4.5 38.6,6.1 0,0.1 0,0.1 0,0.2 0,0.4 0,0.8 0,1.2 h -0.5 c -1,0 -1.6,-0.1 -1.8,0.4 -1.5,-0.1 -3,-0.3 -4.4,-0.4 -0.3,-1.1 -1.9,-1.7 -3.2,-1.3 z m 25.9,55.9 c 0.3,-0.6 0.5,-1.2 0.7,-1.9 0.6,0 1.1,0.1 1.4,0.4 -0.6,0.6 -1.3,1.1 -2.1,1.5 z m 22,-7.1 c -1,0.4 -1.9,0.9 -3,1.4 0,-0.1 -0.1,-0.2 -0.3,-0.2 -0.1,0.2 -0.1,0.3 -0.1,0.5 -2.2,1.1 -4.4,2.2 -6.7,2.5 -1.3,1.3 -3.8,0.7 -6.3,0.6 -0.8,0 -1.7,-0.1 -2.4,-0.1 -0.7,-0.1 -1.5,-0.2 -2.2,-0.4 0.5,-2 0.7,-3.9 1.2,-3.9 0,0 2.1,-7.1 4,-7.1 0.6,0 0.9,0 0.9,0.4 0.5,-0.2 0.9,-0.2 1.5,-0.4 0,0.7 1.3,1.1 1.5,1.1 2.8,0 7.3,6.2 8.2,6.2 0.6,0 0.9,-0.4 1.2,-1.1 0.7,0.3 1.6,0.4 1.9,0.4 1.3,0 2.6,-0.2 2.9,-2 -0.3,0 -0.4,-0.1 -0.4,-0.3 0,-0.5 0.5,-1.2 0.6,-1.4 -0.5,-0.1 -1.2,-0.1 -1.7,-0.1 -1.1,-0.1 -0.5,-0.9 -1,-1.1 1.4,-0.4 3.2,-0.5 3.7,-0.5 0.2,0 0.5,0.3 0.7,0.7 0,0.4 0.2,0.7 0.4,0.9 0.1,0.2 0.2,0.5 0.3,0.7 -0.7,1.9 -2.7,2.4 -4.9,3.2 z m 2.5,3.7 c 1.2,-0.5 2.8,-0.9 4.5,-1 0.5,1.2 1.1,1.7 1.4,-0.1 1.4,-0.1 2.8,0 4.1,0.2 -2.1,1.6 -7.4,1 -10,0.9 z m 29.3,13.9 c -1.4,0.8 -2.7,1.7 -2.8,2.2 -0.3,1 -0.1,0.9 0,1.1 -1.3,-0.2 -2,0.8 -2.7,0.5 0.1,-0.3 -0.2,-0.4 -0.4,-0.4 0,-2.9 3.8,-4.7 5.9,-3.4 z m -14.1,12.1 c -0.1,-0.9 1.5,-2.7 2.7,-2.1 -0.4,1.2 -1.9,1.3 -2.7,2.1 z m 11.7,10.7 c 0.4,0.1 1.3,-0.5 2,-0.4 0,0.1 -0.1,0.2 -0.1,0.3 -0.6,0.4 -1.4,0.6 -2.5,0.6 -0.1,-0.2 0.1,-0.4 0.2,-0.5 0.2,-0.1 0.3,-0.1 0.4,0 z m 42.9,26 c -0.3,1.1 -1.4,2.5 -1,3.4 -1.4,0 -2.4,-0.8 -3.7,-1.1 -0.7,-1.1 -0.8,-2.2 -0.7,-3.4 0.4,0 0.6,0.1 0.7,-0.4 0,-0.2 0,-0.5 -0.3,-0.6 0.1,-0.4 0.1,-0.9 0,-1.5 0.2,-0.7 0.3,-1.4 0.5,-2 0.3,0.9 0.3,2.2 1.1,2.9 l -0.1,-0.1 c 0,-0.1 0.2,0 0.3,0 0.1,-1.2 -0.8,-2.6 -1.3,-3.2 0.1,-0.5 0.1,-1 0.1,-1.5 0,-1.3 -1.1,-3.5 -1.5,-5.3 -0.5,-2 -0.6,-4.2 -1.6,-5.6 1,-0.4 2.5,-2.4 4,-3.2 3,4 1.5,10.4 2,15 0.6,2.3 1.5,4.7 1.5,6.6 z m 5.1,5 c -0.9,-2.5 -2.9,-6.4 1.3,-8.1 0.5,1.1 1.1,1.9 1.9,2.5 -1.5,1.7 -2.4,3.6 -3.2,5.6 z m 6,25.8 c 0.5,-1 0,-2.5 1,-3.2 1,0.8 -0.1,2.9 -1,3.2 z m 7.8,-29.3 c -0.3,1.7 0,3.8 -1.5,5 -0.6,2.7 0.9,4.2 0.2,6.8 2,1.5 1.6,5.8 -1.1,6.8 -0.1,-0.2 -0.2,-0.4 -0.5,-0.3 -0.6,-0.6 0.2,-1.7 -0.5,-2.9 -0.3,-0.6 -1.1,-0.1 -1.3,-0.8 -2.6,-5.2 2.4,-11.8 -3,-15.6 -0.9,0.6 -1.1,0.3 -2,0.2 -0.1,-0.3 -0.2,-0.5 -0.2,-0.7 0.3,-0.5 1.4,0.2 1.6,-0.7 0.1,-1 -0.9,-1.3 -1.2,-2.3 0.3,-3.7 6.3,-5.1 8.9,-3.1 1.6,2.5 1,5.7 0.6,7.6 z m 25.2,8.3 c -0.4,-1 -0.5,-2.5 -1.5,-2.2 -0.2,0.7 -0.2,1.4 -0.8,1.9 -1.1,-3.3 1.1,-6.9 1.7,-9.3 1.6,3.4 2.4,6.6 0.6,9.6 z M 353.7,545.4 c 0.8,-1.4 1.8,-2.7 2.8,-4 0.9,0.3 1.5,1 2,1.8 0,0 0,0 -0.1,0 -1.7,0.8 -3.2,2 -4.7,2.2 z"
         id="path3906" />
      <path
         fill-rule="evenodd"
         clip-rule="evenodd"
         d="m 382.5,557.6 c -0.2,0 -0.5,0.2 -0.7,0.2 -0.2,0 -0.5,-0.2 -0.5,-0.7 -1.7,0.3 -2.2,0.5 -2.2,1 0,0.5 0.3,1 0.8,1.9 2.1,-0.5 2.6,0 2.6,-2.4 z"
         id="path3908" />
      <path
         fill-rule="evenodd"
         clip-rule="evenodd"
         d="m 395.3,546.4 c 0,1.2 0.3,3.6 1.5,3.6 0.7,0 1.4,-0.5 1.4,-1.2 0,-2.5 -1.7,-2 -2.9,-2.4 z"
         id="path3910" />
      <path
         fill-rule="evenodd"
         clip-rule="evenodd"
         d="m 355.3,562.3 c 0,1.5 -1.5,-0.7 -1.4,3 0.7,0 1.1,0.4 1.9,0.3 1.5,0 2.6,-1.1 3.3,-1.2 -1.2,-1.4 -1.6,-2.1 -3.8,-2.1 z"
         id="path3912" />
      <path
         fill-rule="evenodd"
         clip-rule="evenodd"
         d="m 76.5,555.1 c 0,0 0,0 0,0 -0.1,0 -0.1,0 -0.1,0 0.1,0 0.1,0 0.1,0 z"
         id="path3914" />
      <path
         fill-rule="evenodd"
         clip-rule="evenodd"
         d="m 388.6,587.3 c -0.2,0.4 -0.5,0.5 -0.5,0.7 0,0.1 0.3,0.1 0.8,0.1 0,-0.3 -0.1,-0.6 -0.3,-0.8 z"
         id="path3916" />
      <path
         fill-rule="evenodd"
         clip-rule="evenodd"
         d="m 49.6,560.6 c 0,0 -0.1,-0.1 0,0 -0.1,0 -0.1,0 -0.1,0 0.1,0 0.1,0 0.1,0 z"
         id="path3918" />
      <path
         fill-rule="evenodd"
         clip-rule="evenodd"
         d="m 388.4,634.9 c -4.8,3.7 3.6,10.8 5.2,3.3 -0.7,-1.6 -2.3,-2.8 -5.2,-3.3 z"
         id="path3920" />
      <path
         fill-rule="evenodd"
         clip-rule="evenodd"
         d="m 70.4,582.7 c -0.6,0.6 -0.7,0.7 -1.5,0.8 0,0.4 0.2,0.4 0.4,0.4 0.7,0 2,-1 2,-1 0,-0.3 -0.2,-0.2 -0.9,-0.2 z"
         id="path3922" />
      <path
         fill-rule="evenodd"
         clip-rule="evenodd"
         d="m 404.5,549.1 c 0,1 -1.2,0.5 -1.2,1.5 0,0.7 0.3,1.4 1.7,1.4 1.4,0 2.2,0 2.1,-1.7 0,-0.2 0,-0.5 -0.3,-0.7 -0.6,-0.5 -0.9,-0.5 -2.3,-0.5 z"
         id="path3924" />
      <path
         fill-rule="evenodd"
         clip-rule="evenodd"
         d="m 96.5,540.4 c -1.6,-1.2 -3.5,-2.2 -4.3,0.9 2.1,0.8 3.9,1.4 4.3,-0.9 z"
         id="path3926" />
      <path
         fill-rule="evenodd"
         clip-rule="evenodd"
         d="m 404.8,517.1 c 1.2,3.4 9.1,2.4 10.7,-1.1 -5.3,-3 -7.2,0.7 -10.7,1.1 z"
         id="path3928" />
      <path
         fill-rule="evenodd"
         clip-rule="evenodd"
         d="m 105.6,609.5 c 0,-0.2 -0.2,-0.2 -0.8,-0.2 0.2,0.4 0,0.4 0.4,0.6 0,-0.2 0.4,-0.4 0.4,-0.4 z"
         id="path3930" />
      <path
         fill-rule="evenodd"
         clip-rule="evenodd"
         d="m 104.5,611.3 c -0.2,-0.6 0,-0.4 -0.4,-0.7 0,0.2 -0.2,0.4 -0.2,0.4 0,0.5 0,0.3 0.6,0.3 z"
         id="path3932" />
      <path
         fill-rule="evenodd"
         clip-rule="evenodd"
         d="m 105.9,607.8 c 0,0.2 -0.2,0.4 -0.2,0.6 0,0.2 0.2,0.2 0.6,0.2 -0.2,-0.6 0,-0.4 -0.4,-0.8 z"
         id="path3934" />
      <path
         fill-rule="evenodd"
         clip-rule="evenodd"
         d="m 83.8,572.1 c -0.9,0.4 -1.1,0.4 -1.1,1.5 1.1,-0.4 1.1,-0.4 1.1,-1.5 z"
         id="path3936" />
      <path
         fill-rule="evenodd"
         clip-rule="evenodd"
         d="M 107.4,605.9 H 107 c -0.4,0.7 -0.5,1.3 -0.5,1.5 0,0.2 0,0.2 0.2,0.2 0.3,0 0.7,-1.1 0.7,-1.7 z"
         id="path3938" />
      <path
         fill-rule="evenodd"
         clip-rule="evenodd"
         d="m 405.3,597.9 c 0,0.1 0,0.3 -0.1,0.3 -0.1,0 -0.3,-0.1 -0.5,-0.1 -0.5,0 -0.5,0.5 -1,0.8 0.3,0.6 0.8,1 1.3,1 0.5,0 1.3,-0.8 1.3,-1 -0.1,-0.5 -0.5,-0.7 -1,-1 z"
         id="path3940" />
      <path
         fill-rule="evenodd"
         clip-rule="evenodd"
         d="m 180.5,657.5 c -0.4,0 -1,-0.1 -1.1,0.2 -0.2,0.6 0.3,0.7 0.8,0.8 z"
         id="path3942" />
      <path
         fill-rule="evenodd"
         clip-rule="evenodd"
         d="m 180.2,659 c -0.8,-0.3 -2,-0.4 -2.3,0.6 0,0.1 -0.1,0.3 0,0.5 0.2,0.1 0.4,1.3 1.4,1.7 0.5,0.2 1.4,0.1 1.4,-0.1 0,-0.1 -0.1,-0.1 -0.1,-0.1 0,-0.1 0.2,-0.2 0.4,-0.1 0.2,-1.3 0.2,-2.2 -0.8,-2.5 z"
         id="path3944" />
      <path
         fill-rule="evenodd"
         clip-rule="evenodd"
         d="m 189.3,699.9 c 3.5,0.4 3.8,-5.1 3.4,-7.6 -3.6,-0.8 -4.3,5.7 -3.4,7.6 z"
         id="path3946" />
      <path
         fill-rule="evenodd"
         clip-rule="evenodd"
         d="m 164.1,674 c -0.9,0.6 -1.6,1.6 -1.9,3.3 1.6,0.8 2.8,0.8 3.8,0.5 0.5,-1.8 -0.1,-3.1 -1.9,-3.8 z"
         id="path3948" />
      <path
         fill-rule="evenodd"
         clip-rule="evenodd"
         d="m 268.2,696.9 c -0.3,0.8 2,2.6 2.1,2.6 0.1,0 0.3,0 0.4,0 0.2,0.1 0.1,0.3 0.6,0.4 0.4,0.1 0.7,0.3 1,-0.5 -1.7,-1.4 -2.3,-2.2 -3.8,-3 -0.2,0.2 -0.3,0.4 -0.3,0.5 z"
         id="path3950" />
      <path
         fill-rule="evenodd"
         clip-rule="evenodd"
         d="m 82.2,617.6 c -0.4,0 -0.5,0.1 -0.6,0.7 0,0.3 0.1,0.1 0.1,0.5 0.8,0 1.2,-0.1 1.1,-0.5 0,-0.4 0,-0.7 -0.6,-0.7 z"
         id="path3952" />
      <path
         fill-rule="evenodd"
         clip-rule="evenodd"
         d="m 66.9,559.2 c 0,1.5 0.2,1.5 1.7,1.5 0,-1.6 -0.4,-1.6 -1.7,-1.5 z"
         id="path3954" />
      <path
         fill-rule="evenodd"
         clip-rule="evenodd"
         d="m 159.5,653.9 c -0.7,0 -1,0.5 -1.2,1 -0.3,0.9 0.1,1.1 0.8,1.3 0.7,0.3 1.2,-0.3 1.2,-0.4 0.3,-0.9 0.1,-1.5 -0.8,-1.9 z"
         id="path3956" />
      <path
         fill-rule="evenodd"
         clip-rule="evenodd"
         d="m 92.8,615 c -0.2,0.7 -0.2,1.3 -0.3,1.9 h 0.7 c 0,-0.4 0.2,-0.7 0.4,-1.1 -0.6,-0.1 -0.4,-0.4 -0.8,-0.8 z"
         id="path3958" />
      <path
         fill-rule="evenodd"
         clip-rule="evenodd"
         d="m 309.1,684.6 c -1.7,1 -0.2,0.9 -1,2.8 2.6,1.5 3.9,-2.5 1,-2.8 z"
         id="path3960" />
      <path
         fill-rule="evenodd"
         clip-rule="evenodd"
         d="m 356.8,702.3 c -1.2,2.7 1.1,5.6 4,4.5 0.1,-2.1 -0.9,-3.8 -4,-4.5 z"
         id="path3962" />
      <path
         fill-rule="evenodd"
         clip-rule="evenodd"
         d="m 358.2,630.9 c 1.6,1 3.2,2.7 4,-0.2 -1.4,-0.2 -3.9,-2.4 -4,0.2 z"
         id="path3964" />
      <path
         fill-rule="evenodd"
         clip-rule="evenodd"
         d="m 338.8,664.6 c -2.8,2.7 -7.9,0.7 -10.7,3.5 5.2,1.4 9.7,1.4 12.6,-2.1 -0.4,-0.5 -0.9,-1.1 -1.9,-1.4 z"
         id="path3966" />
      <path
         fill-rule="evenodd"
         clip-rule="evenodd"
         d="m 373.9,602.2 c -1.2,0.3 -2.2,0.8 -2.9,0.8 0.5,2.9 2.2,3.6 4.6,3.5 1.4,0 2.2,-0.5 2.1,-1.5 0.1,-1.9 -2.1,-2.8 -3.8,-2.8 z"
         id="path3968" />
      <path
         fill-rule="evenodd"
         clip-rule="evenodd"
         d="m 283.5,662.4 c 1.8,1.2 1.9,-0.9 3.3,-0.5 -0.8,-3.3 1.2,-4.6 1,-7.6 -2.4,0.5 -4.6,6.1 -4.3,8.1 z"
         id="path3970" />
      <path
         fill-rule="evenodd"
         clip-rule="evenodd"
         d="m 272.5,689.4 c -0.1,0 -0.2,-0.1 -0.2,0 h 0.1 c 0,0.1 -0.1,0.1 -0.5,0 -0.4,0.3 -0.6,0.6 -0.7,0.9 -0.1,0.4 0.1,0.8 0.5,1 0.2,0.1 0.4,0.1 0.6,0.1 0.5,-0.1 0.8,-0.2 0.9,-0.5 0.1,-0.3 0.1,-0.6 0.1,-1 -0.2,-0.1 -0.5,0 -0.6,-0.1 -0.3,0 -0.3,-0.2 -0.2,-0.4 z"
         id="path3972" />
      <path
         fill-rule="evenodd"
         clip-rule="evenodd"
         d="m 271.4,664.9 c -0.3,1 -2,0.9 -2.4,2.3 1.8,0.6 5.3,-1.5 5.7,-2.6 -1.3,-0.4 -2.2,0.4 -3.3,0.3 z"
         id="path3974" />
      <path
         fill-rule="evenodd"
         clip-rule="evenodd"
         d="m 378,593.4 c -0.2,0.7 -0.5,1.4 -0.7,2.1 0.9,0.2 1.2,0.6 1.2,1.2 3.5,0.3 3,-4.1 -0.5,-3.3 z"
         id="path3976" />
      <path
         fill-rule="evenodd"
         clip-rule="evenodd"
         d="m 293,683 c -1.7,1.9 -1,2.3 -1.7,5 2.8,1.9 5.1,-4.8 1.7,-5 z"
         id="path3978" />
    </g>
    <path
       transform="matrix(0.26458334,0,0,0.26458334,56.316563,97.128542)"
       id="path95"
       d="m 172.4938,384.51032 c -0.47114,-0.56769 -0.61297,-2.12746 -0.38732,-4.25943 1.92339,-18.17236 2.05497,-20.42308 1.49933,-25.64594 -0.22832,-2.14607 -0.0892,-5.3111 0.31754,-7.22324 0.55,-2.58571 0.54334,-3.69259 -0.0277,-4.60695 -0.41339,-0.66194 -0.75602,-2.56822 -0.76139,-4.23617 -0.009,-2.87928 -0.43099,-4.78219 -4.05812,-18.31186 -1.52939,-5.70479 -2.43506,-6.80703 -3.80658,-4.63272 -0.54566,0.86504 -0.42573,1.30261 0.56724,2.06953 1.18311,0.91376 1.19188,1.0129 0.1451,1.64034 -1.53773,0.92172 -1.4563,5.16724 0.19671,10.25648 1.4393,4.43129 2.54435,11.35696 1.8121,11.35696 -0.25476,0 -1.1752,-0.84617 -2.04544,-1.88038 -1.14869,-1.36516 -1.70137,-2.97874 -2.01702,-5.88887 -0.23914,-2.20466 -0.7447,-5.15441 -1.12348,-6.555 -0.37877,-1.4006 -0.7177,-2.97627 -0.75318,-3.50149 -0.0355,-0.52522 -0.44654,-2.67386 -0.91347,-4.77475 -2.26991,-10.21308 -2.67095,-12.99021 -3.00859,-20.83422 -0.27133,-6.30369 -0.13223,-9.30016 0.54746,-11.79326 l 0.91122,-3.34232 h -1.81664 c -0.99916,0 -1.81971,0.21486 -1.82346,0.47747 -0.004,0.26261 -0.46401,4.48827 -1.02279,9.39035 -1.23412,10.82651 -1.17235,16.66968 0.19061,18.03265 0.87777,0.87776 0.87875,1.05437 0.009,1.69007 -0.53395,0.39043 -1.06707,1.55331 -1.18471,2.58418 -0.30766,2.69589 -2.05374,2.77283 -2.86599,0.12628 -0.35896,-1.16959 -0.44241,-2.69487 -0.18544,-3.38951 0.76305,-2.06272 1.75286,-19.39322 1.324,-23.18179 -0.31668,-2.79752 -0.6107,-3.46609 -1.46246,-3.32544 -0.58636,0.0968 -1.24786,-0.11804 -1.47,-0.47748 -0.22212,-0.35944 -0.10048,-0.65352 0.27033,-0.65352 0.81848,0 0.90004,-1.69518 0.1052,-2.18641 -0.89852,-0.55532 -4.89901,1.35892 -7.36521,3.52427 -1.55978,1.36951 -2.25192,1.68175 -2.25192,1.01591 0,-0.64786 -0.41515,-0.85273 -1.27327,-0.62833 -0.73214,0.19146 -1.27326,0.0195 -1.27326,-0.40454 0,-0.40563 -0.55948,-1.33803 -1.24327,-2.072 -0.9968,-1.06994 -1.74705,-1.26692 -3.7844,-0.99365 -2.33274,0.31288 -2.48191,0.24601 -1.81904,-0.81541 0.55069,-0.88181 0.52379,-1.39518 -0.11336,-2.16289 -0.86136,-1.03788 -2.58944,-1.38366 -2.58944,-0.51814 0,0.26868 -1.01553,0.44075 -2.25673,0.38237 -1.2412,-0.0584 -3.89118,0.28456 -5.88886,0.76208 -4.89323,1.16967 -7.82117,1.12538 -9.63597,-0.14574 l -1.51239,-1.05932 3.12148,-0.82249 c 1.71681,-0.45237 5.17985,-0.83512 7.69563,-0.85058 2.51579,-0.0155 5.38064,-0.34873 6.36634,-0.74062 1.83837,-0.73088 1.77258,-0.8095 -1.23183,-1.47214 -0.9629,-0.21237 -1.75074,-0.7911 -1.75074,-1.28605 0,-1.92518 -7.08979,-2.15177 -12.56807,-0.40167 -2.12874,0.68005 -4.43726,1.08822 -5.13004,0.90705 -0.74786,-0.19556 -2.29541,0.35606 -3.80903,1.35773 -1.402171,0.92791 -4.943401,2.26324 -7.869394,2.96738 -2.926001,0.70415 -6.551419,1.99565 -8.056491,2.86999 -1.505072,0.87434 -4.356261,2.14699 -6.335975,2.82811 -1.979708,0.68113 -4.19427,1.79718 -4.921236,2.48013 -1.642954,1.54347 -6.395908,3.2702 -7.663054,2.78396 -1.279046,-0.49082 -1.187475,-1.71791 0.223487,-2.99481 1.125934,-1.01895 11.580283,-5.46416 22.008718,-9.35815 2.767536,-1.03339 6.778328,-2.84286 8.912871,-4.02103 2.134544,-1.17817 4.740444,-2.34577 5.790894,-2.59468 2.4,-0.56869 13.05099,-6.61364 13.05099,-7.40708 0,-1.09996 -1.83348,-0.59482 -2.78815,0.76817 -0.65561,0.936 -1.30867,1.21892 -2.10517,0.912 -1.01714,-0.39196 -0.90365,-0.65018 0.9526,-2.16757 1.15901,-0.94742 1.8991,-1.93079 1.64463,-2.18526 -1.07339,-1.07339 -2.93964,-0.27299 -6.37705,2.73501 -2.00979,1.75872 -3.94233,3.10162 -4.29454,2.98422 -2.04392,-0.6813 -0.10815,-2.93783 5.75202,-6.70512 5.29384,-3.40323 12.94536,-11.52452 12.94536,-13.74015 0,-1.38474 -0.62958,-1.28883 -4.40803,0.67151 -1.78875,0.92803 -3.39669,1.54292 -3.57319,1.36643 -0.49498,-0.49499 4.1291,-3.34571 7.50374,-4.62601 2.43133,-0.92242 3.02401,-1.44227 3.02401,-2.65237 0,-0.91344 -0.37539,-1.50509 -0.95495,-1.50509 -0.52522,0 -0.9569,-0.21487 -0.9593,-0.47748 -0.003,-0.26261 -0.99176,-1.14986 -2.19859,-1.97167 l -2.19424,-1.49418 -4.32691,1.41977 c -2.37979,0.78087 -4.685,1.7032 -5.12269,2.04961 -0.53601,0.42424 -0.79579,0.40136 -0.79579,-0.0701 0,-1.19065 -7.31428,-0.7431 -9.822107,0.60101 -1.225284,0.65671 -2.667902,1.02514 -3.205813,0.81872 -0.537911,-0.20641 -1.471343,-0.18599 -2.074286,0.0454 -0.939111,0.36036 -0.961928,0.50563 -0.159159,1.01331 0.697967,0.4414 0.439704,0.59512 -1.01205,0.60239 -2.760131,0.0138 -11.443515,2.35602 -15.409577,4.15651 -1.844041,0.83714 -5.13862,1.71771 -7.321287,1.95681 -2.182672,0.23911 -5.064582,0.98594 -6.404247,1.65964 -3.11529,1.56662 -5.769968,1.32634 -6.036756,-0.54641 -0.223844,-1.57129 0.33515,-1.82603 5.925975,-2.70047 5.488329,-0.85841 9.608673,-2.48079 10.386798,-4.08978 0.559691,-1.15731 0.675106,-1.19707 0.711203,-0.245 0.03571,0.94193 0.264133,1.01821 1.334187,0.44553 0.710101,-0.38004 1.095678,-1.00717 0.856826,-1.39363 -0.309258,-0.50039 0.740519,-0.5823 3.64679,-0.28455 3.203305,0.3282 4.76484,0.1602 7.260253,-0.78108 5.033697,-1.89872 13.31894,-5.85396 13.76104,-6.5693 0.49274,-0.79726 -0.0159,-2.94474 -0.814235,-3.43818 -0.847449,-0.52375 -5.629497,0.38759 -5.629497,1.07284 0,0.31937 0.214864,0.53519 0.477475,0.4796 1.131578,-0.23952 2.705693,0.97004 2.705693,2.07909 0,1.34098 0.04959,1.31908 -3.501485,1.54599 -2.194406,0.14022 -2.898663,-0.1751 -5.093069,-2.2803 -2.573273,-2.46866 -5.189774,-3.87405 -7.783483,-4.18069 -1.576948,-0.18644 -3.772258,2.14919 -4.410591,4.6925 -0.683293,2.72246 -1.493817,0.1379 -1.078184,-3.43808 0.342541,-2.94713 0.245989,-3.31686 -0.966665,-3.70174 -0.740965,-0.23517 -1.610403,-0.26492 -1.932087,-0.0661 -0.877975,0.54261 -2.609683,-0.29667 -2.609683,-1.26479 0,-1.99639 -3.132432,-1.44343 -4.825151,0.85176 -0.551356,0.7476 -0.962557,0.78412 -2.082217,0.1849 -0.767351,-0.41068 -1.662573,-0.58143 -1.989382,-0.37945 -0.326809,0.20198 -1.323587,0.18417 -2.21506,-0.0396 -1.178826,-0.29584 -1.620862,-0.82746 -1.620862,-1.94933 0,-0.84841 -0.381299,-1.68887 -0.847331,-1.8677 -0.797324,-0.30597 -5.397941,0.50664 -7.555281,1.3345 -0.639425,0.24537 -1.096974,-0.0731 -1.317706,-0.9172 -0.185982,-0.71119 -1.343988,-1.88653 -2.573348,-2.61187 -2.653404,-1.56555 -3.163772,-2.61836 -2.331049,-4.80858 0.799336,-2.10241 0.790417,-5.1274 -0.01958,-6.6409 -0.435309,-0.81338 -0.422819,-1.32598 0.03927,-1.61157 0.372694,-0.23034 0.939348,-1.10718 1.259232,-1.94854 0.397281,-1.04492 1.079588,-1.52974 2.152853,-1.52974 2.175533,0 3.553342,-2.24333 3.553342,-5.78551 0,-1.99878 0.41521,-3.48351 1.28253,-4.58613 l 1.28253,-1.63047 -3.35159,-0.37611 c -3.635217,-0.40795 -20.902761,-1.61119 -23.26879,-1.62143 -1.241617,-0.005 -1.358242,0.17417 -0.795792,1.22512 1.154956,2.15806 0.741968,4.76829 -1.091709,6.9 -1.415598,1.64569 -2.284173,2.06191 -4.537295,2.17425 -2.356826,0.11753 -3.024151,-0.13727 -4.327265,-1.65224 -0.847393,-0.98515 -1.695677,-2.566 -1.885076,-3.51299 -0.248885,-1.24442 -1.077979,-2.06334 -2.9903587,-2.95364 -4.4951023,-2.09269 -5.5067775,-7.76652 -2.1357,-11.97777 1.2775107,-1.5959 1.9566803,-1.85673 5.2496167,-2.01609 2.080246,-0.10067 6.774447,0.20313 10.431556,0.6751 4.600269,0.59368 7.02178,0.65877 7.858059,0.21121 1.262773,-0.67582 4.329359,-0.20484 4.923273,0.75613 0.423212,0.68477 20.235598,2.86062 20.810728,2.28549 0.227016,-0.22702 -0.211483,-1.25709 -0.974445,-2.28905 -1.857193,-2.51199 -1.756073,-3.06913 0.671204,-3.6981 1.769881,-0.45863 2.179701,-0.96285 2.923754,-3.59722 0.684146,-2.42228 1.252939,-3.21014 2.716345,-3.76251 2.43061,-0.91746 2.335046,-1.80911 -0.419033,-3.90974 -2.425442,-1.84998 -2.581502,-2.83645 -0.251449,-1.58945 1.103175,0.5904 1.748016,0.5709 2.98337,-0.0902 1.382036,-0.73965 1.68118,-0.69961 2.430628,0.32533 0.811832,1.11024 0.937375,1.07949 2.506925,-0.61409 1.213723,-1.30962 1.557079,-2.21641 1.293551,-3.41623 -0.197312,-0.89836 -0.46578,-3.63791 -0.596596,-6.0879 -0.256933,-4.81199 0.577261,-7.19819 3.293949,-9.42227 2.012424,-1.64752 1.968668,-5.156 -0.08105,-6.49903 -2.201473,-1.44246 -5.135985,-2.16158 -10.72168,-2.62741 -4.654513,-0.38817 -5.036408,-0.53632 -6.5718,-2.54932 -1.043664,-1.36831 -2.174408,-2.13719 -3.14303,-2.13719 -1.299697,0 -1.779876,-0.69534 -3.407228,-4.93392 -2.65946,-6.92679 -4.295631,-13.72421 -3.377172,-14.03036 0.397378,-0.13246 0.722505,-0.89454 0.722505,-1.69352 0,-0.79897 0.620718,-2.24179 1.379373,-3.20626 0.758655,-0.96447 1.379373,-2.56408 1.379373,-3.55469 0,-1.616015 0.579156,-2.108675 5.635754,-4.794059 3.105075,-1.648998 6.635613,-4.099679 7.862414,-5.457601 l 2.226661,-2.464647 0.644923,1.764309 c 0.354708,0.97037 0.770674,2.122415 0.92437,2.560101 0.33564,0.955814 1.365614,1.041596 1.910993,0.159158 0.723477,-1.170608 2.708851,-0.655509 5.993734,1.555052 3.151426,2.120754 3.327964,2.161962 5.454912,1.273267 2.794052,-1.167431 2.875611,-1.15932 2.875611,0.285995 0,0.662427 1.226889,2.596202 2.726422,4.297275 1.499533,1.70108 3.069064,3.8807 3.487835,4.84361 0.418778,0.96291 1.054043,1.75074 1.411697,1.75074 1.072957,0 0.737254,-1.84382 -0.686253,-3.76922 -1.094016,-1.47973 -1.205472,-2.05265 -0.61423,-3.157387 0.397259,-0.742296 0.8417,-1.349629 0.987629,-1.349629 0.145935,0 1.153491,1.290892 2.239015,2.868646 1.73426,2.52066 2.182036,2.81871 3.691227,2.45698 0.94465,-0.22642 1.860791,-0.54363 2.035865,-0.70491 0.44777,-0.41248 -4.742844,-4.844378 -8.912871,-7.610075 -1.925816,-1.277262 -4.262879,-2.835113 -5.193472,-3.461889 -1.437595,-0.968258 -1.745675,-0.999684 -2.049076,-0.209024 -0.489157,1.274721 -2.077889,1.17251 -2.591812,-0.166745 -0.262891,-0.68509 -0.0088,-1.398771 0.676354,-1.899776 1.032562,-0.755026 1.025292,-0.882181 -0.123004,-2.151033 -0.671241,-0.741713 -2.08057,-1.782478 -3.131843,-2.312811 -4.200095,-2.118811 -6.10398,-5.26265 -3.737072,-6.17092 0.712635,-0.273464 2.101636,0.655382 4.420256,2.955897 4.942709,4.904122 11.729669,9.647197 11.729669,8.197295 0,-0.337457 0.358107,-1.004227 0.795792,-1.48171 0.437686,-0.477484 1.098073,-1.40457 1.46753,-2.060192 0.369458,-0.655622 1.25308,-1.578032 1.963601,-2.049799 1.127841,-0.74886 1.567927,-0.672321 3.466375,0.602856 2.823094,1.896255 3.180894,4.290798 0.971305,6.500382 -0.882068,0.882068 -2.339596,1.603759 -3.238956,1.603759 -1.597632,0 -1.61125,0.03654 -0.592948,1.590671 0.912029,1.391932 6.615473,6.048934 7.408143,6.048934 0.16089,0 1.48372,-1.412692 2.93963,-3.139315 2.35438,-2.792148 2.57549,-3.327667 1.99954,-4.842552 -0.51969,-1.366878 -0.39414,-2.113296 0.63571,-3.779643 0.70581,-1.142022 1.29009,-2.758802 1.29841,-3.592843 0.01,-0.991682 0.55478,-0.194611 1.57465,2.303362 1.66647,4.081694 4.05023,6.684653 6.12174,6.684653 2.40044,0 6.85239,-1.404383 7.77636,-2.453081 0.50804,-0.576622 1.09846,-2.910557 1.31206,-5.186523 0.2136,-2.275965 0.63291,-5.857029 0.9318,-7.95792 0.5379,-3.780773 0.54461,-3.79053 0.65729,-0.954951 0.0627,1.575668 0.53447,3.420956 1.04855,4.10064 0.59121,0.781641 0.93471,2.703582 0.93471,5.229829 0,4.657521 0.56559,5.199651 6.01103,5.76167 5.44475,0.561948 7.76337,-0.562965 9.7868,-4.748218 1.66558,-3.445085 3.45428,-5.309968 4.29073,-4.473509 0.2277,0.227694 0.05,2.450978 -0.39496,4.940631 -0.70589,3.949924 -0.68406,4.651544 0.17141,5.507007 0.88273,0.882733 1.23999,0.847913 3.58738,-0.349634 1.43386,-0.731501 2.90308,-1.883201 3.26493,-2.559336 0.94483,-1.765419 0.81052,-5.813522 -0.29703,-8.952644 -0.52522,-1.48864 -0.95495,-4.207633 -0.95495,-6.042206 0,-4.159647 1.37275,-6.069207 5.49466,-7.643379 3.02388,-1.154835 3.16057,-1.143323 7.39238,0.622555 1.03591,0.432269 1.04547,0.310108 0.1446,-1.845982 -0.87091,-2.084378 -0.86674,-2.346478 0.0428,-2.695505 1.37863,-0.529029 4.75131,2.801989 4.75131,4.692616 0,0.820851 -0.42818,1.656761 -0.9515,1.857578 -0.83856,0.32179 -0.83325,0.564971 0.0448,2.049079 l 0.99623,1.683957 h 8.41565 c 9.37388,0 11.01112,-0.534506 12.47694,-4.073303 0.67161,-1.621413 1.00092,-1.838925 1.98594,-1.311756 0.64946,0.347578 1.48015,1.743572 1.846,3.102208 0.7889,2.929759 1.25823,3.160072 5.42609,2.662708 l 3.18317,-0.379857 0.19543,-3.057908 c 0.12362,-1.934364 0.53296,-3.187434 1.11411,-3.410438 1.42804,-0.547994 1.12494,-1.244107 -1.74064,-3.997616 -2.35375,-2.261696 -2.67571,-2.920144 -2.80197,-5.730394 -0.1207,-2.68652 0.0535,-3.237325 1.13182,-3.579584 1.86751,-0.592724 2.71499,0.652535 2.78633,4.094114 0.075,3.620369 3.01093,9.837177 7.12299,15.083064 2.91688,3.721147 4.23355,4.418374 3.60353,1.908212 -0.54737,-2.180893 0.1283,-3.073112 1.69306,-2.235679 0.94892,0.507848 1.48478,0.433673 2.22668,-0.308224 0.87828,-0.878273 1.15171,-0.847868 2.70542,0.300838 3.33446,2.465272 8.38354,-0.283223 8.38354,-4.563627 0,-1.388735 0.29852,-1.824045 1.25087,-1.824045 0.68798,0 1.55751,0.57297 1.9323,1.273267 0.78165,1.460536 2.6948,1.673855 3.73807,0.416799 0.39094,-0.471057 0.89156,-1.76024 1.11248,-2.864851 0.48656,-2.43281 1.4331,-2.537812 3.45697,-0.38349 1.16014,1.234898 1.91171,1.528215 3.13143,1.222086 2.20301,-0.552921 3.0823,-1.386619 4.59996,-4.361484 1.24194,-2.434408 1.34605,-2.496334 2.21217,-1.315856 0.4999,0.681327 0.76566,1.790201 0.5906,2.464163 -0.35746,1.376134 1.19823,2.861086 3.03027,2.892485 0.64976,0.01113 2.03254,-0.695966 3.07286,-1.571337 1.99881,-1.681886 3.37134,-2.007767 4.02202,-0.95495 0.61823,1.000328 2.57021,0.745747 3.66099,-0.477476 0.54642,-0.612759 1.75607,-3.627329 2.68812,-6.699043 0.93205,-3.071715 2.38248,-6.366294 3.22319,-7.321287 l 1.52855,-1.736352 0.0126,1.591584 c 0.007,0.875371 -0.70024,4.455768 -1.57147,7.956438 -1.94267,7.805824 -1.96084,8.896554 -0.16913,10.151521 2.0056,1.404777 3.11559,1.237378 4.66297,-0.703229 1.6889,-2.118076 2.48207,-1.653493 3.39986,1.991391 0.46278,1.837847 1.29433,3.240626 2.31899,3.912014 1.59556,1.045448 1.97569,1.03971 9.31516,-0.140612 1.93627,-0.311387 2.45237,-0.148503 3.04641,0.961461 0.39336,0.734999 1.18479,1.336362 1.75873,1.336362 0.85227,0 0.77507,0.285758 -0.42126,1.559191 -2.14465,2.282863 -1.3566,3.602135 2.02372,3.387947 2.85214,-0.180721 3.0856,0.138641 2.20089,3.010782 -0.29719,0.964776 0.53434,2.25601 3.43204,5.329442 3.70289,3.927451 3.90302,4.04358 6.3064,3.659265 3.21844,-0.51465 3.81348,0.482862 1.6408,2.750639 -0.93165,0.972433 -1.70842,2.309957 -1.72615,2.972277 -0.0673,2.514154 0.58607,5.213024 1.73148,7.152054 1.06237,1.79845 1.49987,2.01008 4.15534,2.01008 3.89837,0 4.72162,0.97777 3.42868,4.07221 -0.55668,1.33233 -1.63814,2.59052 -2.51232,2.92288 -0.84419,0.32097 -1.83246,1.13958 -2.19616,1.81916 -1.02502,1.91527 0.81798,7.28636 3.18308,9.27645 l 1.94163,1.63378 -1.79295,0.76532 c -2.85453,1.21844 -4.02117,2.495 -4.02117,4.40001 0,1.91292 0.55097,2.45548 3.49373,3.44039 1.04618,0.35015 1.997,1.13144 2.11293,1.7362 0.16297,0.85009 -0.3894,1.19555 -2.43456,1.52258 -2.26671,0.36246 -2.90527,0.84059 -4.46116,3.34036 l -1.8158,2.91734 3.46233,3.6299 c 1.90428,1.99644 3.46233,3.93764 3.46233,4.31378 0,0.37615 0.78796,0.6839 1.75102,0.6839 1.96296,0 5.65142,-3.18372 8.70161,-7.51087 1.12384,-1.59433 3.01064,-3.1817 4.77475,-4.01702 1.60417,-0.75958 4.63559,-2.19579 6.73648,-3.19159 2.10089,-0.99579 4.24953,-2.05754 4.77475,-2.35945 6.26325,-3.60019 8.591,-4.56661 10.99924,-4.56661 3.65958,0 4.9166,0.91346 4.9166,3.57286 0,1.65198 -0.50606,2.76085 -1.89295,4.14774 -1.63427,1.63427 -2.20146,1.83508 -4.15045,1.46945 -1.86124,-0.34917 -3.21034,0.04 -7.68611,2.21694 -2.98574,1.45224 -7.20585,3.09273 -9.37802,3.64552 -4.87796,1.24139 -5.62942,1.61598 -9.99742,4.98347 -1.92581,1.4847 -4.43256,3.1778 -5.57054,3.76244 -1.73903,0.89343 -2.06906,1.41917 -2.06906,3.29602 0,2.18926 -2.52811,8.07704 -3.80769,8.86788 -0.35681,0.22051 -0.64875,0.6483 -0.64875,0.95063 0,0.75539 4.27695,2.10777 5.08551,1.60806 0.35968,-0.2223 1.08492,0.0268 1.61164,0.5535 1.58086,1.58086 6.2824,1.93312 11.00453,0.8245 5.52767,-1.29774 11.07938,-1.87516 11.96564,-1.2445 1.80786,1.28645 2.1132,3.11058 0.86442,5.16403 -0.67533,1.11049 -1.6047,2.01908 -2.06526,2.01908 -1.46924,0 -4.26429,-1.56293 -4.26943,-2.38738 -0.003,-0.499 -0.9259,-0.79579 -2.47427,-0.79579 -2.15193,0 -2.57257,0.24933 -3.27283,1.93993 -0.44196,1.06696 -1.64066,2.37281 -2.66379,2.90189 -1.75222,0.9061 -2.03046,0.86221 -4.79124,-0.75571 -2.78507,-1.63215 -3.21888,-1.69766 -8.71369,-1.31577 -7.37169,0.51233 -8.64756,0.87603 -8.64756,2.46509 0,0.74739 0.32641,1.14554 0.79579,0.97067 5.43305,-2.02398 5.34801,-2.01712 7.17684,-0.57856 0.96172,0.75648 2.10794,1.37543 2.54715,1.37543 0.43921,0 1.47035,0.54398 2.29141,1.20883 l 1.49285,1.20884 -3.68417,0.46031 c -2.02629,0.25316 -5.07686,0.27555 -6.77905,0.0497 -3.07228,-0.40755 -3.11209,-0.38956 -5.4486,2.46185 -2.89147,3.52864 -2.6467,4.96211 0.79844,4.67613 1.88497,-0.15646 2.6524,-0.62592 3.66577,-2.24243 1.39391,-2.22355 2.90236,-2.63777 4.14654,-1.13863 0.56705,0.68326 0.58452,0.95495 0.0614,0.95495 -0.40211,0 -2.1211,1.03772 -3.81995,2.30603 l -3.08883,2.30603 1.49389,3.81195 c 1.93074,4.92665 2.52657,5.58193 5.07554,5.58193 2.88265,0 3.17114,0.83065 1.2635,3.63801 -2.44716,3.60131 -2.20355,4.25456 1.40181,3.75907 6.96989,-0.95789 27.57898,-1.68832 28.82473,-1.02161 1.42268,0.76139 1.64703,2.21075 0.46042,2.9744 -0.43769,0.28167 -6.66874,0.52007 -13.84678,0.52977 -13.25647,0.0179 -18.69695,0.55776 -18.27831,1.81367 0.12769,0.38304 1.28181,0.94467 2.56471,1.24807 l 2.33257,0.55164 -1.42657,1.19023 -1.42656,1.19023 1.70189,0.0212 c 0.93605,0.0117 2.57802,0.75839 3.64884,1.65942 1.37738,1.15899 2.36942,1.52182 3.39117,1.2403 1.31792,-0.36313 1.34836,-0.32045 0.34804,0.48792 -0.87805,0.70955 -1.02145,1.51699 -0.72059,4.05728 0.26457,2.23392 0.0848,3.73373 -0.60806,5.07362 -0.64094,1.23945 -0.78144,2.22179 -0.40326,2.8195 0.98349,1.55439 0.68621,1.83929 -1.76773,1.69406 -2.21408,-0.13104 -2.41958,0.0151 -3.16883,2.25363 -1.08756,3.24931 -3.34093,6.16764 -5.104,6.61014 -0.80059,0.20094 -1.45561,0.62076 -1.45561,0.93296 0,0.31218 -0.85945,0.56761 -1.9099,0.56761 -1.29272,0 -1.9099,0.31583 -1.9099,0.97735 0,0.79345 -0.24984,0.84364 -1.32779,0.26674 -1.84254,-0.98609 -2.08244,-0.47335 -0.99559,2.12784 0.61347,1.46822 1.9183,2.81289 3.79917,3.91516 1.57564,0.92338 3.02927,2.10751 3.2303,2.63138 0.56163,1.46357 -1.1792,1.75138 -3.45984,0.57201 -1.69017,-0.87402 -2.14746,-0.91019 -2.59425,-0.20521 -1.04831,1.65406 -0.5379,2.55926 2.00672,3.55882 2.85805,1.12267 2.62188,1.95223 -0.75227,2.64232 -2.54806,0.52113 -3.85825,3.14552 -2.58678,5.18148 1.1588,1.85553 0.9386,3.16083 -0.53324,3.16083 -1.58632,0 -4.15261,2.64372 -4.7058,4.84778 -0.31167,1.2418 0.0458,2.12735 1.55028,3.8409 4.11735,4.6894 5.84707,8.50042 3.85812,8.50042 -0.28926,0 -2.14293,-1.3312 -4.11927,-2.95824 l -3.59334,-2.95823 -1.45474,1.36665 c -0.8001,0.75166 -1.96827,1.36666 -2.59592,1.36666 -0.83947,0 -1.01832,0.29455 -0.67645,1.1141 1.71208,4.1043 1.82931,4.62232 1.19068,5.26096 -0.45977,0.45976 -1.42079,0.0611 -3.1336,-1.30013 -1.85212,-1.47187 -2.87549,-1.86746 -4.08867,-1.58047 -2.43715,0.57652 -4.68954,2.39512 -5.75633,4.6477 -0.52523,1.10903 -1.0982,2.01642 -1.27327,2.01642 -0.17507,0 -0.74804,-0.92488 -1.27327,-2.05528 -0.74727,-1.60831 -1.30108,-2.02066 -2.54653,-1.89605 -2.46857,0.24697 -10.77648,4.19662 -10.80094,5.13484 -0.0455,1.74503 1.32801,3.30048 2.91439,3.30048 2.07411,0 5.34001,3.22203 5.34001,5.26826 0,2.43976 -2.62457,5.84024 -4.69246,6.07971 -3.05262,0.3535 -4.22004,-1.359 -4.22279,-6.19442 -0.003,-4.24358 -1.43891,-7.92475 -3.57614,-9.16415 -0.48285,-0.28001 -0.87791,-1.20111 -0.87791,-2.0469 0,-2.37005 -3.55684,-5.97309 -6.73586,-6.82336 -1.50594,-0.40277 -2.58377,-0.98198 -2.39518,-1.28713 1.00655,-1.62863 -4.48701,-4.93102 -8.2028,-4.93102 -1.40605,0 -2.35715,-0.41894 -2.8907,-1.27327 -1.57209,-2.51732 -6.51408,-1.06235 -6.51408,1.9178 0,1.79241 -0.74638,1.93368 -4.012,0.75937 -2.93921,-1.05694 -2.98966,-1.05244 -3.97503,0.35437 -1.40921,2.01193 -3.34894,1.84812 -3.85836,-0.32584 -0.3977,-1.69721 -4.44717,-6.5255 -5.47292,-6.5255 -0.27909,0 -0.50743,0.40585 -0.50743,0.9019 0,0.49604 -0.30697,1.00422 -0.68215,1.12928 -1.19967,0.39989 -0.85295,6.99542 0.58661,11.15888 1.67884,4.85557 1.68772,5.65051 0.12211,10.93338 -0.68568,2.31371 -1.36147,5.57195 -1.50175,7.24053 -0.14136,1.6814 -0.75258,3.58354 -1.37116,4.26706 -0.9443,1.04345 -1.13526,2.68329 -1.24064,10.65384 -0.0734,5.54846 -0.41968,9.96064 -0.84262,10.73452 -0.39494,0.72266 -0.91322,5.16318 -1.15172,9.86782 -0.42134,8.31126 -0.38639,8.65995 1.23226,12.29374 1.84894,4.15078 1.93205,4.45769 1.06143,3.91962 -1.0013,-0.61883 -1.4288,3.54196 -0.98352,9.57234 0.76397,10.34641 0.72934,11.37125 -0.39163,11.59207 -1.57852,0.31095 -2.68071,-3.06315 -2.18292,-6.6825 0.26068,-1.89537 0.12964,-3.79434 -0.34266,-4.96562 -0.42063,-1.04311 -0.89675,-6.19384 -1.05805,-11.44607 -0.39509,-12.86426 -0.53818,-15.85855 -0.77578,-16.23416 -0.11075,-0.17507 -0.2761,-1.99067 -0.36743,-4.03465 -0.15934,-3.56569 -1.85083,-9.33521 -2.73655,-9.33414 -0.23365,2.8e-4 -0.23723,-3.65241 -0.008,-8.11708 0.22927,-4.46468 0.28138,-8.83381 0.11579,-9.70918 -0.28988,-1.53244 -0.26422,-1.54599 0.69068,-0.36479 1.56088,1.93082 1.74594,0.894 0.66915,-3.74901 -1.20659,-5.20275 -0.89981,-6.67689 0.66752,-3.20748 0.71157,1.57512 1.08824,3.70009 0.98743,5.57054 -0.10029,1.86081 0.10442,3.02401 0.53218,3.02401 0.38233,0 0.70386,-0.50135 0.71451,-1.11411 0.0183,-1.05279 0.0555,-1.05205 0.67576,0.0134 0.36102,0.62013 0.92528,0.96132 1.25391,0.75823 0.84834,-0.52431 0.74095,-5.60316 -0.16352,-7.73314 -0.41857,-0.98571 -0.80007,-2.07867 -0.84779,-2.42882 -0.0477,-0.35015 -0.58152,-2.27182 -1.18623,-4.27038 -0.87223,-2.88271 -0.9609,-4.13272 -0.42903,-6.04802 0.36874,-1.32785 0.67204,-3.86991 0.67399,-5.64902 0.004,-3.46944 -0.61041,-4.13542 -4.61608,-5.00511 -1.54106,-0.33458 -1.88782,-0.10197 -2.84727,1.91 -1.08115,2.2672 -1.07614,2.30431 0.48151,3.57389 1.29634,1.05659 1.34939,1.20798 0.30074,0.85816 -0.7003,-0.23361 -1.53707,-0.47515 -1.85949,-0.53674 -0.32242,-0.0616 -1.10392,1.24538 -1.73666,2.90439 -0.63274,1.65901 -1.92681,4.18956 -2.87572,5.62344 -1.5799,2.3874 -1.65611,2.77694 -0.90451,4.62323 0.45141,1.10888 0.97732,2.70766 1.1687,3.55282 0.28736,1.2691 0.15294,1.46184 -0.77203,1.10689 -0.8941,-0.3431 -1.01944,-0.20363 -0.62147,0.69155 1.16829,2.62796 1.24903,13.78818 0.13708,18.94707 -0.60378,2.80119 -1.10512,6.14396 -1.11411,7.42838 -0.0188,2.68491 -0.53838,4.34935 -1.35773,4.34935 -0.77696,0 -0.71698,-3.34643 0.0984,-5.4911 0.36682,-0.96479 0.82946,-4.16248 1.02811,-7.10596 0.34971,-5.18182 0.32127,-5.33044 -0.8951,-4.67946 -0.69094,0.36979 -1.66506,1.32856 -2.16471,2.13061 -1.84325,2.95892 -5.67194,12.6658 -6.63688,16.82653 -1.28917,5.55882 -1.99659,6.90746 -3.12989,5.96691 -0.9523,-0.79033 -0.561,-2.84566 1.18429,-6.22068 1.44051,-2.78563 1.39541,-6.04546 -0.0797,-5.76431 -0.62683,0.11947 -1.2073,0.90561 -1.32717,1.79743 -0.31328,2.33059 -1.3009,3.07945 -2.292,1.73788 -0.74305,-1.00579 -0.87347,-0.87549 -1.27445,1.27327 -0.95334,5.10875 -1.68979,16.38413 -2.00675,30.72393 -0.18187,8.22849 -0.61551,15.86663 -0.96364,16.97365 -0.7302,2.32194 -2.05967,3.08214 -3.13154,1.79063 z m 8.17497,-54.30648 c 0.23429,-1.59223 -0.83255,-1.87665 -1.40859,-0.37554 -0.60499,1.57659 -0.45727,2.30559 0.40936,2.02018 0.43769,-0.14414 0.88734,-0.88423 0.99923,-1.64464 z m 5.58402,-9.97591 c 0.7428,-1.13365 0.90832,-2.18493 0.57634,-3.66065 -0.69531,-3.09083 -0.57127,-8.56333 0.29762,-13.13125 0.98902,-5.19938 0.46036,-8.18446 -1.6171,-9.13102 -2.22689,-1.01464 -5.89777,0.0551 -7.47304,2.17772 -1.11441,1.50163 -1.16283,1.86019 -0.37932,2.80922 0.69512,0.84197 0.71826,1.14843 0.10235,1.35572 -1.24499,0.41903 -0.9325,1.435 0.44138,1.435 2.33904,0 3.21927,2.37624 3.21927,8.69074 0,4.36083 0.24441,6.1053 0.95495,6.81583 0.52522,0.52523 0.95495,1.50065 0.95495,2.16759 0,2.48822 1.448,2.72163 2.9226,0.4711 z m -11.15486,-16.79096 c 1.60073,-3.02558 1.61061,-3.12224 0.46433,-4.53786 -1.13081,-1.39648 -1.21474,-1.40705 -2.43136,-0.30603 -1.26813,1.14764 -1.60738,3.72051 -0.85885,6.5136 0.55202,2.05988 0.98942,1.80144 2.82588,-1.66971 z m -7.29918,-0.56571 c 0.4791,-1.26929 0.43692,-2.72927 -0.15176,-5.25223 -0.44844,-1.92186 -0.82747,-5.86698 -0.8423,-8.76696 -0.0325,-6.36116 -1.2717,-10.089 -3.03921,-9.14306 -0.62707,0.3356 -1.63246,1.1542 -2.23419,1.81911 -1.03709,1.14596 -1.01278,1.51269 0.46679,7.04134 1.35274,5.05476 1.47352,6.30485 0.90584,9.37567 -0.94336,5.10313 -0.33494,6.33805 3.25674,6.61023 0.536,0.0406 1.27314,-0.71724 1.63809,-1.6841 z m -41.81456,-48.58508 c 1.07738,-1.07738 1.95887,-2.08008 1.95887,-2.22822 0,-0.14815 -0.79571,-0.26935 -1.76824,-0.26935 -2.26918,0 -4.5981,1.63055 -4.5981,3.21927 0,1.88199 2.15697,1.5288 4.40747,-0.7217 z m -17.88227,-25.33771 c 0.65248,-0.4136 0.44803,-0.85422 -0.88164,-1.90015 -2.6812,-2.10903 -3.66248,-1.55524 -2.17363,1.2267 0.70647,1.32005 1.6924,1.53737 3.05527,0.67345 z M 57.91336,186.80479 c 0,-0.79774 -0.678014,-1.21849 -2.387376,-1.48153 -1.313057,-0.20205 -7.257623,-1.11005 -13.210148,-2.01777 -5.952525,-0.90773 -13.616002,-2.14904 -17.02995,-2.75848 -3.633969,-0.64871 -6.207178,-0.85404 -6.207178,-0.49529 0,0.33703 0.598392,1.81094 1.329761,3.27537 l 1.329761,2.66259 5.67321,0.1455 c 4.98013,0.12772 5.673208,0.0128 5.673208,-0.94079 0,-1.02257 0.07066,-1.02234 1.204694,0.004 0.873422,0.79044 3.017954,1.23293 7.798762,1.60917 3.626737,0.28541 6.677013,0.30659 6.77839,0.0471 0.101376,-0.25954 1.247317,-0.0984 2.546534,0.35805 3.39004,1.19119 6.500332,0.99605 6.500332,-0.40769 z M 315.75969,174.4326 c 1.14957,-0.59446 1.72479,-1.30291 1.51075,-1.86068 -0.62725,-1.63458 -2.08946,-1.60427 -3.40693,0.0706 -2.22131,2.82393 -1.47166,3.53163 1.89618,1.79005 z M 97.84886,104.97824 c -0.211553,-0.21155 -0.76065,-0.23416 -1.220216,-0.0503 -0.507862,0.20323 -0.357012,0.35408 0.384635,0.38463 0.671113,0.0276 1.047128,-0.12282 0.835581,-0.33437 z"
       style="opacity:0.5;stroke-width:0.636634" />
    <path
       transform="matrix(0.26458334,0,0,0.26458334,56.316563,97.128542)"
       id="path97"
       d="m 172.4938,384.51032 c -0.47114,-0.56769 -0.61297,-2.12746 -0.38732,-4.25943 1.92339,-18.17236 2.05497,-20.42308 1.49933,-25.64594 -0.22832,-2.14607 -0.0892,-5.3111 0.31754,-7.22324 0.55,-2.58571 0.54334,-3.69259 -0.0277,-4.60695 -0.41339,-0.66194 -0.75162,-2.53498 -0.75162,-4.16231 0,-3.11089 -0.0669,-3.42456 -3.10919,-14.56592 -1.05173,-3.85163 -2.00389,-7.57594 -2.11593,-8.27624 -0.25005,-1.563 -1.71322,-1.66036 -2.64935,-0.17628 -0.54566,0.86504 -0.42573,1.30261 0.56724,2.06953 1.18311,0.91376 1.19188,1.0129 0.1451,1.64034 -1.53773,0.92172 -1.4563,5.16724 0.19671,10.25648 1.4393,4.43129 2.54435,11.35696 1.8121,11.35696 -0.25476,0 -1.18389,-0.85649 -2.06474,-1.90333 -1.13127,-1.34444 -1.71741,-2.98015 -1.99612,-5.57054 -0.21702,-2.01697 -0.679,-4.81316 -1.02662,-6.21375 -0.34762,-1.4006 -0.73677,-3.26275 -0.86478,-4.13812 -0.12801,-0.87537 -0.98133,-5.17265 -1.89626,-9.5495 -2.11141,-10.1005 -2.7897,-22.99449 -1.4652,-27.85273 l 0.91122,-3.34232 h -1.81664 c -1.0255,0 -1.81941,0.34656 -1.823,0.79579 -0.003,0.43768 -0.42764,4.5201 -0.94253,9.07203 -1.26787,11.20858 -1.24826,16.67449 0.0645,17.98729 0.91533,0.91534 0.92121,1.10184 0.0547,1.73543 -0.53395,0.39043 -1.06707,1.55331 -1.18471,2.58418 -0.30766,2.69589 -2.05375,2.77283 -2.86599,0.12628 -0.35896,-1.16959 -0.44241,-2.69487 -0.18544,-3.38951 0.76305,-2.06272 1.75286,-19.39322 1.324,-23.18179 -0.31668,-2.79752 -0.6107,-3.46609 -1.46246,-3.32544 -0.58636,0.0968 -1.24786,-0.11804 -1.47,-0.47748 -0.22216,-0.35944 -0.10052,-0.65352 0.27029,-0.65352 0.81848,0 0.90004,-1.69518 0.1052,-2.18641 -0.89852,-0.55532 -4.89901,1.35892 -7.36521,3.52427 -1.23856,1.08747 -2.25192,1.66105 -2.25192,1.27463 0,-0.38642 -0.57297,-0.70258 -1.27327,-0.70258 -0.70029,0 -1.27326,-0.29847 -1.27326,-0.66326 0,-0.36479 -0.55948,-1.26378 -1.24327,-1.99775 -0.9968,-1.06994 -1.74705,-1.26692 -3.7844,-0.99365 -2.33274,0.31288 -2.48191,0.24601 -1.81904,-0.81541 0.55069,-0.88181 0.52379,-1.39518 -0.11336,-2.16289 -0.86136,-1.03788 -2.58944,-1.38366 -2.58944,-0.51814 0,0.26868 -0.97342,0.44273 -2.16315,0.38677 -1.18973,-0.056 -3.83972,0.29271 -5.88886,0.77481 -4.96605,1.16837 -7.89902,1.11927 -9.72955,-0.16287 l -1.51239,-1.05932 3.12148,-0.82249 c 1.71681,-0.45237 5.17985,-0.83512 7.69563,-0.85058 2.51579,-0.0155 5.38064,-0.34873 6.36634,-0.74062 1.83837,-0.73088 1.77258,-0.8095 -1.23183,-1.47214 -0.9629,-0.21237 -1.75074,-0.7911 -1.75074,-1.28605 0,-1.92183 -6.76878,-2.13912 -12.40512,-0.39823 -2.20605,0.68138 -4.58285,1.08932 -5.2818,0.90654 -0.76098,-0.199 -2.29171,0.34327 -3.81547,1.35166 -1.399574,0.92618 -4.785001,2.23044 -7.523187,2.89834 -2.738181,0.6679 -6.423494,1.97289 -8.189586,2.89997 -1.766091,0.92709 -4.773078,2.23081 -6.682195,2.89716 -1.909112,0.66636 -4.065912,1.77033 -4.792878,2.45328 -1.642954,1.54347 -6.395908,3.2702 -7.663054,2.78396 -1.279046,-0.49082 -1.187475,-1.71791 0.223487,-2.99481 1.125934,-1.01895 11.580283,-5.46416 22.008718,-9.35815 2.767536,-1.03339 6.778328,-2.84286 8.912871,-4.02103 2.134544,-1.17817 4.740444,-2.34577 5.790894,-2.59468 2.4,-0.56869 13.05099,-6.61364 13.05099,-7.40708 0,-1.09996 -1.83348,-0.59482 -2.78815,0.76817 -0.65561,0.936 -1.30867,1.21892 -2.10517,0.912 -1.01714,-0.39196 -0.90365,-0.65018 0.9526,-2.16757 1.15901,-0.94742 1.8991,-1.93079 1.64463,-2.18526 -1.07339,-1.07339 -2.93964,-0.27299 -6.37705,2.73501 -2.00979,1.75872 -3.94233,3.10162 -4.29454,2.98422 -2.04392,-0.6813 -0.10815,-2.93783 5.75202,-6.70512 5.29384,-3.40323 12.94536,-11.52452 12.94536,-13.74015 0,-1.38474 -0.62958,-1.28883 -4.40803,0.67151 -1.78875,0.92803 -3.39669,1.54292 -3.57319,1.36643 -0.49498,-0.49499 4.1291,-3.34571 7.50374,-4.62601 2.43133,-0.92242 3.02401,-1.44227 3.02401,-2.65237 0,-0.91344 -0.37539,-1.50509 -0.95495,-1.50509 -0.52522,0 -0.9569,-0.21487 -0.9593,-0.47748 -0.003,-0.26261 -0.99176,-1.14986 -2.19859,-1.97167 l -2.19424,-1.49418 -4.32691,1.41977 c -2.37979,0.78087 -4.685,1.7032 -5.12269,2.04961 -0.53601,0.42424 -0.79579,0.40136 -0.79579,-0.0701 0,-1.19065 -7.31428,-0.7431 -9.822107,0.60101 -1.225284,0.65671 -2.667902,1.02514 -3.205813,0.81872 -0.537911,-0.20641 -1.471343,-0.18599 -2.074286,0.0454 -0.939111,0.36036 -0.961928,0.50563 -0.159159,1.01331 0.697967,0.4414 0.439704,0.59512 -1.01205,0.60239 -2.747768,0.0138 -11.436709,2.35296 -15.367298,4.13715 -1.820785,0.8265 -4.972122,1.70151 -7.00297,1.94447 -2.030852,0.24296 -5.025904,1.00508 -6.655673,1.69361 -3.644737,1.5398 -5.876792,1.34053 -6.145926,-0.54868 -0.223844,-1.57129 0.33515,-1.82603 5.925975,-2.70047 5.488329,-0.85841 9.608673,-2.48079 10.386798,-4.08978 0.559691,-1.15731 0.675106,-1.19707 0.711203,-0.245 0.03571,0.94193 0.264133,1.01821 1.334187,0.44553 0.710101,-0.38004 1.095678,-1.00717 0.856826,-1.39363 -0.30936,-0.50056 0.746319,-0.58171 3.670409,-0.28213 3.470577,0.35558 4.690513,0.18605 7.896887,-1.09741 6.680795,-2.67419 12.047808,-5.27205 12.790907,-6.19134 0.89835,-1.11135 0.0116,-3.75863 -1.259008,-3.75863 -1.91043,0 -4.874844,0.82267 -4.874844,1.35285 0,0.30638 0.214864,0.51157 0.477475,0.45598 1.131578,-0.23953 2.705693,0.97004 2.705693,2.07909 0,1.34098 0.04959,1.31908 -3.501485,1.54598 -2.194406,0.14022 -2.898663,-0.17509 -5.093069,-2.28029 -2.537208,-2.43407 -5.087225,-3.79288 -7.787653,-4.14979 -1.582213,-0.20912 -3.762982,2.09795 -4.406421,4.6616 -0.655141,2.6103 -1.522274,0.20375 -1.101288,-3.0564 0.403212,-3.1225 -0.719408,-4.92811 -2.612375,-4.20171 -1.297777,0.49801 -2.872956,-0.16683 -2.872956,-1.2126 0,-1.99639 -3.132432,-1.44343 -4.825151,0.85176 -0.551356,0.7476 -0.962557,0.78412 -2.082217,0.1849 -0.767351,-0.41068 -1.662573,-0.58143 -1.989382,-0.37945 -0.326809,0.20198 -1.323587,0.18417 -2.21506,-0.0396 -1.178826,-0.29584 -1.620862,-0.82746 -1.620862,-1.94933 0,-0.84841 -0.381299,-1.68887 -0.847331,-1.8677 -0.797324,-0.30597 -5.397941,0.50664 -7.555281,1.3345 -0.639425,0.24537 -1.096974,-0.0731 -1.317706,-0.9172 -0.185982,-0.71119 -1.343988,-1.88653 -2.573348,-2.61187 -2.653404,-1.56555 -3.163772,-2.61836 -2.331049,-4.80858 0.799336,-2.10241 0.790417,-5.1274 -0.01958,-6.6409 -0.435309,-0.81338 -0.422819,-1.32598 0.03927,-1.61157 0.372694,-0.23034 0.939348,-1.10718 1.259232,-1.94854 0.397281,-1.04492 1.079588,-1.52974 2.152853,-1.52974 2.175533,0 3.553342,-2.24333 3.553342,-5.78551 0,-1.99878 0.41521,-3.48351 1.28253,-4.58613 l 1.28253,-1.63047 -3.35159,-0.37611 c -3.32248,-0.37285 -20.79783,-1.60932 -22.915895,-1.62143 -0.939565,-0.005 -1.044318,0.41403 -0.710929,2.84637 0.334084,2.43741 0.149888,3.16877 -1.265383,5.02428 -1.333573,1.7484 -2.1876,2.2234 -4.382139,2.43727 -2.314572,0.22556 -2.991013,0.002 -4.484151,-1.48149 -0.967117,-0.96091 -1.923408,-2.57218 -2.125093,-3.5806 -0.273926,-1.36964 -1.036111,-2.14514 -3.0126957,-3.06533 -4.4951023,-2.09269 -5.5067775,-7.76652 -2.1357,-11.97777 1.2775107,-1.5959 1.9566803,-1.85673 5.2496167,-2.01609 2.080246,-0.10067 6.774447,0.20313 10.431556,0.6751 4.600269,0.59368 7.02178,0.65877 7.858059,0.21121 1.262773,-0.67582 4.329359,-0.20484 4.923273,0.75613 0.402573,0.65138 20.22119,2.87503 20.766244,2.32997 0.20255,-0.20255 -0.23595,-1.21683 -0.974446,-2.25395 -1.813573,-2.54692 -1.698943,-3.15198 0.715689,-3.77768 1.769881,-0.45863 2.179701,-0.96285 2.923754,-3.59722 0.684146,-2.42228 1.252939,-3.21014 2.716345,-3.76251 2.413101,-0.91084 2.334408,-1.62537 -0.421158,-3.82404 -2.427829,-1.93717 -2.574003,-2.91928 -0.249324,-1.67515 1.103175,0.5904 1.748016,0.5709 2.98337,-0.0902 1.382036,-0.73965 1.68118,-0.69961 2.430628,0.32533 0.811832,1.11024 0.937375,1.07949 2.506925,-0.61409 1.213723,-1.30962 1.557079,-2.21641 1.293551,-3.41623 -0.197312,-0.89836 -0.46578,-3.63791 -0.596596,-6.0879 -0.256933,-4.81199 0.577261,-7.19819 3.293949,-9.42227 2.012424,-1.64752 1.968668,-5.156 -0.08105,-6.49903 -2.201473,-1.44246 -5.135985,-2.16158 -10.72168,-2.62741 -4.654513,-0.38817 -5.036408,-0.53632 -6.5718,-2.54932 -1.043664,-1.36831 -2.174408,-2.13719 -3.14303,-2.13719 -1.299697,0 -1.779876,-0.69534 -3.407228,-4.93392 -2.65946,-6.92679 -4.295631,-13.72421 -3.377172,-14.03036 0.397378,-0.13246 0.722505,-0.89454 0.722505,-1.69352 0,-0.79897 0.620718,-2.24179 1.379373,-3.20626 0.758655,-0.96447 1.379373,-2.5583 1.379373,-3.54183 0,-1.597201 0.607288,-2.116184 5.684302,-4.857766 3.126366,-1.688234 6.664452,-4.14994 7.862414,-5.470458 l 2.178113,-2.400943 0.644923,1.764309 c 0.354708,0.97037 0.770674,2.122415 0.92437,2.560101 0.33564,0.955814 1.365614,1.041596 1.910993,0.159158 0.723477,-1.170608 2.708851,-0.655509 5.993734,1.555052 3.151426,2.120754 3.327964,2.161962 5.454912,1.273267 2.794052,-1.167431 2.875611,-1.15932 2.875611,0.285995 0,0.662427 1.226889,2.596202 2.726422,4.297275 1.499533,1.70108 3.069064,3.8807 3.487835,4.84361 0.418778,0.96291 1.054043,1.75074 1.411697,1.75074 1.072957,0 0.737254,-1.84382 -0.686253,-3.76922 -1.14121,-1.54356 -1.221509,-2.02268 -0.549478,-3.278379 l 0.787051,-1.470624 1.168955,1.4436 c 0.64293,0.793983 1.678032,2.119733 2.300227,2.946123 0.869413,1.15473 1.536509,1.42085 2.882009,1.14971 0.962908,-0.19405 1.750742,-0.60245 1.750742,-0.90757 0,-0.73376 -9.116453,-7.959079 -11.679076,-9.256342 -1.104699,-0.559228 -2.474499,-1.424328 -3.043993,-1.922443 -0.898914,-0.786242 -1.085161,-0.776118 -1.412448,0.07677 -0.505793,1.318073 -2.088554,1.248454 -2.611714,-0.114879 -0.262891,-0.68509 -0.0088,-1.398771 0.676354,-1.899776 1.032562,-0.755026 1.025292,-0.882181 -0.123004,-2.151033 -0.671241,-0.741713 -2.08057,-1.782478 -3.131843,-2.312811 -4.140926,-2.088963 -6.107169,-5.261427 -3.807814,-6.143773 0.623907,-0.239416 2.605684,1.133888 5.570544,3.860196 2.53116,2.327502 5.878815,5.044389 7.439236,6.037527 2.618175,1.666348 2.884205,1.71939 3.447079,0.687286 0.335467,-0.615132 0.777667,-1.261663 0.982669,-1.436737 0.204996,-0.175075 0.675004,-0.866834 1.044461,-1.537243 0.369458,-0.670409 1.25308,-1.604918 1.963601,-2.076685 1.127841,-0.74886 1.567927,-0.672321 3.466375,0.602856 2.823094,1.896255 3.180894,4.290798 0.971305,6.500382 -0.882068,0.882068 -2.339596,1.603759 -3.238956,1.603759 -1.597632,0 -1.61125,0.03654 -0.592948,1.590671 0.912029,1.391932 6.615473,6.048935 7.408143,6.048935 0.16089,0 1.48372,-1.412693 2.93963,-3.139316 2.35438,-2.792148 2.57549,-3.327667 1.99954,-4.842552 -0.51969,-1.366878 -0.39414,-2.113296 0.63571,-3.779643 0.70581,-1.142022 1.29009,-2.758802 1.29841,-3.592843 0.01,-0.991682 0.55478,-0.194611 1.57465,2.303362 1.66647,4.081694 4.05023,6.684653 6.12174,6.684653 2.40044,0 6.85239,-1.404383 7.77636,-2.453081 0.50804,-0.576622 1.09846,-2.910557 1.31206,-5.186523 0.2136,-2.275965 0.63291,-5.857029 0.9318,-7.95792 0.5379,-3.780773 0.54461,-3.79053 0.65729,-0.954951 0.0627,1.575668 0.53447,3.420956 1.04855,4.10064 0.59121,0.781641 0.93471,2.703582 0.93471,5.229829 0,4.657521 0.56559,5.199651 6.01103,5.76167 5.44475,0.561948 7.76337,-0.562965 9.7868,-4.748218 1.66558,-3.445085 3.45428,-5.309968 4.29073,-4.473509 0.2277,0.227694 0.05,2.450978 -0.39496,4.940631 -0.70589,3.949924 -0.68406,4.651544 0.17141,5.507007 0.88273,0.882733 1.23999,0.847913 3.58738,-0.349634 1.43386,-0.731501 2.90308,-1.883201 3.26493,-2.559336 0.94483,-1.765419 0.81052,-5.813522 -0.29703,-8.952644 -0.52522,-1.48864 -0.95495,-4.207633 -0.95495,-6.042206 0,-4.159647 1.37275,-6.069207 5.49466,-7.643379 3.02388,-1.154835 3.16057,-1.143323 7.39238,0.622555 1.03591,0.432269 1.04547,0.310108 0.1446,-1.845982 -0.87091,-2.084378 -0.86674,-2.346478 0.0428,-2.695505 1.37863,-0.529029 4.75131,2.801989 4.75131,4.692616 0,0.820851 -0.42818,1.656761 -0.9515,1.857578 -0.83839,0.321724 -0.83291,0.565276 0.0461,2.049079 l 0.99759,1.683957 h 8.41256 c 9.37107,0 11.01196,-0.535683 12.47729,-4.073303 0.67161,-1.621413 1.00092,-1.838925 1.98594,-1.311756 0.64946,0.347578 1.48809,1.773029 1.86363,3.167668 0.73787,2.740268 0.82153,2.782223 5.09015,2.552578 3.29886,-0.177474 3.79663,-0.702126 3.81005,-4.015811 0.006,-1.545665 0.35157,-2.538524 0.9647,-2.773806 1.44218,-0.553417 1.1956,-1.123385 -1.70325,-3.937018 -2.3541,-2.284904 -2.67465,-2.946128 -2.80197,-5.780024 -0.12062,-2.684778 0.056,-3.263377 1.09717,-3.593825 1.77066,-0.561986 3.25441,0.878432 2.79409,2.712492 -0.77093,3.07163 2.97144,11.421605 7.71421,17.211963 2.48941,3.039264 3.61959,3.467178 3.03809,1.150292 -0.54738,-2.180893 0.1283,-3.073112 1.69305,-2.235679 0.94892,0.507848 1.48478,0.433673 2.22669,-0.308224 0.87827,-0.878273 1.1517,-0.847868 2.70541,0.300838 3.3345,2.465272 8.38358,-0.283223 8.38358,-4.563627 0,-1.388735 0.29852,-1.824045 1.25087,-1.824045 0.68798,0 1.55751,0.57297 1.9323,1.273267 0.78165,1.460536 2.6948,1.673855 3.73807,0.416799 0.39094,-0.471057 0.89156,-1.76024 1.11248,-2.864851 0.49097,-2.45487 1.23324,-2.517295 3.54917,-0.298489 1.75616,1.682505 1.82007,1.693051 3.98976,0.658398 1.41477,-0.674655 2.69737,-2.016615 3.57885,-3.744463 1.30627,-2.560487 1.41846,-2.632026 2.28066,-1.45419 0.49873,0.681327 0.75373,1.849837 0.56666,2.596688 -0.26775,1.068949 0.0809,1.532315 1.63848,2.177478 1.24273,0.514757 2.27255,0.601663 2.76898,0.233672 3.87552,-2.872878 4.27856,-3.041441 5.47922,-2.291616 2.95384,1.844706 4.33627,0.320714 6.69514,-7.380697 0.88721,-2.89664 2.30095,-6.047977 3.14166,-7.00297 l 1.52855,-1.736352 0.0126,1.591584 c 0.007,0.875371 -0.70024,4.455768 -1.57147,7.956438 -1.94267,7.805824 -1.96084,8.896554 -0.16913,10.151521 2.0056,1.404777 3.11559,1.237378 4.66297,-0.703229 1.6889,-2.118076 2.48207,-1.653493 3.39986,1.991391 0.46278,1.837847 1.29433,3.240626 2.31899,3.912014 1.59556,1.045448 1.97569,1.03971 9.31516,-0.140612 1.93627,-0.311387 2.45237,-0.148503 3.04641,0.961461 0.39336,0.734999 1.18479,1.336362 1.75873,1.336362 0.85227,0 0.77507,0.285758 -0.42126,1.559191 -2.14465,2.282863 -1.3566,3.602135 2.02372,3.387947 2.85214,-0.180721 3.0856,0.138641 2.20089,3.010782 -0.29719,0.964776 0.53434,2.25601 3.43204,5.329442 3.70289,3.927451 3.90302,4.04358 6.3064,3.659265 3.21773,-0.514537 3.81356,0.482764 1.64238,2.748996 -1.36917,1.429107 -1.66785,2.300604 -1.56411,4.563861 0.0705,1.538594 0.71029,3.871764 1.4217,5.184824 1.21142,2.23591 1.48306,2.38737 4.28147,2.38737 3.91959,0 4.74364,0.97302 3.44871,4.07221 -0.55668,1.33233 -1.63814,2.59052 -2.51232,2.92288 -0.84419,0.32097 -1.83246,1.13958 -2.19616,1.81916 -1.02502,1.91527 0.81798,7.28636 3.18308,9.27645 l 1.94163,1.63378 -1.79295,0.76532 c -2.85453,1.21844 -4.02117,2.495 -4.02117,4.40001 0,1.91292 0.55097,2.45548 3.49373,3.44039 1.04618,0.35015 1.997,1.13144 2.11293,1.7362 0.16297,0.85009 -0.3894,1.19555 -2.43456,1.52258 -2.26671,0.36246 -2.90527,0.84059 -4.46116,3.34036 l -1.8158,2.91734 3.46233,3.6299 c 1.90428,1.99644 3.46233,3.93764 3.46233,4.31378 0,0.37615 0.78796,0.6839 1.75102,0.6839 1.96296,0 5.65142,-3.18372 8.70161,-7.51087 1.12384,-1.59433 3.01064,-3.1817 4.77475,-4.01702 7.50189,-3.55218 10.90641,-5.24392 15.26782,-7.58675 4.85654,-2.6088 8.41268,-3.21794 10.92784,-1.87187 1.99249,1.06635 1.64712,4.7529 -0.66154,7.06157 -1.63427,1.63427 -2.20146,1.83508 -4.15045,1.46945 -1.86038,-0.34901 -3.20855,0.0391 -7.66417,2.20627 -2.97368,1.44637 -6.90731,3.02748 -8.74139,3.51357 -5.20291,1.37894 -6.68556,2.08943 -10.55194,5.05654 -1.98304,1.52182 -4.53661,3.24575 -5.67459,3.83096 -1.73883,0.8942 -2.06906,1.42041 -2.06906,3.29705 0,2.18926 -2.52811,8.07704 -3.80769,8.86788 -0.35681,0.22051 -0.64875,0.6483 -0.64875,0.95063 0,0.75539 4.27695,2.10777 5.08551,1.60806 0.35968,-0.2223 1.08492,0.0268 1.61164,0.5535 1.58086,1.58086 6.2824,1.93312 11.00453,0.8245 5.52767,-1.29774 11.07938,-1.87516 11.96564,-1.2445 1.80786,1.28645 2.1132,3.11058 0.86442,5.16403 -0.67533,1.11049 -1.6657,2.01908 -2.20082,2.01908 -1.22751,0 -3.66061,-1.34162 -4.32963,-2.38738 -0.28001,-0.43768 -1.46282,-0.79579 -2.62846,-0.79579 -1.76189,0 -2.25487,0.32719 -2.92288,1.93993 -0.44196,1.06696 -1.64066,2.37281 -2.66379,2.90189 -1.75222,0.9061 -2.03046,0.86221 -4.79124,-0.75571 -2.78507,-1.63215 -3.21888,-1.69766 -8.71369,-1.31577 -7.37169,0.51233 -8.64756,0.87603 -8.64756,2.46509 0,0.74739 0.32641,1.14554 0.79579,0.97067 5.43305,-2.02398 5.34801,-2.01712 7.17684,-0.57856 0.96172,0.75648 2.10794,1.37543 2.54715,1.37543 0.43921,0 1.47035,0.54398 2.29141,1.20883 l 1.49285,1.20884 -3.68417,0.46031 c -2.02629,0.25316 -5.07686,0.27555 -6.77905,0.0497 -3.07228,-0.40755 -3.11209,-0.38956 -5.4486,2.46185 -2.89147,3.52864 -2.6467,4.96211 0.79844,4.67613 1.88497,-0.15646 2.6524,-0.62592 3.66577,-2.24243 1.39391,-2.22355 2.90236,-2.63777 4.14654,-1.13863 0.56705,0.68326 0.58452,0.95495 0.0614,0.95495 -0.40211,0 -2.1211,1.03772 -3.81995,2.30603 l -3.08883,2.30603 1.49389,3.81195 c 1.93074,4.92665 2.52657,5.58193 5.07554,5.58193 2.88265,0 3.17114,0.83065 1.2635,3.63801 -2.44716,3.60131 -2.20355,4.25456 1.40181,3.75907 6.96989,-0.95789 27.57898,-1.68832 28.82473,-1.02161 1.42268,0.76139 1.64703,2.21075 0.46042,2.9744 -0.43769,0.28167 -6.66874,0.52007 -13.84678,0.52977 -13.25647,0.0179 -18.69695,0.55776 -18.27831,1.81367 0.12769,0.38304 1.28181,0.94467 2.56471,1.24807 l 2.33257,0.55164 -1.42657,1.19023 -1.42656,1.19023 1.70189,0.0212 c 0.93605,0.0117 2.57802,0.75839 3.64884,1.65942 1.37738,1.15899 2.36942,1.52182 3.39117,1.2403 1.31792,-0.36313 1.34836,-0.32045 0.34804,0.48792 -0.87805,0.70955 -1.02145,1.51699 -0.72059,4.05728 0.26457,2.23392 0.0848,3.73373 -0.60806,5.07362 -0.64094,1.23945 -0.78144,2.22179 -0.40326,2.8195 0.98349,1.55439 0.68621,1.83929 -1.76773,1.69406 -2.21408,-0.13104 -2.41958,0.0151 -3.16883,2.25363 -1.08756,3.24931 -3.34093,6.16764 -5.104,6.61014 -0.80059,0.20094 -1.45561,0.62076 -1.45561,0.93296 0,0.31218 -0.85945,0.56761 -1.9099,0.56761 -1.29272,0 -1.9099,0.31583 -1.9099,0.97735 0,0.79345 -0.24984,0.84364 -1.32779,0.26674 -1.84254,-0.98609 -2.08244,-0.47335 -0.99559,2.12784 0.61347,1.46822 1.9183,2.81289 3.79917,3.91516 1.57564,0.92338 3.02927,2.10751 3.2303,2.63138 0.56163,1.46357 -1.1792,1.75138 -3.45984,0.57201 -1.69017,-0.87402 -2.14746,-0.91019 -2.59425,-0.20521 -1.05143,1.65899 -0.53508,2.56037 2.04792,3.575 2.37717,0.93377 2.50819,1.09946 1.4699,1.85868 -0.62695,0.45844 -1.80751,0.83353 -2.62347,0.83353 -2.03759,0 -3.2125,2.5717 -2.19508,4.8047 1.0841,2.37933 0.90639,3.47154 -0.56484,3.47154 -1.58632,0 -4.15261,2.64372 -4.7058,4.84778 -0.31167,1.2418 0.0458,2.12735 1.55028,3.8409 4.11735,4.6894 5.84707,8.50042 3.85812,8.50042 -0.28926,0 -2.14293,-1.3312 -4.11927,-2.95824 l -3.59334,-2.95823 -1.45474,1.36665 c -0.8001,0.75166 -1.96827,1.36666 -2.59592,1.36666 -0.83947,0 -1.01832,0.29455 -0.67645,1.1141 1.71208,4.1043 1.82931,4.62232 1.19068,5.26096 -0.45977,0.45976 -1.42079,0.0611 -3.1336,-1.30013 -1.85212,-1.47187 -2.87549,-1.86746 -4.08867,-1.58047 -2.43715,0.57652 -4.68954,2.39512 -5.75633,4.6477 -0.52523,1.10903 -1.0982,2.01642 -1.27327,2.01642 -0.17507,0 -0.74804,-0.92488 -1.27327,-2.05528 -0.74727,-1.60831 -1.30108,-2.02066 -2.54653,-1.89605 -2.46857,0.24697 -10.77648,4.19662 -10.80094,5.13484 -0.0455,1.74503 1.32801,3.30048 2.91439,3.30048 2.07411,0 5.34001,3.22203 5.34001,5.26826 0,2.43976 -2.62457,5.84024 -4.69246,6.07971 -3.05262,0.3535 -4.22004,-1.359 -4.22279,-6.19442 -0.003,-4.19057 -1.43449,-7.91988 -3.50361,-9.12355 -0.44296,-0.25769 -0.99014,-1.45337 -1.21595,-2.65706 -0.51019,-2.71953 -3.95639,-5.88449 -7.0366,-6.46234 -1.22994,-0.23073 -2.06745,-0.69264 -1.86115,-1.02646 1.03523,-1.67504 -4.38888,-4.98315 -8.17058,-4.98315 -1.40605,0 -2.35715,-0.41894 -2.8907,-1.27327 -1.57209,-2.51732 -6.51408,-1.06235 -6.51408,1.9178 0,1.79241 -0.74638,1.93368 -4.012,0.75937 -2.93921,-1.05694 -2.98966,-1.05244 -3.97503,0.35437 -1.40921,2.01193 -3.34894,1.84812 -3.85836,-0.32584 -0.3977,-1.69721 -4.44717,-6.5255 -5.47292,-6.5255 -0.27909,0 -0.50743,0.40585 -0.50743,0.9019 0,0.49604 -0.30697,1.00422 -0.68215,1.12928 -1.19967,0.39989 -0.85295,6.99542 0.58661,11.15888 1.67884,4.85557 1.68772,5.65051 0.12211,10.93338 -0.68568,2.31371 -1.36147,5.57195 -1.50175,7.24053 -0.14136,1.6814 -0.75258,3.58354 -1.37116,4.26706 -0.9443,1.04345 -1.13526,2.68329 -1.24064,10.65384 -0.0734,5.54846 -0.41968,9.96064 -0.84262,10.73452 -0.39494,0.72266 -0.91322,5.16318 -1.15172,9.86782 -0.42134,8.31126 -0.38639,8.65995 1.23226,12.29374 1.84894,4.15078 1.93205,4.45769 1.06143,3.91962 -1.0013,-0.61883 -1.4288,3.54196 -0.98352,9.57234 0.76397,10.34641 0.72934,11.37125 -0.39163,11.59207 -1.57852,0.31095 -2.68071,-3.06315 -2.18292,-6.6825 0.26106,-1.89819 0.12971,-3.79261 -0.3443,-4.96562 -0.42151,-1.04311 -0.89122,-6.0506 -1.04378,-11.12775 -0.36055,-11.99866 -0.56109,-16.16137 -0.79743,-16.55248 -0.10579,-0.17507 -0.26708,-1.99067 -0.35841,-4.03465 -0.15934,-3.56569 -1.85083,-9.33521 -2.73655,-9.33414 -0.23365,2.8e-4 -0.23723,-3.65241 -0.008,-8.11708 0.22927,-4.46468 0.258,-8.83381 0.0638,-9.70918 -0.35133,-1.5839 -0.34643,-1.58573 1.01556,-0.3788 1.63278,1.44688 1.62221,1.55136 0.38368,-3.78906 -1.1954,-5.15446 -0.88149,-6.61004 0.68006,-3.15342 0.71157,1.57512 1.08824,3.70009 0.98743,5.57054 -0.10029,1.86081 0.10442,3.02401 0.53218,3.02401 0.38233,0 0.70386,-0.50135 0.71451,-1.11411 0.0183,-1.05279 0.0555,-1.05205 0.67576,0.0134 0.36102,0.62013 0.92528,0.96132 1.25391,0.75823 0.84834,-0.52431 0.74095,-5.60316 -0.16352,-7.73314 -0.41857,-0.98571 -0.80007,-2.07867 -0.84779,-2.42882 -0.0477,-0.35015 -0.58152,-2.27182 -1.18623,-4.27038 -0.87223,-2.88271 -0.9609,-4.13272 -0.42903,-6.04802 0.36874,-1.32785 0.67204,-3.86991 0.67399,-5.64902 0.004,-3.46944 -0.61041,-4.13542 -4.61608,-5.00511 -1.54106,-0.33458 -1.88782,-0.10197 -2.84727,1.91 -1.08115,2.2672 -1.07614,2.30431 0.48151,3.57389 1.29634,1.05659 1.34939,1.20798 0.30074,0.85816 -0.7003,-0.23361 -1.53707,-0.47515 -1.85949,-0.53674 -0.32242,-0.0616 -1.10392,1.24538 -1.73666,2.90439 -0.63274,1.65901 -1.92681,4.18956 -2.87572,5.62344 -1.5799,2.3874 -1.65611,2.77694 -0.90451,4.62323 0.45141,1.10888 0.97732,2.70766 1.1687,3.55282 0.28736,1.2691 0.15294,1.46184 -0.77203,1.10689 -0.8941,-0.3431 -1.01944,-0.20363 -0.62147,0.69155 1.16829,2.62796 1.24903,13.78818 0.13708,18.94707 -0.60378,2.80119 -1.10512,6.14396 -1.11411,7.42838 -0.0188,2.68491 -0.53838,4.34935 -1.35773,4.34935 -0.77696,0 -0.71698,-3.34643 0.0984,-5.4911 0.36682,-0.96479 0.82946,-4.16248 1.02811,-7.10596 0.34971,-5.18182 0.32127,-5.33044 -0.8951,-4.67946 -0.69094,0.36979 -1.66506,1.32856 -2.16471,2.13061 -1.84325,2.95892 -5.67194,12.6658 -6.63688,16.82653 -1.28917,5.55882 -1.99659,6.90746 -3.12989,5.96691 -0.92029,-0.76377 -0.65616,-2.1967 1.20051,-6.51298 1.39954,-3.25355 1.35578,-5.7487 -0.096,-5.47201 -0.62683,0.11947 -1.2073,0.90561 -1.32717,1.79743 -0.31328,2.33059 -1.3009,3.07945 -2.292,1.73788 -0.74305,-1.00579 -0.87347,-0.87549 -1.27445,1.27327 -0.9475,5.07751 -1.68192,16.35782 -2.0003,30.72393 -0.18237,8.22849 -0.61766,15.86663 -0.96732,16.97365 -0.73353,2.32235 -2.06277,3.08175 -3.13431,1.79063 z m 8.17497,-54.30648 c 0.23429,-1.59223 -0.83255,-1.87665 -1.40859,-0.37554 -0.60499,1.57659 -0.45727,2.30559 0.40936,2.02018 0.43769,-0.14414 0.88734,-0.88423 0.99923,-1.64464 z m 5.58402,-9.97591 c 0.7428,-1.13365 0.90832,-2.18493 0.57634,-3.66065 -0.69531,-3.09083 -0.57127,-8.56333 0.29762,-13.13125 0.97684,-5.13538 0.45595,-8.18647 -1.55397,-9.10225 -3.70892,-1.6899 -9.45768,1.79026 -7.86699,4.76249 0.53069,0.99159 0.52709,1.39623 -0.014,1.57659 -1.19175,0.39726 -0.826,1.40981 0.50925,1.40981 2.33904,0 3.21926,2.37624 3.21926,8.69074 0,4.36083 0.24441,6.1053 0.95495,6.81583 0.52523,0.52523 0.95495,1.50065 0.95495,2.16759 0,2.48822 1.44801,2.72163 2.92261,0.4711 z m -9.97459,-19.73684 c 0.004,-0.35015 -0.40754,-1.18651 -0.91605,-1.85858 -0.89586,-1.18398 -0.96446,-1.18586 -2.20798,-0.0605 -1.44254,1.30548 -1.71949,4.68939 -0.56096,6.85412 0.684,1.27807 0.80097,1.19967 2.19945,-1.47428 0.81236,-1.55328 1.48086,-3.11063 1.48554,-3.46078 z m -8.47945,2.38017 c 0.4791,-1.26929 0.43692,-2.72927 -0.15176,-5.25223 -0.44844,-1.92186 -0.82747,-5.86698 -0.8423,-8.76696 -0.0325,-6.36116 -1.2717,-10.089 -3.03921,-9.14306 -0.62707,0.3356 -1.63246,1.1542 -2.23419,1.81911 -1.03709,1.14596 -1.01278,1.51269 0.46679,7.04134 1.35274,5.05476 1.47352,6.30485 0.90584,9.37567 -0.94336,5.10313 -0.33494,6.33805 3.25674,6.61023 0.536,0.0406 1.27314,-0.71724 1.63809,-1.6841 z m -41.81456,-48.58508 c 1.07738,-1.07738 1.95887,-2.08008 1.95887,-2.22822 0,-0.14815 -0.79571,-0.26935 -1.76824,-0.26935 -2.26918,0 -4.5981,1.63055 -4.5981,3.21927 0,1.88199 2.15697,1.5288 4.40747,-0.7217 z m -17.88227,-25.33771 c 0.65248,-0.4136 0.44803,-0.85422 -0.88164,-1.90015 -2.6812,-2.10903 -3.66248,-1.55524 -2.17363,1.2267 0.70647,1.32005 1.6924,1.53737 3.05527,0.67345 z M 57.91336,186.74883 c 0,-0.64356 -0.145128,-1.17012 -0.322507,-1.17012 -0.790908,0 -14.421067,-2.07774 -25.636093,-3.90788 -6.749037,-1.10136 -12.436426,-1.83702 -12.638642,-1.63481 -0.202216,0.20222 0.260035,1.62451 1.027224,3.16066 l 1.394888,2.793 5.67321,0.1455 c 4.98013,0.12772 5.673208,0.0128 5.673208,-0.94079 0,-1.00992 0.0814,-1.01262 1.15803,-0.0383 1.231511,1.1145 14.266735,2.63536 14.623816,1.7062 0.101376,-0.26379 1.247317,-0.10616 2.546534,0.35031 3.459065,1.21528 6.500332,0.99829 6.500332,-0.46381 z M 315.75969,174.4326 c 1.14957,-0.59446 1.72479,-1.30291 1.51075,-1.86068 -0.62725,-1.63458 -2.08946,-1.60427 -3.40693,0.0706 -2.22131,2.82393 -1.47166,3.53163 1.89618,1.79005 z M 97.84886,104.97824 c -0.211553,-0.21155 -0.76065,-0.23416 -1.220216,-0.0503 -0.507862,0.20323 -0.357012,0.35408 0.384635,0.38463 0.671113,0.0276 1.047128,-0.12282 0.835581,-0.33437 z"
       style="opacity:0.5;stroke-width:0.636634;fill:#b2a813;fill-opacity:1" />
  </g>
</svg>
