<?xml version="1.0" encoding="UTF-8" standalone="no"?>
<svg
   xmlns:dc="http://purl.org/dc/elements/1.1/"
   xmlns:cc="http://creativecommons.org/ns#"
   xmlns:rdf="http://www.w3.org/1999/02/22-rdf-syntax-ns#"
   xmlns:svg="http://www.w3.org/2000/svg"
   xmlns="http://www.w3.org/2000/svg"
   id="svg5264"
   version="1.1"
   viewBox="0 0 155.14603 107.72286"
   height="107.72286mm"
   width="155.14603mm">
  <defs
     id="defs5258" />
  <metadata
     id="metadata5261">
    <rdf:RDF>
      <cc:Work
         rdf:about="">
        <dc:format>image/svg+xml</dc:format>
        <dc:type
           rdf:resource="http://purl.org/dc/dcmitype/StillImage" />
        <dc:title></dc:title>
      </cc:Work>
    </rdf:RDF>
  </metadata>
  <g
     transform="translate(-35.063894,-90.525476)"
     id="layer1">
    <g
       transform="matrix(0.26458333,0,0,0.26458333,-47.671313,90.181518)"
       id="g594">
      <path
         fill-rule="evenodd"
         clip-rule="evenodd"
         d="m 319.2,115.1 c 0.6,0.3 1.1,0.5 1.5,0.4 -0.5,-0.3 -1.2,-0.9 -1.5,-0.4 z"
         id="path10" />
      <path
         fill-rule="evenodd"
         clip-rule="evenodd"
         d="m 418.7,29.7 c 2.2,-0.3 1.7,-4 -0.6,-3.3 -0.4,1.2 -1,2.5 0.6,3.3 z"
         id="path12" />
      <path
         fill-rule="evenodd"
         clip-rule="evenodd"
         d="m 462.8,2.7 c -0.4,-0.4 0.1,-1.1 -0.9,-1.4 -0.5,0.5 0.2,1.7 0.9,1.4 z"
         id="path14" />
      <path
         fill-rule="evenodd"
         clip-rule="evenodd"
         d="m 437.2,48.9 c 0.7,-0.8 -0.2,-1.3 -0.6,-1.9 -0.7,0.8 -0.1,1.4 0.6,1.9 z"
         id="path16" />
      <path
         fill-rule="evenodd"
         clip-rule="evenodd"
         d="m 349.4,197 c -0.3,0.4 -0.5,0.8 -0.8,1.3 0.4,0.4 0.8,0.5 1.2,0.5 0.3,-0.7 0.6,-1.4 -0.4,-1.8 z"
         id="path18" />
      <path
         fill-rule="evenodd"
         clip-rule="evenodd"
         d="m 425.8,88 c -0.1,0.1 -0.2,0.2 -0.3,0.1 -0.1,0.1 -0.2,0.3 -0.3,0.4 0.1,0.1 0.2,0.2 0.1,0.3 0.1,0.1 0.3,0.2 0.4,0.3 0.1,-0.1 0.2,-0.2 0.3,-0.1 0.1,-0.1 0.2,-0.3 0.3,-0.4 -0.1,-0.1 -0.2,-0.2 -0.1,-0.3 -0.1,-0.1 -0.3,-0.2 -0.4,-0.3 z"
         id="path20" />
      <path
         fill-rule="evenodd"
         clip-rule="evenodd"
         d="m 432.1,86.1 c -0.9,1 -0.3,1.6 0.7,2.2 0.8,-1 0.4,-1.7 -0.7,-2.2 z"
         id="path22" />
      <path
         fill-rule="evenodd"
         clip-rule="evenodd"
         d="m 473.3,37.8 c -0.7,-2.4 -1.7,-4.7 -3.4,-6.9 -2.1,1.6 2.4,5.5 3.4,6.9 z"
         id="path24" />
      <path
         fill-rule="evenodd"
         clip-rule="evenodd"
         d="m 473.7,84.2 c 1.4,1.7 3.9,5.4 4.6,6.8 1.4,0.4 2.5,2.5 4.2,2.3 0.9,-3.4 -2,-6.1 -4.3,-8.7 -2.1,-2.4 -3.5,-5.9 -6.5,-7.6 -3.9,1.9 -0.1,4.6 2,7.2 z"
         id="path26" />
      <path
         fill-rule="evenodd"
         clip-rule="evenodd"
         d="m 483.2,80 c -0.7,-2.2 0.5,-4.8 -1.7,-6.7 -1.1,1.8 0.7,5.4 1.7,6.7 z"
         id="path28" />
      <path
         fill-rule="evenodd"
         clip-rule="evenodd"
         d="m 497.3,53 c 0.2,-0.5 0.5,-1.1 -0.3,-1.4 -0.5,0.6 -0.4,1.1 0.3,1.4 z"
         id="path30" />
      <path
         fill-rule="evenodd"
         clip-rule="evenodd"
         d="m 461.2,124.7 c 0.2,-0.1 0.3,-0.4 0.5,-0.3 0.3,-1.2 0.2,-2.3 -0.2,-3.3 1,0 1.9,-0.4 2.1,-1.4 0.6,-2.4 -4.2,-4.3 -7,-4.1 -0.3,0.9 -0.3,1.7 0,2.4 -0.4,2.4 2.4,5.5 4.6,6.7 z"
         id="path32" />
      <path
         fill-rule="evenodd"
         clip-rule="evenodd"
         d="m 376.4,252.1 c -3,0.3 -4.3,4.9 -1.6,5.8 2.6,0.9 4.8,-4.3 1.6,-5.8 z"
         id="path34" />
      <path
         fill-rule="evenodd"
         clip-rule="evenodd"
         d="m 520.3,22.7 c -1.7,1.8 0.3,4.1 0.3,6.1 0.2,-2.1 2.1,-4.6 -0.3,-6.1 z"
         id="path36" />
      <path
         fill-rule="evenodd"
         clip-rule="evenodd"
         d="m 539,7.2 c 0.9,-0.3 1.2,-1 1.2,-1.9 -1.5,-1.4 -2.7,1.1 -1.2,1.9 z"
         id="path38" />
      <path
         fill-rule="evenodd"
         clip-rule="evenodd"
         d="m 472.2,124.2 c 0.8,-1.7 -0.7,-2.9 -1.8,-4.1 -0.2,0.3 -0.5,0.1 -0.6,0.5 0.7,1.1 0.6,3.3 2.4,3.6 z"
         id="path40" />
      <path
         fill-rule="evenodd"
         clip-rule="evenodd"
         d="m 458.3,139.5 c 0.7,1.2 1.7,3.1 3.5,3.4 0.5,-1.5 -1.8,-4 -3.5,-3.4 z"
         id="path42" />
      <path
         fill-rule="evenodd"
         clip-rule="evenodd"
         d="m 504.7,93.9 c 0.9,-1.8 -0.2,-3.9 -2.2,-3.5 -1.4,1.8 0.6,3.5 2.2,3.5 z"
         id="path44" />
      <path
         fill-rule="evenodd"
         clip-rule="evenodd"
         d="m 529.4,56.3 c -1,0.3 -0.9,0.8 -1.8,1.9 1.8,6.7 -1,14.4 -0.8,21.5 -0.8,0 -0.9,-1 -1.8,-0.9 -1.2,2.1 1.5,4.3 2.3,5.3 0.5,-0.8 1.1,-1.7 1.6,-2.5 0,-0.7 -0.3,-1.3 -0.3,-1.9 1.6,-6.3 0.5,-12 1,-18.1 0.4,-0.6 0.7,-1.1 1.1,-1.7 -0.3,-1.3 -0.1,-2.6 -1.3,-3.6 z"
         id="path46" />
      <path
         fill-rule="evenodd"
         clip-rule="evenodd"
         d="m 536,52.8 c 1.1,-1.6 -0.4,-3.6 -2,-3 -1,1.4 0.4,3.4 2,3 z"
         id="path48" />
      <path
         fill-rule="evenodd"
         clip-rule="evenodd"
         d="m 551.5,30.8 c -0.1,-0.3 -0.4,-0.6 -0.9,-0.9 -0.9,1.1 0.2,2 0.9,0.9 z"
         id="path50" />
      <path
         fill-rule="evenodd"
         clip-rule="evenodd"
         d="m 530.6,68.4 c -1.1,1.7 -0.7,3.1 0.2,4.3 1.1,-1 1.1,-3.2 -0.2,-4.3 z"
         id="path52" />
      <path
         fill-rule="evenodd"
         clip-rule="evenodd"
         d="m 545.7,51.2 c 3,1.5 5.9,-6.5 1.5,-8 -2,2 -3.7,6.9 -1.5,8 z"
         id="path54" />
      <path
         fill-rule="evenodd"
         clip-rule="evenodd"
         d="m 531.1,77.1 c 0.1,-0.7 0.3,-1.4 -0.3,-1.9 -0.6,0.6 -0.6,2.1 0.3,1.9 z"
         id="path56" />
      <path
         fill-rule="evenodd"
         clip-rule="evenodd"
         d="m 550.7,67.2 c -0.7,3.9 -2.7,7.6 -3.6,11.4 -0.9,3.7 -2,7.3 -1.9,11 1.9,-1.7 2.2,-5.5 4.4,-7.4 1,0.7 0,1.8 1.4,2.4 2.5,-3 2.7,-8.9 6.2,-12.7 0.7,0.5 0.4,1.1 1.4,1.5 2.8,-4.8 3.1,-10.1 3.4,-14.8 0.1,-1.7 -0.2,-3.5 0.2,-5 0.8,-3.9 2.5,-6.4 1.8,-9.9 1,-2 1.4,-3.8 0.1,-5.3 -0.4,-0.2 -2.3,0.2 -3.4,-0.7 -2.3,1.2 -4.8,6 -2.7,7.5 1.4,1 2,-0.8 3.8,0 0.1,2 -1.2,3.7 -1.4,6 -0.1,1.6 0.5,3.2 0.2,4.9 -0.3,1.4 -1.1,3.1 -1.5,4.7 -0.8,2.8 -1.2,4.1 -2.6,6.4 -1.7,2.9 -2,7.4 -3.3,10.4 -0.4,1 -1.3,3.3 -3.2,2.7 0.1,-3.6 0.2,-8.2 1.6,-12.4 1,-3 4.5,-5.7 1,-7.7 -2.5,2.3 -1.5,5 -1.9,7 z"
         id="path58" />
      <path
         fill-rule="evenodd"
         clip-rule="evenodd"
         d="m 523,118 c 0.2,-0.2 0.6,-0.2 0.7,-0.7 -0.1,-0.5 -0.4,-1.1 -0.6,-1.6 0.5,-1.3 0.2,-3 -1.6,-3.1 -0.1,0.1 -0.2,0.2 -0.3,0.3 -0.3,-1.1 -0.7,-2.2 -1.2,-3.3 0.2,-1.7 -0.2,-3.2 -1.6,-4.6 -0.7,0.5 -1.2,2 -1.3,2.1 0.7,0.2 1.2,1.5 2.3,0.9 -0.8,2.9 -2.4,7.8 2.2,8.2 0,-0.1 0,-0.1 0,-0.2 0.2,0.2 0.4,0.3 0.7,0.4 0,0.7 0.1,1.2 0.7,1.6 z"
         id="path60" />
      <path
         fill-rule="evenodd"
         clip-rule="evenodd"
         d="m 540.7,97.7 c 1.4,-1.1 2.4,-3.7 0.9,-4.8 -1.8,1.2 -2.4,3.4 -0.9,4.8 z"
         id="path62" />
      <path
         fill-rule="evenodd"
         clip-rule="evenodd"
         d="m 582,45.9 c 0.3,-1.3 0.8,-2.9 1.3,-3.9 1,-2 3.5,-3.6 4.2,-5.7 0.3,-0.9 -0.4,-2.2 -0.2,-3.4 0.2,-1.6 1.9,-3.2 0.1,-4.4 -0.7,0.3 -2,1.5 -2.1,1.9 -0.5,3.1 -1.9,8 -3.3,11.9 -0.1,0.4 -0.7,0.5 -0.9,0.9 -0.6,1.5 -0.6,3.2 -1.4,4.5 -1.6,2.8 -3.5,5.9 -4.4,8.8 -0.8,2.5 -0.4,5.1 -1.2,7.6 -0.7,2.2 -2.3,3.7 -1.9,5.9 5.6,-7.6 7.8,-16.1 9.8,-24.1 z"
         id="path64" />
      <path
         fill-rule="evenodd"
         clip-rule="evenodd"
         d="m 530.7,117.2 c -0.1,0.2 -0.3,0.4 -0.4,0.6 0.1,0.1 0.3,0.2 0.4,0.3 0.1,-0.2 0.3,-0.4 0.4,-0.6 -0.1,-0.1 -0.3,-0.2 -0.4,-0.3 z"
         id="path66" />
      <path
         fill-rule="evenodd"
         clip-rule="evenodd"
         d="m 542.7,100.1 c -0.5,1.7 -1.3,2.4 -1.2,3.7 1.1,-0.7 1.3,-2.6 1.2,-3.7 z"
         id="path68" />
      <path
         fill-rule="evenodd"
         clip-rule="evenodd"
         d="m 545.4,108.1 c 2.6,-1.3 5.1,-5.5 3.6,-8.1 -2.8,0.8 -4.9,5.9 -3.6,8.1 z"
         id="path70" />
      <path
         fill-rule="evenodd"
         clip-rule="evenodd"
         d="m 542.1,113.7 c 0.1,0.5 1,1.1 1.5,0.9 0.2,-0.3 0.4,-0.6 0.5,-0.8 -0.1,-0.4 -0.6,-0.7 -1.1,-1 -0.3,0.6 -0.7,0.2 -0.9,0.9 z"
         id="path72" />
      <path
         fill-rule="evenodd"
         clip-rule="evenodd"
         d="m 542.5,119.6 c 0.2,-0.6 -0.2,-1.2 -1.1,-1.6 -1.8,0.7 0.1,3.1 1.1,1.6 z"
         id="path74" />
      <path
         fill-rule="evenodd"
         clip-rule="evenodd"
         d="m 450.9,264.1 c -2.4,0.8 -1.3,3.6 -0.7,4.9 0.4,5.1 -4.8,11.4 0,15.5 4.1,-5.4 -0.2,-10.4 1,-15.7 1.7,-1.5 1.5,-4.1 -0.3,-4.7 z"
         id="path76" />
      <path
         fill-rule="evenodd"
         clip-rule="evenodd"
         d="m 469.6,236.4 c 1.2,0.7 3.4,-2.5 2.1,-3.4 -1,-0.3 -3.1,2.5 -2.1,3.4 z"
         id="path78" />
      <path
         fill-rule="evenodd"
         clip-rule="evenodd"
         d="m 561,96 c 0.4,-0.1 1,-1.3 0.2,-1.7 -0.6,0.2 -0.9,1.3 -0.2,1.7 z"
         id="path80" />
      <path
         fill-rule="evenodd"
         clip-rule="evenodd"
         d="m 471.2,247 c 2.4,0.1 3.5,-3.1 1.6,-4 -1.8,-1 -4.3,2.3 -1.6,4 z"
         id="path82" />
      <path
         fill-rule="evenodd"
         clip-rule="evenodd"
         d="m 585.4,69.8 c -1,1.7 -3.4,2.9 -3.1,5.4 5.1,-3.6 6.6,-12.6 10.7,-16.4 -0.3,-0.7 0.2,-1.5 -0.8,-2 -1.6,-0.2 -1.7,1.9 -1.5,2.9 -3.4,3.1 -3.6,7.1 -5.3,10.1 z"
         id="path84" />
      <path
         fill-rule="evenodd"
         clip-rule="evenodd"
         d="m 612.6,29 c 0.9,-0.5 2,-1.7 0.4,-2.4 -0.4,0.4 -1.8,1.6 -0.4,2.4 z"
         id="path86" />
      <path
         fill-rule="evenodd"
         clip-rule="evenodd"
         d="m 595.8,62.7 c 8,-7.3 7.5,-17.5 15.7,-24.3 -0.3,-0.9 0.5,-2.1 -1,-2.7 -2.6,0.7 -2.1,2.8 -3,4.7 -0.4,0.8 -1.3,1.4 -1.7,2.2 -0.9,1.6 -1.2,3.5 -2.3,5.1 -2,2.8 -4.2,5.3 -5.8,8.2 -1.1,2 -2.5,4.5 -1.9,6.8 z"
         id="path88" />
      <path
         fill-rule="evenodd"
         clip-rule="evenodd"
         d="m 566.9,112.2 c 3.4,-1.6 1.2,-5.9 -1.9,-5 -2.7,1.7 -0.8,4.4 1.9,5 z"
         id="path90" />
      <path
         fill-rule="evenodd"
         clip-rule="evenodd"
         d="m 586.3,82.8 c 1,-1.7 3.1,-6.8 1.6,-7.6 -2,-1.1 -10,8.8 -6.4,10.5 1.6,0.3 3.6,-0.9 4.8,-2.9 z"
         id="path92" />
      <path
         fill-rule="evenodd"
         clip-rule="evenodd"
         d="m 624.3,14.7 c 0.1,0.1 0.3,0.2 0.4,0.3 0.1,-0.1 0.2,-0.2 0.3,-0.1 0.1,-0.1 0.2,-0.3 0.3,-0.4 -0.1,-0.1 -0.2,-0.2 -0.1,-0.3 -0.1,-0.1 -0.3,-0.2 -0.4,-0.3 -0.1,0.1 -0.2,0.2 -0.3,0.1 -0.1,0.1 -0.2,0.3 -0.3,0.4 0.2,0.1 0.3,0.2 0.1,0.3 z"
         id="path94" />
      <path
         fill-rule="evenodd"
         clip-rule="evenodd"
         d="m 593.9,71.3 c 2,1.2 4.3,-2.6 2.8,-4.5 -2.9,-1.3 -4.7,3.4 -2.8,4.5 z"
         id="path96" />
      <path
         fill-rule="evenodd"
         clip-rule="evenodd"
         d="m 476.8,261.2 c 1.8,1 3.4,-2.1 1.7,-3.7 -2.3,-0.3 -3.3,2.8 -1.7,3.7 z"
         id="path98" />
      <path
         fill-rule="evenodd"
         clip-rule="evenodd"
         d="m 604,62.8 c 6.3,-3.5 8.6,-13.7 13.1,-19.3 1.2,-1.5 3.7,-2 2.1,-4.3 -2.6,-0.2 -2.6,2.3 -3.5,4.1 -1.7,3.6 -6.1,7.7 -9.1,11.5 -1.8,2.4 -4.2,5.7 -2.6,8 z"
         id="path100" />
      <path
         fill-rule="evenodd"
         clip-rule="evenodd"
         d="m 578.6,104.4 c 1.5,1.1 3.5,-1.6 2,-2.6 -1.1,-0.5 -2.8,1.7 -2,2.6 z"
         id="path102" />
      <path
         fill-rule="evenodd"
         clip-rule="evenodd"
         d="m 634.8,22.6 c 0.3,0.2 0.6,0.4 0.8,0.5 0.8,-0.7 -0.4,-1.5 -0.8,-0.5 z"
         id="path104" />
      <path
         fill-rule="evenodd"
         clip-rule="evenodd"
         d="m 474.3,297.6 c 0.7,-0.4 1.3,-0.9 1.4,-1.8 -0.8,-0.6 -2.1,1.3 -1.4,1.8 z"
         id="path106" />
      <path
         fill-rule="evenodd"
         clip-rule="evenodd"
         d="m 635.5,59.6 c -1.9,-0.6 -5.4,1.8 -4,4 1.8,0.4 4.4,-1.9 4,-4 z"
         id="path108" />
      <path
         fill-rule="evenodd"
         clip-rule="evenodd"
         d="m 617.5,107.3 c 0.8,0.5 1.4,0.3 1.9,-0.3 0,-0.5 0.1,-1.1 -0.5,-1.5 -0.9,-0.1 -1.6,0.9 -1.4,1.8 z"
         id="path110" />
      <path
         fill-rule="evenodd"
         clip-rule="evenodd"
         d="m 656.4,77.2 c -0.8,-2.7 -4.4,-1.4 -6,0.1 0,-0.3 -0.9,-1.4 -1.2,-0.5 -0.7,0.6 0.5,0.9 0.3,1.4 -2.5,4.7 5.7,4.6 6.9,-1 z"
         id="path112" />
      <path
         fill-rule="evenodd"
         clip-rule="evenodd"
         d="m 630.7,107.1 c -1.5,1.6 -0.4,2.6 1.3,3.5 -0.4,0.4 -1.4,1 -0.7,1.6 5.7,-1.8 10.7,-6.5 16,-9.8 1.8,0.3 4,-0.9 4.6,-3 -2.6,-1.5 -3.9,1.1 -5.8,2.6 -3.2,2.6 -8.4,3.6 -11,6.1 -1.5,-0.6 -3.1,-1.6 -4.4,-1 z"
         id="path114" />
      <path
         fill-rule="evenodd"
         clip-rule="evenodd"
         d="m 678.2,45.6 c 0.3,-0.6 0.2,-1 -0.3,-1.4 -0.8,0.3 -0.6,1.4 0.3,1.4 z"
         id="path116" />
      <path
         fill-rule="evenodd"
         clip-rule="evenodd"
         d="m 526.6,283.5 c 0.2,0.6 0.9,1.6 1.8,1.4 0.2,-0.3 0.4,-0.4 0.6,-0.5 0.2,-1.1 -1.7,-2.3 -2.4,-0.9 z"
         id="path118" />
      <path
         fill-rule="evenodd"
         clip-rule="evenodd"
         d="m 643.5,108.6 c -0.9,0.5 -1.9,0.7 -2.7,1.5 -1,5.1 -8.1,5.3 -10.3,10.1 7.1,-4.3 14.4,-7 21.1,-13.1 2.2,-1.8 8.4,-1 7.8,-5.2 -5.2,-0.2 -9.9,8.4 -15.9,6.7 z"
         id="path120" />
      <path
         fill-rule="evenodd"
         clip-rule="evenodd"
         d="m 523.1,290.5 c -1.1,2.6 -1.4,5 1,6.9 2.6,-1.7 1,-5.2 -1,-6.9 z"
         id="path122" />
      <path
         fill-rule="evenodd"
         clip-rule="evenodd"
         d="m 491.1,342.5 c 0.9,0.7 1.3,-0.3 1.4,-0.9 -0.6,-0.5 -1,0.2 -1.4,0.9 z"
         id="path124" />
      <path
         fill-rule="evenodd"
         clip-rule="evenodd"
         d="m 634.7,125.3 c -0.7,-0.4 -1.3,-0.2 -1.7,0.4 0.1,0.6 1.2,1.1 1.6,0.7 -0.4,-0.3 0.3,-0.8 0.1,-1.1 z"
         id="path126" />
      <path
         fill-rule="evenodd"
         clip-rule="evenodd"
         d="m 654.7,118.1 c -6.6,3.5 -18.5,5.9 -23,11.9 5.4,0.1 9.7,-4.8 14.9,-5.7 -2.2,1.6 -4.2,5.7 -1.4,7.4 2.5,1.5 10.7,-2 9.7,-6.4 -0.8,-3.4 -6.1,-1.8 -7.8,-1.7 2,-1.3 3.8,-2.9 6.1,-3 2.6,-2.9 6.3,-1.3 8.8,-4.5 -2.6,-3.4 -4.6,0.5 -7.3,2 z"
         id="path128" />
      <path
         fill-rule="evenodd"
         clip-rule="evenodd"
         d="m 676,66.5 c -1.3,-1 -2,1 -2.9,1.7 -1.3,1.1 -3,1.5 -3.7,3.6 2.4,-0.5 5.1,-3.6 6.6,-5.3 z"
         id="path130" />
      <path
         fill-rule="evenodd"
         clip-rule="evenodd"
         d="m 515.4,327.5 c 2.1,0.6 1.9,-1.9 2.2,-3 0.6,-2.2 1.5,-5.5 0.2,-7 -1.1,3.4 -3.1,7 -2.4,10 z"
         id="path132" />
      <path
         fill-rule="evenodd"
         clip-rule="evenodd"
         d="m 654.6,103.1 c -0.1,-0.1 -0.3,-0.2 -0.4,-0.3 -1,0 0,1.5 0.4,0.3 z"
         id="path134" />
      <path
         fill-rule="evenodd"
         clip-rule="evenodd"
         d="m 679.5,68.1 c 0.2,-0.3 0.4,-0.4 0.6,-0.5 -0.1,-0.7 -0.9,-0.7 -1.3,-0.2 0.2,0.1 0.2,0.5 0.7,0.7 z"
         id="path136" />
      <path
         fill-rule="evenodd"
         clip-rule="evenodd"
         d="m 655.5,109.7 c -0.6,-0.6 -1.9,0.3 -1.6,1.1 0.6,-0.4 1.8,-0.3 1.6,-1.1 z"
         id="path138" />
      <path
         fill-rule="evenodd"
         clip-rule="evenodd"
         d="m 641,138.3 c -1.4,-0.4 -3.3,1.4 -3.9,2 1.3,-0.7 2.7,-1.2 3.9,-2 z"
         id="path140" />
      <path
         fill-rule="evenodd"
         clip-rule="evenodd"
         d="m 669.4,125.3 c -2.8,-1.5 -6,2.3 -8.8,3.6 -5.5,1.8 -11.1,3.3 -16.1,7.6 3.8,-0.1 9.5,-2.4 13.2,-4.4 1.1,-0.6 1.6,-1.5 2.7,-1.9 1.9,-0.7 4.5,-0.8 6.5,-1.8 0.9,-0.4 3,-1.3 2.5,-3.1 z"
         id="path142" />
      <path
         fill-rule="evenodd"
         clip-rule="evenodd"
         d="m 712.3,45.7 c 0.5,-2.3 -3.5,-4 -5.6,-3.8 1.1,1.4 3.2,5.4 5.6,3.8 z"
         id="path144" />
      <path
         fill-rule="evenodd"
         clip-rule="evenodd"
         d="m 675.3,102 c 1.4,-0.6 2.7,-1.4 4.1,-2.2 -1,-0.9 -3.7,0.6 -4.1,2.2 z"
         id="path146" />
      <path
         fill-rule="evenodd"
         clip-rule="evenodd"
         d="m 671.4,112.3 c -0.5,0.6 -1.3,0.2 -1.8,1 0.7,0.4 2,-0.5 1.8,-1 z"
         id="path148" />
      <path
         fill-rule="evenodd"
         clip-rule="evenodd"
         d="m 673.1,111.6 c -0.2,-0.1 -0.4,-0.3 -0.6,-0.4 -0.1,0.2 -0.3,0.4 -0.4,0.6 0.4,0.3 0.7,0.2 1,-0.2 z"
         id="path150" />
      <path
         fill-rule="evenodd"
         clip-rule="evenodd"
         d="m 678.1,117.7 c -1.6,-1.4 -2.5,0.1 -3.6,1 -2.8,0.6 -6.6,1.4 -8.5,3.6 3.2,-0.3 6.3,-1.2 9.1,-3.1 1.3,0.8 2.8,-0.1 3,-1.5 z"
         id="path152" />
      <path
         fill-rule="evenodd"
         clip-rule="evenodd"
         d="m 688.7,99.1 c -0.4,-0.3 -0.8,-0.3 -1,0.2 0.4,0.4 0.7,0.3 1,-0.2 z"
         id="path154" />
      <path
         fill-rule="evenodd"
         clip-rule="evenodd"
         d="m 703.2,76.2 c 0.4,0.4 0.8,1.1 1.5,0.9 0.2,-0.3 0.4,-0.6 0.5,-0.8 -0.4,-0.2 -0.3,-0.5 -0.7,-0.7 -0.5,-0.1 -1,-0.1 -1.3,0.6 z"
         id="path156" />
      <path
         fill-rule="evenodd"
         clip-rule="evenodd"
         d="m 683.8,112.4 c 1.1,0.2 2,-0.4 2.8,-1.2 -1,-0.2 -1.8,0.8 -2.8,1.2 z"
         id="path158" />
      <path
         fill-rule="evenodd"
         clip-rule="evenodd"
         d="m 673.7,129.5 c 0.6,-1 1.7,0 2.3,-1.2 -0.9,-0.4 -2.4,0.4 -2.3,1.2 z"
         id="path160" />
      <path
         fill-rule="evenodd"
         clip-rule="evenodd"
         d="m 702.9,88.8 c -2,0.2 -3.6,1.7 -5.3,3.2 2,0.3 4.3,-1.9 5.3,-3.2 z"
         id="path162" />
      <path
         fill-rule="evenodd"
         clip-rule="evenodd"
         d="m 688.7,110.4 c -0.7,-0.8 -0.9,0.2 -1.4,0.3 0.5,0.3 1.1,0.5 1.4,-0.3 z"
         id="path164" />
      <path
         fill-rule="evenodd"
         clip-rule="evenodd"
         d="m 677,142.5 c 0.4,-1.4 0.8,-2.9 -1.2,-3.7 -0.3,0.5 -0.6,1 -0.9,1.5 0.4,0.7 1,2.2 2.1,2.2 z"
         id="path166" />
      <path
         fill-rule="evenodd"
         clip-rule="evenodd"
         d="m 666,157 c -0.2,-0.2 -0.2,-0.6 -0.7,-0.8 -0.6,0.7 0.3,1.4 0.7,0.8 z"
         id="path168" />
      <path
         fill-rule="evenodd"
         clip-rule="evenodd"
         d="m 602.8,262.1 c -4,-1.8 -1.6,5.8 1.7,2.9 -0.1,-1.2 -0.4,-2.3 -1.7,-2.9 z"
         id="path170" />
      <path
         fill-rule="evenodd"
         clip-rule="evenodd"
         d="m 699.1,109.9 c -0.6,-0.6 -1.7,0.5 -1.4,0.9 0.4,-0.4 1,-0.3 1.4,-0.9 z"
         id="path172" />
      <path
         fill-rule="evenodd"
         clip-rule="evenodd"
         d="m 697.5,113.9 c -0.7,-0.8 -1.9,0.1 -1.7,0.7 0.4,-0.8 1.2,0 1.7,-0.7 z"
         id="path174" />
      <path
         fill-rule="evenodd"
         clip-rule="evenodd"
         d="m 699.7,115.9 c -1.2,0.3 -2.3,0.7 -3.3,1.5 1.1,0.1 3.1,-0.3 3.3,-1.5 z"
         id="path176" />
      <path
         fill-rule="evenodd"
         clip-rule="evenodd"
         d="m 649,198 c 0.5,0.6 0.7,0 1.2,0.5 0.8,-0.8 0.3,-1.3 0,-1.8 -0.5,0 -1.3,0.6 -1.2,1.3 z"
         id="path178" />
      <path
         fill-rule="evenodd"
         clip-rule="evenodd"
         d="m 700.9,116 c 0.4,0 1.6,-0.5 1.2,-1 -0.4,0 -1.7,0.2 -1.2,1 z"
         id="path180" />
      <path
         fill-rule="evenodd"
         clip-rule="evenodd"
         d="m 740.3,75.3 c -1.9,-1.4 -4.6,0.1 -4.1,2.2 2,1.9 4.7,-0.3 4.1,-2.2 z"
         id="path182" />
      <path
         fill-rule="evenodd"
         clip-rule="evenodd"
         d="m 735.9,101 c -1,-2.1 -3.4,-0.8 -5.2,-0.6 -3.8,0.4 -8.6,-0.2 -9.6,4.3 3.9,3.3 7.8,0.4 11.1,-1.6 1.4,0.3 3.3,-0.1 3.7,-2.1 z"
         id="path184" />
      <path
         fill-rule="evenodd"
         clip-rule="evenodd"
         d="m 737.8,82 c 0.7,0 2.1,0.1 1.9,-1.2 -1.1,-0.8 -2.7,0.1 -1.9,1.2 z"
         id="path186" />
      <path
         fill-rule="evenodd"
         clip-rule="evenodd"
         d="m 708.7,168 c -0.2,1 1.3,2.4 2.6,2.5 2.1,-1.4 -1.1,-3.6 -2.6,-2.5 z"
         id="path188" />
      <path
         fill-rule="evenodd"
         clip-rule="evenodd"
         d="m 692.1,116.2 c 0.7,-0.5 2.4,-0.5 2.4,-1.5 -0.7,0.3 -2.4,0.6 -2.4,1.5 z"
         id="path190" />
      <path
         fill-rule="evenodd"
         clip-rule="evenodd"
         d="m 701.3,125.2 c -2.1,0.8 -4.3,0.5 -5.9,1.9 2.7,0.1 5.3,-1.6 7.5,-2.4 -1,-0.8 -1,0.3 -1.6,0.5 z"
         id="path192" />
      <path
         fill-rule="evenodd"
         clip-rule="evenodd"
         d="m 530.3,9.5 c 0.5,-1.7 -0.9,-2.1 -2.1,-2.6 -2,1.3 0.4,4.1 2.1,2.6 z"
         id="path194" />
      <path
         fill-rule="evenodd"
         clip-rule="evenodd"
         d="m 463.3,17.8 c 0.7,2.4 1.4,4.7 3.4,6.1 -0.6,-3.1 -3.3,-5.1 -3.4,-7.9 -0.4,-0.1 -0.8,-0.1 -1.2,-0.2 -0.4,1.3 0.3,1.7 1.2,2 z"
         id="path196" />
      <path
         fill-rule="evenodd"
         clip-rule="evenodd"
         d="m 480.5,23.7 c -0.4,0.9 0.5,1 0.5,1.6 0.7,-0.4 0.2,-1.7 -0.5,-1.6 z"
         id="path198" />
      <path
         fill-rule="evenodd"
         clip-rule="evenodd"
         d="m 532.7,36 c 0.1,-0.9 0,-1.6 -1,-1.7 0.2,0.8 0,1.7 1,1.7 z"
         id="path200" />
      <path
         fill-rule="evenodd"
         clip-rule="evenodd"
         d="m 471,37.7 c 0.6,-3.2 -3.3,-5 -3,-8.8 -0.3,-0.3 -0.7,-0.5 -0.9,-0.9 -0.4,-0.1 -0.5,0.2 -0.8,0.1 1.2,3.6 2.6,6.8 4.7,9.6 z"
         id="path202" />
      <path
         fill-rule="evenodd"
         clip-rule="evenodd"
         d="m 703.2,67.8 c 0.3,-0.3 0.4,-0.6 0.4,-1.2 -0.5,-0.1 -1,-0.2 -1.5,-0.2 -0.2,1 0.5,1.2 1.1,1.4 z"
         id="path204" />
      <path
         fill-rule="evenodd"
         clip-rule="evenodd"
         d="m 462.7,35.5 c 0,-1.6 -1,-3.4 -2.9,-3 -0.1,1.7 1.1,3.5 2.9,3 z"
         id="path206" />
      <path
         fill-rule="evenodd"
         clip-rule="evenodd"
         d="m 570.7,53.6 c 0,-0.2 0,-0.3 0.1,-0.5 -0.2,0 -0.2,-0.1 -0.2,-0.3 -0.2,0 -0.3,0 -0.5,-0.1 0,0.2 -0.1,0.2 -0.3,0.2 0,0.2 -0.1,0.3 -0.1,0.5 0.2,0 0.2,0.1 0.2,0.3 0.2,0 0.3,0 0.5,0.1 0,-0.2 0.2,-0.2 0.3,-0.2 z"
         id="path208" />
      <path
         fill-rule="evenodd"
         clip-rule="evenodd"
         d="m 565.5,58.4 c 0.2,-1.1 0.1,-2 -1.2,-2 -0.4,1.3 -0.1,2 1.2,2 z"
         id="path210" />
      <path
         fill-rule="evenodd"
         clip-rule="evenodd"
         d="m 497.8,49.1 c 0.6,2.7 1.7,4.9 3,7 -0.4,-1.6 -0.5,-7.6 -3,-7 z"
         id="path212" />
      <path
         fill-rule="evenodd"
         clip-rule="evenodd"
         d="m 422.1,55.6 c 1.8,2.9 2.7,6.5 6.7,7.9 1.9,0.7 3,0.3 4.3,-0.1 1.6,-2.1 0.3,-4.8 -0.3,-6.6 -1.2,-1.2 -4.6,-2.6 -7,-4.3 -1.4,-1 -5.6,-5.2 -6.5,-1 -0.1,1.2 1.9,2.6 2.8,4.1 z"
         id="path214" />
      <path
         fill-rule="evenodd"
         clip-rule="evenodd"
         d="m 312.7,36.2 c 0.8,0.3 1.2,0 1.1,-0.8 -0.3,0 -0.7,-0.1 -1,-0.1 0,0.3 0,0.6 -0.1,0.9 z"
         id="path216" />
      <path
         fill-rule="evenodd"
         clip-rule="evenodd"
         d="m 437.6,72.6 c 0.4,-2.1 -1.2,-3.8 -3,-3.5 -0.5,2.5 0.7,3.7 3,3.5 z"
         id="path218" />
      <path
         fill-rule="evenodd"
         clip-rule="evenodd"
         d="m 526.3,91.2 c -0.4,-1.6 -2,-5.3 -4,-5.7 0,2.9 2.8,3.7 4,5.7 z"
         id="path220" />
      <path
         fill-rule="evenodd"
         clip-rule="evenodd"
         d="m 496.6,84.2 c 0.2,-0.8 -0.1,-1.1 -0.8,-1.1 -0.4,0.8 0.2,1 0.8,1.1 z"
         id="path222" />
      <path
         fill-rule="evenodd"
         clip-rule="evenodd"
         d="m 573.9,103.9 c 0,-0.2 0.3,-0.1 0.5,-0.2 0.6,-3.1 -0.4,-9 -4.1,-8.2 0.1,3.7 0.6,6.9 3.6,8.4 z"
         id="path224" />
      <path
         fill-rule="evenodd"
         clip-rule="evenodd"
         d="m 726.3,122.8 c -0.9,3.3 4.4,5.2 5.5,2.6 1,-2.6 -3.4,-4.6 -5.5,-2.6 z"
         id="path226" />
      <path
         fill-rule="evenodd"
         clip-rule="evenodd"
         d="m 458.6,81.9 c -0.4,2.8 2.7,3 4.4,4.2 -1.5,-1.3 -1.9,-4.3 -4.4,-4.2 z"
         id="path228" />
      <path
         fill-rule="evenodd"
         clip-rule="evenodd"
         d="m 410.4,81.5 c -0.4,-1.3 -2.4,-2.4 -4,-2.1 0.8,1 2.1,2.6 4,2.1 z"
         id="path230" />
      <path
         fill-rule="evenodd"
         clip-rule="evenodd"
         d="m 432.4,85.6 c 0.7,0.6 1.5,0.8 2.2,0.3 0.4,-1.7 -2.3,-2.4 -2.2,-0.3 z"
         id="path232" />
      <path
         fill-rule="evenodd"
         clip-rule="evenodd"
         d="m 613.1,122.2 c 0.8,0 1.2,-0.4 1.8,-0.5 2.9,-6 -5.7,-3.1 -1.8,0.5 z"
         id="path234" />
      <path
         fill-rule="evenodd"
         clip-rule="evenodd"
         d="m 343.7,82.5 c 0.1,1 1.4,0.6 1.3,-0.3 -0.3,-0.1 -0.7,-0.1 -1,-0.2 0,0.3 -0.1,0.5 -0.3,0.5 z"
         id="path236" />
      <path
         fill-rule="evenodd"
         clip-rule="evenodd"
         d="m 393,92.2 c 0.3,-0.3 0.4,-0.8 0.5,-1.5 -0.9,-0.3 -1.3,0 -1.8,0.2 -0.1,0.8 0.4,1.2 1.3,1.3 z"
         id="path238" />
      <path
         fill-rule="evenodd"
         clip-rule="evenodd"
         d="m 418.3,100 c -0.8,-1.9 -3.3,-2.3 -4.6,-3.2 -1,-0.7 -1.1,-2.4 -2.5,-1.6 -0.4,1 0.3,1.2 0.5,1.9 2.7,-0.3 3,2.9 6.6,2.9 z"
         id="path240" />
      <path
         fill-rule="evenodd"
         clip-rule="evenodd"
         d="m 471.1,113.5 c 1.3,-1 0.8,-3.4 -1,-3.5 -1.4,0.9 -0.9,3.3 1,3.5 z"
         id="path242" />
      <path
         fill-rule="evenodd"
         clip-rule="evenodd"
         d="m 382.9,100.3 c 0.2,-0.9 -0.2,-1.4 -1.1,-1.4 -0.4,0.6 -0.3,0.9 -0.2,1.5 0.6,0.1 1,0.1 1.3,-0.1 z"
         id="path244" />
      <path
         fill-rule="evenodd"
         clip-rule="evenodd"
         d="m 444.4,110.7 c 1.3,0.2 1.3,-1.3 -0.1,-1.3 -0.2,0.6 -0.1,1 0.1,1.3 z"
         id="path246" />
      <path
         fill-rule="evenodd"
         clip-rule="evenodd"
         d="m 650.3,155.2 c -1.6,-2.1 -4.4,-1.1 -4.8,1.6 1.2,2 4.9,1.4 4.8,-1.6 z"
         id="path248" />
      <path
         fill-rule="evenodd"
         clip-rule="evenodd"
         d="m 659.2,163.9 c -1.9,-1.2 -3.7,-0.6 -4.5,1.1 1.6,0.8 3.8,0.2 4.5,-1.1 z"
         id="path250" />
      <path
         fill-rule="evenodd"
         clip-rule="evenodd"
         d="m 687.2,168.8 c -1,-2.4 -6.2,-1.6 -6.7,0.5 1.7,1.4 6,1.6 6.7,-0.5 z"
         id="path252" />
      <path
         fill-rule="evenodd"
         clip-rule="evenodd"
         d="m 433.2,141.3 c -3.9,-1.4 -8.4,-3.6 -11.2,-5.2 -0.4,-0.3 -2.1,0 -2.8,0.3 -0.3,2.1 2,1.9 3.4,2.8 1,0.6 1.5,2 2.4,2.4 2,0.8 4.8,0 7,0.5 1.2,0.3 2.7,1 3.8,1.6 2.2,1.1 4.5,2.2 6.8,3.3 -0.2,0.2 -0.3,0.4 -0.5,0.6 1.7,1 3.2,1.2 4.7,1.2 4.2,1.6 8.7,2.8 13.6,3.2 -0.7,-0.9 -1.7,-1.3 -2.8,-1.6 0.4,-1.4 -0.2,-2.8 -1.3,-3.8 0.5,0 1,0 1.4,0 1.7,1.5 4.2,0.9 4.6,-0.9 -1.1,-2.3 -3.7,-0.9 -4.9,-0.1 -0.7,0.1 -1.4,0.2 -2.2,0.2 -1.3,-0.8 -2.8,-1.1 -4,-0.6 0,0 0,0.1 0,0.1 -1.6,-0.2 -3.2,-0.5 -4.7,-0.3 -2.5,-0.8 -5.3,-1.4 -8,-1.9 -1.4,-0.3 -2.8,-1.4 -4.3,-1.9 -0.1,-0.1 -0.6,0.3 -1,0.1 z m 19.1,6.8 c -0.2,-0.1 -0.4,-0.2 -0.5,-0.4 0.1,0 0.2,-0.1 0.2,-0.1 0.1,0.2 0.2,0.4 0.3,0.5 z"
         id="path254" />
      <path
         fill-rule="evenodd"
         clip-rule="evenodd"
         d="m 686.7,187 c -0.7,1.7 1.1,3.6 3.3,3.3 4.8,2.6 5.8,9.1 12.6,9.5 0.1,-6.3 -8.1,-6.5 -11.7,-10.1 -0.6,-1.3 -2,-4 -4.2,-2.7 z"
         id="path256" />
      <path
         fill-rule="evenodd"
         clip-rule="evenodd"
         d="m 653.5,183.1 c 0,-1.3 -3.5,-1.5 -4,-0.6 0,0.4 0.3,0.8 0.7,1 -0.6,0 -1.1,0.3 -1.4,1 0.7,1 2.3,1.2 3.1,-0.1 -0.1,-0.2 -0.3,-0.4 -0.5,-0.5 1,0.1 2,-0.2 2.1,-0.8 z"
         id="path258" />
      <path
         fill-rule="evenodd"
         clip-rule="evenodd"
         d="m 457.9,163 c -1.8,-1.8 -4.2,-0.8 -6.2,-1.2 -3.4,-0.6 -6.5,-3.1 -11,-2.7 -0.6,-0.8 -2.3,-2 -3.2,-0.7 -0.3,1.1 0.7,1.3 1,1.9 5.6,-0.4 13.3,4.2 19.4,2.7 z"
         id="path260" />
      <path
         fill-rule="evenodd"
         clip-rule="evenodd"
         d="m 401,154.6 c -0.5,1.7 1.1,1.7 2.1,1.3 0.3,-1.6 -1.5,-1.4 -2.1,-1.3 z"
         id="path262" />
      <path
         fill-rule="evenodd"
         clip-rule="evenodd"
         d="m 433.1,162.1 c -3.3,-0.8 -6.6,-0.6 -10,-1 -1.9,-0.2 -3.6,-1.2 -5.4,-1.6 -0.9,-0.2 -1.9,0.1 -2.8,-0.2 -2,-0.6 -3.3,-2.3 -5.5,-0.8 -0.5,1.5 0.9,1.7 1.4,2.5 10.4,-1.7 17.9,5.3 28.6,4 -1.2,-1.8 -4,-2.3 -6.3,-2.9 z"
         id="path264" />
      <path
         fill-rule="evenodd"
         clip-rule="evenodd"
         d="m 383.8,156 c 0.2,0 0.3,0 0.5,0.1 0,-0.2 0.1,-0.2 0.3,-0.2 0,-0.2 0,-0.3 0.1,-0.5 -0.2,0 -0.2,-0.1 -0.2,-0.3 -0.2,0 -0.3,0 -0.5,-0.1 0,0.2 -0.1,0.2 -0.3,0.2 0,0.2 0,0.3 -0.1,0.5 0.2,0 0.2,0.2 0.2,0.3 z"
         id="path266" />
      <path
         fill-rule="evenodd"
         clip-rule="evenodd"
         d="m 647.8,197.7 c 0.6,-1.4 -0.2,-1.8 -1.2,-2.2 -4.2,-1.7 -0.7,6.2 1.2,2.2 z"
         id="path268" />
      <path
         fill-rule="evenodd"
         clip-rule="evenodd"
         d="m 667.6,204.8 c 0.4,-1.8 -2.6,-3.1 -3.9,-1.1 0,2.3 3.5,3.1 3.9,1.1 z"
         id="path270" />
      <path
         fill-rule="evenodd"
         clip-rule="evenodd"
         d="m 411.1,168.8 c 7.2,0.2 16.4,5.2 23.2,2.7 -0.8,-2.8 -4.8,-3.1 -7.9,-3.2 -4.9,-0.2 -10.9,0.4 -14.6,-0.7 -1.9,-0.5 -3.8,-2.1 -5.3,0 0.6,2.6 2.7,1.1 4.6,1.2 z"
         id="path272" />
      <path
         fill-rule="evenodd"
         clip-rule="evenodd"
         d="m 673.8,210.5 c -3.6,1.4 -6,4.4 -8.5,7.4 0,0.1 0,0.3 0,0.4 -2.1,-0.5 -4.3,-1 -6.4,-1.3 -3.8,-0.4 -7.5,-1.1 -11.1,-0.5 2,1.7 5.8,1.5 7.9,3.4 -0.6,1.1 -1.8,0.2 -2.2,1.7 2.6,1.7 6.8,1.7 10.5,3 -0.1,0.6 -0.1,1.3 0,2.1 2.4,3.2 3,7.9 8,9.6 1.3,0.4 2.9,1.7 3.8,1.8 3.2,0.6 6.3,-0.6 9.4,-1.4 2.8,-1.5 4.9,-4 6.5,-7.1 1.3,0.1 2.6,0.1 4.1,-0.4 2.1,0.7 4,0.9 5.3,-0.6 0.1,-0.4 -0.5,-2.2 0.2,-3.5 -1.5,-2.2 -6.6,-4 -7.8,-1.7 -0.8,1.6 1.1,1.9 0.5,3.8 -0.4,0.1 -0.8,0.1 -1.2,0.1 -0.3,-1.3 -0.6,-2.3 0.3,-3.6 -0.3,-2.5 -1.3,-4.5 -1.5,-7.1 -1.2,-0.1 -1.8,-0.7 -2.2,-1.5 2,0.3 4.3,-0.4 4.8,-2.7 -2.2,-1.7 -7.2,-2.7 -8.1,-0.5 -0.3,-0.3 -0.6,-0.5 -0.8,-0.8 -2,0.1 -3.4,-1.1 -4.8,-2 -2.1,0.7 -4.2,2.4 -6.7,1.4 z m -13.2,12.6 c -1.1,-0.3 -3.4,-0.9 -3.1,-2.8 2.3,-0.3 5,-0.6 7.8,-0.5 -0.2,1.3 -0.8,2.5 -1.1,3.9 -1.3,-0.2 -2.5,-0.3 -3.6,-0.6 z"
         id="path274" />
      <path
         fill-rule="evenodd"
         clip-rule="evenodd"
         d="m 383.5,169.5 c 0.1,-0.3 0.1,-0.7 0.1,-1 -0.9,-0.4 -1.1,1 -0.1,1 z"
         id="path276" />
      <path
         fill-rule="evenodd"
         clip-rule="evenodd"
         d="m 416.9,192.7 c -0.7,-2.5 -4.9,-1.4 -5.7,0.4 1.4,1.7 4.8,1.3 5.7,-0.4 z"
         id="path278" />
      <path
         fill-rule="evenodd"
         clip-rule="evenodd"
         d="m 626.7,225.3 c 0,-1.6 -1.4,-1.4 -2.6,-1.2 -0.3,1.4 1.7,2 2.6,1.2 z"
         id="path280" />
      <path
         fill-rule="evenodd"
         clip-rule="evenodd"
         d="m 459.2,210.7 c -0.6,-0.7 -1.7,-0.9 -2.3,-0.1 -0.1,0.7 0.4,1 0.8,1.4 0.8,0 1.3,-0.3 1.5,-1.3 z"
         id="path282" />
      <path
         fill-rule="evenodd"
         clip-rule="evenodd"
         d="m 636.8,245.6 c 0.3,-1.6 -0.6,-2.2 -1.9,-2.6 0.2,1.3 0.6,2.3 1.9,2.6 z"
         id="path284" />
      <path
         fill-rule="evenodd"
         clip-rule="evenodd"
         d="m 411.5,217.6 c -1.2,-0.1 -2.4,-0.1 -3.5,0.3 -0.3,1.8 1.4,1.8 2.6,1.8 0,0.3 0.2,0.5 0.3,0.8 2.5,1.4 5.2,0.5 6.5,-0.9 0.3,-0.1 0.6,-0.3 0.9,-0.6 -0.1,0 -0.2,-0.1 -0.4,-0.1 0.7,-1.2 0.4,-2.6 -1.7,-3 -0.5,-0.2 0.1,-1.3 -0.8,-1.1 -0.9,-0.4 -0.6,1 -0.4,1.2 -1.2,0.2 -2.6,0.8 -3.5,1.6 z"
         id="path286" />
      <path
         fill-rule="evenodd"
         clip-rule="evenodd"
         d="m 430.6,231.6 c 2,0.9 4.4,0.1 5.3,-1.5 5.3,-1.7 11.3,-2.4 16.1,-4.8 0.2,0.1 0.4,0.3 0.5,0.5 0,0 0,0 0,0 -0.6,0.5 -1.1,1.2 -1.3,2.3 1.5,0.3 3.3,-1 3.8,-2.7 -0.6,-0.2 -1.2,-0.2 -1.7,0 0.6,-0.6 0.7,-1.7 -0.3,-2.1 -0.2,0.1 -0.4,0.3 -0.6,0.5 -0.1,0 -0.3,0 -0.4,0.1 0.5,-1.9 0.4,-3.4 -1.8,-3.3 -1.3,0.6 -1.6,2.4 -2.1,4 -3.7,0.3 -7.8,3.6 -11.8,4.3 -2.3,0.4 -5.1,-0.2 -5.7,2.7 z"
         id="path288" />
      <path
         fill-rule="evenodd"
         clip-rule="evenodd"
         d="m 371.9,215.2 c -0.1,0.6 0.2,1 0.8,1.1 0.6,-0.6 -0.1,-1.5 -0.8,-1.1 z"
         id="path290" />
      <path
         fill-rule="evenodd"
         clip-rule="evenodd"
         d="m 651,259.4 c 0.2,-0.1 0.4,-0.2 0.8,-0.1 0.7,-0.6 0.4,-1.7 0.1,-2.3 -1.5,-0.3 -1.9,1.8 -0.9,2.4 z"
         id="path292" />
      <path
         fill-rule="evenodd"
         clip-rule="evenodd"
         d="m 427.8,238.8 c 2.7,3.2 6.2,-2 9,-2.5 9,-1 15.9,-4.8 23.7,-7.4 -5.1,-1.5 -9.9,3.7 -14.4,1.2 -1.2,0.1 -2,0.7 -3,1.1 -2.6,5.7 -12.1,3.6 -15.3,7.6 z"
         id="path294" />
      <path
         fill-rule="evenodd"
         clip-rule="evenodd"
         d="m 718.2,269.2 c 0.5,0.3 1.5,0.6 1.6,-0.5 -0.8,-0.1 -1.6,-0.3 -1.6,0.5 z"
         id="path296" />
      <path
         fill-rule="evenodd"
         clip-rule="evenodd"
         d="m 462.5,236.1 c 0.6,-0.1 0.9,-1.2 0.5,-1.7 -0.8,-0.1 -1.3,0.3 -1.4,1.1 0.1,0.3 0.9,0.2 0.9,0.6 z"
         id="path298" />
      <path
         fill-rule="evenodd"
         clip-rule="evenodd"
         d="m 436.8,250.1 c 0.1,0 0.2,0 0.3,0 -0.5,0.8 -0.7,1.7 -0.3,2.5 1.9,0.8 4.3,-2.1 4.7,-4.3 1.3,-0.9 2.5,-1.9 4.5,-1.9 1.5,-1.6 4,-2 6.2,-2.6 -1.2,1.2 -5.9,4.2 -3.8,7 2.7,3.6 10.7,-0.3 11.1,-3.2 0.5,-3.2 -3.9,-4.4 -6.5,-3.8 4.1,-3.3 10.6,-3.3 14.1,-7.5 -7.5,-0.5 -17.1,6.9 -24,9.6 -3,1.1 -7.2,0.1 -6.3,4.2 z"
         id="path300" />
      <path
         fill-rule="evenodd"
         clip-rule="evenodd"
         d="m 393.2,227.3 c -1.1,0.2 -3.1,-0.6 -3.2,1 2.3,0 6.4,-0.1 8.4,-1.5 -2.1,-0.8 -3.6,0.2 -5.2,0.5 z"
         id="path302" />
      <path
         fill-rule="evenodd"
         clip-rule="evenodd"
         d="m 431.8,235.6 c 0,0.2 -0.1,0.3 -0.1,0.5 1.2,0.4 0.7,-1.2 0.1,-0.5 z"
         id="path304" />
      <path
         fill-rule="evenodd"
         clip-rule="evenodd"
         d="m 388.9,232 c 0.2,-0.5 -0.1,-0.7 -0.1,-1 -0.6,0 -1.1,0.6 -0.7,1.2 0.3,-0.2 0.5,-0.3 0.8,-0.2 z"
         id="path306" />
      <path
         fill-rule="evenodd"
         clip-rule="evenodd"
         d="m 594.4,264.7 c 0.1,-0.6 0.2,-1.2 0,-1.5 -1.2,-0.4 -1.4,1.8 0,1.5 z"
         id="path308" />
      <path
         fill-rule="evenodd"
         clip-rule="evenodd"
         d="m 436.1,241.1 c 0.6,0.7 1.2,-0.3 1.8,-0.5 -0.4,-0.7 -1.9,-0.4 -1.8,0.5 z"
         id="path310" />
      <path
         fill-rule="evenodd"
         clip-rule="evenodd"
         d="m 467.2,248.8 c 1.5,-0.4 2.8,-1.1 4.1,-1.7 -0.9,0 -3.5,0.3 -4.1,1.7 z"
         id="path312" />
      <path
         fill-rule="evenodd"
         clip-rule="evenodd"
         d="m 451.7,257.4 c 4,-1.5 9.5,-4.3 12,-7.1 -6.5,0.9 -11.3,4.2 -16.3,7.2 -2.8,1.2 -7.8,1.2 -8.5,4.3 1,1.5 3.1,0.5 4,0.1 2.1,-0.8 3.9,-2.7 5.6,-3.7 1,-0.6 2.1,-0.4 3.2,-0.8 z"
         id="path314" />
      <path
         fill-rule="evenodd"
         clip-rule="evenodd"
         d="m 350.6,242.3 c 2.8,-0.8 1.2,-5 0.8,-6.7 -1.6,1.4 -2.9,5.6 -0.8,6.7 z"
         id="path316" />
      <path
         fill-rule="evenodd"
         clip-rule="evenodd"
         d="m 488,260.8 c 1.2,1.6 3.7,0.2 2.8,-1.9 -1.3,-0.9 -2.9,-0.2 -2.8,1.9 z"
         id="path318" />
      <path
         fill-rule="evenodd"
         clip-rule="evenodd"
         d="m 413,252.6 c 1.5,-0.5 2.9,-1 4.3,-1.6 -1.4,-0.7 -4.3,0.3 -4.3,1.6 z"
         id="path320" />
      <path
         fill-rule="evenodd"
         clip-rule="evenodd"
         d="m 429.6,254.1 c -0.9,-0.1 -1.1,0.7 -1.9,0.7 0.3,0.5 1.8,0.1 1.9,-0.7 z"
         id="path322" />
      <path
         fill-rule="evenodd"
         clip-rule="evenodd"
         d="m 426.1,255.6 c 0.5,0.1 0.8,-0.1 0.9,-0.6 -0.2,0 -0.5,-0.1 -0.7,-0.1 -0.2,0.2 -0.2,0.4 -0.2,0.7 z"
         id="path324" />
      <path
         fill-rule="evenodd"
         clip-rule="evenodd"
         d="m 430.5,261.3 c -1.4,0.2 -3.1,0 -3.1,2.1 1.2,0.7 2.8,0.3 3,-1.3 3.3,-0.9 6,-2.6 8.3,-4.9 -2.8,0.1 -5.9,2.4 -8.2,4.1 z"
         id="path326" />
      <path
         fill-rule="evenodd"
         clip-rule="evenodd"
         d="m 406.5,259.3 c 0.5,0.1 0.8,-0.1 0.9,-0.6 -0.6,-0.2 -0.9,0 -0.9,0.6 z"
         id="path328" />
      <path
         fill-rule="evenodd"
         clip-rule="evenodd"
         d="m 378.4,256.8 c 0.3,0.1 0.7,0.1 1,0.1 0.6,-0.4 0.3,-1.2 0.3,-1.7 -0.8,-0.2 -1.1,0.2 -1.4,0.6 -0.1,0.5 0.2,0.6 0.1,1 z"
         id="path330" />
      <path
         fill-rule="evenodd"
         clip-rule="evenodd"
         d="m 419.7,264.3 c -0.9,0.5 -2.2,0.4 -2.7,1.4 1.1,-0.2 2.1,-0.5 2.7,-1.4 z"
         id="path332" />
      <path
         fill-rule="evenodd"
         clip-rule="evenodd"
         d="m 436.8,268.6 c 1.3,0.4 1.3,-1.1 2.4,-0.9 -0.5,-0.6 -2.1,0.1 -2.4,0.9 z"
         id="path334" />
      <path
         fill-rule="evenodd"
         clip-rule="evenodd"
         d="m 395.2,261.4 c -2.2,0.3 -4.4,0.6 -5.9,1.9 1.7,0.1 4.8,-0.3 5.9,-1.9 z"
         id="path336" />
      <path
         fill-rule="evenodd"
         clip-rule="evenodd"
         d="m 415,266.6 c 0.8,0.3 1,-0.3 1.1,-0.8 -0.3,0.3 -1.3,-0.2 -1.1,0.8 z"
         id="path338" />
      <path
         fill-rule="evenodd"
         clip-rule="evenodd"
         d="m 554.1,287.9 c -1,0.1 -1.6,1.4 -0.3,1.7 0.4,-0.3 0.6,-1.3 0.3,-1.7 z"
         id="path340" />
      <path
         fill-rule="evenodd"
         clip-rule="evenodd"
         d="m 444.9,275.4 c -0.7,2.1 0.7,2.7 2,3.4 0.6,-0.8 -0.1,-2.2 -0.3,-3.1 -0.5,-0.1 -1.1,-0.2 -1.7,-0.3 z"
         id="path342" />
      <path
         fill-rule="evenodd"
         clip-rule="evenodd"
         d="m 465,278.9 c -0.2,0.5 0.1,0.7 0.1,1 0.7,0.1 0.8,-1 -0.1,-1 z"
         id="path344" />
      <path
         fill-rule="evenodd"
         clip-rule="evenodd"
         d="m 495,287.2 c 1.5,0.3 2.4,-1 2.1,-2.2 -1.5,-0.5 -2.5,1 -2.1,2.2 z"
         id="path346" />
      <path
         fill-rule="evenodd"
         clip-rule="evenodd"
         d="m 519,289.5 c -0.1,0.8 0.4,1.2 1.3,1.2 0,-0.6 0.5,-0.5 0.4,-1.2 -0.6,-0.5 -1.3,-0.9 -1.7,0 z"
         id="path348" />
      <path
         fill-rule="evenodd"
         clip-rule="evenodd"
         d="m 407.8,274.2 c 0.8,0.1 1,-0.4 1.6,-0.5 -0.2,-0.5 -1.7,-0.3 -1.6,0.5 z"
         id="path350" />
      <path
         fill-rule="evenodd"
         clip-rule="evenodd"
         d="m 413.5,274.8 c -0.3,-0.6 -1.8,-0.2 -1.6,0.8 0.8,0.1 0.7,-1 1.6,-0.8 z"
         id="path352" />
      <path
         fill-rule="evenodd"
         clip-rule="evenodd"
         d="m 415.2,277.1 c -1.3,0.3 -2.3,0.8 -3.3,1.5 1.1,0.6 2.7,-0.6 3.3,-1.5 z"
         id="path354" />
      <path
         fill-rule="evenodd"
         clip-rule="evenodd"
         d="m 505.4,293.8 c 0.2,0.6 0.3,1.3 1.3,1.2 0,-0.6 0.5,-0.5 0.4,-1.2 -0.3,-0.6 -1.3,-0.3 -1.7,0 z"
         id="path356" />
      <path
         fill-rule="evenodd"
         clip-rule="evenodd"
         d="m 409.7,279.8 c 0.2,0.6 1.3,0 1.6,-0.3 -0.4,-0.8 -1.3,0 -1.6,0.3 z"
         id="path358" />
      <path
         fill-rule="evenodd"
         clip-rule="evenodd"
         d="m 354.7,282.8 c 1.1,1.7 4.5,1 4.3,-1.6 -1.2,-1.8 -4.2,-0.8 -4.3,1.6 z"
         id="path360" />
      <path
         fill-rule="evenodd"
         clip-rule="evenodd"
         d="m 380,291.9 c -1.4,1.3 -3.8,2.3 -2.9,4.4 1.7,1 3.3,-0.2 4,-1.4 3.7,-1.2 8.5,-2.3 8.5,-7.4 -4.2,-2.3 -6.8,1.8 -9.6,4.4 z"
         id="path362" />
      <path
         fill-rule="evenodd"
         clip-rule="evenodd"
         d="m 359.3,286 c 0.8,0.9 1.7,-0.2 2.1,-0.7 -0.3,-1.3 -2.1,-0.8 -2.1,0.7 z"
         id="path364" />
      <path
         fill-rule="evenodd"
         clip-rule="evenodd"
         d="m 529.5,317.8 c 2.1,0.8 2.7,-1.8 2,-3 -1.8,-0.7 -2.9,1.7 -2,3 z"
         id="path366" />
      <path
         fill-rule="evenodd"
         clip-rule="evenodd"
         d="m 445.5,319.4 c -1.8,0.4 -2.2,4.3 0.2,3.6 0.7,-1 0.7,-3.1 -0.2,-3.6 z"
         id="path368" />
      <path
         fill-rule="evenodd"
         clip-rule="evenodd"
         d="m 417.1,273 c -0.6,-0.5 -2,0.5 -2.7,0.9 0.7,0.7 1.9,-0.6 2.7,-0.9 z"
         id="path370" />
      <path
         fill-rule="evenodd"
         clip-rule="evenodd"
         d="m 416.6,286.7 c 2,-1.1 5.1,-2 6.7,-4.1 -2.1,0.4 -3.3,2.2 -5.3,3.3 -0.6,0.3 -1.5,-0.5 -1.4,0.8 z"
         id="path372" />
      <path
         fill-rule="evenodd"
         clip-rule="evenodd"
         d="m 786.2,69.7 c 0.1,-0.3 0.3,-0.6 0.4,-0.9 -0.7,-0.4 -1.4,0.6 -0.4,0.9 z"
         id="path374" />
      <path
         fill-rule="evenodd"
         clip-rule="evenodd"
         d="m 798.9,97.2 c 4.5,-0.5 7.6,-5 12,-6.1 -0.5,-0.2 -0.9,-0.4 -1.4,-0.6 -3.2,3.1 -7.6,2.9 -10.6,6.7 z"
         id="path376" />
      <path
         fill-rule="evenodd"
         clip-rule="evenodd"
         d="m 834.6,142.7 c 1.5,1 4,0.7 5,-1.3 -1.3,-2.2 -4.2,-1 -5,1.3 z"
         id="path378" />
      <path
         fill-rule="evenodd"
         clip-rule="evenodd"
         d="m 898.7,172.2 c -1,0.7 -1.4,2.6 0,3 0.4,-1.1 0.6,-2.2 0,-3 z"
         id="path380" />
      <path
         fill-rule="evenodd"
         clip-rule="evenodd"
         d="m 760.8,108.9 c -1.5,-1.3 -4.5,0 -4.9,1.6 1.6,1.3 3.8,-0.1 4.9,-1.6 z"
         id="path382" />
      <path
         fill-rule="evenodd"
         clip-rule="evenodd"
         d="m 693.9,82.3 c -1.3,-0.3 -2.7,-0.7 -3.2,1 0.6,2.2 4.2,1.2 3.2,-1 z"
         id="path384" />
      <path
         fill-rule="evenodd"
         clip-rule="evenodd"
         d="m 744.3,126.1 c -0.4,-0.2 -0.8,-0.4 -1.1,-0.5 -1.6,2.3 -5,2.5 -7.2,4.7 2.4,-0.1 4.3,-1.6 6.2,-3.2 0.9,0.2 1.7,0.2 2.1,-1 z"
         id="path386" />
      <path
         fill-rule="evenodd"
         clip-rule="evenodd"
         d="m 723.3,123.6 c 0.4,-0.5 1.1,-0.1 1.3,-1 -0.6,-0.5 -1.7,0.3 -1.3,1 z"
         id="path388" />
      <path
         fill-rule="evenodd"
         clip-rule="evenodd"
         d="m 674.1,104.2 c 0.9,0.6 1.3,-0.4 1.8,-0.8 -0.9,-0.6 -1.3,0 -1.8,0.8 z"
         id="path390" />
      <path
         fill-rule="evenodd"
         clip-rule="evenodd"
         d="m 733.4,133.5 c -0.4,0.2 -0.8,0.2 -1.2,0.3 -1.8,3.4 -6.1,2.7 -7.4,5.7 3.3,-1.2 6.3,-3.1 9.2,-5.4 -0.4,-0.2 -0.2,-0.5 -0.6,-0.6 z"
         id="path392" />
      <path
         fill-rule="evenodd"
         clip-rule="evenodd"
         d="m 515.9,36.4 c -0.5,-0.2 -0.9,-0.4 -1.4,-0.6 -0.3,0.5 -0.4,0.9 -0.3,1.2 0.7,0.2 1.4,0.4 1.7,-0.6 z"
         id="path394" />
      <path
         fill-rule="evenodd"
         clip-rule="evenodd"
         d="m 732.9,142.2 c 1.3,1.4 3.2,0.6 4,-0.9 -1.2,-1.4 -3.1,-0.4 -4,0.9 z"
         id="path396" />
      <path
         fill-rule="evenodd"
         clip-rule="evenodd"
         d="m 636.6,104 c -1.1,-0.7 -1.7,-0.1 -2.1,1 1.1,0.6 1.7,0.1 2.1,-1 z"
         id="path398" />
      <path
         fill-rule="evenodd"
         clip-rule="evenodd"
         d="m 689.8,138.6 c 2.3,-1 4.4,-2.3 6.4,-4.2 -1.8,-2 -5.2,2.9 -6.4,4.2 z"
         id="path400" />
      <path
         fill-rule="evenodd"
         clip-rule="evenodd"
         d="m 760.4,179.3 c 1.7,-4 -4.2,-2.8 -5.9,-2.7 -3,0.1 -6.5,-0.6 -8.2,-0.2 -1.5,1.2 -4.1,2.8 -3.9,5.4 0.9,1.1 1.6,2 3.6,2.5 4.1,1 6.8,-1.5 9.9,-2.9 1.5,-0.8 3.9,-0.9 4.5,-2.1 z"
         id="path402" />
      <path
         fill-rule="evenodd"
         clip-rule="evenodd"
         d="m 857.8,225.2 c 0.1,-0.3 0.3,-0.6 0.4,-0.9 -0.3,-0.1 -0.6,-0.3 -0.9,-0.4 -0.5,0.7 -0.3,1.1 0.5,1.3 z"
         id="path404" />
      <path
         fill-rule="evenodd"
         clip-rule="evenodd"
         d="m 738,185.8 c -1.4,-1.3 -3.7,-0.8 -4.5,1.3 1.8,1.4 3.5,1 4.5,-1.3 z"
         id="path406" />
      <path
         fill-rule="evenodd"
         clip-rule="evenodd"
         d="m 655.7,151.3 c -1.9,-0.8 -5.3,1.4 -6.4,2.6 2,-1.1 4.8,-0.2 6.4,-2.6 z"
         id="path408" />
      <path
         fill-rule="evenodd"
         clip-rule="evenodd"
         d="m 677.9,164.3 c 0.6,0.2 1.1,0.3 1.3,-0.5 -0.7,-0.4 -1.1,-0.2 -1.3,0.5 z"
         id="path410" />
      <path
         fill-rule="evenodd"
         clip-rule="evenodd"
         d="m 464.7,70.3 c -0.7,-2.9 -5.4,-3.6 -6,-0.8 -0.5,2.7 5,4.2 6,0.8 z"
         id="path412" />
      <path
         fill-rule="evenodd"
         clip-rule="evenodd"
         d="m 710.9,183.2 c -2,-1.5 -4,0.8 -6,1.1 2.1,-0.1 4.8,1.5 6,-1.1 z"
         id="path414" />
      <path
         fill-rule="evenodd"
         clip-rule="evenodd"
         d="m 751.4,209.4 c 1.3,1.4 3.3,0.8 4.5,0.4 -1.2,-1.1 -3.5,-1.2 -4.5,-0.4 z"
         id="path416" />
      <path
         fill-rule="evenodd"
         clip-rule="evenodd"
         d="m 728.7,199.8 c 0.4,0.8 1.1,1 2.1,1 1.1,-1.8 -1.5,-2.6 -2.1,-1 z"
         id="path418" />
      <path
         fill-rule="evenodd"
         clip-rule="evenodd"
         d="m 806.5,246.3 c -0.3,-0.1 -0.6,-0.3 -0.9,-0.4 -0.6,0.7 0.3,1.8 0.9,1 -0.1,-0.1 -0.1,-0.3 0,-0.6 z"
         id="path420" />
      <path
         fill-rule="evenodd"
         clip-rule="evenodd"
         d="m 760.4,226.4 c -0.3,0.6 -0.5,1.1 -0.4,1.5 0.8,0.5 1.4,0.4 1.8,-0.3 -0.2,-0.5 -0.5,-1 -1.4,-1.2 z"
         id="path422" />
      <path
         fill-rule="evenodd"
         clip-rule="evenodd"
         d="m 740.2,220.3 c -1.6,0.1 -3.9,-1 -5.6,0.2 3,2 5,-0.5 7.2,1.1 0.5,-0.5 1.2,-0.2 1.4,-1.3 -0.7,-1.3 -1.8,0 -3,0 z"
         id="path424" />
      <path
         fill-rule="evenodd"
         clip-rule="evenodd"
         d="m 675.4,198.3 c 1.2,-0.4 2.5,-0.4 3.3,-1.8 -0.5,-0.9 -0.9,-0.8 -2.1,-1.5 -6.4,2.6 -14.4,0.9 -21.4,2 -0.1,-0.8 0.9,-1 0.6,-1.9 -2.2,-0.9 -4,2 -5,3 0.9,0.4 1.8,0.8 2.7,1.3 0.6,-0.1 1.2,-0.4 1.9,-0.5 6.5,0.8 12,-1.1 18.1,-1.3 0.7,0.2 1.3,0.5 1.9,0.7 z"
         id="path426" />
      <path
         fill-rule="evenodd"
         clip-rule="evenodd"
         d="m 683.1,202.7 c 1.7,0.9 3.5,-0.8 2.7,-2.3 -1.5,-1 -3.3,0.8 -2.7,2.3 z"
         id="path428" />
      <path
         fill-rule="evenodd"
         clip-rule="evenodd"
         d="m 764,240.2 c 0.2,0.3 0.5,0.6 1,0.8 0.4,-0.4 0.7,-0.6 0.6,-1.4 -0.7,-0.5 -1.3,-0.2 -1.6,0.6 z"
         id="path430" />
      <path
         fill-rule="evenodd"
         clip-rule="evenodd"
         d="m 706.9,215.1 c 0.3,-0.2 0.6,-0.5 0.8,-1 -1.2,-0.7 -1.9,0.5 -0.8,1 z"
         id="path432" />
      <path
         fill-rule="evenodd"
         clip-rule="evenodd"
         d="m 666.9,199.4 c -1.8,-0.9 -3.1,-0.3 -4.2,0.8 1.1,0.9 3.3,0.6 4.2,-0.8 z"
         id="path434" />
      <path
         fill-rule="evenodd"
         clip-rule="evenodd"
         d="m 658.4,201 c 0.7,0 1.4,0.1 1.9,-0.5 -0.8,-0.6 -2.3,-0.4 -1.9,0.5 z"
         id="path436" />
      <path
         fill-rule="evenodd"
         clip-rule="evenodd"
         d="m 477.4,134.4 c 0.7,-2 -3.1,-5.6 -5.3,-4.1 -0.6,2.1 3.1,4.2 5.3,4.1 z"
         id="path438" />
      <path
         fill-rule="evenodd"
         clip-rule="evenodd"
         d="m 639.2,213.1 c 1.3,1.2 3.9,1.9 4.8,0.3 -1.4,-1.6 -3.6,-1.9 -4.8,-0.3 z"
         id="path440" />
      <path
         fill-rule="evenodd"
         clip-rule="evenodd"
         d="m 713.8,250.5 c -0.4,-0.7 -1.7,-1.8 -2.2,-1.8 -3.2,-0.1 -8.2,-0.8 -12.2,-1.8 -0.4,-0.1 -0.6,-0.7 -1,-0.8 -1.6,-0.4 -3.3,-0.2 -4.6,-0.8 -3,-1.3 -6.3,-2.7 -9.3,-3.2 -2.5,-0.4 -5.1,0.3 -7.7,-0.2 -2.2,-0.4 -4,-1.8 -6.1,-1.2 8.3,4.7 17,5.7 25.2,6.7 1.3,0.1 2.9,0.4 4.1,0.8 2.2,0.7 4,3 6.2,3.4 1,0.2 2.2,-0.7 3.4,-0.7 1.5,0.1 3.3,1.5 4.2,-0.4 z"
         id="path442" />
      <path
         fill-rule="evenodd"
         clip-rule="evenodd"
         d="m 633.2,214.8 c 0.9,1 2.8,0.9 3.8,0.7 -1.7,-0.4 -2.5,-1.1 -3.8,-0.7 z"
         id="path444" />
      <path
         fill-rule="evenodd"
         clip-rule="evenodd"
         d="m 629.5,219.2 c 1.6,2.4 6.1,4.3 8.5,2.6 -1.2,-2.8 -6.5,-4.2 -8.5,-2.6 z"
         id="path446" />
      <path
         fill-rule="evenodd"
         clip-rule="evenodd"
         d="m 623.5,216.6 c -0.5,0.2 -0.9,1.1 -0.7,1.6 0.3,0.1 0.6,0.3 0.9,0.4 0.4,-0.1 0.6,-0.7 0.9,-1.3 -0.7,-0.1 -0.4,-0.5 -1.1,-0.7 z"
         id="path448" />
      <path
         fill-rule="evenodd"
         clip-rule="evenodd"
         d="m 643.5,233.1 c 0.2,0.4 1.4,0.8 1.7,-0.1 -0.3,-0.5 -1.4,-0.6 -1.7,0.1 z"
         id="path450" />
      <path
         fill-rule="evenodd"
         clip-rule="evenodd"
         d="m 683.4,257.7 c -3.6,-2.8 -7.5,-2.5 -10.7,-3.8 -1.9,-0.8 -3.3,-3 -5.8,-2.4 4.3,4.6 13.3,4.9 17.7,8.5 0.6,-0.4 1.5,0 1.9,-1.1 -0.1,-1.6 -2.2,-1.5 -3.1,-1.2 z"
         id="path452" />
      <path
         fill-rule="evenodd"
         clip-rule="evenodd"
         d="m 716.6,275.6 c 0.7,0.8 1.9,1.8 2.5,0 -0.5,-0.4 -1.9,-1.6 -2.5,0 z"
         id="path454" />
      <path
         fill-rule="evenodd"
         clip-rule="evenodd"
         d="m 681.1,263.2 c 8.3,7 18.4,5.2 26.1,12.4 0.9,-0.4 2.1,0.2 2.5,-1.3 -1,-2.5 -3.1,-1.7 -5,-2.3 -0.8,-0.3 -1.5,-1.1 -2.4,-1.4 -1.7,-0.6 -3.6,-0.7 -5.3,-1.6 -3.1,-1.6 -5.8,-3.5 -8.9,-4.7 -2.2,-0.8 -4.9,-1.9 -7,-1.1 z"
         id="path456" />
      <path
         fill-rule="evenodd"
         clip-rule="evenodd"
         d="m 628.2,241 c 2,3.2 6,0.4 4.8,-2.5 -2.1,-2.4 -4.6,-0.3 -4.8,2.5 z"
         id="path458" />
      <path
         fill-rule="evenodd"
         clip-rule="evenodd"
         d="m 656.3,252.1 c 0,1.6 1.4,3.5 3.5,4.4 1.8,0.8 7.1,2.2 7.8,0.6 0.8,-2.2 -10,-8.8 -11.3,-5 z"
         id="path460" />
      <path
         fill-rule="evenodd"
         clip-rule="evenodd"
         d="m 733.1,285.4 c -0.2,-0.1 -0.3,-0.1 -0.5,-0.2 -0.1,0.1 -0.2,0.3 -0.3,0.1 -0.1,0.2 -0.1,0.3 -0.2,0.5 0.1,0.1 0.3,0.2 0.1,0.3 0.2,0.1 0.3,0.1 0.5,0.2 0.1,-0.1 0.2,-0.3 0.3,-0.1 0.1,-0.2 0.1,-0.3 0.2,-0.5 -0.1,0 -0.2,-0.1 -0.1,-0.3 z"
         id="path462" />
      <path
         fill-rule="evenodd"
         clip-rule="evenodd"
         d="m 672.3,262.5 c -0.9,2.1 3.1,3.9 4.8,2.2 0.9,-3 -4,-4.3 -4.8,-2.2 z"
         id="path464" />
      <path
         fill-rule="evenodd"
         clip-rule="evenodd"
         d="m 702.9,280.6 c -3.7,-1.2 -8.4,-5 -12.6,-7.5 -2.6,-1.6 -6.2,-3.5 -8.4,-1.7 0.4,0.6 1,1.1 1.5,1.6 0.7,1.7 3.5,3 5.3,3.9 1,0.5 2.6,2 3.5,0.7 3.7,1.3 7.6,2.5 10.5,4.3 1.6,1 2.5,3.4 4.5,1.6 0,-2.6 -2.4,-2.3 -4.3,-2.9 z"
         id="path466" />
      <path
         fill-rule="evenodd"
         clip-rule="evenodd"
         d="m 637.4,251.6 c -0.9,1.6 2,3.3 2.9,1.6 0.4,-1.1 -2,-2.5 -2.9,-1.6 z"
         id="path468" />
      <path
         fill-rule="evenodd"
         clip-rule="evenodd"
         d="m 725.9,296.7 c -0.1,0.3 -0.3,0.6 -0.4,0.9 0.8,0.6 1.4,-0.6 0.4,-0.9 z"
         id="path470" />
      <path
         fill-rule="evenodd"
         clip-rule="evenodd"
         d="m 432.3,173.3 c 0.5,0.6 1,1.2 1.9,1.2 0.6,-0.9 -1.4,-1.9 -1.9,-1.2 z"
         id="path472" />
      <path
         fill-rule="evenodd"
         clip-rule="evenodd"
         d="m 684.8,298.8 c -0.2,1.9 2.5,4.1 4.5,3.5 0.4,-2 -2.5,-5.2 -4.5,-3.5 z"
         id="path474" />
      <path
         fill-rule="evenodd"
         clip-rule="evenodd"
         d="m 590.5,257.3 c -1.4,2.8 1,5.9 4.2,5.8 1.6,-2.9 -1.3,-6.2 -4.2,-5.8 z"
         id="path476" />
      <path
         fill-rule="evenodd"
         clip-rule="evenodd"
         d="m 580.9,258.9 c -1.3,1.9 1.7,6 4.1,5.5 0.1,-0.2 0.2,-0.4 0.4,-0.4 1.8,-2.9 -2.8,-7.5 -4.5,-5.1 z"
         id="path478" />
      <path
         fill-rule="evenodd"
         clip-rule="evenodd"
         d="m 641.6,291.7 c 0,-0.9 -1.1,-1.5 -1.9,-1.2 -0.4,0.9 -0.1,1.4 0.5,1.9 0.4,-0.1 1,0 1.4,-0.7 z"
         id="path480" />
      <path
         fill-rule="evenodd"
         clip-rule="evenodd"
         d="m 673.9,318.1 c -0.7,-0.6 -0.8,0.6 -1.3,0.5 -4.9,-1.9 -3.8,6.2 1.9,6.7 2.5,-1.2 0.8,-4.5 -0.9,-5.9 0.3,-0.1 1.3,-1.2 0.3,-1.3 z"
         id="path482" />
      <path
         fill-rule="evenodd"
         clip-rule="evenodd"
         d="m 648.6,318.3 c -3,-2.8 -4.6,-7.8 -7.5,-10.1 0.4,-1.6 1.2,-3.3 0.4,-4.5 -1.8,-1.2 -2.7,-0.1 -3.3,1.8 -0.4,-0.4 -1.2,-1.2 -1.7,-0.5 2.5,5.4 7.8,9.8 11.8,14.6 -0.1,1.8 1.4,3.8 3.6,4.2 1.2,-2.9 -1.5,-3.9 -3.3,-5.5 z"
         id="path484" />
      <path
         fill-rule="evenodd"
         clip-rule="evenodd"
         d="m 708.7,342.8 c 0.6,0.2 1,0.1 1.3,-0.5 -0.3,-0.8 -1.4,-0.4 -1.3,0.5 z"
         id="path486" />
      <path
         fill-rule="evenodd"
         clip-rule="evenodd"
         d="m 641.7,316.5 c -0.6,-0.8 -0.9,-1.8 -1.9,-2.5 -5.2,-0.3 -6.3,-7.3 -11.4,-8.9 5.2,6.4 8.8,13.4 15.8,19.2 2.1,2 2.1,8.2 6.2,7 -0.5,-5.1 -9.6,-8.6 -8.7,-14.8 z"
         id="path488" />
      <path
         fill-rule="evenodd"
         clip-rule="evenodd"
         d="m 445.8,220.7 c -2.7,-0.8 -5.2,-0.7 -6.7,1.9 1.9,2.4 5.2,0.4 6.7,-1.9 z"
         id="path490" />
      <path
         fill-rule="evenodd"
         clip-rule="evenodd"
         d="m 391.1,197.1 c 0.3,-0.7 -0.4,-1 -1.1,-1.3 -0.5,1 0.5,1.2 1.1,1.3 z"
         id="path492" />
      <path
         fill-rule="evenodd"
         clip-rule="evenodd"
         d="m 624,309.9 c 0.3,-0.7 0.1,-1.3 -0.6,-1.7 -0.6,0.2 -0.9,1.3 -0.5,1.7 0.2,-0.4 0.8,0.3 1.1,0 z"
         id="path494" />
      <path
         fill-rule="evenodd"
         clip-rule="evenodd"
         d="m 505.8,257.4 c -1.4,3 3.9,5.5 4.5,0.4 -0.8,-2.5 -3.8,-2.1 -4.5,-0.4 z"
         id="path496" />
      <path
         fill-rule="evenodd"
         clip-rule="evenodd"
         d="m 633.8,328.8 c -4.3,-6.1 -8.3,-17.5 -14.8,-21.2 0.6,5.4 6,9 7.6,14 -1.9,-2 -6.2,-3.4 -7.5,-0.4 -1.2,2.7 3.3,10.3 7.6,8.8 3.3,-1.2 1,-6.3 0.7,-8 1.5,1.8 3.4,3.4 3.8,5.6 3.3,2.2 2.1,6 5.6,8.1 2.9,-2.8 -1.2,-4.4 -3,-6.9 z"
         id="path498" />
      <path
         fill-rule="evenodd"
         clip-rule="evenodd"
         d="m 685.6,340.7 c -1.2,-1.1 -1.9,-2.8 -4,-3.3 0.8,2.3 4.2,4.6 6.1,5.9 0.9,-1.4 -1.2,-1.8 -2.1,-2.6 z"
         id="path500" />
      <path
         fill-rule="evenodd"
         clip-rule="evenodd"
         d="m 568.1,292.6 c 0.8,-0.7 1.2,-2 1.4,-3 -4.3,-6.7 -8.7,3.2 -1.4,3 z"
         id="path502" />
      <path
         fill-rule="evenodd"
         clip-rule="evenodd"
         d="m 490.9,253 c -1,-0.7 -1.4,-0.1 -1.4,0.7 0.7,0.6 1.1,0.1 1.4,-0.7 z"
         id="path504" />
      <path
         fill-rule="evenodd"
         clip-rule="evenodd"
         d="m 648.8,326.4 c -0.1,-1 -1.4,0.2 -0.2,0.5 0,-0.2 0.1,-0.4 0.2,-0.5 z"
         id="path506" />
      <path
         fill-rule="evenodd"
         clip-rule="evenodd"
         d="m 687.3,346.1 c -0.2,0.3 -0.5,0.3 -0.7,0.8 0.3,0.1 0.5,0.3 0.6,0.5 0.7,-0.2 0.6,-1 0.1,-1.3 z"
         id="path508" />
      <path
         fill-rule="evenodd"
         clip-rule="evenodd"
         d="m 497.9,260.1 c -0.4,0.1 -0.6,0.7 -0.9,1.3 0.9,0.9 2,-1 0.9,-1.3 z"
         id="path510" />
      <path
         fill-rule="evenodd"
         clip-rule="evenodd"
         d="m 640.9,327.2 c 0.4,0.5 0.4,1.7 1.3,1.4 0.5,-0.7 -0.5,-1.8 -1.3,-1.4 z"
         id="path512" />
      <path
         fill-rule="evenodd"
         clip-rule="evenodd"
         d="m 609.5,314.3 c 0.8,1.2 1.4,2.5 2.5,3.6 0.2,-1.4 -1.8,-3.1 -2.5,-3.6 z"
         id="path514" />
      <path
         fill-rule="evenodd"
         clip-rule="evenodd"
         d="m 500,267.4 c -1.1,2.5 -2.1,4.7 -0.4,5.6 2.3,1.2 6.1,-3.1 4.3,-5.7 -1.7,-1.2 -2.7,-0.2 -3.9,0.1 z"
         id="path516" />
      <path
         fill-rule="evenodd"
         clip-rule="evenodd"
         d="m 553.8,294 c 0.9,-0.7 1.4,-2.6 0,-3 -2.3,-0.5 -0.8,2.4 -1.1,3.1 -0.3,0.5 -1.8,0.8 -2.2,1.2 -3,3.2 -2.8,8.8 2.5,9.5 3.9,-1.5 6.2,-9.2 0.8,-10.8 z"
         id="path518" />
      <path
         fill-rule="evenodd"
         clip-rule="evenodd"
         d="m 531.8,282.5 c -0.7,1.3 -0.5,2.3 0.9,2.9 1.8,-0.7 1.1,-3.7 -0.9,-2.9 z"
         id="path520" />
      <path
         fill-rule="evenodd"
         clip-rule="evenodd"
         d="m 614.1,321.1 c 0.6,3.7 3.6,9.1 6.1,12.5 0.7,1 1.7,1.4 2.2,2.4 0.9,1.8 1.4,4.4 2.7,6.2 0.6,0.8 1.8,2.8 3.4,2.1 1.1,-3 -3.1,-5.7 -4.7,-8.3 -2.5,-5.1 -4.8,-10.5 -9.7,-14.9 z"
         id="path522" />
      <path
         fill-rule="evenodd"
         clip-rule="evenodd"
         d="m 713,376.6 c 2.3,0.2 3.6,-4 3.1,-6.1 -1.3,1.3 -5,3.9 -3.1,6.1 z"
         id="path524" />
      <path
         fill-rule="evenodd"
         clip-rule="evenodd"
         d="m 586.7,313.4 c -1.9,1.2 -0.6,3.8 1.3,3.1 1.3,-1.7 0.3,-3.1 -1.3,-3.1 z"
         id="path526" />
      <path
         fill-rule="evenodd"
         clip-rule="evenodd"
         d="m 525.5,293.1 c 1.6,-1.4 3.2,-5.7 1.4,-7.1 -1.6,2.3 -3.6,5 -1.4,7.1 z"
         id="path528" />
      <path
         fill-rule="evenodd"
         clip-rule="evenodd"
         d="m 496.6,274.2 c -2.8,-6.4 -11.9,2.4 -6.8,5.1 2.8,1.5 6.4,-1.6 6.8,-5.1 z"
         id="path530" />
      <path
         fill-rule="evenodd"
         clip-rule="evenodd"
         d="m 652.4,347.2 c 0.8,1.3 1.7,2.5 2.7,3.7 0.8,-1.1 -1.1,-3.5 -2.7,-3.7 z"
         id="path532" />
      <path
         fill-rule="evenodd"
         clip-rule="evenodd"
         d="m 640.5,343 c -0.4,0.7 0.7,1.9 1.2,1.7 -0.7,-0.5 -0.4,-1.3 -1.2,-1.7 z"
         id="path534" />
      <path
         fill-rule="evenodd"
         clip-rule="evenodd"
         d="m 642.6,346.2 c 0.1,-0.2 0.2,-0.5 0.3,-0.7 -0.2,-0.1 -0.5,-0.2 -0.7,-0.3 -0.2,0.5 -0.1,0.8 0.4,1 z"
         id="path536" />
      <path
         fill-rule="evenodd"
         clip-rule="evenodd"
         d="m 635.7,348.6 c -1,-2.7 -2.3,-6.3 -4.6,-8 0.7,3.1 2,6.1 4.3,8.6 -0.7,1.4 0.4,2.7 1.8,2.8 1.1,-1.7 -0.5,-2.5 -1.5,-3.4 z"
         id="path538" />
      <path
         fill-rule="evenodd"
         clip-rule="evenodd"
         d="m 656.6,359.1 c -0.3,0.5 -0.1,0.8 0.4,1 0.3,-0.5 0.1,-0.8 -0.4,-1 z"
         id="path540" />
      <path
         fill-rule="evenodd"
         clip-rule="evenodd"
         d="m 681.6,371.5 c -0.3,0.5 -1,1 -0.7,1.6 0.3,0.1 0.6,0.3 0.9,0.4 0.1,-0.5 0.5,-0.4 0.6,-0.8 0,-0.5 0,-1 -0.8,-1.2 z"
         id="path542" />
      <path
         fill-rule="evenodd"
         clip-rule="evenodd"
         d="m 644.7,359.7 c 0.1,-1.1 -1,-1.8 -1.5,-2.7 -0.1,1.1 0.6,1.9 1.5,2.7 z"
         id="path544" />
      <path
         fill-rule="evenodd"
         clip-rule="evenodd"
         d="m 625,349.1 c 1,0.5 0.2,1.7 1.5,2.1 0.2,-0.8 -0.8,-2.2 -1.5,-2.1 z"
         id="path546" />
      <path
         fill-rule="evenodd"
         clip-rule="evenodd"
         d="m 493.9,289 c 1.4,0.6 1.9,3.2 3.2,2 -0.2,-0.9 -2.7,-1.9 -3.2,-2 z"
         id="path548" />
      <path
         fill-rule="evenodd"
         clip-rule="evenodd"
         d="m 665.2,368 c 0,2 2.4,4 3.9,4.8 -0.5,-1.9 -2.2,-3.3 -3.9,-4.8 z"
         id="path550" />
      <path
         fill-rule="evenodd"
         clip-rule="evenodd"
         d="m 645.3,360.2 c -0.2,0.6 -0.3,1.1 0.5,1.3 0.7,-0.7 -0.4,-0.8 -0.5,-1.3 z"
         id="path552" />
      <path
         fill-rule="evenodd"
         clip-rule="evenodd"
         d="m 517.9,302.9 c -0.5,0.2 -0.9,1.1 -0.7,1.6 1.3,0.4 1.5,-1 0.7,-1.6 z"
         id="path554" />
      <path
         fill-rule="evenodd"
         clip-rule="evenodd"
         d="m 612.4,354.1 c 1.5,0.2 2.9,0.4 3.5,-1.7 -0.5,-0.2 -1.1,-0.5 -1.6,-0.7 -0.6,0.6 -2,1.4 -1.9,2.4 z"
         id="path556" />
      <path
         fill-rule="evenodd"
         clip-rule="evenodd"
         d="m 596.6,345.1 c 0.2,-0.3 0.5,-0.3 0.7,-0.8 -0.7,-0.5 -1.3,0.5 -0.7,0.8 z"
         id="path558" />
      <path
         fill-rule="evenodd"
         clip-rule="evenodd"
         d="m 567.1,331.7 c -0.9,0.9 -0.9,2.5 0.5,3 1.1,-0.7 1.1,-2.5 -0.5,-3 z"
         id="path560" />
      <path
         fill-rule="evenodd"
         clip-rule="evenodd"
         d="m 544.8,322.5 c -0.5,0.6 0,0.7 -0.3,1.2 0.8,0.5 1.4,0.4 1.8,-0.3 0.2,-0.9 -0.7,-0.9 -1.5,-0.9 z"
         id="path562" />
      <path
         fill-rule="evenodd"
         clip-rule="evenodd"
         d="m 481.6,298.2 c 1.2,-0.4 2.2,-0.8 2.6,-2.1 1.3,-4.2 -5.9,-0.8 -2.6,2.1 z"
         id="path564" />
      <path
         fill-rule="evenodd"
         clip-rule="evenodd"
         d="m 646.6,370.5 c 0.4,0.4 0.4,1 1.1,1.3 0.5,-0.6 -0.7,-1.6 -1.1,-1.3 z"
         id="path566" />
      <path
         fill-rule="evenodd"
         clip-rule="evenodd"
         d="m 642.5,369.2 c 0.9,0.3 0.2,1.2 0.9,1.5 0.7,-0.8 -0.2,-1.9 -0.9,-1.5 z"
         id="path568" />
      <path
         fill-rule="evenodd"
         clip-rule="evenodd"
         d="m 641.8,373.2 c -0.4,-1.1 -1,-2.2 -1.9,-3.1 0,1.2 0.7,3 1.9,3.1 z"
         id="path570" />
      <path
         fill-rule="evenodd"
         clip-rule="evenodd"
         d="m 553.8,333.6 c -0.5,0.6 0,0.7 -0.3,1.2 0.9,0.7 1.3,0.2 1.8,-0.3 -0.2,-0.4 -0.8,-1.2 -1.5,-0.9 z"
         id="path572" />
      <path
         fill-rule="evenodd"
         clip-rule="evenodd"
         d="m 641.8,374.4 c 0.1,0.4 0.7,1.5 1.2,1.1 -0.1,-0.4 -0.4,-1.7 -1.2,-1.1 z"
         id="path574" />
      <path
         fill-rule="evenodd"
         clip-rule="evenodd"
         d="m 684.6,404.4 c -1.6,2.1 0.8,4.6 2.7,3.7 1.2,-2 -0.7,-4.5 -2.7,-3.7 z"
         id="path576" />
      <path
         fill-rule="evenodd"
         clip-rule="evenodd"
         d="m 655.6,392.9 c -2.8,4.3 0.6,7.8 3,10.8 0,1.4 0.6,3.3 2.6,3.4 1.9,-1.2 0.4,-3.4 0,-5.3 -0.9,-3.7 -0.9,-8.5 -5.6,-8.9 z"
         id="path578" />
      <path
         fill-rule="evenodd"
         clip-rule="evenodd"
         d="m 680.3,406.6 c 0.1,0.7 0.2,2.1 1.4,1.8 0.8,-1.3 -0.4,-2.7 -1.4,-1.8 z"
         id="path580" />
      <path
         fill-rule="evenodd"
         clip-rule="evenodd"
         d="m 522,337.7 c -1.3,0.6 -2.2,3.2 0,3.6 1.4,-0.5 1.8,-3.1 0,-3.6 z"
         id="path582" />
      <path
         fill-rule="evenodd"
         clip-rule="evenodd"
         d="m 589.2,391.8 c 1.7,1.9 3.5,-1.6 2.2,-2.9 -1.1,-0.1 -2.3,1.6 -2.2,2.9 z"
         id="path584" />
      <path
         fill-rule="evenodd"
         clip-rule="evenodd"
         d="m 688.6,286.4 c -8.4,-3.9 -16.4,-10.2 -23.2,-12.1 1.8,-1.8 1.6,-4.1 1.6,-5.9 2.2,-0.1 4.8,4.2 6.9,1.8 0.1,-2.1 -3.1,-2.8 -4.7,-2.4 -2.3,-1.2 -4.7,-2.6 -6.9,-3.6 0.5,0.1 1,0.2 1.7,0 0.2,-3 -1.9,-4.4 -4.6,-5.2 0,1.9 0.8,4.2 2.3,5 -0.5,-0.2 -1.1,-0.5 -1.6,-0.6 -3.5,-1.2 -7.4,-3.8 -10.4,-2.6 1.7,2.3 6.6,2.6 8.1,4.6 -0.7,0.9 -1.3,2 -2.2,2.3 -2.9,-1.6 -5.3,-3.1 -7.8,-3.6 -1,-2.5 -2.1,-6.2 -5.7,-6.8 -2.6,-0.4 -3.6,2.5 -5.3,4.2 -0.3,-2.5 -2.6,-1.7 -4.8,-2.8 6.3,-5.8 -1.3,-12.5 -6.3,-10.1 -0.6,-0.2 -1.3,-0.3 -2,0 0,0.5 0,1.1 0.1,1.6 -0.6,0.7 -1,1.6 -1.4,2.8 -1.5,-1.3 -3.6,-2.5 -3.2,-4.5 2.3,0.2 2.3,-2.1 3.4,-3.7 0.4,-0.7 1.8,-0.8 2.4,-1.6 1.6,-2.2 1.4,-4.6 -0.7,-5 -3.6,-0.8 -2.5,5.8 -4.8,6.1 -0.3,-1.1 -1.9,-1.7 -1.7,-3 2.4,-2.4 5.4,-3.3 7.2,-7.2 3.7,0 6.7,-2.1 11,-0.4 1.4,-0.6 3.3,0.1 4.6,-0.9 0.8,-3.9 4.7,-2.8 8.1,-2.7 -0.1,0.1 -0.1,0.1 -0.2,0.2 0.4,1.3 2.8,2.6 3.6,0.5 -0.1,-0.4 -0.4,-0.8 -0.8,-1.1 1,-0.4 1.9,-1.1 2.3,-2.5 0.6,-2 -1.6,-5.1 -3.6,-6.1 -3.2,-1.6 -7.1,-0.3 -9.6,-0.3 -2,2.5 -0.1,4.7 -0.6,7.2 -2.1,0.6 -4,2.7 -6.3,3.5 -1.8,0.6 -4.6,-0.1 -6.5,-0.3 -0.9,-0.1 -1.8,0.3 -2.5,0 -2.6,-1.3 -2,-5.5 -5.7,-5.7 0,-0.1 -0.1,-0.3 -0.1,-0.5 0.9,0.3 2,0.6 2.5,0 0.3,-2.3 -0.9,-3.6 -0.4,-5.7 0.4,-1.6 1.8,-3.9 3.4,-4.8 0.1,0 0.2,0 0.2,0 0,0 -0.1,0 -0.1,0 0.3,-0.2 0.6,-0.3 0.9,-0.3 2,-0.2 3.5,1.7 6,0.9 1,-1.3 0.1,-2.5 -0.8,-3.6 0.3,0 0.6,0 0.9,-0.2 2,-2.5 -1,-4.2 -2.4,-2.5 0,-1.3 0.7,-2.1 1.8,-2.7 1.2,1 2.9,0.1 4.4,0 0.7,-0.1 1.4,-0.1 2.2,-0.1 0.1,0 0.2,0 0.2,0.1 0,-0.1 0.1,-0.1 0.1,-0.1 3.7,-0.2 8.3,-0.1 11.8,1 2.8,0.8 4.9,2.4 7.9,2 1.2,0.3 0.3,1.3 1.5,1.5 1,0.1 2,0.2 2.7,-0.4 -1,-0.5 -2.5,-0.8 -2.5,-1.7 2.3,-1.8 5.6,0.3 8,1.2 -1.9,0.9 -4.2,0.5 -5.9,2 2.4,0.7 4.6,-0.4 6.7,-0.8 1.3,-0.2 3.5,0.3 4.1,-1.7 -1.3,-0.8 -2.4,-1 -2.8,-2.4 -6.8,-1 -13.5,-1.8 -20.2,-2.4 -3.4,0 -7.4,0.3 -11.2,0.3 -0.1,-0.1 -0.2,-0.2 -0.3,-0.3 -0.5,-0.1 -0.7,0 -0.9,0.3 -0.4,0 -0.9,0 -1.3,0 -0.4,0 -0.8,-0.1 -1.2,-0.2 0,0 0,0 0,0 -0.2,-2.4 1.4,-4.4 2.6,-7.2 1,-2.2 1.1,-4.6 2.6,-5.2 1.8,-0.8 3.4,1 5.1,-0.3 0,-0.3 -0.2,-0.5 -0.3,-0.8 2.3,-0.1 4.6,-0.1 6.9,1.3 1.7,-0.8 3.3,-1.7 5,-2.4 0,0.1 -0.1,0.2 -0.2,0.3 -0.5,2 2.7,3.2 4.1,1.4 0.3,-1.6 -0.6,-2.4 -1.7,-2.6 2.5,-1 5.2,-1.6 8.1,-1.7 0.8,-0.5 1.4,-1.6 2.4,-1.6 1.7,1.2 5,-0.2 4.6,-2.8 -2.6,-1 -4.2,0.5 -6,1.6 -1,-0.5 -1.5,0.1 -2.4,-0.3 -5,3.5 -11.1,4.1 -17.3,4.4 0.5,-1.6 -1.4,-2.3 -2.3,-1.4 -0.3,0.7 -0.1,1.2 0.2,1.5 -0.4,0 -0.8,0 -1.3,0 0.8,-1 0,-1.5 -0.1,-2.2 -0.4,-0.3 -0.7,-0.5 -1.1,-0.7 -0.4,-0.9 -1.6,-1.3 -2.7,-1.1 -0.7,-0.2 -1.4,-0.3 -2.2,-0.4 0.6,-2.7 1.4,-5.1 2.2,-7.5 0.3,-0.4 0.5,-0.9 0.5,-1.4 0.2,-0.5 0.4,-1.1 0.5,-1.7 0.9,-0.9 2.6,-0.9 3.1,-2.3 -0.5,-0.6 -1.1,-1.1 -2.4,-1.1 -2.6,-1.7 -3,-6.5 -1.6,-9.9 -0.7,-1.1 -2.3,-1.5 -3.2,-2.5 -0.3,-0.9 -0.3,-1.8 -0.1,-2.7 2.4,-0.7 4.3,-3.1 6.1,-5.2 1.1,-1.2 2.5,-2.3 3.8,-3.5 1.4,-0.3 2.7,-0.7 4,-1.2 2.1,-0.9 3.7,-2.2 6,-2.4 2.7,-0.3 5.8,0.8 7,-2.7 -1.3,-1.1 -2.1,-0.4 -3.3,-0.9 -3.2,2.6 -6.5,2.7 -9.9,3.5 -0.3,0.1 -0.7,0.2 -1,0.2 0.1,-0.1 0.2,-0.3 0.2,-0.4 -1,-1.5 -1.9,-1.7 -2.8,-1.3 -0.3,-0.3 -0.9,-0.5 -1.8,-0.5 -0.5,0.9 -1.4,1.1 -1.4,2.6 0.2,0.1 0.4,0.3 0.5,0.5 -0.2,0.3 -0.5,0.6 -0.8,0.9 -0.2,0.1 -0.4,0.1 -0.6,0.2 -2.1,0.8 -4.2,1.7 -6.3,2.5 -3.3,-0.3 -5.5,-0.3 -5.4,-3.2 0.1,-2.7 4.6,-6.1 1.6,-7.4 -1.2,-0.5 -2.6,1.3 -4.1,1.7 -0.6,0.2 -1.2,0.3 -1.8,0.3 -0.1,-0.5 -0.1,-1 -0.2,-1.4 -4.6,-0.7 -4,-6.8 -8.2,-7.4 2,-3.8 6.3,-6.7 3.6,-11 -3.6,1.3 -3.3,6.5 -5.7,9.1 -0.1,0.2 -0.3,0.3 -0.5,0.4 -0.2,-0.6 -0.3,-1.2 -1,-1.7 -3.1,0.7 -5,-2.6 -7.8,-3.2 -2.8,-0.5 -5.1,3.1 -8,3.3 -0.1,0.1 -0.1,0.2 -0.1,0.3 -0.4,-0.1 -0.8,-0.2 -1.2,-0.3 -0.5,-0.6 -0.8,-1.3 -1.2,-2 1.5,0.3 3.1,1.3 4.1,0 0.5,-1.2 -1.5,-1.8 -2.1,-2.8 3.6,-0.3 6.4,-3.7 7.7,-7.9 -0.7,-1.8 -0.7,-3.7 -0.9,-5.6 3.9,-1.9 4.9,-6.4 8.1,-9.1 1,-0.8 2.4,-0.9 3.4,-1.7 1,-0.8 1.7,-2 2.7,-2.8 1.6,-1.3 3.7,-2.1 5.4,-3.4 1.8,-1.3 3.3,-3 5.3,-4.1 3.5,1.8 1.4,5.4 0.1,7.8 -1.1,0.9 -2.7,0.2 -4,0.7 -3.1,1.3 -6.1,5.7 -4.3,7.7 1.1,1.2 7.1,1.3 8.9,-0.9 4.7,-5.7 7.8,-12.1 14,-10.8 1.5,-4.6 3.7,-8.4 2.3,-12.5 -1.2,-2 -4,-4 -5.2,-5.4 1.2,-1.1 5.3,-2.9 3.9,-5.3 -2,-0.9 -3,2.4 -4.4,3.7 -1.3,1.2 -4.2,0.8 -6.6,2 -1.8,0.9 -2.4,2.3 -3.9,2 -0.6,0.4 0,2.2 -0.5,3.2 0.4,-0.8 -1.6,-2.5 -2.3,-1.5 -1,0.6 1.6,3 -1,2.9 0.7,-4.4 -2,-8.6 -7.3,-10.6 -3.2,-0.2 -6.1,0.5 -8.8,2.2 2.3,-4.9 5.5,-9.4 8.4,-13.7 0.8,-1.2 2.3,-2 2.9,-3.2 1.3,-2.5 0.3,-4 0.4,-6.3 0.1,-1.2 1.4,-2.7 -0.4,-3.2 -0.5,2.2 -2.9,5.2 -3.2,7.8 -0.1,1.5 0.5,2.4 -0.7,4.3 -5,7.8 -12.3,15 -15,21.4 -1.6,-2 -3.9,-2.1 -5.6,-2.4 0.2,-2.2 4.8,-4.2 2.7,-6.6 -2.1,-0.4 -3.2,2.7 -3,4.3 -2,2.9 -4.3,5.9 -5.6,8.4 -1.6,3.3 -4.8,6.9 -3.9,10 2.5,-1.4 3.4,-6.2 5.6,-7.5 0.9,0.8 1.8,1.5 2,2.5 -1.9,2.6 -3.8,4.9 -4.6,7.2 -2.6,0.7 -6.4,1.3 -7.5,4.8 -0.8,2.5 2,3.9 3.5,5.8 -2.5,0 -2.1,2.3 -3.4,4.4 -5.9,-8.5 -16,3.1 -8.2,8 -0.2,0.7 -0.2,1.4 -0.3,2.1 -1,0.9 -2,1.6 -3.3,1.1 0.5,-2.2 -1.8,-2.5 -3.2,-3.8 -0.6,-0.5 -0.6,-1.9 -1.3,-2.6 -1.8,-1.6 -3.8,-1.9 -4.8,-0.6 -0.8,-0.5 -1.7,-0.6 -2.8,-0.3 -0.1,0.2 -0.1,0.4 -0.2,0.5 -0.4,-0.3 -0.8,-0.6 -1.2,-0.9 0.5,-3.7 -1.3,-6.9 1,-11 -0.5,-1.5 0.6,-3.3 -0.3,-4.7 -6.2,-2.1 2.2,-10.9 -3.8,-13.7 -1.9,-0.9 -5.2,0.9 -6.5,2.7 -2,3 -1.2,7 -1.5,9.4 2.2,2.3 4.7,0.7 7.1,1.5 0.3,2.1 2.2,4.3 2.6,6.7 0.3,1.8 -0.7,4.5 -1.1,6.4 -0.2,0.9 0.1,1.8 -0.4,2.4 -0.4,0.6 -0.9,0.9 -1.4,1.2 -0.1,-0.1 -0.2,-0.2 -0.3,-0.4 -2.2,-3.2 -0.3,-8.9 -5.7,-9.5 -3.6,2.2 -0.4,6.6 2.1,8.2 0.1,1.1 0.4,2.1 0.7,3 -0.8,0.5 -1.5,1.1 -1.7,2.4 -1.5,0.2 -3.3,-1.2 -4.5,0.1 -0.5,1.4 2.1,2.1 2.7,3.2 -2.9,2.4 -4,0 -7.1,-0.6 -0.8,-0.2 -1.6,-0.1 -2.3,0.1 -0.7,-1.1 -1.2,-2.4 -1.4,-3.4 0.1,0.1 0.3,0.3 0.5,0.4 2.4,-1.4 2,-4.8 1.9,-6.8 -0.4,1.4 -1.7,2.7 -2.4,3.9 0.2,-1.2 0.4,-2.4 0.2,-3.5 -0.1,-0.7 -0.5,-1.5 -0.9,-2.2 0.1,0 0.2,0.1 0.3,0.1 0.7,-0.9 0.3,-1.5 -0.5,-2.1 -0.3,0.1 -0.5,0.4 -0.6,0.6 -0.2,-0.4 -0.5,-0.7 -0.6,-1 -0.1,-0.2 -0.2,-0.4 -0.3,-0.6 0.2,0.2 0.5,0.3 0.8,0.5 1.2,-0.1 2.2,-1.7 1.7,-2.8 -2,-2 -3.7,-0.2 -3.2,1.4 -0.6,-0.7 -1.3,-1.2 -2.2,-1.3 1.4,-1 0.7,-3 0.7,-4.5 0.1,-1.7 0.2,-3.6 0.5,-5.7 0.4,2 1.2,3.8 3.1,4.7 1.3,-1.2 0.3,-3.3 1,-4.7 -0.5,-1.4 -1.7,-5.8 -2.1,-7.9 0,0 0,-0.1 0,-0.1 0.1,-0.1 0.1,-0.3 0.2,-0.4 1.2,-2.7 3,-4.6 3,-7.6 0.4,-1.1 1.3,-0.2 1.7,-1.3 0.2,-1 0.5,-1.9 -0.1,-2.7 -0.7,0.9 -1.2,2.4 -2,2.3 -1.5,-2.5 1.1,-5.5 2.3,-7.8 0.7,2 -0.1,4.3 1.2,6.1 1,-2.2 0.2,-4.6 0.1,-6.8 -0.1,-1.3 0.7,-3.5 -1.2,-4.3 -1,1.1 -1.3,2.3 -2.7,2.4 -1.3,4.8 -2.6,9.5 -3.7,14.3 -0.5,-0.7 -1.4,-0.9 -2.9,-0.3 -0.5,2.8 0.7,5.7 1.3,8.4 -0.3,3.6 -0.6,7.5 -1.2,10.9 -0.3,1.6 -1.9,3.6 -0.1,4.9 -0.1,0 -0.2,0 -0.3,0 -0.5,1.3 -0.7,2.8 -0.7,4.4 -1.1,1.9 -2.2,3.9 -0.6,5.6 0.7,0 1.2,-0.4 1.6,-1 0.3,0.6 0.6,1.3 0.9,1.8 0.6,1 2.2,1.6 2.4,2.6 0.3,1.7 -1,3.2 -3.4,2 -0.6,-1.5 -1.2,-4 -3.5,-3.6 -0.7,0.9 0.7,1.8 1.2,2.5 -1.7,-0.1 -2.5,-0.8 -4.2,-0.9 -1.3,0.6 -1,2.6 -1.2,4 -0.3,-0.4 -0.7,-0.8 -1.2,-1 -0.9,0.4 -1.8,0.7 -2.7,1.2 -2.2,-1.1 -4.2,-2.1 -6.9,-2 -0.4,-0.7 -0.9,-1.2 -1.7,-1.5 -0.9,0.6 -1.1,1.6 -1.2,2.6 -0.7,-0.5 -1.3,-1 -2,-1.4 0,-0.1 -0.1,-0.2 -0.1,-0.3 1.7,-1.1 3.5,-1.7 5.6,-0.9 1.7,-1.1 1.6,-3.1 1.6,-4.4 -2.7,-3.2 -7.2,-2.8 -9.8,-0.9 -2.1,-1.4 -2.6,-5.1 0.1,-5.9 4.3,3 9.7,0.1 8.6,-4.7 -0.2,-0.9 -1.3,-1.4 -1.3,-2.6 0.1,-2.6 2.3,-3.3 4,-2.5 0.4,1.8 -2.3,3.3 -0.4,4.8 2.6,-1 0.6,-3.7 1,-5.3 3.3,-4.7 0.4,-10.2 4.1,-14.9 -1.8,-5.1 -3.6,-10.2 -3,-15.9 -0.4,-0.9 -1.4,-1.6 -1.3,-2.6 1.4,-1.5 0.5,-5 -2.2,-5 -1.4,2.4 0,4.3 0.8,6.2 -0.7,0.9 -0.1,1.5 -0.6,2.3 3.3,6.4 2.5,13.8 1.8,21.1 -0.9,-0.9 -1.5,-0.2 -2.2,-0.2 -3,2.9 -2.9,6.6 -4.3,10.1 -1.8,0.8 -3.6,-2.9 -5.6,-2 -1,1.3 -1,2.4 -2.1,3.7 -0.2,-0.8 0,-2.5 -1.1,-2.5 -1.8,1.4 -0.4,3.6 0.4,5 -0.6,2.5 -2.6,2.5 -3.7,1.2 -0.6,-0.8 -0.1,-2.4 -0.4,-3.5 -1.1,-3.6 -4.2,-6.8 -7.4,-8 -2,1.4 -1.4,3.4 -0.9,5.1 0.4,1.2 0.8,2.9 1.7,4.3 -0.4,-0.2 -0.8,-0.4 -1.2,-0.5 -1.8,2 0.3,5 2.3,4.9 0.8,0.6 0.7,1.8 1.1,2.7 1.7,1.2 3.1,2.6 4.4,4.1 -0.5,0.6 -1.7,0.7 -2.3,1.3 -1.4,1.5 -0.4,3.2 -1.3,4.8 -0.3,0.5 -0.6,0.9 -1.1,1.2 -2.7,-1.9 -5.6,-3.6 -8.2,-5.7 -0.3,-0.5 -0.7,-1.1 -1.2,-1.6 0.5,-2.9 -0.8,-8.2 -4.8,-6.9 -1.1,1.6 -1.1,2.9 -0.6,4.1 -0.1,0 -0.1,0 -0.2,0.1 -0.1,1.6 1,2.3 1.8,3.3 0.3,0 0.6,0.1 0.9,0.1 0.7,0.9 1.3,1.8 1.6,2.8 0.2,0.9 -0.1,1.9 0.1,2.7 0.3,2 1.3,4 1.5,6 -1,-0.5 -2,-1 -3.1,-1.5 -0.3,-1.2 -0.8,-2.3 -2.8,-2.9 -3.4,2.1 -0.7,6.1 -0.6,8.9 0.1,1.9 0.2,4.3 -0.1,6 -1.7,-0.7 -3.5,-1.4 -5.1,-2.3 -1.7,-1 -3.2,-3.5 -6.4,-3 -0.8,3.9 3.5,3.1 6.5,4.3 1.6,0.7 3.1,1.5 4.6,2.4 -0.1,0.2 -0.2,0.3 -0.3,0.4 -2.4,2.3 -5.5,-4 -8.5,-2.1 -0.4,0.7 -0.8,1.4 -1,2.2 -1.8,-0.4 -3,-0.9 -5.1,-2 -1.5,-0.7 -3.3,-1.3 -4.5,-1.9 -1.5,-0.8 -2.3,-2.4 -3.6,-3.3 -1.8,-1.3 -4,-1.5 -5.4,-2.8 0.5,-1.9 2.3,-1.2 2.5,-2.9 0.2,-2.6 -5,-3.9 -7.4,-2.9 -0.1,1.4 -1.6,2.6 -1.7,3 0.3,1.9 1.9,2.8 4.1,3.4 2.1,2.8 5.1,3.2 8.6,5.1 1.3,0.7 2.5,2.1 3.9,3.1 2.4,1.8 5,3.8 8,5.2 -0.4,5.2 0.6,10.4 -5.3,12.5 0.2,1.2 1,2.2 1.1,3.4 -1.6,2.5 -1.4,5.5 -2.1,7.9 -2.1,-0.1 -4.2,0.1 -5.3,0.6 -0.4,0 -0.8,0.1 -1.1,0.3 -0.1,0.3 -0.1,0.6 -0.1,0.8 -1.1,0 -2.1,-0.3 -3.1,-1 -0.7,0.2 -1.3,0.3 -2.1,0.2 0.5,-0.3 1,-0.4 1.5,-1 -0.1,-4.7 -6.5,-1.5 -3.1,0.5 -0.3,0.2 -0.7,0.5 -1,0.8 -1.2,-0.5 -2.7,-0.5 -3.4,0.7 0,0 -0.1,0 -0.1,0 -1.6,2.1 -3.5,3.2 -5.1,5.1 0,1.7 -0.8,2.3 -1.8,3.3 -0.3,1.7 -0.5,3.4 -0.5,5 -4.6,-0.2 -9.6,-0.3 -14.3,-1 -2.2,-0.3 -2.5,-1.4 -3.7,-2.3 -2.1,-1.5 -6,-1.7 -8,-2.7 -0.8,1.6 1.2,1.6 2.2,2.4 1.8,1.4 2.3,3.2 5,3.8 1.3,0.3 2.9,-0.3 4.3,-0.1 4.8,0.6 9.8,1.1 14.6,2.3 0,0.2 0.1,0.5 0.1,0.7 -2.5,1 -4.6,2.6 -6.3,4.8 -2,5.3 -0.5,10.1 3.2,12.4 -1.6,2 -1.8,-1.6 -2.9,-1.2 -1.2,-0.1 -1.3,2.5 -0.4,2.7 -1.2,-0.3 -2.1,-1.8 -2.8,-1.7 -0.8,1.4 -2.2,0.9 -4.1,1.7 -2.5,1.1 -4.1,3.5 -5.9,3.7 -2,0.3 -5.1,-1.2 -5.7,0.9 0.9,2.6 4.9,0.7 6.5,0.5 0.2,1.9 0,5.3 0.7,7.5 2.2,3.7 6.5,4.6 11,6.5 3,-5.5 9.9,-3.7 17.3,-3.5 1.6,0 3.4,-1.4 4.8,-2.9 2.2,2 5.1,-0.4 4.3,-2.6 -0.9,-0.6 -1.8,-0.7 -2.6,-0.5 0,0 0,-0.1 0,-0.2 -0.3,-2.7 -5.6,-3.3 -8.6,-1.8 -1.2,0.6 -1.7,2.3 -3.2,2.6 -2.7,-0.6 -6.7,-1.3 -5.8,-5.2 2.1,-0.8 4.3,-0.8 6.5,-1.3 2.1,-0.5 4.1,-1.5 6.1,-1.9 1.3,-0.2 2.6,0.1 3.8,-0.2 0.7,-0.2 1.3,-0.5 2,-0.9 1.9,1.6 5.6,1.4 7.1,4.1 0.2,1.3 -0.5,2.8 -0.2,4 3.5,1.1 6.9,4.6 6.5,7.7 -0.9,1 -0.9,1.8 -0.7,2.5 1.4,0.5 2.5,-0.8 3.8,-0.9 1.7,0.8 3.4,1.4 5.2,2.2 0.4,0.7 0.9,1.2 0.9,2.2 -2.7,2.4 -1.6,4.7 -0.7,7.1 -0.3,0.5 -0.5,1 -0.6,1.5 0.4,0.2 0.8,0.3 1.1,0.4 0.2,1.1 0.1,2.2 -0.6,3.3 1.4,1.4 2.6,3 3.1,5 1.8,0.5 2.7,1.7 2.8,3.5 0.5,0.4 1.1,0.8 2.2,0.8 -2.3,2.1 -4.9,3.6 -7.7,5.1 1.1,-1.2 2,-2.8 2.2,-3.7 -1.7,1.9 -5,2 -5.8,4.8 0.3,0.2 0.7,0.2 1,0.2 -0.8,0.4 -1.7,0.9 -2.5,1.3 -2.4,1.3 -4.5,2.7 -6.7,4.3 -2.9,2.1 -5.1,4.5 -9.2,5.2 -0.3,1.2 -1.4,1.4 -1.5,3.1 3.4,1.3 4.7,-1.8 6.6,-3.6 1.7,-1.6 3.7,-1.9 5.8,-2.9 3.1,-1.5 5.8,-4.2 8.8,-6.1 3.2,-2 6.6,-3 9.4,-5 2.5,0.4 5.5,-1 6,2.4 1.3,0.2 1.6,-1 2.7,-1.1 1.9,2.7 5.2,-0.6 6.8,2 1.5,-0.6 2.3,-2 3.9,-2.5 1.1,0.6 2.8,0.9 3.3,2 1.1,-0.4 -0.4,-2 0.3,-3.5 0.3,-0.8 1.5,-0.2 2.1,-0.4 0.8,-0.8 0.7,-2.8 1.5,-3.6 1.1,0 1.8,0.3 2.5,0.7 0.5,0.5 1,1 1.6,1.5 -0.5,0.4 -1,0.9 -1.2,1.9 1.2,1.4 2.4,0.1 3.5,-0.8 0.4,0.1 0.7,0.2 1.1,0.3 0.2,0.4 0.4,0.7 0.4,1 -0.1,0.3 -0.1,0.6 -0.1,0.9 -0.7,1.5 -3.5,2.5 -4.3,4.3 0.1,1.5 -0.1,3.1 -1.2,5 1.2,1.9 0.1,4.6 2.1,6.2 0.4,1.3 -0.2,2.9 0.7,3.9 2.3,0.3 4.7,0.8 6.6,2.5 4.5,0.1 9,0.4 11.8,-3.9 4.9,1.4 8.3,5.2 12.7,7.8 1.2,0.1 2,-1.2 3.6,0 0.8,3.2 -0.2,9.4 4.7,10.2 1.2,0.2 3.3,-1.7 5.2,-2.8 1.8,-1.1 4.5,-2.5 5,-3.5 1.7,-3.6 -2.5,-5.1 -5.1,-4.6 -1.1,-1.2 -1.5,-2.6 -0.6,-4.1 3.2,0.3 4.9,4 8.6,5.4 0.2,1.6 1.2,2.9 1.6,4.3 -0.3,0.5 -0.8,0.7 -1,1.5 -0.9,2.7 1.4,4.9 2.6,7 0.7,1.3 0.6,4.1 2.8,3.5 1.2,-2.8 -2.2,-3.9 -1.1,-6.6 0.4,0.1 1.7,-0.1 1.3,-0.5 -0.4,-0.3 -1.1,0 -1.9,-0.1 -0.8,-2.3 -3.4,-6.2 0.3,-7.9 3.7,2.3 6.8,7.9 2.8,12.4 1,0.2 2,0.2 3.2,0.9 0.3,1.1 -0.9,2.7 -0.7,3.8 0.3,0.6 1.7,0.8 1.5,1.5 -0.2,1.6 -2.4,2.2 -1.7,3.1 1,-0.7 2.5,0 3.8,0.1 1.1,1.2 1,2.9 1.9,4.2 2.8,-1.3 3.8,3.3 6.8,2 0.8,0.7 0.4,1.9 1.6,2.4 2.3,-2.5 4,0.2 6.3,1.3 1.2,3.2 3.5,5.9 5.1,9.3 1.5,3.2 2.3,6.9 4,9.9 1.2,2 2.7,3.4 3.2,5.6 0.6,2.6 0,5.9 3.6,6.6 0.9,-1.4 0.1,-2.2 0.5,-3.4 -3,-2.8 -3.5,-6.1 -4.8,-9.4 -1,-2.6 -2,-4.9 -3.3,-7.3 -2.4,-4.5 -5.3,-8.7 -6.5,-13.5 0.9,0.6 1.6,0.6 2.3,0.5 1,-1.5 2.5,-1.9 4.2,-1.4 1.5,-1.5 3.4,-2.1 5.3,-2.5 0.2,-5.2 7.8,-4.9 6.1,-10.7 0.8,-1.2 2.2,-0.9 3,-2.2 -1.1,-3 2,-5.2 2.1,-8.2 0.2,-2.9 -3.7,-4.7 -4.3,-7.5 -1,-0.5 -1.9,0.2 -2.5,-0.6 -1.2,-1 -0.6,-2.5 -0.7,-3.9 0.9,-0.7 1.9,-1.1 2.8,-0.9 0.4,0.8 1,1.4 1.9,1.5 0,0 0,-0.1 0,-0.1 0.7,1.7 -1.2,4.4 0.6,5.4 1.3,0.3 1.6,-1.7 2.5,-2.4 0.7,3.5 4.5,5.8 8.9,6.6 1.7,-0.9 3.6,-1.2 5.5,-1.6 2.4,3.7 7,4 10.1,6.9 0.9,0.9 1.2,2.3 2.1,3.2 0.9,0.9 2.2,1.4 3.1,2.3 1.5,1.5 2.6,3.4 4.1,4.9 1.6,1.7 3.4,2.8 4.8,4.7 -1.4,3.8 -5.2,2.1 -7.7,1.1 -1.1,-1 -0.5,-2.7 -1.2,-3.9 -1.7,-2.9 -6.4,-5.3 -8.2,-3.2 -1.1,1.3 -0.3,7.2 2.1,8.7 6.2,3.9 13,6.2 12.5,12.4 4.8,0.8 8.8,2.6 12.7,0.6 1.8,-1.4 3.4,-4.4 4.7,-5.9 1.3,1.1 3.5,4.9 5.7,3.2 0.6,-2.1 -2.8,-2.6 -4.3,-3.9 -1.4,-1.2 -1.4,-4.1 -2.9,-6.3 -1.1,-1.7 -2.5,-2 -2.5,-3.6 -0.5,-0.5 -2.2,0.3 -3.3,-0.1 0.9,0.3 2.2,-2 1.2,-2.5 -0.7,-0.9 -2.8,2 -3,-0.6 4.4,0.1 8.3,-3.1 9.5,-8.6 -0.2,-3.2 -1.2,-6 -3.3,-8.4 5.2,1.6 10,4.2 14.7,6.5 1.3,0.6 2.3,2 3.6,2.5 2.6,1 4,-0.2 6.3,-0.4 1.2,-0.1 2.9,1 3.1,-0.8 -2.2,-0.2 -5.5,-2.2 -8.2,-2.1 -0.7,0.8 -1.5,1.6 -3.6,0.6 z M 615.9,89.1 c 4.8,2.1 11.8,-1.5 12.1,-6.9 2.7,2.2 -1.2,4.4 -3.4,7.3 -2.4,3.1 -5.2,5.6 -7.7,5.6 -2.2,-1.4 -0.5,-3.8 -1.6,-5.5 0.2,-0.4 0.5,-0.2 0.6,-0.5 z m -4.1,-16 c 0.5,0.9 -0.8,1.4 -1.3,2.1 -0.3,-0.7 0.9,-1.7 1.3,-2.1 z m -2.4,2.9 c 1,-0.3 0.4,1.4 -0.1,2 -0.1,2.2 0.3,4.3 0.7,6.4 -1.3,-0.3 -2.5,0.4 -3.9,-0.4 -0.2,-1.4 -0.5,-2.7 -1.1,-3.9 1.5,-0.4 3.6,-3 4.4,-4.1 z m -151.9,94.4 c -0.1,-0.2 -0.2,-0.3 -0.4,-0.5 0.2,0.1 0.4,0.2 0.6,0.2 -0.1,0.2 -0.1,0.2 -0.2,0.3 z m 181.9,-22.2 c 0.6,-0.2 1.2,-0.5 1.8,-0.7 -0.6,0.5 -1.1,1 -1.6,1.4 0,-0.2 -0.1,-0.5 -0.2,-0.7 z m -149,-14.9 c 0.3,0.2 0.7,0.3 1,0.4 -0.2,0 -0.5,0 -0.7,0.1 -0.1,-0.1 -0.2,-0.3 -0.3,-0.5 z m 78.4,-12.7 c -0.3,-0.3 -0.5,-0.5 -0.8,-0.8 -0.1,-0.1 -0.2,-0.2 -0.4,-0.4 0.6,0.3 1.1,0.7 1.2,1.2 z m -56.8,6.5 c 0.2,-0.2 0.3,-0.4 0.5,-0.6 0.1,0 0.1,0.1 0.2,0.1 -0.3,0.2 -0.5,0.3 -0.7,0.5 z m -2.3,-2.7 c 0,0.1 -0.1,0.2 -0.1,0.3 0,-0.1 -0.1,-0.3 -0.1,-0.4 0,0 0.1,0.1 0.2,0.1 z m -13.5,-17.1 c -1,-0.2 -1,-1 -2.1,-1.1 -0.4,-0.8 -0.7,-1.7 -1.1,-2.4 1.1,0.7 2.3,1.3 3,2.1 0.9,1 2,3.2 2.2,5 -0.8,-1.1 -1.5,-2.3 -2,-3.6 z m -5.8,14.1 c -0.3,0 -0.6,-0.1 -0.8,-0.2 -0.3,-0.1 -0.5,-0.3 -0.8,-0.5 -0.2,-0.2 -0.4,-0.4 -0.7,-0.5 -0.6,-0.6 -1,-1.2 -1.4,-2 1.2,1.1 2.4,2.1 3.7,3.2 z m 1.1,7 c 0.5,0.5 0.8,1.1 1.1,1.6 -0.7,-0.4 -1.4,-0.7 -2.2,-1.1 0.3,-0.2 0.6,-0.4 1.1,-0.5 z m -7.8,-0.2 c -0.1,0.4 -0.3,0.8 -0.5,1.2 -0.8,-0.4 -1.2,-1 -1.5,-1.6 0.6,0.1 1.3,0.2 2,0.4 z M 445,204.4 c -0.1,-0.3 -0.2,-0.5 -0.1,-0.9 -1.1,-1 -1.9,-0.4 -2.9,-0.6 -0.6,0.6 -0.8,1.1 -0.8,1.6 -0.1,0 -0.1,0 -0.2,0 -3.7,-0.2 -7.9,1.3 -7.8,-2.2 4.2,3.3 11.6,0.4 13.1,-4.6 0.3,0 0.4,-0.3 0.8,-0.1 0.5,2 3.4,2.2 3.1,4.8 -1,1.1 -2.9,1.8 -5.2,2 z m 101.2,62 c -2.8,-2.8 -6.1,-1.1 -8.9,-4.1 -0.1,-0.9 -0.4,-1.7 -0.3,-2.7 0.1,1.8 1.4,3.7 3.2,4.3 0.8,-1.2 0.9,-2.5 0.4,-3.9 1.3,0 2.5,-0.5 4.1,-0.6 1.7,-0.1 3.5,0.6 4.7,0.5 2,-0.1 3.9,-1.4 5.7,0.2 0.4,1.2 1.6,2 1.1,3.5 -0.5,-0.4 -1,-0.7 -1.4,-0.8 0.4,0.5 0.6,1 0.9,1.5 -0.7,0.3 -1.5,0.3 -2.4,0.1 0.1,-0.3 0.3,-0.7 0.3,-1.1 -0.8,-1.2 -2.1,-0.6 -2.5,0.4 -0.4,-0.2 -0.9,-0.3 -1.3,-0.4 -1.4,0.9 -1.7,2.7 -3.6,3.1 z m 50.1,-0.6 c -1.8,0.4 -3.5,0.7 -4.9,2.2 -1,-0.7 -1.7,-0.4 -2.4,-0.3 -0.2,0.5 -0.4,1 -0.7,1.4 0.1,-0.3 0.1,-0.7 0.2,-1 -0.8,-1 -1.1,-2.3 -3.2,-2.3 -2.2,0.9 -2.3,4.3 -1.1,6.1 -0.5,0.2 -1,0.2 -1.5,0.5 0,2.6 -1.9,3.9 -3.6,4.7 -0.6,1.4 0.4,2.8 -0.7,3.8 -3.7,-0.8 -3.9,-6.9 -7.1,-8.6 -0.6,-2.2 -0.4,-4.8 -2.6,-6.4 -1.5,-0.1 -0.9,2.6 -1.6,2.9 -1.9,-0.8 -2.9,-0.4 -3.4,-2.1 2.4,-3.9 -2.1,-6.7 -2.4,-10.3 0.2,-0.1 0.3,-0.2 0.5,-0.3 0.6,0.7 1.3,1.4 2,2 0.1,0.6 0.3,1.2 0.6,1.7 0,-0.4 0.1,-0.7 0.2,-1.1 0.3,0.2 0.7,0.5 1.1,0.7 -0.2,0.3 -0.3,0.6 -0.5,1 -0.9,3 4.1,5.3 6.7,3.4 0.6,-0.8 0.6,-1.8 1,-2.4 0.5,0.2 1,0.4 1.5,0.7 0.9,-0.2 1.3,-1 1.8,-1.8 0.4,0 0.9,-0.1 1.3,-0.3 1.8,-0.8 3.1,-2.5 4.1,-4.5 0.2,-0.2 0.4,-0.3 0.7,-0.4 0,-0.2 0.1,-0.4 0.1,-0.6 0.8,0.6 1.6,0.9 2.4,0.9 -0.8,3.5 4,3.9 4.4,0.9 0.1,-0.6 -0.1,-1.2 -0.5,-1.7 0.1,-1.2 -0.4,-2.3 -1.4,-3.2 -0.1,-0.6 -0.3,-1.1 -0.6,-1.6 2,-1.8 4.6,-2 7.3,-2.2 2,2.3 2.5,6.1 2.9,9.4 0.4,3.1 1.2,5.1 -0.6,8.8 z m 15,2.8 c -1.9,-0.4 -3.8,0.5 -5.4,-0.3 -1.1,-0.5 -1.5,-1.9 -2.5,-2.3 -1.9,-0.7 -3.5,1.1 -5.7,-0.2 1.3,-3.2 3.7,-3.4 5.2,-5.9 0.5,0.2 0.9,0.4 1.4,0.6 0.1,0.2 0.2,0.3 0.3,0.5 -0.1,0 -0.2,-0.1 -0.4,-0.1 -0.2,0.8 -0.1,1.3 0.7,1.4 0,0.2 0,0.4 0,0.6 2.6,0.9 3.8,2.3 4.3,3.9 1.7,0.4 2.7,-1.1 4.6,-0.4 0,1.3 -0.3,2.6 0.6,3.6 -1,0.9 -2.5,-0.8 -3.1,-1.4 z m 46.9,26.7 c -3.4,-2 -6.2,-4.4 -6.5,-6.9 1.1,-2.4 3.7,-1 5.2,-2.3 0.4,0.1 0.3,0.4 0.6,0.5 -1.5,5.1 3.1,11.5 8.4,11.1 -1.8,3 -4.5,-0.5 -7.7,-2.4 z m 9.4,-16.7 c -2.2,0.2 -4.2,0.9 -6.2,1.5 0.1,-1.4 -0.7,-2.4 -0.1,-3.9 1.3,-0.3 2.6,-0.8 3.8,-1.6 0.6,1.5 3.4,3.2 4.6,3.8 0.3,0.9 -1.4,0.6 -2.1,0.2 z m 2.9,0.8 c 0.7,-0.4 1.8,0.7 2.3,1.1 -0.9,0.6 -1.5,-0.6 -2.3,-1.1 z"
         id="path586" />
      <path
         fill-rule="evenodd"
         clip-rule="evenodd"
         d="m 558.1,287.7 c 1,0.3 1.8,0 2.6,-0.2 -0.9,-0.1 -1.9,-0.4 -2.6,0.2 z"
         id="path588" />
      <path
         fill-rule="evenodd"
         clip-rule="evenodd"
         d="m 640.5,365.7 c 0.5,0.6 0.8,2.3 1.8,2.2 -0.4,-0.7 -0.9,-2.3 -1.8,-2.2 z"
         id="path590" />
      <path
         fill-rule="evenodd"
         clip-rule="evenodd"
         d="m 632.7,376 c -1.1,-1.9 -1.1,-4.2 -2.6,-5.7 0.2,2.7 2.2,5.1 3.4,7.1 0.7,-1 -0.4,-0.9 -0.8,-1.4 z"
         id="path592" />
    </g>
  </g>
</svg>
