<?xml version="1.0" encoding="UTF-8" standalone="no"?>
<svg
   xmlns:dc="http://purl.org/dc/elements/1.1/"
   xmlns:cc="http://creativecommons.org/ns#"
   xmlns:rdf="http://www.w3.org/1999/02/22-rdf-syntax-ns#"
   xmlns:svg="http://www.w3.org/2000/svg"
   xmlns="http://www.w3.org/2000/svg"
   id="svg11883"
   version="1.1"
   viewBox="0 0 88.742805 116.44312"
   height="116.44312mm"
   width="88.742805mm">
  <defs
     id="defs11877" />
  <metadata
     id="metadata11880">
    <rdf:RDF>
      <cc:Work
         rdf:about="">
        <dc:format>image/svg+xml</dc:format>
        <dc:type
           rdf:resource="http://purl.org/dc/dcmitype/StillImage" />
        <dc:title></dc:title>
      </cc:Work>
    </rdf:RDF>
  </metadata>
  <g
     transform="translate(-51.63455,-112.62368)"
     id="layer1">
    <g
       transform="matrix(0.26458333,0,0,0.26458333,-49.022929,26.131386)"
       id="g4612">
      <path
         fill-rule="evenodd"
         clip-rule="evenodd"
         d="m 474,644.4 c 2.2,0.7 3.2,-1.3 2.2,-2.8 -1.7,-1.2 -3.3,1.1 -2.2,2.8 z"
         id="path3982" />
      <path
         fill-rule="evenodd"
         clip-rule="evenodd"
         d="m 537.6,697.2 c -0.7,0 -1.4,0 -2.1,-0.1 -1,0.6 -1.1,3.3 -0.1,3.9 2.9,0.5 3.9,-2.4 2.2,-3.8 z"
         id="path3984" />
      <path
         fill-rule="evenodd"
         clip-rule="evenodd"
         d="m 505.5,708.4 c -0.8,-0.1 -1.4,0 -1.8,0.3 0.5,1.5 1.1,2.9 1.3,4.7 1.3,-0.1 1.7,-1.2 2.2,-2.1 0.3,-1.8 -2.4,-0.7 -1.7,-2.9 z"
         id="path3986" />
      <path
         fill-rule="evenodd"
         clip-rule="evenodd"
         d="m 556.5,702.5 c -0.1,-0.6 -0.2,-1.3 -0.6,-1.5 -0.9,0 -0.9,0.6 -1.2,1 0.5,0.6 1.1,1.1 1.8,0.5 z"
         id="path3988" />
      <path
         fill-rule="evenodd"
         clip-rule="evenodd"
         d="m 434.5,668.4 c 1.4,0.8 3.9,-1.1 2.9,-2.8 -2,-0.2 -2.7,1 -2.9,2.8 z"
         id="path3990" />
      <path
         fill-rule="evenodd"
         clip-rule="evenodd"
         d="m 472,631.5 c 1,0.8 3.9,1.6 3.9,-0.6 -1.3,0.1 -3.4,-1 -3.9,0.6 z"
         id="path3992" />
      <path
         fill-rule="evenodd"
         clip-rule="evenodd"
         d="m 554.8,708 c -0.3,1.1 -0.3,0.7 -0.1,1.8 0.8,0.1 1.4,0 1.8,-0.3 0,-0.5 0,-1 0,-1.4 -0.5,-0.1 -1.1,-0.1 -1.7,-0.1 z"
         id="path3994" />
      <path
         fill-rule="evenodd"
         clip-rule="evenodd"
         d="m 485.1,656.1 c 0.3,-1.6 -2.2,-1.2 -2.5,-0.4 -0.2,1.3 2.4,1.6 2.5,0.4 z"
         id="path3996" />
      <path
         fill-rule="evenodd"
         clip-rule="evenodd"
         d="m 488.3,671.9 c -2.6,-0.4 -4.8,2.6 -4.8,5.9 5.8,4 10,-5 4.8,-5.9 z"
         id="path3998" />
      <path
         fill-rule="evenodd"
         clip-rule="evenodd"
         d="m 490.9,707.3 c -1.4,0.4 -2.1,3.3 -0.5,3.9 1.6,-0.1 2.2,-3.4 0.5,-3.9 z"
         id="path4000" />
      <path
         fill-rule="evenodd"
         clip-rule="evenodd"
         d="m 421.9,465.6 c 0,0.9 1.1,1.4 1.8,0.7 0,-0.8 -1.2,-1.8 -1.8,-0.7 z"
         id="path4002" />
      <path
         fill-rule="evenodd"
         clip-rule="evenodd"
         d="m 477.3,643.1 c 1.7,0.3 2.6,-1 3.2,-2.7 -1.8,-2.6 -5.5,0.9 -3.2,2.7 z"
         id="path4004" />
      <path
         fill-rule="evenodd"
         clip-rule="evenodd"
         d="m 567.1,671 c -0.2,-0.9 -0.6,-1.4 -1.6,-1 -0.4,0.9 0.9,2 1.6,1 z"
         id="path4006" />
      <path
         fill-rule="evenodd"
         clip-rule="evenodd"
         d="m 421.6,602.3 c 0,0.4 -0.1,0.6 -0.4,0.7 0.2,1.8 1.7,2.4 3.5,2.6 2.8,-1.1 -1.1,-4.5 -3.1,-3.3 z"
         id="path4008" />
      <path
         fill-rule="evenodd"
         clip-rule="evenodd"
         d="m 413.4,507.5 c -0.8,0.8 -0.2,2.2 1,2.2 0.7,-0.7 0.6,-2.6 -1,-2.2 z"
         id="path4010" />
      <path
         fill-rule="evenodd"
         clip-rule="evenodd"
         d="m 562.5,693.7 c -2.9,0 -3.8,5 -0.4,5.2 3.3,0.1 3.4,-5.3 0.4,-5.2 z"
         id="path4012" />
      <path
         fill-rule="evenodd"
         clip-rule="evenodd"
         d="m 412.7,640.7 c -2.2,-0.7 -1.6,3 -1.2,3.9 2.2,-0.3 1,-2 1.2,-3.9 z"
         id="path4014" />
      <path
         fill-rule="evenodd"
         clip-rule="evenodd"
         d="m 439.1,522.9 c -0.5,0.2 -0.9,0.5 -1.4,0.7 0,1.3 0.1,2.5 1.4,2.5 1.6,-0.1 1,-2.9 0,-3.2 z"
         id="path4016" />
      <path
         fill-rule="evenodd"
         clip-rule="evenodd"
         d="m 439.1,549.5 c -1.3,-0.6 -4.6,0.6 -3.2,2.7 1.6,-0.7 3.7,-1.1 3.2,-2.7 z"
         id="path4018" />
      <path
         fill-rule="evenodd"
         clip-rule="evenodd"
         d="m 431,653.3 c -1,-1 -2.8,-1.3 -4.2,-1.9 -0.5,2.2 2.6,2.7 4.2,1.9 z"
         id="path4020" />
      <path
         fill-rule="evenodd"
         clip-rule="evenodd"
         d="m 442.4,503.4 c -3.5,2 -0.8,6.7 -6,8.1 3.7,3.5 7.9,-6.1 6,-8.1 z"
         id="path4022" />
      <path
         fill-rule="evenodd"
         clip-rule="evenodd"
         d="m 426.7,625.3 c 2.7,-0.3 4,-2.1 5.5,-3.8 -1.7,0 -5.4,1 -5.5,3.8 z"
         id="path4024" />
      <path
         fill-rule="evenodd"
         clip-rule="evenodd"
         d="m 455.8,601.9 c -0.6,-0.1 -1.2,-0.3 -1.8,-0.4 -1.4,0.5 -2.4,4 -0.5,4.6 1.7,0 3.3,-2.7 2.3,-4.2 z"
         id="path4026" />
      <path
         fill-rule="evenodd"
         clip-rule="evenodd"
         d="m 466.1,648.5 c -1.2,0.2 -2.8,0 -2.5,1.7 1.5,0.2 2.3,-0.4 2.5,-1.7 z"
         id="path4028" />
      <path
         fill-rule="evenodd"
         clip-rule="evenodd"
         d="m 453.9,637.1 c -0.3,1.3 2.2,0.7 2.5,0.4 -0.2,-0.6 -2.1,-1.2 -2.5,-0.4 z"
         id="path4030" />
      <path
         fill-rule="evenodd"
         clip-rule="evenodd"
         d="m 463.3,605.9 c -0.6,0.5 -0.7,2.4 0.7,2.2 0.2,-0.2 0.3,-0.6 0.4,-0.9 0,0.6 0.4,1 1.2,1.2 0.2,-0.8 -0.2,-1.4 -1.2,-1.5 0,0.1 0,0.1 0,0.1 -0.1,-0.7 -0.4,-1.2 -1.1,-1.1 z"
         id="path4032" />
      <path
         fill-rule="evenodd"
         clip-rule="evenodd"
         d="m 457.2,587.6 c 0.8,-0.7 0.9,-2.6 0.5,-3.3 -0.5,-0.1 -1,-0.2 -1.5,-0.4 -2.4,0.4 -2.2,4.7 1,3.7 z"
         id="path4034" />
      <path
         fill-rule="evenodd"
         clip-rule="evenodd"
         d="m 453.5,650.7 c 0,-0.5 0,-0.9 0,-1.4 -1.2,-0.5 -1.7,1.9 0,1.4 z"
         id="path4036" />
      <path
         fill-rule="evenodd"
         clip-rule="evenodd"
         d="m 449.3,578.8 c 0.3,1.2 2.2,0.9 2.6,-0.3 -1,-0.2 -2.2,-0.7 -2.6,0.3 z"
         id="path4038" />
      <path
         fill-rule="evenodd"
         clip-rule="evenodd"
         d="m 410,393.7 c 0.2,0.9 -1.1,1.2 -1.3,2 3.6,10.4 11.3,-6.5 1.3,-2 z"
         id="path4040" />
      <path
         fill-rule="evenodd"
         clip-rule="evenodd"
         d="m 451,587.5 c 0.3,-0.2 0.5,-0.7 0.6,-1.3 -0.1,0 -0.1,0 -0.2,0 0.1,-0.5 0.2,-1 0.3,-1.5 -1.7,-0.4 -1.8,0.8 -2.5,1.4 -2,0.1 -4.1,-1.1 -5.4,0.2 0,1.8 2.4,1.4 4.2,1.5 -0.6,1.5 -2.1,3.2 -0.8,4.6 1.8,-1.2 3,-2.8 3.8,-4.9 z"
         id="path4042" />
      <path
         fill-rule="evenodd"
         clip-rule="evenodd"
         d="m 447.3,655.9 c -0.3,0.8 -1,1.2 -0.8,2.5 2.9,2.1 5,-3.2 0.8,-2.5 z"
         id="path4044" />
      <path
         fill-rule="evenodd"
         clip-rule="evenodd"
         d="m 453.9,564 c -1.4,-0.4 -2.1,0.2 -2.7,1.1 -1.1,-0.2 -2.2,-0.1 -2.9,0.5 -0.4,3.3 5.2,4.7 5,0.5 -0.2,-0.3 -0.5,-0.5 -0.9,-0.6 0.6,-0.2 1.3,-0.8 1.5,-1.5 z"
         id="path4046" />
      <path
         fill-rule="evenodd"
         clip-rule="evenodd"
         d="m 476.9,647 c -1.7,-0.2 -2.9,1.7 -2.7,3.4 2.2,0.6 2.2,-2.4 2.7,-3.4 z"
         id="path4048" />
      <path
         fill-rule="evenodd"
         clip-rule="evenodd"
         d="m 475.9,668.7 c -1.7,-1.1 -3,0.9 -3.6,2.1 1.2,-0.3 2,-1 3.6,-1 0,-0.3 0,-0.7 0,-1.1 z"
         id="path4050" />
      <path
         fill-rule="evenodd"
         clip-rule="evenodd"
         d="m 445,630.8 c 0.3,-0.3 0.6,-0.7 0.7,-1.4 -0.5,-0.8 -2.2,-0.9 -2.5,0 0.6,0.5 0.7,1.2 1.8,1.4 z"
         id="path4052" />
      <path
         fill-rule="evenodd"
         clip-rule="evenodd"
         d="m 437.7,639.5 c 0,1 0.6,1.5 1.7,1.5 1.2,-1.4 -0.5,-2.4 -1.7,-1.5 z"
         id="path4054" />
      <path
         fill-rule="evenodd"
         clip-rule="evenodd"
         d="m 440,636 c -0.3,2 2.2,2.9 3.1,2.6 -0.5,-1.4 -0.9,-2.9 -3.1,-2.6 z"
         id="path4056" />
      <path
         fill-rule="evenodd"
         clip-rule="evenodd"
         d="m 473.8,694 c -0.4,-0.5 -1.5,-0.4 -2.5,-0.4 -0.2,0.8 -0.8,2.1 -0.1,2.9 1.6,-0.1 2.4,-0.9 2.6,-2.5 z"
         id="path4058" />
      <path
         fill-rule="evenodd"
         clip-rule="evenodd"
         d="m 466.9,671 c 0,-0.5 0,-0.9 0,-1.4 -0.7,-0.2 -0.9,0.2 -1.4,0.3 -0.1,0.9 0.5,1.2 1.4,1.1 z"
         id="path4060" />
      <path
         fill-rule="evenodd"
         clip-rule="evenodd"
         d="m 471.9,643.3 c -1.4,0 -1.6,1.4 -1.1,2.5 0.4,0 0.7,0 1.1,0 0.5,-0.5 0.5,-2 0,-2.5 z"
         id="path4062" />
      <path
         fill-rule="evenodd"
         clip-rule="evenodd"
         d="m 462.8,625.8 c -1.5,1.5 1.3,2.3 2,3.3 -0.3,1.3 -2.3,1.5 -1.7,3 2.5,-0.3 3.6,-3 6.1,-3.2 -1.2,-1.6 -3.6,-2.5 -6.4,-3.1 z"
         id="path4064" />
      <path
         fill-rule="evenodd"
         clip-rule="evenodd"
         d="m 465,636 c -0.2,0.8 -0.7,1.8 -0.1,2.5 2.7,0.7 2.7,-3 0.1,-2.5 z"
         id="path4066" />
      <path
         fill-rule="evenodd"
         clip-rule="evenodd"
         d="m 481.7,677.5 c -1.2,-0.2 -2,0.1 -1.8,1.4 0.6,0 1.2,0 1.8,0 0,-0.5 0,-1 0,-1.4 z"
         id="path4068" />
      <path
         fill-rule="evenodd"
         clip-rule="evenodd"
         d="m 469.6,635 c 9.9,2.6 -0.8,-8.9 0,0 z"
         id="path4070" />
      <path
         fill-rule="evenodd"
         clip-rule="evenodd"
         d="m 424.4,659.9 c -0.9,2.8 3.9,3 3.2,0.1 -0.6,-0.6 -2.7,-0.6 -3.2,-0.1 z"
         id="path4072" />
      <path
         fill-rule="evenodd"
         clip-rule="evenodd"
         d="m 613.6,424.5 c 0.4,-1.4 -2,-1.5 -2.1,-0.4 0.9,0.4 1.1,0.8 2.1,0.4 z"
         id="path4074" />
      <path
         fill-rule="evenodd"
         clip-rule="evenodd"
         d="m 625.5,424.2 c 1.4,0.4 6.1,0.5 4.6,-2.6 -1.5,-0.6 -4.6,1 -4.6,2.6 z"
         id="path4076" />
      <path
         fill-rule="evenodd"
         clip-rule="evenodd"
         d="m 617.6,421.8 v -1.1 c -0.8,-0.1 -1.3,0 -1.4,0.7 0.5,0.1 0.7,0.5 1.4,0.4 z"
         id="path4078" />
      <path
         fill-rule="evenodd"
         clip-rule="evenodd"
         d="m 620.7,387.8 c 12.8,-0.2 -2,-12.2 0,0 z"
         id="path4080" />
      <path
         fill-rule="evenodd"
         clip-rule="evenodd"
         d="m 628.9,369.6 c -3.1,1.2 -4.9,3 -3.2,6.3 2.8,-1.5 4.3,-3.4 3.2,-6.3 z"
         id="path4082" />
      <path
         fill-rule="evenodd"
         clip-rule="evenodd"
         d="m 617.8,427.1 c 0,-0.8 0.6,-1 0.4,-2.1 -0.9,-0.8 -2.9,-0.4 -3.2,0.6 1,0.4 1,1.8 2.8,1.5 z"
         id="path4084" />
      <path
         fill-rule="evenodd"
         clip-rule="evenodd"
         d="m 564.4,411.6 c -0.4,-0.7 -0.8,0 -1.2,-0.4 -1.2,1.3 -2.3,1.8 -3.5,2.5 1.5,1.3 4.5,-0.7 4.7,-2.1 z"
         id="path4086" />
      <path
         fill-rule="evenodd"
         clip-rule="evenodd"
         d="m 568.1,421 c -1.8,2.3 -0.1,4.7 -1.2,7 2.6,0 2.8,-5.7 1.2,-7 z"
         id="path4088" />
      <path
         fill-rule="evenodd"
         clip-rule="evenodd"
         d="m 561.9,415.9 c 0.2,0.2 0.4,0.4 0.6,0.6 0.5,-0.3 0.4,-0.7 0.6,-1 -0.4,-0.2 -0.8,-0.1 -1.2,0.4 z"
         id="path4090" />
      <path
         fill-rule="evenodd"
         clip-rule="evenodd"
         d="m 575.4,421.4 c 0.1,-0.3 0.3,-0.4 0.7,-0.3 0.6,-1.3 -0.2,-3.1 -1.3,-3.9 -0.2,0.1 -0.4,0.1 -0.5,0.3 -0.1,0 -0.2,-0.1 -0.3,-0.1 -0.5,0.4 -1,0.9 -1,1.4 0.2,0.1 0.3,0.1 0.5,0.2 -0.2,1.1 0.4,2.4 1.9,2.4 z"
         id="path4092" />
      <path
         fill-rule="evenodd"
         clip-rule="evenodd"
         d="m 583.3,417.8 c -1,1.2 -3,1.4 -3.3,3.4 0.9,1 3.3,1.5 4.9,0.9 0.7,-1.1 1.7,-1.8 1.5,-3.8 1.9,-1.2 2.3,-4.1 4.1,-5.5 -0.2,-4 3.7,-7.3 2.8,-9.7 -1.2,0.8 -2.1,3.5 -3.6,2.7 0.8,-3 0.7,-6.4 -1.5,-7.1 -5.9,-1.7 -7.5,11.8 -9.3,15.8 2.8,-0.2 2.6,2.5 4.4,3.3 z"
         id="path4094" />
      <path
         fill-rule="evenodd"
         clip-rule="evenodd"
         d="m 572,418.1 c -0.7,-0.5 -2.4,-2.7 -2.8,-0.4 1,0.4 2,1.8 2.8,0.4 z"
         id="path4096" />
      <path
         fill-rule="evenodd"
         clip-rule="evenodd"
         d="m 680.3,403.4 c 0.2,-0.9 0.1,-2 -0.6,-3.3 -1.5,0.4 -2.3,1 -2.8,1.8 0.7,1.6 1.8,2.1 3.4,1.5 z"
         id="path4098" />
      <path
         fill-rule="evenodd"
         clip-rule="evenodd"
         d="m 672.5,510.3 c -0.5,-1.2 1.4,-1.4 0.2,-2.9 -1.7,-0.1 -6.5,2.1 -6.8,4.2 2.6,0 3.7,-1.8 6.6,-1.3 z"
         id="path4100" />
      <path
         fill-rule="evenodd"
         clip-rule="evenodd"
         d="m 680.1,526.6 c -1.1,0.1 -1.2,0.6 -2.1,1.2 0.4,0.9 3,0 2.1,-1.2 z"
         id="path4102" />
      <path
         fill-rule="evenodd"
         clip-rule="evenodd"
         d="m 686.4,517.9 c 1.3,-0.5 1.5,-1.4 0.7,-2.5 -0.6,0 -1.1,-0.4 -1.9,0.4 -0.2,0.8 0.7,1.6 1.2,2.1 z"
         id="path4104" />
      <path
         fill-rule="evenodd"
         clip-rule="evenodd"
         d="m 667.1,499.5 c -0.4,-0.4 -0.5,-1.8 -1.3,-1 -0.6,0.3 0.4,1 0.5,1.5 0.3,-0.2 0.5,-0.4 0.8,-0.5 z"
         id="path4106" />
      <path
         fill-rule="evenodd"
         clip-rule="evenodd"
         d="m 662.8,471.3 c -0.7,-1.2 0.8,-1.8 0,-3.1 -1.5,0 -2,2.1 -0.8,3.6 0.3,-0.2 0.6,-0.4 0.8,-0.5 z"
         id="path4108" />
      <path
         fill-rule="evenodd"
         clip-rule="evenodd"
         d="m 642.4,434.4 c 1.4,0 5,-2.7 5.1,-4.9 -3.3,-0.8 -4.5,2.9 -5.1,4.9 z"
         id="path4110" />
      <path
         fill-rule="evenodd"
         clip-rule="evenodd"
         d="m 646.9,478 c 2.1,0.2 3,1.5 4.1,2.6 0.8,-0.7 2.3,-0.7 2.2,-2.4 -0.9,-2.3 -5,-2.1 -6.3,-0.2 z"
         id="path4112" />
      <path
         fill-rule="evenodd"
         clip-rule="evenodd"
         d="m 648.7,399.2 c -3.5,-0.4 -6.3,3.3 -5.2,6.4 2.7,0 4.3,-4.2 5.2,-6.4 z"
         id="path4114" />
      <path
         fill-rule="evenodd"
         clip-rule="evenodd"
         d="m 656.2,470 c -2.4,0.5 -4.8,1 -7.6,2.4 1.7,2.7 7.5,0.3 7.6,-2.4 z"
         id="path4116" />
      <path
         fill-rule="evenodd"
         clip-rule="evenodd"
         d="m 430.4,442.2 c 1.8,1.2 4.4,-0.5 2.9,-3.3 -1.1,0.6 -1.6,-0.1 -2.7,0.4 0.5,1.2 -1.3,1.4 -0.2,2.9 z"
         id="path4118" />
      <path
         fill-rule="evenodd"
         clip-rule="evenodd"
         d="m 449.6,509.8 c 1.5,-2.7 -2.6,-3.2 -4.2,-1.5 0.6,2 2.9,1.5 4.2,1.5 z"
         id="path4120" />
      <path
         fill-rule="evenodd"
         clip-rule="evenodd"
         d="m 451,387.3 c 2.6,-1.4 -0.6,-4.2 -1.9,-2.1 0.2,1.2 1.1,1.1 1.9,2.1 z"
         id="path4122" />
      <path
         fill-rule="evenodd"
         clip-rule="evenodd"
         d="m 449.1,540.3 c 0.4,-1.4 0.4,-2.6 -0.8,-3 -0.5,1.4 -0.8,2.8 0.8,3 z"
         id="path4124" />
      <path
         fill-rule="evenodd"
         clip-rule="evenodd"
         d="m 450,541.8 c -0.5,-0.7 -2.1,-0.7 -2.3,0.4 0.7,0.5 2.2,1.2 2.3,-0.4 z"
         id="path4126" />
      <path
         fill-rule="evenodd"
         clip-rule="evenodd"
         d="m 446.7,461.8 c 0.9,-1 -1,-2.2 -1.7,-1.9 -0.2,0.4 -0.2,0.8 -0.4,1.2 0.7,0.8 1.4,1.4 2.1,0.7 z"
         id="path4128" />
      <path
         fill-rule="evenodd"
         clip-rule="evenodd"
         d="m 396.9,566.3 c -1.3,2.4 1.2,3.9 2.4,5.1 3.6,-1 0.5,-5.1 -2.4,-5.1 z"
         id="path4130" />
      <path
         fill-rule="evenodd"
         clip-rule="evenodd"
         d="m 423.7,630.6 c 1.1,3.3 9.3,0 6.5,-3 -3,0 -4.9,1.4 -6.5,3 z"
         id="path4132" />
      <path
         fill-rule="evenodd"
         clip-rule="evenodd"
         d="m 433.9,410.7 c 1.6,1.8 3.3,1.8 4.9,3.2 0.6,-2.2 -3.4,-4.2 -4.9,-3.2 z"
         id="path4134" />
      <path
         fill-rule="evenodd"
         clip-rule="evenodd"
         d="m 431.8,409 c -0.4,-1.5 -1,-2.3 -1.8,-2.8 -2,0.5 -1.4,2.1 -0.6,3.8 0.8,-0.4 1.6,-0.7 2.4,-1 z"
         id="path4136" />
      <path
         fill-rule="evenodd"
         clip-rule="evenodd"
         d="m 427.7,601.1 c -0.5,0.5 -0.6,2.3 -0.1,2.9 2.3,0.2 3.2,-3.3 0.1,-2.9 z"
         id="path4138" />
      <path
         fill-rule="evenodd"
         clip-rule="evenodd"
         d="m 449.6,544.8 c -2.5,-1.1 -4.5,2.3 -1.3,2.8 0.8,-0.3 1,-1.6 1.3,-2.8 z"
         id="path4140" />
      <path
         fill-rule="evenodd"
         clip-rule="evenodd"
         d="m 556.7,345.6 c -2.7,0.8 -1.7,2.5 -0.6,3.8 2,-0.5 1.4,-2.1 0.6,-3.8 z"
         id="path4142" />
      <path
         fill-rule="evenodd"
         clip-rule="evenodd"
         d="m 491.6,405.4 c -1.3,2.1 2.6,0.7 0,0 z"
         id="path4144" />
      <path
         fill-rule="evenodd"
         clip-rule="evenodd"
         d="m 489.9,395.7 c -0.3,0.3 -0.7,0.6 -1,1 0.2,0.5 0.4,1.1 0.8,1.6 1.9,0.3 2.4,-2.8 0.2,-2.6 z"
         id="path4146" />
      <path
         fill-rule="evenodd"
         clip-rule="evenodd"
         d="m 444.3,547.2 c -1.3,0.7 -2.3,3.8 -1.2,5 1.1,0.2 1.8,0 2.8,0.1 0.5,-0.8 1,-1.6 1.5,-2.4 -0.9,-1 -0.9,-2.5 -3.1,-2.7 z"
         id="path4148" />
      <path
         fill-rule="evenodd"
         clip-rule="evenodd"
         d="m 502.5,400.3 c 0.9,-1 -1.1,-2.5 -2,-1.7 0.8,0.8 0.8,2 2,1.7 z"
         id="path4150" />
      <path
         fill-rule="evenodd"
         clip-rule="evenodd"
         d="m 556,406 c 0.1,-1.7 0.2,-3.4 -0.6,-4.2 -1.3,1.7 -3.6,2.2 -3.7,5.1 0.9,0.4 3.5,-0.1 4.3,-0.9 z"
         id="path4152" />
      <path
         fill-rule="evenodd"
         clip-rule="evenodd"
         d="m 489.2,411.1 c 2.3,1.8 5.3,2.7 7.9,4.7 0.9,-0.6 0.8,-1.2 1.1,-1.8 -3,-1.4 -5.9,-3.7 -9,-2.9 z"
         id="path4154" />
      <path
         fill-rule="evenodd"
         clip-rule="evenodd"
         d="m 441.9,579.8 c 1.7,0.6 2.4,-0.5 3.4,-1 -1.5,-0.4 -2.8,-0.3 -3.4,1 z"
         id="path4156" />
      <path
         fill-rule="evenodd"
         clip-rule="evenodd"
         d="m 445.5,563 c -0.8,-1.6 -3.7,-2.9 -6,-1.9 1.2,1.2 3.6,2.9 6,1.9 z"
         id="path4158" />
      <path
         fill-rule="evenodd"
         clip-rule="evenodd"
         d="m 466.2,332.5 c 2.9,-1.4 1.3,-3.5 -0.1,-5.6 -0.8,0.3 -1.6,0.7 -2.4,1 -0.9,2 1.3,3.7 2.5,4.6 z"
         id="path4160" />
      <path
         fill-rule="evenodd"
         clip-rule="evenodd"
         d="m 482.2,405.3 c 0.3,-0.3 0.6,-0.5 0.8,-0.8 -0.8,-0.9 -1.6,-1.8 -2.4,-1.7 -0.5,1.2 0.7,1.3 1.6,2.5 z"
         id="path4162" />
      <path
         fill-rule="evenodd"
         clip-rule="evenodd"
         d="m 655.6,584.3 c 0.7,-0.5 0.9,-1.1 0.3,-1.9 -0.7,0.4 -0.8,1.1 -0.3,1.9 z"
         id="path4164" />
      <path
         fill-rule="evenodd"
         clip-rule="evenodd"
         d="m 648.8,578.1 c 2.5,-0.9 1,-2.2 0,-3.5 -2.3,0.2 -0.2,2.3 0,3.5 z"
         id="path4166" />
      <path
         fill-rule="evenodd"
         clip-rule="evenodd"
         d="m 673,551.5 c 0.3,-0.3 0.5,-0.8 0.5,-1.4 -0.3,-0.4 -0.6,-0.7 -1,-0.9 0.5,-3.4 2.8,-5.5 5.7,-5.7 0.8,-2.6 -3.4,-0.9 -4.2,-3.3 0.4,-4.3 3.7,-7.4 3.4,-12 0,0 0,-0.1 0.1,-0.1 0,0 -0.1,0 -0.1,0 0,-0.2 0,-0.4 -0.1,-0.6 -4.5,-1.9 -10.6,-6.4 -7.9,-12.4 -2.7,0.2 -0.8,2.4 -2.3,3.1 -2.9,-1.8 -5.2,-6.4 -3.7,-9.1 -2.3,0.2 -3.7,-2.6 -2.6,-4.6 0.3,-0.4 0.5,-0.7 0.8,-0.8 -0.5,0.4 -0.2,1 0.2,1.6 0.3,-0.1 0.5,-0.3 0.8,-0.4 0.1,-0.5 -0.2,-1.1 -0.7,-1.3 0.9,-0.3 1.9,-0.1 2.9,-1.4 -0.8,-3.3 -3.5,-4.6 -1.1,-8.1 -3.1,-2.8 -6,-5.9 -9.4,-8.1 0.1,-0.4 0.1,-0.9 -0.1,-1.4 -0.5,0 -1.1,0.2 -1.5,0.5 -1.2,-0.6 -2.5,-1.1 -3.8,-1.3 -0.9,1.3 -2.1,1.6 -3.4,1.4 0.3,-2.6 -1.5,-4.8 -3.6,-6.4 -2.3,-6.2 -6.5,-8.1 -10.4,-10.8 0,-0.4 0.1,-0.8 0,-1.3 0.2,-0.1 0.4,-0.2 0.7,-0.3 2.3,1 5.1,1.3 7.5,3.3 8.2,-2.4 10.9,-5.1 13.9,-11.3 -0.4,-3.2 -1.2,-6.2 -2.6,-8.9 0.1,-0.2 0.1,-0.3 0.2,-0.5 -0.1,0 -0.2,0 -0.4,0 -2.7,-5 -7.1,-8.3 -13,-7 -5.9,1.3 -10.6,7.1 -10.8,13.6 -0.8,0.4 -1.5,0.9 -2.8,0.8 0,1.6 -0.6,2.5 -1.5,3.1 -0.5,-0.4 -1.3,-0.4 -1.4,-1.1 0.4,-1.1 1.4,-1.4 1.2,-3.1 -1,0.3 -0.9,-0.5 -1.7,-0.4 -1.1,1.3 -3.1,1.5 -3,4.1 -0.6,0.3 -1.2,0.5 -1.8,0.8 -0.6,-0.7 -1.1,-1.4 -1.7,-2 2.3,-3.6 6.6,-6.3 8.8,-9.9 -5.8,1.1 -4.9,5 -10.2,6.3 -1.9,-0.7 -3.8,-1.4 -5.6,-2.1 0,-0.4 -0.1,-0.8 -0.1,-1.2 0.8,0.2 0.8,-0.6 1.8,-0.3 -0.2,-0.2 -0.3,-0.5 -0.5,-0.7 0.2,-0.2 0.5,-0.4 0.7,-0.7 -0.3,-0.5 -0.7,-0.4 -1,-0.6 -0.1,0.1 -0.2,0.2 -0.2,0.3 -0.3,-0.8 -0.3,-1.6 0.5,-2.5 -1.8,-1.1 -2.2,-4.4 -1.5,-6.7 -0.8,-0.9 -4,0.3 -3.8,-1.5 0.8,-0.5 2.3,-0.2 2.8,-1 -0.5,-2.1 0.6,-2.4 0.1,-3.9 -1.9,-0.1 -1,2.8 -2.9,2.7 -0.5,-0.7 -0.9,-1.4 -2.4,-1.1 -0.2,3.2 -3.1,3.5 -3.7,6.2 0.3,0.6 1.1,0.7 1.9,0.7 -0.6,0.7 -0.9,1.6 -1.2,2.4 -1.4,-0.6 -2.8,-1.1 -4,-1.9 0,-0.1 0,-0.2 0.1,-0.3 -0.1,0 -0.2,0.1 -0.3,0.1 -0.7,-0.6 -1.4,-1.3 -1.7,-2.3 0.2,-0.3 0.4,-0.6 0.6,-1 0.8,-0.2 1.7,-0.4 2.7,-0.9 2.3,-3.2 2,-7.4 0.2,-10.1 0.5,-1.2 1.1,-2.5 1.3,-3.7 -1.8,-0.4 -1,-3.1 -1.6,-4.6 -3.7,1 -5.9,3.8 -8.1,6.5 -1.4,1.2 -2.8,2.7 -4,4.1 -0.1,0.1 -0.2,0.1 -0.3,0.2 0,0 0,0 0.1,0 -1.6,2 -3,4.2 -3.7,6.1 -2.3,0.4 -4.5,-1.2 -6.8,-0.2 -0.6,-0.5 -0.2,-0.9 -0.2,-1.4 1.7,1.7 3.8,0 5.6,1.6 0.5,-1 1.1,-2 0.1,-2.8 -1.8,-0.2 -2,1.3 -3.9,0.9 -0.4,-0.7 -0.3,-1.4 -0.1,-2.2 1.4,-2.3 1.6,-4.6 3.3,-6.9 0.7,-0.6 1.3,1 2,0.9 0.8,-0.7 0.7,-1.4 0.3,-2.2 -1.1,0.5 -2.2,1 -3.2,0.7 -1.4,2.1 -2.9,4.3 -3.7,6.5 -0.7,1 -1.4,2 -3.8,1.2 -0.3,0.7 -0.5,1.4 -0.7,2.2 -0.9,0.7 -1.8,1.8 -3.1,0.2 0.1,-1.9 3.6,-3.8 1.6,-5.8 -1,-0.2 -2,0.3 -3,0.1 -1.7,-1.6 0.4,-4.1 -2,-5.1 -0.9,0.6 0.3,1.2 -0.3,1.8 -2.3,1.5 -1.8,3.2 -1.3,4.9 -0.2,0.1 -0.5,0.2 -0.7,0.4 0,-0.2 -0.1,-0.5 -0.3,-0.7 -0.6,0 -1.6,1 -1.7,1.6 -0.6,0.1 -1.2,-0.9 -1.8,-1.1 -0.1,-0.9 1.5,-0.7 1.5,-1.8 -1.2,-1.3 -2.1,-1.6 -2.1,-3 0.1,0.1 0.2,0.1 0.4,0.2 -0.1,-0.2 -0.1,-0.3 -0.2,-0.4 0.7,-0.4 1.3,-0.2 2,-1.2 -2.5,-2.4 -1.1,-5.5 -1.3,-8.5 1.4,-1.2 -1.3,-5.4 -1,-7.8 -1.5,0.2 -1.5,-1.1 -2.8,-1.1 0,0.1 0,0.2 -0.1,0.3 -0.7,-0.1 -1.4,0 -2.1,-0.2 -0.2,-1.1 -1.3,-2 -1.7,-2.7 0,-0.1 0,-0.2 0.1,-0.2 0.4,-0.3 0.9,-0.5 1.3,-0.8 -0.1,-0.2 -0.1,-0.4 -0.1,-0.7 0.3,-0.4 0.6,-0.7 0.4,-1.1 -0.2,-0.2 -0.4,-0.3 -0.6,-0.4 -0.1,-5.1 3.4,-8.7 3,-13.9 -2.3,-3.7 -4.6,-7.5 -6.4,-12.3 -3,-5 -8.3,-7.5 -14.1,-8.2 0,0 0.1,0.1 0.1,0.1 -0.1,0.4 -0.3,0.8 -0.8,1.2 -0.7,-0.5 -0.7,-1 -0.5,-1.4 -12.1,-0.8 -25.3,6.3 -21.7,16.9 2.6,-0.9 -0.6,-4.3 3,-4.8 1.1,1.2 1.5,2.7 1.4,4.2 0,0.1 -0.1,0.2 -0.2,0.3 0,0.1 0.1,0.1 0.1,0.2 -0.1,1 -0.5,2 -1.1,2.9 0,0 -0.1,0 -0.2,0.1 0,0.1 0,0.2 -0.1,0.3 -0.9,1.1 -2.1,2.1 -3.5,2.7 2.6,4.5 3.5,9.6 6.4,13.4 -1.3,1.4 -2.6,2.3 -3.9,2.9 -0.7,1.2 -0.2,2.4 -1.3,3.6 -0.8,0.9 -1.6,0 -2.4,0.7 -1,1 0.5,2.2 -0.1,3.2 -2.8,1.9 -5.4,-1.4 -8.2,-0.1 1.8,0.9 3.6,1.9 5.3,2.4 0.5,1.2 0.5,2.4 0.3,3.6 -0.8,1.1 -1.6,1.1 -2.5,1.9 0.2,1.4 0.6,2.7 1.1,4.1 -1.6,0.7 -3.2,0.4 -4.8,-0.2 -1,0.9 -2.1,2.5 -3.1,1.7 -0.7,-1 1.1,-1.8 0.9,-2.8 -1.9,-1.8 -1.7,-3.5 -0.2,-5.2 -0.9,-1 -1.9,0.5 -2.8,-0.1 -0.7,-0.8 -0.3,-1.5 -0.5,-2.2 -1.5,-0.7 -3.4,-1.1 -3.7,-3.1 -0.9,-0.1 -1.9,0.2 -2.8,0.3 -0.7,-0.7 -1.4,-1.8 -2.2,-1.9 -0.7,2.3 -4.1,3.6 -5.9,2 -0.1,-0.2 0,-0.4 -0.2,-0.6 1.1,-2.1 2.8,0.2 3.3,-1.5 -0.9,-1.2 -2.6,0.3 -2.8,-1.7 1.2,-1.3 2.3,0.4 3.4,-0.9 -0.6,-1.7 -2.5,-2.5 -3.7,-2.7 -0.8,-1.3 -0.3,-2.6 -0.1,-3.8 -0.6,-0.7 -1.4,0.7 -2,0.3 -0.4,-1.4 -1.9,-1.8 -3,-1.9 -0.7,-0.6 0.6,-1.2 -0.5,-1.8 -0.9,0.2 -1.9,1.2 -2.8,0.3 -1.1,-0.8 0.6,-1.6 -0.7,-2.4 -1.2,0.8 -0.4,1.6 -1.3,2.4 -2.3,-0.5 -4.8,2.1 -7.1,2.8 -0.4,1.3 0.1,2.7 -1.9,3.4 0.4,2.8 -2.1,5.6 0.9,8.5 0.6,0.8 -0.1,1.6 -0.1,2.4 0.8,1 1.7,0.3 2.6,0.7 0.5,0.7 -0.2,1.3 -0.1,2 2.8,0.4 5.6,2.2 8.4,0.7 1,0.7 2.1,0.6 3.2,1.7 -1.9,2.3 -0.8,4.8 -1,7.2 2.2,1.1 1.8,2.7 2.1,4.3 2.1,0.8 5,2.2 6.5,4.4 1.6,-1.5 3.1,-1 4.6,-0.5 1.3,-2.8 3.8,-0.6 5.7,-1.4 -0.2,-0.6 -0.3,-1.2 -0.5,-1.8 0.6,-0.9 1.2,0.4 1.8,-0.1 0.7,-0.8 -0.5,-1.6 0.5,-2.4 0.3,0 0.5,-0.1 0.8,-0.4 0.4,2.1 1.8,3.7 3.4,4.6 -0.7,0.1 -1.4,0.2 -2.1,0.1 -3.2,13.2 -12.6,1 -20.3,6.1 -2,1.3 -2,3.5 -3.5,7.1 1.7,4.8 4.4,7 7.6,8.3 -2.9,6.2 5.5,15 -4.3,18.8 2.3,-1.5 0.6,-6.7 -1.6,-7.2 -0.2,3.1 1.4,4.5 1.6,7.2 -0.1,0 -0.1,0 -0.2,0.1 0.1,0.7 0.3,1.1 0.5,1.5 -0.3,0.3 -0.4,0.7 -0.5,1.1 0.9,1.1 2.4,0.9 3.2,0.3 1.1,0.1 2.2,0.3 2.8,1.7 -0.7,1.6 0.8,4 -0.7,5.3 -2.6,1.2 -3.9,-0.7 -5.7,1.6 0.4,1 0.8,2 1.2,3.1 2.4,-0.6 7,-0.8 8.5,1.2 -0.2,0.3 -0.4,0.6 -0.4,1 0.3,0.3 0.6,0.4 0.9,0.3 0.1,0.7 -0.1,1.5 -0.5,2.5 -1.7,0.6 -3.5,-1.3 -4.5,1.1 1.5,2.7 3.3,3 3.3,6.5 1.6,0.6 4.2,-1.2 6.4,-1.9 0.5,1.1 1.3,1.4 2,1.8 0.5,0.9 1,1.8 1.5,2.6 0.1,0.9 0.2,1.8 0.9,3 1.1,0.1 2.2,0.3 3.3,0.7 0.4,1.3 1.2,2.2 1.2,3.8 -3.8,0.4 -4.9,3.6 -7.3,5.5 0.1,0.2 0.1,0.5 0.2,0.7 -0.1,0.5 -0.1,1.2 -0.2,1.8 -4.7,1.4 -9,3.4 -12.8,6.2 -0.1,0 -0.2,-0.1 -0.3,-0.1 0.3,-0.7 0.4,-1.5 0.4,-2.4 -3.1,-2.4 -8.1,-0.1 -9.2,3.5 -0.3,-0.5 -0.3,-1.1 -0.8,-1.5 -1,1.6 -1.5,4 -4.6,2 -0.7,0.8 -1.4,1.5 -1.7,3 -1.9,0.8 -4.5,0.3 -5.8,2 -0.2,1.2 -0.5,2.5 -1.5,2.4 -1.4,-0.2 -1,-1.4 -2.4,-1.5 -1.9,1.6 1.6,3.5 1.1,5.9 -0.5,1.9 -1.8,1.6 -3,3.3 1.3,0.3 2.5,0.7 2,2.1 -0.5,1.5 -2.6,0.4 -3,2.1 0.4,1.1 1.5,1.8 1.8,2.9 -0.3,0.9 -1.7,0 -1.8,1.1 -0.3,1.5 0.3,2.3 1.5,2.9 1,0.2 2.7,-1.3 3,0.4 -0.2,1.1 -1.5,0.2 -1.6,1.5 0.4,1.2 0.4,2.6 1.7,3.2 1.3,0.3 1.4,-1.2 2.7,-0.9 1.6,1.6 1.8,4.1 1.8,6.7 -0.4,0.8 -1.6,0.4 -1.7,1.8 0,1.5 0.6,2.7 1.6,3.5 -0.1,1.4 -1.1,1.2 -1.2,2.5 1.6,0.6 2.6,1.6 2.7,3.2 2.9,0.5 3.4,2.5 5,3.7 1.1,0.4 1.1,-1 2.3,-0.4 0.3,0.8 -0.5,2.3 0.2,2.9 1.5,0.5 1.8,-0.9 3.5,-0.1 0.1,1.5 0.6,2.8 -0.4,4.3 2.5,-0.2 4.8,1 5.5,3.2 -0.9,-0.4 -0.8,0.7 -1.6,0.2 -0.6,-0.1 -0.9,-0.3 -1.2,-0.6 -0.1,-0.2 -0.1,-0.3 -0.2,-0.5 -0.1,0 -0.2,0.1 -0.2,0.1 -0.2,-0.2 -0.4,-0.4 -0.7,-0.5 -0.6,-4 -4.5,-0.3 -7,0.2 0.9,1 2.2,0.8 3.6,0.6 -2.4,1 -4.2,2.8 -5.9,5 0.1,1.2 0.4,2.3 0.7,3.4 -0.1,0.1 -0.2,0.3 -0.2,0.5 0.1,0.2 0.3,0.3 0.4,0.3 0.1,0.4 0.2,0.8 0.3,1.2 -1.3,0.1 -2.9,0.5 -3.8,0.6 0.2,1.3 2.2,1.4 4,1.2 0,0 0,0 0,0 1.3,0.3 2.1,1 2.9,1.7 0.1,1.1 0.6,2.9 1.1,4.4 -0.1,0.4 -0.2,0.8 -0.3,1.2 -0.3,0 -0.5,0 -0.8,0 -0.6,0.8 -0.8,2.2 -1.2,3.5 0.3,0 0.7,-0.1 1,-0.1 0.1,0.1 0,1.1 0.2,2.2 -0.3,1.6 0.2,3.8 1.3,3.9 0.1,-0.2 0.3,-0.6 0.4,-1 0.3,0.1 0.5,0.2 0.9,0.2 0.3,0.5 0.5,1.1 0.7,1.7 2.3,0.6 5,0.8 6.7,2 0.6,-0.4 1.1,-0.9 1.7,-1.3 0,1.4 0.1,2.8 0.3,4.1 -1.5,0.6 -2.6,1.7 -3.9,2.5 1.2,1 2.7,0.1 4.2,-0.5 0.2,1 0.5,2 0.9,3 -1,0.6 -2.5,1.2 -1.6,2.7 0.6,0.1 1,0 1.4,-0.2 0,0.4 0,0.8 0,1.2 1.2,0.3 1.4,-1.3 0.4,-1.4 0.6,-0.3 1.1,-0.7 1.9,-0.6 0.3,0.5 0.7,0.9 1.1,1.3 0.1,2.2 -0.8,4.6 -1.8,6.1 1,1.7 1.3,3.6 -0.5,4.6 0.4,1 1.7,1.1 3.2,1.2 -0.5,1.6 0,3.8 1.3,5.4 1.1,0 2.1,0.1 3.2,0.1 0.1,0.2 0.1,0.4 0.2,0.6 -0.1,0.6 -0.3,1.2 -0.4,1.7 -0.1,0.4 -0.3,0.8 -0.5,1.2 -0.1,0 -0.1,0 -0.2,0 0,0.1 0,0.2 0,0.4 -0.1,0.2 -0.2,0.4 -0.2,0.7 -0.2,0.9 0,1.8 -0.2,2.5 -0.4,1.2 -1.4,2.1 -1.7,3.3 0.3,2 -0.1,3.4 0.6,4.5 2,1.1 2.5,-1.2 2.8,-2.8 0.1,0.3 0.2,0.5 0.3,0.8 0.3,0 0.5,0 0.7,0 0,0.3 0.2,0.6 0.7,0.6 0.3,-0.3 0.4,-0.6 0.4,-0.9 0.2,0 0.4,0.1 0.6,0.3 0.3,3 -1.4,1.9 -2.5,2.1 -1,2.3 0.2,3.8 1.7,4.7 1.3,0.4 0.6,-1.3 1.8,-1 0,0.5 0,1.1 0.1,1.6 -0.1,0.6 -0.2,1.4 0.2,2 0,0 0,0.1 0,0.1 0.1,0.6 -0.8,0.3 -0.7,0.9 0.2,0.4 0.3,0.7 0.4,1.1 -0.1,0.4 0,0.8 0.2,1.1 0.4,3.5 -1.1,8.1 -0.2,11.7 0.4,1.4 1.6,3.5 3.3,3.7 0.3,-0.7 -0.5,-1.4 -0.7,-2.1 1.3,-3.6 -0.1,-7.8 -0.2,-11.6 1.7,-0.6 1.7,-2.5 -0.1,-3 0.1,-0.5 0.2,-1 0.4,-1.4 0.3,-0.1 0.6,-0.2 0.9,-0.4 1.8,0.1 1.6,2 2.1,3.3 0.1,0 0.2,0.1 0.3,0.1 0.1,0.5 0.1,1.1 0.2,1.6 -0.3,-0.3 -0.8,-0.5 -1.2,-0.6 0.4,1.9 -0.7,2.2 -1.2,3.2 0.8,-0.3 1.7,-0.6 2.5,-0.9 0,0.5 0.1,1 0.1,1.4 -0.2,0 -0.3,-0.1 -0.5,-0.1 0.1,0.5 0.3,1.1 0.5,1.6 0,0.6 0,1.2 -0.1,1.8 0.7,3.2 -1,5.9 -0.5,8.9 0.1,0.7 0.6,1.2 0.4,2.2 -0.5,1.9 -1.7,3.5 -2,5.5 -0.1,1.2 0.3,2.4 -0.5,3.1 0.3,2.6 -0.1,4.9 -0.7,7.1 -1.2,-0.2 -1.5,1.7 -0.7,2.1 -0.2,0.6 -0.4,1.2 -0.6,1.7 -0.6,3.3 -0.7,7.1 -2.7,9 -0.6,1.7 -0.7,3.8 -1,5.8 0.2,0.7 0.8,0.9 1,1.8 1.9,0.3 2.1,-1.2 2.9,-1.9 1.3,-5.6 2,-11.8 3.8,-17 -0.2,-1.1 0,-1.7 0.4,-2.2 0,-0.4 -0.1,-0.7 -0.1,-1.1 0.5,-1.9 0.8,-3.8 1.3,-5.8 0.5,-2.4 1.8,-4.1 2.2,-6.6 0.1,-0.8 -0.1,-1.6 0.1,-2.4 0.5,-2.9 2.2,-5.3 2.6,-8.2 0,0.9 0.1,2.6 1.9,2.1 0.6,-1 0.5,-2.7 1.4,-3.3 0.2,0.1 0.4,0.2 0.6,0.2 1,2.5 -1.4,4.4 -2.4,6.2 -1,2 -2.5,3.8 -0.1,4.9 1.6,-0.5 1.8,-2.6 2.8,-3.7 0.7,-3.4 2.6,-6.1 4.4,-8.9 0.1,0.4 0.4,0.7 1.1,0.5 0,-0.6 0,-1.2 0,-1.8 -0.1,0 -0.2,-0.1 -0.2,-0.1 0.6,-0.9 1.2,-1.9 1.7,-2.9 0.1,-0.1 0.2,-0.2 0.3,-0.3 0.9,0 1.9,0.4 2.6,1 -0.2,0.4 -0.4,0.8 -0.6,1.1 0.1,4.6 -3,6 -3.2,10.3 1.5,1.9 2.4,-0.8 2.9,-1.9 0,-4.7 2.4,-7 3.2,-10.9 1.5,-1.1 3.8,-0.5 5.1,0.5 0.4,-1.6 -0.9,-1.5 -1,-2.5 1.1,-1.8 2.3,-1.7 3.9,-1.6 0,0.1 0,0.1 0,0.2 -0.1,1.1 -0.8,1.4 -1.2,2.4 -0.4,1.1 -0.6,2.3 -0.8,3.5 -0.1,0.2 -0.2,0.4 -0.3,0.6 0,0.3 0,0.6 0.2,0.8 -0.2,1.6 -0.3,3.3 -0.8,4.7 -2.8,3.1 0.5,8.7 -0.2,12.8 0.6,1 0.8,2.5 0.4,3.6 -0.8,-0.9 -0.3,-2.5 -1.3,-3.4 0.9,6 0.1,10.9 -0.8,16.1 -0.3,1.8 -0.9,3.4 -1.2,4.9 -0.4,1.8 0.4,4.6 0.2,6.7 -0.4,2.8 -2.7,6.2 -0.2,9.2 0.7,0.3 1,-0.2 1.9,-0.3 1.4,-2.5 0.2,-6.2 0.7,-9.2 0.1,-0.6 0.5,-0.9 0.6,-1.5 0.1,-0.7 -0.1,-1.6 0.1,-2.4 0.4,-1.9 0.6,-3.8 1.7,-5.3 1,1 0,4.9 1.8,5.5 0.9,-1.5 -0.7,-4.5 -1.1,-6.6 -0.1,-0.6 -0.3,-1.4 -0.4,-2.1 -0.3,-2.3 -1.1,-4.5 -0.2,-5.8 0,-3.2 1.5,-6.6 2,-9.5 0.1,-0.3 0.1,-0.7 0.2,-1 0.2,-0.5 0.3,-1.1 0.4,-1.8 0.3,-1.1 0.8,-1.9 1.9,-2.4 0.5,-1 0.5,-1.9 0.6,-3.6 0.3,-4.6 1.9,-8.5 2.6,-12.9 0.5,-0.7 0.9,-1.3 1.7,-1.7 1.4,1.3 1,5 2.9,5.7 0.2,-2.8 -3,-5 -2.2,-7.8 0.2,0.3 0.4,0.5 0.7,0.7 1,-0.3 1,-1.7 0.4,-2.4 0.1,-0.5 0.1,-1.1 -0.1,-1.5 0.1,-0.2 0.2,-0.5 0.3,-0.7 0.3,0 0.6,0 0.9,0 1.1,0 2.1,-0.3 3.1,-0.7 -1,1.3 -0.8,3.3 -0.9,4.8 -0.2,2 -1.2,3.7 -1.1,6 0.4,0.4 0.9,0.7 1.4,0.3 -1,1.1 -1.3,4.9 -1.8,7.5 -0.2,1.2 -0.9,2.7 0.7,3.6 0.3,1.7 0.7,3.7 0.6,5.9 -0.1,2.4 -0.9,4.7 -0.8,6.2 0.1,1.1 0.5,2.8 1.4,2.8 1.7,0.1 0.7,-2.4 1.5,-3.5 -0.4,-2.7 -0.4,-4.9 -0.5,-7.9 0,-1.4 0.2,-3 0.4,-4.5 0.1,0.1 0.2,0.1 0.4,0.1 0.5,-0.6 0.4,-1.4 -0.1,-2 0.2,-1.4 0.4,-2.7 0.4,-4.1 0.1,-1.5 -0.2,-3 0,-4.3 0.1,-0.6 0.5,-1 0.5,-1.6 0,-2.2 -1.2,-4.6 -0.7,-7 -0.3,-0.3 -0.3,-0.6 -0.8,-0.3 0,-0.4 0.1,-1 0,-1.5 0.2,0 0.3,0.1 0.4,0.3 1,-0.3 1.2,-1 1.3,-1.8 0.2,-0.1 0.4,-0.2 0.5,-0.3 0.6,0.2 1.2,0.3 1.8,0.4 -0.1,0.4 -0.2,0.8 -0.1,1.3 0.4,0 0.6,0.2 1,0.2 0,2.6 0.3,5.5 0.3,8 -0.7,-1.5 -1.6,-2.7 -2.4,-3.9 0.1,1.4 1,3.6 2.3,4.2 0.3,1.8 0.7,3.5 0.1,4.5 0.6,1.6 0.8,3.5 1,5.4 0.5,3.5 0.1,7.2 0.3,11 0,0.6 0.3,1.2 0.3,1.8 0,3 -1.5,5.9 0.2,8.7 0.7,0.2 1,0.4 1.7,0.1 1.1,-3.5 0.3,-7.1 -0.1,-11 0,0 0.1,0 0.1,0.1 -0.1,-0.7 1,-1 0.9,-1.7 -0.4,-0.3 -0.8,-0.3 -1.1,-0.2 0,-0.1 0,-0.2 0,-0.3 0,-2.9 -0.2,-6 -0.4,-9.2 -0.1,-2.1 0.2,-3.9 -0.1,-6.1 0,-0.8 1,-0.6 1,-1.3 0.1,-0.7 -0.4,-0.6 -0.6,-1.1 0.1,-0.7 0.2,-1.3 0.2,-2 0.8,0.8 3.9,-1.4 0.2,-1.8 0,0.1 -0.1,0.2 -0.1,0.3 0.1,-2.1 0.1,-4.4 0,-6.7 0.3,0 0.6,-0.1 1,-0.4 0.1,-0.2 0.2,-0.4 0.2,-0.6 0.5,-0.1 0.9,-0.2 1.3,-0.4 0,0.1 0.1,0.1 0.1,0.2 -0.1,0 -0.1,0.1 -0.1,0.1 0.1,0.4 0.3,0.6 0.6,0.8 0,0 0,0 0,0 0,0 0,0 0,0 0.9,0.7 2.5,0.6 4,0.7 0.1,-0.6 -0.4,-0.8 -0.3,-1.4 -0.9,-0.4 -2.2,-0.9 -3.3,-0.7 0,0 0.1,0 0.1,0 0.1,-0.3 0.2,-0.6 0.3,-0.8 0.3,-0.1 0.7,-0.2 0.8,-0.4 -0.1,-0.3 -0.1,-0.5 0,-0.8 0.1,-0.1 0.2,-0.3 0.4,-0.4 0.5,0.3 1.2,0.5 1.7,0.6 0.4,-0.5 -0.2,-1.1 -0.8,-1.5 0.4,-0.4 0.7,-0.7 1.1,-1.1 0.8,-0.2 1.6,-0.3 2.4,-0.2 0.3,-0.4 0.4,-0.9 0.3,-1.5 1,0 2,-0.1 2.8,0.3 0.2,0.8 -0.7,0.9 -1.1,1.4 1.3,0.3 2.6,0.7 3.1,2.3 0.7,0.3 1.4,0.4 2,0.5 1.5,5.4 3.2,10.8 4.1,16.5 0.3,1.9 3.1,3.3 3.2,0.4 0,-1.2 -1.2,-3.6 -1.5,-4.5 -0.4,-1 -0.6,-2.3 -1,-3.6 -0.3,-1.1 -0.8,-2.3 -1.1,-3.4 -0.5,-1.8 -0.6,-3.8 -0.9,-5.8 0.8,-0.2 1.5,-0.6 2.1,-1.1 0.3,1.1 0.7,2.2 0.9,3.3 0.4,2 0,3.9 0.9,5.6 -0.2,0.6 -0.7,0.9 -0.4,1.8 0.1,0.6 0.6,0.8 1.2,0.9 -0.3,1 0.5,1.8 0.7,2.7 0.7,2.3 0.6,5.2 0.8,7.9 0.1,1.8 0.6,5.5 2.5,5.1 1.9,-0.3 0.5,-3.6 1,-5.5 -2.1,-4.4 -2,-9.4 -3.4,-15.2 0,-0.6 0.2,0 0.9,0 0.1,-0.1 0.1,-0.3 0.1,-0.4 0.9,2.8 1.6,5.9 3.1,7.9 0.4,0.5 1,1.1 1.7,1.5 -0.4,0.6 -0.6,1.3 -0.3,1.8 0.9,0.4 2,-0.4 2.3,-1.4 0.2,0 0.3,-0.1 0.5,-0.1 0,-0.8 -1,-1.1 -1.4,-1.7 -0.3,-4.4 -3.7,-7.7 -5,-11.7 0,-0.2 0.6,-0.3 0.4,-0.9 -0.5,-0.8 -0.3,0.4 -0.7,0.4 -0.6,-1 -0.7,-1.8 -0.7,-2.6 0.8,1.1 2.2,1.6 4.1,0.9 0,0 0,0 0,0 1.3,2.5 2.6,4.9 3.3,7.3 1,1.4 1.3,3 1.6,4.5 -0.2,0.4 -0.3,0.7 -0.5,1.1 0,0.8 0.5,0.8 0.6,1.5 -2,3.7 -0.2,9.2 3.3,10.6 0.3,0.6 0.5,1.2 0.3,1.9 1.2,2.1 1.7,4.4 2,6.6 -0.9,0.8 -1.8,1.7 -2.4,2.8 0.4,1.7 -0.4,5.3 1.8,5.8 0.3,0.6 0,0.9 0.1,1.4 0.4,0.1 0.8,0.2 1.2,0.4 -0.1,0 -0.2,0 -0.3,0 -1.6,1.4 -1,7.3 1.3,7.2 0.1,0 0.2,0 0.3,-0.1 0.3,1 0.5,1.9 0.8,2.9 0.5,0.6 1.1,0.4 1.5,1.2 1.8,-0.7 1.3,-2.1 1.8,-3.3 -0.4,-2.2 -0.9,-4.5 -1.4,-6.8 0.4,0.1 0.8,0.2 1.1,0.3 0.5,-0.3 0.5,-0.8 0.6,-1.3 4.7,-0.5 5.5,-6.9 2.6,-10.6 -2,-1 -4.3,-1.8 -6.7,-1.6 0,0 0,-0.1 0,-0.1 -0.2,-0.3 -0.3,-0.6 -0.5,-1 -0.2,-1.9 -0.7,-3.7 -1,-5.6 1.6,-0.5 2.4,-2.2 3.8,-3.2 -0.1,-1.7 -0.6,-2.5 0,-3.7 -0.7,-1.2 -1.8,-2.3 -2.4,-3.6 0.3,0.2 0.7,0.3 1.2,0.3 0.7,-0.8 0.8,-1.8 0.8,-2.8 0.2,0.2 0.4,0.3 0.7,0.3 0.3,-0.5 0.3,-1 0,-1.4 0.2,-0.1 0.4,-0.1 0.8,0 0,-1.1 0.8,-1.6 1.3,-2.4 -0.6,-2.3 -0.8,-5.4 -2.4,-6.1 0.9,-1.3 3.1,-1.8 4.3,-2.9 -0.1,2 -0.4,3.9 0.4,6.2 1.1,0.5 1.5,-0.1 1.7,-0.9 0,0 0.1,0 0.1,-0.1 0,-0.1 0,-0.2 0,-0.3 0.1,-0.7 0.1,-1.5 0.1,-2 -0.6,-1.5 -0.9,-2.9 -1,-4.3 3.8,3.3 9.1,-3.2 3.9,-5.9 -0.4,0.1 -0.7,0.2 -1.1,0.3 0.4,-0.5 0.8,-1 0.9,-1.6 -1.1,-0.4 -2.8,0.9 -3.3,2.2 -0.1,0 -0.1,0 -0.2,0 -0.1,-0.1 -0.2,-0.2 -0.3,-0.3 -0.1,-1.1 -0.2,-2.1 -0.5,-3.3 0,-0.1 0,-0.3 -0.1,-0.4 0.6,-0.1 1.1,0 1.4,0.2 0.9,-1.2 0.2,-3.2 2.6,-3.8 0.2,-0.4 0,-1 -0.1,-1.6 1,-0.1 1.6,-0.6 1.9,-1.1 0.1,0.2 0.2,0.4 0.2,0.5 0.3,1.1 -0.2,1.8 -0.1,2.8 0.2,3.2 1.8,6.6 2.2,9.9 -1.2,4.3 3.7,7.9 4.8,12 0.9,0.7 1.6,2 1.7,3.2 -1.1,-0.5 -1.2,-2.1 -2.4,-2.5 3.1,5.1 4.3,10.1 5.5,15.4 0.4,1.9 0.6,3.6 0.8,5.2 0.3,1.9 2.2,4.1 2.7,6.1 0.8,2.8 0,7.1 3.4,8.7 0.7,-0.1 0.8,-0.7 1.5,-1.2 0.2,-3.1 -2.2,-5.9 -3,-9 -0.1,-0.6 0.1,-1.1 0,-1.7 -0.2,-0.8 -0.7,-1.4 -0.8,-2.2 -0.4,-1.9 -0.9,-3.8 -0.6,-5.8 1.3,0.4 1.9,4.5 3.7,4.2 0.2,-1.8 -2.3,-3.8 -3.5,-5.6 -0.4,-0.5 -0.8,-1.2 -1.1,-1.8 -1.2,-1.9 -2.7,-3.6 -2.4,-5.3 -1.3,-2.9 -1.3,-6.9 -1.9,-9.9 -0.5,-2.3 -1.2,-4.2 0.2,-6.1 0,-1 -0.2,-1.8 -0.6,-3 0.2,0 0.5,-0.1 0.7,-0.1 -0.1,-0.4 0.2,-0.4 0.1,-1 -0.3,-0.3 -0.9,0 -1,0.5 0,0 0,-0.1 0,-0.1 -1.5,-4.4 -1.6,-8.8 -2.7,-13.4 0.2,-0.9 0.3,-1.7 0.8,-2.4 1.7,0.5 2.8,4.2 4.7,3.8 -0.9,-2.8 -4.6,-3.1 -4.9,-6.2 0,-0.3 0.3,-0.5 0.3,-0.8 0,0 0,0 0,0 0,-0.3 0,-0.6 -0.3,-1 -0.1,0 -0.1,0.1 -0.2,0.1 -0.1,-0.8 -0.2,-2.4 -0.1,-3.7 0.9,0.1 1.6,0.5 3,0.3 -0.7,-1.2 -1.2,-2.3 0.1,-2.9 0.6,0.9 1.4,1.6 2.2,1.6 0.4,0 0.7,-0.3 1,-0.6 0.1,0 0.3,-0.1 0.5,-0.2 0.5,-1 0.3,-2.3 0.9,-3.3 0,0 0.1,0 0.1,0 0.4,1.1 0.9,2.2 1.4,3.2 -0.2,0 -0.5,0.1 -0.7,0.1 -0.1,1 -0.7,1.8 -0.5,2.8 0,0 0,0 0,0 0,0 0,0 0,0.1 0.1,0.4 0.3,0.8 0.6,1.2 0.1,0 0.2,0 0.3,0 0.8,0.9 1.8,1.6 2.7,1.5 1,1.5 1.9,2.9 1.8,4.1 1.1,1.2 2,2.9 2.9,4.5 1.7,3.1 2.8,6.7 4.5,10.1 0.2,0.5 0.8,1 1,1.5 1.2,2.7 1,6.3 3.5,8 0.6,-0.2 1.1,-0.1 1.5,-0.8 -0.5,-4.5 -3.3,-7.8 -5.2,-12.2 -1.2,-2.7 -2.5,-5.5 -3.9,-8.4 -0.9,-1.9 -1.3,-3.8 -2.5,-5.7 -0.3,-0.7 0.6,-1 0.3,-1.7 -0.2,-0.7 -0.6,-0.4 -0.9,-0.7 -1.1,-4.1 -3.2,-8.6 -5,-12.9 0.5,0.2 0.9,0.8 1.6,0.3 0.2,-0.4 0.4,-0.7 0.7,-1.1 0.8,0.6 1.9,1 2.7,1.7 -0.6,0.6 -1.2,1.2 -1.8,1.6 2,1.5 3.4,4.1 6.3,4.2 0.9,1.7 2,3.3 2.8,5.1 0.6,1.3 0.7,3 2.1,3.3 0.8,-1.5 -0.5,-2.8 -1.3,-3.8 -0.9,-1.1 -1.7,-2.9 -2.4,-4.6 0.5,-0.1 1,-0.2 1.6,-0.4 1,0.3 1.9,0.8 3.5,0.1 0.5,-1.1 1.7,-2 2.1,-3.3 0.9,1.6 2,3 3.2,4.2 0.4,0.4 0.9,0.6 1.3,1.1 0.9,1.1 1.6,3.6 3,2.7 0.4,-1.7 -1.3,-2.3 -2.2,-3.2 -2.1,-2.3 -4,-5.5 -5.8,-8 0,0 0,0 -0.1,0 -1.1,-1.6 -3.2,-2.5 -5.4,-1.2 -2.6,-1.3 -4.6,0.3 -6.4,1.9 -0.4,-0.8 -1.5,-1.7 -2.6,-2.2 0.2,-0.5 0.3,-0.9 0.1,-1.5 -0.6,-1.1 -1.9,-0.2 -2.5,-1.4 0,-2.3 1.8,-4.1 3.7,-5.9 0.7,-0.2 1.1,0.4 1.8,0.3 0,0.2 0,0.5 0.1,0.8 -1.1,0.7 -1.7,-0.4 -2.2,0.3 0.5,0.9 1.3,1.1 2.2,1.3 0.1,0.6 0.4,1.2 0.7,1.6 -0.5,-0.2 -1.2,-0.3 -1.8,0 0.6,1.4 1.7,1.5 2.8,1.2 0,-0.1 0,-0.3 -0.1,-0.4 2.7,1.7 7.3,-0.7 5.5,-4.6 -0.5,-1.1 -1.7,-1.1 -2.6,-2.2 -0.3,-0.7 0.2,-0.9 -0.1,-1.6 -1.1,0 -0.5,0.9 -1.1,1.2 -0.5,-0.1 -0.9,-0.1 -1.4,0 0.2,-0.5 0.2,-1.1 0.2,-1.6 0.9,-0.7 1.4,-0.3 2.1,-0.5 4.6,6.6 10.2,12.4 14.4,19.4 1,1.6 4,1.5 2.9,-1.2 -0.4,-1.1 -2.4,-2.7 -3,-3.4 -0.7,-0.7 -1.4,-1.9 -2.2,-2.8 0,0 -0.1,-0.1 -0.1,-0.1 0.5,-0.1 0.9,-0.4 1.3,-0.7 0,0.2 0.1,0.3 0.3,0.5 0.4,0.5 0.8,0.5 1.3,0.2 0.1,1.1 1.1,1.4 1.7,2.1 1.5,1.8 2.5,4.6 3.7,7 l 1,-4.2 c 0.6,0.7 1.2,1.4 1.9,2.1 l -1.9,-2.3 1.7,-7 c -1.4,1.3 -3.5,1.9 -4.1,4 -1.4,-2.2 -2.7,-4.7 -4.5,-7.2 -0.2,-0.6 0.2,-0.1 0.8,-0.5 0,-1.2 -0.6,-2.1 -1.5,-2.5 -0.3,0.4 -0.1,1.1 -0.2,1.6 -1.2,-1.4 -2.4,-2.7 -3.5,-4.1 0.1,0 0.2,0 0.3,0 1,-1.5 0.3,-4.5 -1.2,-5.1 -0.3,0.2 -0.6,0.5 -0.9,0.7 -0.1,0.5 -0.2,1.1 -0.1,1.6 -0.5,-0.7 -0.9,-1.4 -1.3,-2.2 0,-0.2 0,-0.3 -0.1,-0.4 0,-1.4 -1.3,-2.3 -1.4,-3.9 -1.8,-2.8 -3.2,-6.1 -5.7,-8.5 -0.3,-0.2 -0.5,-0.5 -0.8,-0.7 0.1,-0.1 0.2,-0.2 0.3,-0.3 0.1,0.1 0.3,0.2 0.5,0.2 0,-0.3 0.4,-0.3 0.2,-0.9 0.3,-0.2 0.6,-0.4 1,-0.6 0.3,1 0.7,1.9 1.3,2.8 -0.3,0.1 -0.6,0.3 -0.8,0.6 0.6,0.3 1.2,0.6 1.8,0.9 1.4,1.8 2.9,3.5 4,5.1 0.2,0.2 0.3,0.5 0.5,0.8 -0.3,0.3 -0.6,0.6 -0.7,0.9 0.2,0.4 0.5,0.9 0.7,1.3 2,1.5 4.9,-1.6 2,-3.2 -0.1,0 -0.2,0 -0.3,0 -0.7,-1 -1.3,-1.9 -2.2,-2.6 -0.3,-0.2 -0.7,-0.3 -1,-0.6 -0.2,-0.2 -0.3,-0.4 -0.5,-0.6 0.7,0.3 1.5,0.6 2.2,1 -0.1,-0.4 -0.3,-0.8 -0.6,-1.2 0.4,-0.4 -0.2,-0.9 -0.5,-1.2 -0.1,0.1 -0.2,0.3 -0.1,0.4 -0.8,-0.9 -1.8,-1.6 -2.8,-1.9 -0.7,-1.1 -1.5,-2.1 -2.5,-2.7 0.1,0 0.1,0 0.2,0 -0.4,-0.4 -0.7,-0.8 -1,-1.3 -0.1,-0.3 -0.3,-0.7 -0.5,-0.9 -0.6,-1.3 -0.6,-2.7 0.1,-4 0.2,0.3 0.3,0.7 0.4,1.1 0.5,0.3 0.8,0.6 1.2,1 0,0.6 -0.2,1.1 0.2,1.7 1.1,1 2.3,1.7 3.6,2.2 2.2,2.5 4.2,4.4 6.2,7.9 1.4,2.4 3.7,3.8 4.9,7.7 1.2,0.7 2.7,2.5 3.5,0.9 0.6,-1.2 -1.1,-2.9 -1.8,-4 -3.4,-3.5 -6.1,-8 -9.3,-11.9 0.7,0 1.5,0 2.2,0 -0.1,0.1 -0.1,0.2 -0.2,0.3 0.3,0.4 1.3,0.2 1.9,0.4 -0.4,-0.5 0.3,-1.2 0.2,-1.7 1.1,-1.5 1.8,-3 3.1,-4.4 0.2,0.5 0.4,1 1,0.9 0,-0.8 -0.2,-1.2 -0.6,-1.4 0,0 0.1,-0.1 0.1,-0.1 -1.5,-2.8 0.1,-4.7 -2.2,-7.8 -3.1,-1.2 -6,-3 -10,-1 -0.4,-1.2 -0.8,-2.5 -1.3,-3.6 -0.1,-0.2 -0.2,-0.3 -0.2,-0.5 0.2,-0.1 0.4,-0.1 0.6,-0.2 -0.3,-0.2 -0.6,-0.4 -0.9,-0.5 -0.6,-1.3 -1.3,-2.4 -2.1,-3.3 1.1,0.1 2.2,0.5 3.1,0.3 0.7,-0.4 1.4,-0.8 2.1,-1.2 1.7,0.6 3.6,0.4 5.6,-0.1 0.3,0.7 0.5,1.6 1.2,2.3 1.7,-0.5 1.4,-1.8 1.4,-3 1.3,-0.4 2.7,-0.8 4,-1 0.7,0.7 1.4,1.4 2.5,0.7 -0.5,-1.4 -1.5,-1.2 -2.2,-2.1 0.9,0.5 1.7,1.2 3,0.6 -0.8,-4.6 4.2,-5.6 7.9,-7.4 0.8,1 1.4,2.5 2.6,1.9 -0.1,-0.8 -0.6,-2.1 -1.3,-2.6 1.7,-1 2.9,-2.4 2.7,-4.6 2.1,0.6 3.8,3.2 5.9,0.5 -1,-1.7 -2.2,-2.1 -3.1,-3.4 z m -95.6,93 c 0.2,0.1 0.3,0 0.5,0 -0.1,1 -0.5,2.2 0,2.9 -0.1,0 -0.2,0 -0.3,0 -0.2,-1.2 -0.4,-2.5 -0.8,-3.7 0.2,0 0.3,-0.1 0.5,-0.1 0.1,0.2 0.1,0.5 0.1,0.9 z m -1.2,2.7 c -0.4,-0.1 -0.8,-0.2 -1.3,-0.2 -0.1,-0.1 -0.2,-0.2 -0.2,-0.3 -0.2,-0.8 -0.4,-1.6 -0.7,-2.4 0.6,-0.1 1.1,-0.2 1.7,-0.3 0,1 0.2,2.1 0.5,3.2 z m -7.7,0.5 c -0.4,-0.1 -0.8,-0.2 -1.2,-0.3 0.1,-0.1 0.2,-0.3 0.2,-0.5 0,-0.4 -0.2,-0.7 -0.5,-0.9 0,-0.3 0,-0.7 -0.1,-1 0.4,0 0.9,-0.1 1.3,-0.1 0.1,0.2 0.3,0.4 0.4,0.5 0.3,3.1 1.7,5.5 2.2,7.7 0.4,0.4 0.6,0.8 0.9,1.2 -0.7,0.1 -1.2,0.1 -1.7,-0.1 -0.1,-0.2 -0.2,-0.4 -0.4,-0.7 -0.1,0 -0.2,0 -0.2,0.1 -0.5,-1.8 -1.4,-3.2 -0.9,-5.9 z m -37.9,25.6 c -0.8,-0.1 -0.4,-1.3 -1.1,-1.9 0.2,-0.3 0.6,-0.6 1,-0.8 0,0.9 0,1.8 0.1,2.7 z m 52.1,-232.1 c 0,-0.3 0,-0.5 0.3,-0.7 0.2,0 0.3,0.1 0.5,0.2 -0.2,0.3 -0.5,0.4 -0.8,0.5 z m 29.7,76.9 c -0.7,-0.2 -1.5,-0.3 -2.2,-0.6 0.7,-0.8 2,-1 2.8,-1.7 0.1,0 0.2,0 0.3,0 -1,0.5 -1.3,1.3 -0.9,2.3 z m 2,-2.2 c 0.6,0.1 1.1,0.2 1.6,0.4 -0.4,0.6 -0.9,1.2 -1.6,1.7 0.4,-0.5 0.4,-1.2 0,-2.1 z m 4.7,-0.6 c 0.4,-0.3 1.2,-0.3 1.2,0.5 -0.1,0.1 -0.2,0.1 -0.4,0.2 -0.2,-0.2 -0.5,-0.4 -0.8,-0.7 z m -9,124.2 c -0.1,-0.1 -0.1,-0.2 -0.2,-0.3 0.2,-0.1 0.4,-0.1 0.6,-0.1 0,0.2 0,0.4 0,0.6 -0.1,0 -0.3,0 -0.4,-0.2 z m 1.4,0.1 c 0,0.1 0.1,0.1 0.1,0.2 0,0 -0.1,0 -0.1,0 0,-0.1 0,-0.1 0,-0.2 z m 16.9,-173.9 c -1.2,-0.4 -2,-4.4 -0.5,-4.7 0.4,1.2 1.1,2.3 1.9,3.4 0.1,0.1 0.2,0.2 0.3,0.3 -0.4,0.9 -0.6,2.1 -0.8,3.2 -1.1,0.2 -2.1,0.2 -3.1,0.1 0.7,-0.9 1.5,-1.6 2.2,-2.3 z m -26.9,-16.3 c 0,0.1 0,0.2 0,0.2 -0.2,-0.1 -0.4,-0.2 -0.5,-0.3 0.2,0 0.3,0 0.5,0.1 z m 7.5,46.2 c 4.2,-2.4 6.8,0 10,-3.3 0,0 0,0 0,0 0,0 0,0 0,0 1.2,0.8 2.7,1.1 4.1,1.3 -0.1,0.5 0,1.1 0.3,1.8 1.2,-0.4 1.4,-1.1 2.2,-1.6 0,0 0,0 0,0 1,1.8 2.6,1.9 3.8,3.1 0.1,0.7 -0.4,1.2 -0.7,1.8 -2,0.2 -3.7,2.1 -5.4,0.2 -1.9,3.7 -5.2,7.9 -3.8,11.8 -1.5,0.7 -2,2.1 -2.6,3.5 -2.3,-0.9 -4.9,-1.5 -6.3,-3.8 0.2,-0.8 0.9,-1.5 1.5,-2.1 -0.2,0.6 -0.3,1.1 -0.3,1.7 1.8,1.3 7,-1.6 3.2,-3.5 2.5,-2.6 2,-6.1 1.2,-9.7 -1,0.6 -0.7,1.5 -1.1,2.3 -0.3,0.3 -0.7,0.6 -1,1 0.4,0.8 0.2,0.5 1,1 0.4,-0.3 0.7,-0.6 0.8,-1 0.1,0.1 0.3,0.2 0.4,0.5 -0.6,1.8 -1.9,3.5 -2.9,5.2 0,-0.2 -0.1,-0.3 -0.1,-0.5 -1.9,-0.5 -1.3,1.8 -2.9,1.7 -1.7,-0.2 -2.4,-1.2 -3.3,-2.2 2.2,-0.9 0.7,-3.1 -1,-1.9 0,0.4 0,0.7 0,1 -0.4,-0.3 -0.9,-0.6 -1.6,-0.7 -1.4,0.2 -1.6,1.7 -2.9,2 h -1 c 0,-0.2 -0.1,-0.4 -0.1,-0.6 -0.1,0 -0.2,0.1 -0.4,0.1 -0.1,-0.2 -0.2,-0.4 -0.4,-0.6 -0.2,-0.8 -0.3,-1.7 -0.8,-2.2 -1.5,-0.5 -2.1,-0.1 -3.5,0.2 0,1.2 -0.2,2.1 -0.8,2.6 -1.2,-0.3 -2.2,-0.8 -3.2,-1.5 -0.1,-0.1 -0.2,-0.3 -0.4,-0.4 -0.4,-0.5 -0.7,-1 -1.1,-1.5 0.5,-1.6 2.1,-1.9 2.9,-3.1 0.2,-1.4 0.1,-2.6 -0.6,-3.2 0.6,-0.5 1.4,-0.7 2.1,-1 0.4,-2.9 -0.8,-4.2 -3,-4.7 0.2,-1.5 1.2,-2 2.1,-2.6 0,0.2 0.1,0.5 0.2,0.8 5.3,2.2 8.7,7.1 15.4,8.1 z m -20.5,-15.8 c 0.2,-0.2 0.4,-0.3 0.7,-0.4 1.9,0.6 3.5,1.9 4.8,3.8 0.1,0.3 0.1,0.6 0,0.9 -1.5,-0.8 -4.4,-0.3 -5.2,-1.8 0,-0.8 -0.2,-1.6 -0.5,-2.2 0.1,-0.1 0.2,-0.2 0.2,-0.3 z m -5.8,-46.5 c -0.1,0.8 -0.2,1.6 -0.3,2.3 -0.2,-0.3 -0.4,-0.6 -0.7,-0.8 0.3,-0.5 0.7,-1 1,-1.5 z m -0.5,4.9 c 0,0 0,0 0,0 1.5,-0.1 2.9,0.2 4.3,0.4 0,0 0,0 0,0.1 -0.2,0.1 -0.4,0.1 -0.6,0.2 -0.5,-0.2 -1,-0.4 -1.6,-0.3 -1.1,0.2 -1.8,1.3 -3,-0.3 -0.2,-0.3 -0.4,-0.7 -0.4,-1 0.3,0.4 0.8,0.8 1.3,0.9 z m -106.1,91.2 c 0,0 0,0 0,0 -0.1,0.2 -0.2,0.3 -0.3,0.3 0.1,0 0.2,-0.2 0.3,-0.3 z m 0.1,73.4 c 0.7,-0.8 1.4,-1.9 1.8,-3.3 -0.4,-3.1 -0.9,-6.1 -2.6,-8.4 2.6,-1.7 8.3,0.1 6.3,3.7 0.8,-0.3 1.4,-0.9 2.6,-0.6 0,0 0,0.1 0.1,0.1 -1,1 -1.8,4.2 -0.7,5 0.5,-0.3 1.4,-1.7 1.9,-2.9 0.1,0.5 0.2,1.2 0,1.9 -1.3,1.1 -3.1,1.6 -3.7,3.8 1.3,-0.2 2.2,-1 3.2,-1.7 0.1,0 0.1,0 0.2,0 -1.1,1.3 -1.8,2.6 -0.8,4.1 0,0 0,0 0,0 -0.2,0.8 -0.4,1.6 -0.6,2.4 -0.2,0.1 -0.4,0.2 -0.6,0.4 -2,-2.1 -4.6,-3.6 -7.1,-4.5 z m 12.4,55.6 c 0.1,-1.7 0.8,-3 0.9,-5 0.4,0.3 0.9,0.6 1.4,0.8 0.1,1.9 -1.3,1.9 -0.1,3.2 -0.1,1 -1.2,0.9 -2.2,1 z m 15.8,27.2 c 0.6,-0.7 0.4,-2.2 1.3,-2.6 0.6,1 -0.6,2.6 -1.3,2.6 z m 21.9,3 c 0.8,2.9 0.9,6.9 0.4,9.2 -0.4,-2.3 -1.5,-7.1 -0.4,-9.2 z m 5.5,-13.9 c -0.1,-1 0.1,-1.9 0.3,-2.8 0,0.5 0,1.1 0.6,1.4 -0.2,0.5 -0.4,1.1 -0.9,1.4 z m 1.8,0.8 c -0.1,-0.7 -0.1,-1.6 -0.4,-2.1 0.2,0 0.4,0.1 0.7,0.1 0,-0.7 0,-1.4 0.1,-2.1 0.3,-0.5 0.7,-0.8 1.1,-1 0,2 -0.3,3.7 -1.5,5.1 z m 9.5,0.2 c 0.1,1.4 0,2.5 -0.3,3.4 -0.3,-1.3 -0.1,-2.3 0.3,-3.4 z m 0.7,-5.8 c 0,-0.1 -0.1,-0.2 -0.1,-0.3 0.1,0 0.1,-0.1 0.2,-0.1 0,0.1 -0.1,0.2 -0.1,0.4 z m 19.6,-9.8 c 0.2,-0.9 1.4,-1.2 1.8,-0.2 -0.3,0.7 -1.5,1 -1.8,0.2 z m 2.7,-8 c 0.1,0.1 0.1,0.3 0.2,0.4 -0.1,-0.1 -0.1,-0.2 -0.2,-0.3 0,0 0,0 0,-0.1 z m 9.9,10.1 c 0.4,0.8 0.8,1.5 1.2,2.2 0.3,0.5 -0.3,0.6 -0.3,1 -0.3,-1 -0.6,-2.1 -0.9,-3.2 z m 2.2,7.1 c -0.4,-1.2 -0.8,-2.4 -1.2,-3.6 0.7,0.6 1.3,1.5 1.7,2.6 -0.2,0.2 -0.3,0.7 -0.5,1 z m 2.5,-9.6 c -0.5,-0.8 -1.2,-1 -1.9,-1 -0.2,-0.6 -0.2,-1.4 0.2,-1.9 0.3,0.5 0.7,0.6 1.3,0.2 0.3,0.9 0.6,1.7 1,2.6 -0.3,0 -0.4,0.1 -0.6,0.1 z m 15.3,49.4 c -0.3,-0.3 -0.5,-0.5 -0.8,-0.7 0.3,0.1 0.5,0.1 0.8,0.2 -0.1,0.2 0,0.4 0,0.5 z m 6.1,-54.6 c 0.1,0.3 0.2,0.5 0.3,0.8 -0.1,-0.1 -0.3,-0.3 -0.5,-0.4 0,-0.1 0.1,-0.3 0.2,-0.4 z m 7.9,-9.2 c 0,-0.3 0.1,-0.5 0.1,-0.7 0.1,0.3 0.3,0.6 0.4,0.8 -0.2,0.1 -0.3,0 -0.5,-0.1 z m 2.4,-1.1 c 0,0.6 0.1,1.3 -0.3,1.9 -0.9,-1.6 -0.9,-3.6 -0.7,-5.4 0.1,0 0.2,-0.1 0.3,-0.2 -0.1,0.5 -0.3,1 0.3,1.7 1,0.1 1.4,-0.4 1.7,-1.2 0.6,1.6 0.8,3.2 0.4,4.8 -0.6,-0.7 -1,-2 -1.7,-1.6 z m 4.2,26.1 c -1.2,-2 -4.1,-5.9 -3.9,-8.4 1.8,2.3 3.5,6 3.9,8.4 z m 10.5,-30.8 c 0.3,-0.1 0.6,-0.2 0.9,-0.3 0.2,0.5 0.4,1 0.6,1.4 -0.5,-0.4 -1,-0.7 -1.5,-1.1 z m 14.2,-30.2 c 0.1,0.5 0.3,0.9 0.6,1.2 0,0 -0.1,-0.1 -0.1,-0.1 -0.7,0.3 -1.3,0.7 -1.4,1.1 0.6,1.7 1.7,1.7 3,1.1 0.1,0.1 0.1,0.2 0.2,0.3 0.1,0.1 0.2,0.3 0.3,0.4 0.1,0.2 0.2,0.4 0.4,0.5 0.9,1.2 2,2.4 2.8,3.6 1,1.5 1.4,3.3 2.5,4.4 -0.7,0.2 -1.5,0.6 -1.9,1.3 -0.4,-0.5 -0.8,-0.9 -1.2,-1.4 -1.6,-2.1 -2.7,-4.8 -4.3,-7.1 -1.1,-1.5 -3,-3.2 -4.2,-3.9 -0.4,-0.2 -0.9,-0.2 -1.2,-0.4 -0.1,-0.9 0.2,-1.7 0.9,-2.4 -0.8,-1.2 -0.9,-2.2 -0.9,-3.2 0.3,0.4 0.6,0.7 0.9,1.1 1.5,0.8 2.6,2.1 3.6,3.5 z m -8,-28.3 c 0.3,0 0.5,-0.1 0.7,-0.2 -0.1,-0.1 -0.3,-0.1 -0.4,-0.2 0.3,-0.3 0.8,-0.6 1.4,-0.8 -0.8,-0.3 -1.7,-0.4 -2.2,-1.5 0.1,-0.9 0.3,-1.8 0.9,-2.6 0,0.1 0,0.1 0,0.2 1.1,0.8 2.1,2.2 3,3.7 -0.3,0.4 -0.6,1 -0.5,1.9 0.5,0.3 1,0 1.4,-0.4 0.3,0.5 0.6,1 0.9,1.5 -0.3,0.4 -0.5,0.8 -0.8,1.3 -1.2,-1.2 -2.6,-1.8 -4,-1.2 0.6,1.7 1.9,2.7 2.8,4.3 -2.3,-0.8 -4.3,-4.1 -3.2,-6 z"
         id="path4168" />
      <path
         fill-rule="evenodd"
         clip-rule="evenodd"
         d="m 649.2,607.7 c 0.4,0.7 0.7,1.6 1.3,1.7 0.7,-0.3 1,-0.6 1.2,-1 -0.5,-1.3 -1.4,-1.5 -2.5,-0.7 z"
         id="path4170" />
      <path
         fill-rule="evenodd"
         clip-rule="evenodd"
         d="m 467.1,585.3 c -2.3,0.8 -4.3,2 -6.6,2.8 2.2,0.9 6.9,0.4 6.6,-2.8 z"
         id="path4172" />
      <path
         fill-rule="evenodd"
         clip-rule="evenodd"
         d="m 466.9,485 c -1.6,0.3 -2.3,-1.8 -4.4,-0.3 0.2,0.7 -0.3,1.2 -0.7,1.7 1.3,3.5 5.9,1.9 5.1,-1.4 z"
         id="path4174" />
      <path
         fill-rule="evenodd"
         clip-rule="evenodd"
         d="m 458,438 c -0.5,-0.7 -1.1,-0.2 -1.6,0.4 0.5,1 1.5,0.4 1.6,-0.4 z"
         id="path4176" />
      <path
         fill-rule="evenodd"
         clip-rule="evenodd"
         d="m 599.5,500.3 c -0.3,-0.9 1.1,-2.8 -0.4,-2.6 0,1 -1.5,1.5 -0.6,2.7 0.4,-0.1 0.6,0.2 1,-0.1 z"
         id="path4178" />
      <path
         fill-rule="evenodd"
         clip-rule="evenodd"
         d="m 617.8,639.1 c -0.2,0.9 0.9,2 1.8,1.4 -0.1,-0.9 -0.6,-2.5 -1.8,-1.4 z"
         id="path4180" />
      <path
         fill-rule="evenodd"
         clip-rule="evenodd"
         d="m 655,578.1 c -0.1,1.1 1.2,2.1 1.9,2.8 1,-0.1 2.2,-0.9 3.3,-1.5 -1.5,-1.5 -3.3,-1.5 -5.2,-1.3 z"
         id="path4182" />
      <path
         fill-rule="evenodd"
         clip-rule="evenodd"
         d="m 657.8,593.8 c 0.3,0.5 0.6,1.1 0.9,1.6 1.3,0.6 4.6,-0.9 3.7,-2.7 -1,-1.3 -4.1,-0.6 -4.6,1.1 z"
         id="path4184" />
      <path
         fill-rule="evenodd"
         clip-rule="evenodd"
         d="m 617.4,509.3 c 1,0 1.5,-0.6 1.5,-1.7 -1.1,-0.1 -1.7,0.4 -1.8,1.3 0.2,0.1 0.4,0.1 0.3,0.4 z"
         id="path4186" />
      <path
         fill-rule="evenodd"
         clip-rule="evenodd"
         d="m 672.4,592.6 c 0.5,0.1 1.2,-0.2 1.3,-0.7 -0.1,-0.3 -0.3,-0.5 -0.4,-0.8 -0.8,0.4 -1.4,0.8 -0.9,1.5 z"
         id="path4188" />
      <path
         fill-rule="evenodd"
         clip-rule="evenodd"
         d="m 626.4,496.8 c -0.1,-0.4 0.1,-0.7 -0.3,-1.2 -0.3,0.1 -0.5,0.3 -0.8,0.4 0.2,0.7 0.6,1 1.1,0.8 z"
         id="path4190" />
      <path
         fill-rule="evenodd"
         clip-rule="evenodd"
         d="m 670.6,572.5 c 2.1,0.1 0.8,-2.5 1.1,-3.7 1.2,-0.7 2.7,0.7 3.4,-0.8 -1.9,-1.6 -4.6,-0.6 -6.5,-2.3 -0.4,2 0.5,4.3 2,6.8 z"
         id="path4192" />
      <path
         fill-rule="evenodd"
         clip-rule="evenodd"
         d="m 530.3,367.2 c 0,0.1 -0.1,0.1 -0.1,0.2 0.4,0 0.8,0.1 1.2,0.1 -0.4,-0.4 -0.7,0.1 -1.1,-0.3 z"
         id="path4194" />
      <path
         fill-rule="evenodd"
         clip-rule="evenodd"
         d="m 653.8,601 c 0.6,2.5 1.8,3.8 3.2,4.4 6.5,-1.9 -0.2,-8.8 -3.2,-4.4 z"
         id="path4196" />
      <path
         fill-rule="evenodd"
         clip-rule="evenodd"
         d="m 470,514.8 c 0.2,-1.1 -0.7,-1.2 -1.8,-1.1 -0.4,1.4 1.1,1.7 1.8,1.1 z"
         id="path4198" />
      <path
         fill-rule="evenodd"
         clip-rule="evenodd"
         d="m 686.4,582.1 c -0.4,0 -0.9,0 -1.5,0.5 -0.2,0.9 0.9,2.2 1.7,1.8 -0.1,-0.7 0.4,-1.3 -0.2,-2.3 z"
         id="path4200" />
      <path
         fill-rule="evenodd"
         clip-rule="evenodd"
         d="m 680.9,547.3 c -0.2,-0.4 -0.5,-0.7 -0.8,-0.8 0,-0.1 0,-0.1 -0.1,-0.2 0,0.1 -0.1,0.1 -0.1,0.2 -1.1,-0.2 -2.5,1 -3.3,1.2 0.6,0.8 1.5,1 2.4,0.8 -0.6,2.4 0.2,5.4 -1.5,7.4 0.3,0.9 0.8,1.2 1.4,1.6 2.6,-2.4 2.7,-5.8 1.6,-9.7 0.1,-0.2 0.2,-0.3 0.4,-0.5 z"
         id="path4202" />
      <path
         fill-rule="evenodd"
         clip-rule="evenodd"
         d="m 695.6,513 c -2.3,0.8 -2.7,0.1 -4.3,1.7 0.4,2.9 6.1,0.6 4.3,-1.7 z"
         id="path4204" />
      <path
         fill-rule="evenodd"
         clip-rule="evenodd"
         d="m 711.5,569.8 c 0.7,2.7 2.2,3.5 4.2,3.3 0.8,-2.6 -1.9,-4.5 -4.2,-3.3 z"
         id="path4206" />
      <path
         fill-rule="evenodd"
         clip-rule="evenodd"
         d="m 694.5,426.1 c 2.2,0.3 7,-0.3 6.5,-3.3 -1.8,-0.7 -7.5,0.2 -6.5,3.3 z"
         id="path4208" />
      <path
         fill-rule="evenodd"
         clip-rule="evenodd"
         d="m 693.5,528.8 c 0.5,2.5 3.9,1.2 2.4,-1 -1.6,0.7 -1.6,-0.5 -2.4,1 z"
         id="path4210" />
      <path
         fill-rule="evenodd"
         clip-rule="evenodd"
         d="m 680.5,531.9 c 2.3,9.8 12.7,3.3 10.8,-1.5 -1.3,-3.3 -10.3,-2.6 -10.8,1.5 z"
         id="path4212" />
      <path
         fill-rule="evenodd"
         clip-rule="evenodd"
         d="m 576.6,429.9 v 1.1 c 1,0.5 2,0.3 1.8,-1.3 -0.9,-0.3 -1.4,-0.1 -1.8,0.2 z"
         id="path4214" />
      <path
         fill-rule="evenodd"
         clip-rule="evenodd"
         d="m 468.2,439.8 c -3.4,0.4 -5,5.4 -2.7,8 0.2,-0.2 0.4,0.1 0.6,0.2 3.4,-1.2 4.9,-5.6 2.1,-8.2 z"
         id="path4216" />
      <path
         fill-rule="evenodd"
         clip-rule="evenodd"
         d="m 468.5,525.1 c 0.5,-1.3 0,-2 -1.3,-2.2 -1.4,0.8 -0.1,2.9 1.3,2.2 z"
         id="path4218" />
      <path
         fill-rule="evenodd"
         clip-rule="evenodd"
         d="m 466.6,481.4 c 1.4,0 3.7,-0.4 4.5,-2.3 -1.4,-0.4 -3.7,0.5 -4.5,2.3 z"
         id="path4220" />
      <path
         fill-rule="evenodd"
         clip-rule="evenodd"
         d="m 488.4,513.7 c -0.7,-1 -1.8,-0.9 -2.5,0 0.4,1 2.3,1.5 2.5,0 z"
         id="path4222" />
      <path
         fill-rule="evenodd"
         clip-rule="evenodd"
         d="m 482.3,510.6 c 0,0.6 1,1.6 1.6,1.7 1.4,-1.1 0,-3.6 -1.6,-1.7 z"
         id="path4224" />
      <path
         fill-rule="evenodd"
         clip-rule="evenodd"
         d="m 479.6,514.8 c 0.3,0.2 0.3,0.4 0.2,0.6 1.1,0.9 2.3,0.4 3.4,-0.5 0.9,-2.2 -3.2,-2 -3.6,-0.1 z"
         id="path4226" />
      <path
         fill-rule="evenodd"
         clip-rule="evenodd"
         d="m 626.1,716.8 c -4.5,0.3 -4.7,7.2 -0.1,7.4 6,0.3 4.3,-7.7 0.1,-7.4 z"
         id="path4228" />
      <path
         fill-rule="evenodd"
         clip-rule="evenodd"
         d="m 435,603.1 c 0.1,-0.1 0.2,-0.1 0.3,-0.2 -0.3,-0.8 -0.9,0.2 -0.3,0.2 z"
         id="path4230" />
      <path
         fill-rule="evenodd"
         clip-rule="evenodd"
         d="m 515.3,722.8 c 0.2,0.5 0.5,0.3 0.6,0.9 0.1,-0.2 0.1,-0.3 0.3,-0.4 -0.2,-0.5 -0.5,-0.7 -0.9,-0.5 z"
         id="path4232" />
      <path
         fill-rule="evenodd"
         clip-rule="evenodd"
         d="m 479.6,651.9 c 0.2,0.4 0.4,0.7 0.7,0.4 -0.2,-0.4 -0.4,-0.8 -0.7,-0.4 z"
         id="path4234" />
      <path
         fill-rule="evenodd"
         clip-rule="evenodd"
         d="m 521.1,725.5 c -0.1,0.7 0.6,0.9 0.9,1.1 0.4,-0.5 -0.3,-1.5 -0.9,-1.1 z"
         id="path4236" />
      <path
         fill-rule="evenodd"
         clip-rule="evenodd"
         d="m 540,756.2 c 0.2,0.1 0.4,0.1 0.7,-0.1 0,-0.3 -0.1,-0.5 -0.3,-0.9 -0.2,-0.1 -0.4,0 -0.6,0.2 -0.7,-2.3 -2.6,-3.6 -4.5,-3.5 0.5,2.5 1.4,4.8 4.2,4.9 0.2,-0.3 0.3,-0.5 0.5,-0.6 z"
         id="path4238" />
      <path
         fill-rule="evenodd"
         clip-rule="evenodd"
         d="m 526.8,728.9 c 0,0.6 0.6,1.5 1.1,1.7 1.6,-0.6 -0.1,-2.8 -1.1,-1.7 z"
         id="path4240" />
      <path
         fill-rule="evenodd"
         clip-rule="evenodd"
         d="m 534.8,742 c -0.5,0.6 -0.8,1.2 -0.1,2.2 0.5,-0.6 1.1,-1.2 0.7,-2.1 -0.2,-0.1 -0.4,0.1 -0.6,-0.1 z"
         id="path4242" />
      <path
         fill-rule="evenodd"
         clip-rule="evenodd"
         d="m 533.4,738 c -0.1,0.1 0.1,0.4 -0.1,0.5 0.2,0.3 0.4,0.2 0.7,0 -0.1,-0.5 -0.4,-0.2 -0.6,-0.5 z"
         id="path4244" />
      <path
         fill-rule="evenodd"
         clip-rule="evenodd"
         d="m 560.4,759.9 c -0.3,0.2 -0.1,0.6 0.2,1 0.2,-0.1 0.4,-0.2 0.5,-0.3 -0.2,-0.7 -0.5,-0.5 -0.7,-0.7 z"
         id="path4246" />
      <path
         fill-rule="evenodd"
         clip-rule="evenodd"
         d="m 565.3,758.4 c -0.2,-0.3 -0.5,-0.1 -0.8,0.1 0.1,0.4 0.3,0.4 0.5,0.6 0.4,-0.1 0,-0.5 0.3,-0.7 z"
         id="path4248" />
      <path
         fill-rule="evenodd"
         clip-rule="evenodd"
         d="m 545.5,716.9 c -0.2,-1.3 -1.4,-2 -2.1,-2 -0.1,1.2 1.1,2.3 2.1,2 z"
         id="path4250" />
      <path
         fill-rule="evenodd"
         clip-rule="evenodd"
         d="m 567.4,757.3 c -0.1,1.1 1,2.2 1.6,2.8 0.9,-0.5 -0.5,-2.4 -1,-3 -0.2,0.2 -0.4,0 -0.6,0.2 z"
         id="path4252" />
      <path
         fill-rule="evenodd"
         clip-rule="evenodd"
         d="m 580.1,766 c 0.6,1.1 2,0.9 2.6,-0.2 -0.8,-1.1 -2.3,-1 -2.6,0.2 z"
         id="path4254" />
      <path
         fill-rule="evenodd"
         clip-rule="evenodd"
         d="m 537.7,681.9 c -0.2,-0.6 -0.5,-0.1 -0.7,-0.4 -0.3,0.2 0,0.8 0.3,0.9 0.3,-0.1 0.3,-0.4 0.4,-0.5 z"
         id="path4256" />
      <path
         fill-rule="evenodd"
         clip-rule="evenodd"
         d="m 582.8,748.9 c -1.5,-2.5 -3.9,-1.2 -6,-1.3 -0.8,0 -1.5,-0.6 -2.2,-0.1 -0.2,0.4 -0.2,0.9 0.3,1.5 2.5,0 5.6,2.4 7.9,-0.1 z"
         id="path4258" />
      <path
         fill-rule="evenodd"
         clip-rule="evenodd"
         d="m 587.2,761 c 1,-1.3 -0.5,-2.9 -1.8,-2.7 -0.9,1.1 0.8,2.9 1.8,2.7 z"
         id="path4260" />
      <path
         fill-rule="evenodd"
         clip-rule="evenodd"
         d="m 589.5,761.2 c -0.4,-0.8 -0.9,-0.9 -1.5,-0.8 0,0.3 -0.1,0.5 -0.4,0.7 0.4,0.3 0.8,0.8 1.3,0.7 0.4,-0.1 0.2,-0.4 0.6,-0.6 z"
         id="path4262" />
      <path
         fill-rule="evenodd"
         clip-rule="evenodd"
         d="m 564.9,717.2 c 0.6,-0.5 0.4,-1.2 0.2,-2 -0.5,0.5 -0.8,1.1 -0.2,2 z"
         id="path4264" />
      <path
         fill-rule="evenodd"
         clip-rule="evenodd"
         d="m 594.5,762.5 c 0.1,0.2 0.2,0.3 0.2,0.5 0.2,-0.1 0.4,-0.2 0.5,-0.3 -0.1,-0.5 -0.3,-0.5 -0.7,-0.2 z"
         id="path4266" />
      <path
         fill-rule="evenodd"
         clip-rule="evenodd"
         d="m 583.8,741.5 c 1.1,1.1 2.9,0.9 4.1,-0.3 -0.9,-1.9 -3.4,-0.8 -4.1,0.3 z"
         id="path4268" />
      <path
         fill-rule="evenodd"
         clip-rule="evenodd"
         d="m 595.9,750.1 c 1,0.2 1.8,1.6 2.9,1.5 -1.8,-1.1 -3.3,-3.8 -5.4,-3.8 0.5,0.8 1.1,1.4 1.8,1.6 -0.6,3.4 0.9,8 1.6,12.4 0.2,1.5 -0.2,3.6 1.4,4.2 0.8,-0.7 0.2,-1.9 0,-2.7 -1.4,-4.4 -1.4,-8.8 -2.3,-13.2 z"
         id="path4270" />
      <path
         fill-rule="evenodd"
         clip-rule="evenodd"
         d="m 570.4,702.8 c -0.5,-1.2 -1.2,-1.5 -2,-1.1 0.6,0.8 1.2,1.7 2,1.1 z"
         id="path4272" />
      <path
         fill-rule="evenodd"
         clip-rule="evenodd"
         d="m 601.4,761.7 c 0.7,-0.6 0,-2 -0.8,-1.8 -0.5,0.4 0.1,2 0.8,1.8 z"
         id="path4274" />
      <path
         fill-rule="evenodd"
         clip-rule="evenodd"
         d="m 578.6,712.7 c -0.1,-0.7 -0.7,-0.9 -1.2,-0.9 -1,0.7 0.9,2.3 1.2,0.9 z"
         id="path4276" />
      <path
         fill-rule="evenodd"
         clip-rule="evenodd"
         d="m 582.7,720 c 0.2,0.3 0.4,0.2 0.5,-0.1 -0.1,-0.1 -0.1,-0.2 -0.2,-0.3 -0.2,0.1 -0.1,0.3 -0.3,0.4 z"
         id="path4278" />
      <path
         fill-rule="evenodd"
         clip-rule="evenodd"
         d="m 575.3,698.6 c -0.7,-1.4 -1.8,-1.6 -2.3,-0.7 0.1,1.4 1.7,1.9 2.3,0.7 z"
         id="path4280" />
      <path
         fill-rule="evenodd"
         clip-rule="evenodd"
         d="m 585.4,715.8 c 0.1,-0.3 -0.3,-1 -0.6,-1.1 -0.4,0.1 -0.2,0.4 -0.6,0.6 0.3,0.6 0.7,0.9 1.2,0.5 z"
         id="path4282" />
      <path
         fill-rule="evenodd"
         clip-rule="evenodd"
         d="m 591.9,729 c 0.1,-0.2 0.1,-0.3 0.3,-0.4 -0.2,-0.4 -0.4,-0.8 -0.7,-1.3 -0.2,0.5 -0.3,1.4 0.4,1.7 z"
         id="path4284" />
      <path
         fill-rule="evenodd"
         clip-rule="evenodd"
         d="m 574.2,685.9 c -0.8,2.1 -0.1,4.8 -1.2,6.7 0.3,0.6 0.1,0.7 0.6,1.1 0.6,-0.6 0.7,-1.5 0.7,-2.5 0.5,-0.1 0.1,-1.4 0,-1.7 0,-0.6 0.1,-1.2 0.3,-1.7 -0.7,-0.8 0,-0.9 -0.4,-1.9 z"
         id="path4286" />
      <path
         fill-rule="evenodd"
         clip-rule="evenodd"
         d="m 582.6,700.8 c 0.5,-0.1 0.4,-0.5 0.7,-0.7 -0.7,-2.4 -2.5,0.2 -0.7,0.7 z"
         id="path4288" />
      <path
         fill-rule="evenodd"
         clip-rule="evenodd"
         d="m 590.8,715.3 c -0.2,0.3 0.1,1.1 0.6,0.7 0.1,-0.5 -0.3,-0.5 -0.6,-0.7 z"
         id="path4290" />
      <path
         fill-rule="evenodd"
         clip-rule="evenodd"
         d="m 617.5,765.8 c -0.1,0.6 0.6,0.6 0.9,0.7 0.2,-0.4 -0.5,-1 -0.9,-0.7 z"
         id="path4292" />
      <path
         fill-rule="evenodd"
         clip-rule="evenodd"
         d="m 583.7,687.5 c 0.6,-1.3 0,-3 -0.3,-4.7 -0.1,1.4 -0.8,3.3 0.3,4.7 z"
         id="path4294" />
      <path
         fill-rule="evenodd"
         clip-rule="evenodd"
         d="m 602.6,713.7 c -0.6,-1.3 -1.5,-1.6 -2.4,-1.5 0.2,1.1 1.4,2 2.4,1.5 z"
         id="path4296" />
      <path
         fill-rule="evenodd"
         clip-rule="evenodd"
         d="m 623.5,756.2 c -0.1,0.8 0.8,1.3 1.4,0.6 -0.4,-0.9 -0.8,-0.9 -1.4,-0.6 z"
         id="path4298" />
      <path
         fill-rule="evenodd"
         clip-rule="evenodd"
         d="m 628.9,751.5 c -0.3,-0.6 -1,-0.4 -1.2,0.1 0.1,0.5 0.4,0.3 0.6,0.7 0.2,-0.1 0.4,-0.3 0.7,-0.4 -0.2,-0.2 -0.2,-0.3 -0.1,-0.4 z"
         id="path4300" />
      <path
         fill-rule="evenodd"
         clip-rule="evenodd"
         d="m 607.4,706.8 c 0.6,-0.6 -0.3,-1 -0.6,-1.8 0.2,0.5 -0.1,1.5 0.6,1.8 z"
         id="path4302" />
      <path
         fill-rule="evenodd"
         clip-rule="evenodd"
         d="m 640.9,755.1 c 0.5,0.9 1.6,0.3 1.7,-0.5 -0.4,-0.6 -1.4,-0.2 -1.7,0.5 z"
         id="path4304" />
      <path
         fill-rule="evenodd"
         clip-rule="evenodd"
         d="m 645.6,764 c 0.9,-1 -1.1,-4.4 -2.2,-5.6 -0.7,1.4 1.8,3.4 2.2,5.6 z"
         id="path4306" />
      <path
         fill-rule="evenodd"
         clip-rule="evenodd"
         d="m 630.6,724.2 c -3.3,1.1 1,4.5 1.7,1.9 -0.2,-1.2 -1,-1.4 -1.7,-1.9 z"
         id="path4308" />
      <path
         fill-rule="evenodd"
         clip-rule="evenodd"
         d="m 626.8,713.9 c -0.4,-2.2 -2,-3 -3.7,-1.9 -0.2,1 0.4,1.4 1,2.6 0.9,-0.2 1.9,0.5 2.7,-0.7 z"
         id="path4310" />
      <path
         fill-rule="evenodd"
         clip-rule="evenodd"
         d="m 609.4,684.8 c 0.3,-0.8 -0.4,-1.8 -1.3,-1.1 -0.1,0.9 0.6,1.7 1.3,1.1 z"
         id="path4312" />
      <path
         fill-rule="evenodd"
         clip-rule="evenodd"
         d="m 614.5,690.3 c -0.4,-1.9 -2,-2.1 -3.2,-1.8 -0.3,1.6 1.7,3.3 3.2,1.8 z"
         id="path4314" />
      <path
         fill-rule="evenodd"
         clip-rule="evenodd"
         d="m 644.2,747.9 c 0,0.1 -0.1,0.5 0.1,0.6 0.4,0.1 0.3,-1.2 -0.1,-0.6 z"
         id="path4316" />
      <path
         fill-rule="evenodd"
         clip-rule="evenodd"
         d="m 641.5,733.8 c -0.5,0.1 -0.6,0.2 -0.7,0.7 0.1,0.1 0.3,0.2 0.4,0.4 0.5,-0.2 0.7,-0.6 0.3,-1.1 z"
         id="path4318" />
      <path
         fill-rule="evenodd"
         clip-rule="evenodd"
         d="m 637.9,712.3 c 0.2,0.6 0.5,0.4 0.9,0.3 0.2,-0.7 -0.8,-1 -0.9,-0.3 z"
         id="path4320" />
      <path
         fill-rule="evenodd"
         clip-rule="evenodd"
         d="m 637.5,708.4 c -0.9,0.4 -0.5,1.2 0.1,1.9 0.9,-0.3 0.5,-1.6 -0.1,-1.9 z"
         id="path4322" />
      <path
         fill-rule="evenodd"
         clip-rule="evenodd"
         d="m 650.5,717.9 c -1.5,-2.4 -3.9,-2.8 -5.7,-1.7 1.3,2.1 3,3.8 5.5,2.4 0,-0.3 0,-0.5 0.2,-0.7 z"
         id="path4324" />
      <path
         fill-rule="evenodd"
         clip-rule="evenodd"
         d="m 648.7,720.5 c -0.2,2.4 3.9,3.9 4.7,1.2 -0.8,-2.2 -2.9,-2.2 -4.7,-1.2 z"
         id="path4326" />
      <path
         fill-rule="evenodd"
         clip-rule="evenodd"
         d="m 612,642.8 c -0.2,0.3 -0.3,0.7 0.1,1.2 0.2,-0.3 0.3,-1.1 -0.1,-1.2 z"
         id="path4328" />
      <path
         fill-rule="evenodd"
         clip-rule="evenodd"
         d="m 640.4,697.1 c 1.3,2.3 3.9,5.5 6,3.6 -0.6,-2.4 -5,-5.2 -6,-3.6 z"
         id="path4330" />
      <path
         fill-rule="evenodd"
         clip-rule="evenodd"
         d="m 655.1,716.6 -1.5,-0.9 c 0.4,0.4 1.4,2.2 1.5,0.9 z"
         id="path4332" />
      <path
         fill-rule="evenodd"
         clip-rule="evenodd"
         d="m 651,709.9 c 0.1,0.3 0.3,0.5 0.4,0.8 1,-0.3 0.3,-1.6 -0.4,-0.8 z"
         id="path4334" />
      <path
         fill-rule="evenodd"
         clip-rule="evenodd"
         d="m 654.4,714.5 c 0.2,-0.3 0,-0.8 -0.3,-1.3 -0.1,0.4 0.1,0.9 0.3,1.3 z"
         id="path4336" />
      <path
         fill-rule="evenodd"
         clip-rule="evenodd"
         d="m 653.7,713 c 0.6,0.1 -0.2,-1.4 -0.3,-1.9 -0.5,0.4 0.4,1.3 0.3,1.9 z"
         id="path4338" />
      <path
         fill-rule="evenodd"
         clip-rule="evenodd"
         d="m 652.5,708.1 c 0,1.5 1.3,2.1 2,1.1 -0.5,-1.3 -1.1,-1.9 -2,-1.1 z"
         id="path4340" />
      <path
         fill-rule="evenodd"
         clip-rule="evenodd"
         d="m 635.3,673.2 c 0,1.5 1.6,2.9 2.9,1.8 0.2,-1.7 -1.5,-3.3 -2.9,-1.8 z"
         id="path4342" />
      <path
         fill-rule="evenodd"
         clip-rule="evenodd"
         d="m 656.2,709.7 c 0.5,-0.1 -0.1,-0.6 -0.2,-1 0,0.3 0.2,0.7 0.2,1 z"
         id="path4344" />
      <path
         fill-rule="evenodd"
         clip-rule="evenodd"
         d="m 642.9,673.4 c 0.3,-0.3 0.4,-0.7 0.3,-1.2 1,0.2 2.2,-0.4 2.8,-1.4 0.1,0 0.1,0 0.2,0.1 4.3,0.4 2.7,-6 -0.8,-4.4 -1.4,0.6 -1.5,2.5 -0.6,3.6 -0.7,0.3 -1.4,0.9 -1.7,1.6 -0.2,-0.7 -0.6,-1.4 -1,-1.9 -0.1,0 -0.3,0.1 -0.4,0.2 -0.1,-0.2 -0.2,-0.4 -0.4,-0.4 0,0.4 -0.3,0.5 -0.2,0.9 -0.4,0.4 -0.8,0.7 -1.4,0.8 -0.1,0.9 0.2,1.3 0.8,2.2 0.7,-0.4 1.9,0.3 2.4,-0.1 z"
         id="path4346" />
      <path
         fill-rule="evenodd"
         clip-rule="evenodd"
         d="m 642.2,675.5 c 0.8,-0.3 0.4,-1.5 -0.1,-1.6 -0.8,0.3 -0.4,1.3 0.1,1.6 z"
         id="path4348" />
      <path
         fill-rule="evenodd"
         clip-rule="evenodd"
         d="m 653.8,682.7 c -0.8,0.3 -0.5,0.9 0,1.3 0.8,-0.2 0.5,-0.9 0,-1.3 z"
         id="path4350" />
      <path
         fill-rule="evenodd"
         clip-rule="evenodd"
         d="m 642.7,658.4 c -0.1,-0.6 -0.3,-0.9 -0.7,-1 -0.4,0.5 0.1,1.4 0.7,1 z"
         id="path4352" />
      <path
         fill-rule="evenodd"
         clip-rule="evenodd"
         d="m 643,625.5 c 0,-0.9 -1,-1.5 -1.4,-2.7 0,0.7 0.9,2.2 1.4,2.7 z"
         id="path4354" />
      <path
         fill-rule="evenodd"
         clip-rule="evenodd"
         d="m 655.5,645.3 c -0.4,0.2 0.1,1 0.4,1 0.3,-0.4 -0.3,-0.3 -0.4,-1 z"
         id="path4356" />
      <path
         fill-rule="evenodd"
         clip-rule="evenodd"
         d="m 654.5,638.5 c -0.2,0.4 0.5,1.1 0.7,1.7 0.5,-0.3 -0.5,-1.6 -0.7,-1.7 z"
         id="path4358" />
      <path
         fill-rule="evenodd"
         clip-rule="evenodd"
         d="m 656.9,642.3 c -0.3,0.3 0.4,0.8 0.5,1.2 0.3,-0.4 -0.4,-0.5 -0.5,-1.2 z"
         id="path4360" />
      <path
         fill-rule="evenodd"
         clip-rule="evenodd"
         d="m 641.3,601.5 c 0,0.1 -0.1,0.5 0.1,0.6 0.4,0.1 0.3,-1.2 -0.1,-0.6 z"
         id="path4362" />
      <path
         fill-rule="evenodd"
         clip-rule="evenodd"
         d="m 658.5,607.5 c 0.1,-0.1 0.2,-0.1 0.3,-0.2 -0.4,-0.9 -0.9,0.2 -0.3,0.2 z"
         id="path4364" />
      <path
         fill-rule="evenodd"
         clip-rule="evenodd"
         d="m 633.8,666.7 c -1.4,-2.3 -2.2,-4.4 -3.4,-7.2 -1.3,-2.9 -1.8,-7 -3,-10.4 -0.5,-1.5 -1.3,-2.7 -1.6,-4.1 -0.1,-0.6 0,-1.2 -0.2,-1.8 -0.6,-1.6 -1.9,-2.9 -2.7,-4.5 0.8,-0.3 1.2,-1.1 0.4,-2.4 -0.5,-0.3 -1.2,0 -1.9,0.4 -0.2,-0.6 -0.5,-1.3 -0.9,-1.6 -0.8,1.9 0.3,3.9 0.8,5.6 0.6,1.9 0.4,4.1 1.3,6.2 0.5,0.2 1,0.2 1.4,-0.4 -0.5,1.6 0.8,5.2 1.3,7.9 0.3,1.2 0.3,3 1.9,3 1,1.4 2,3.1 2.8,5.2 0.8,2.2 1,4.9 1.7,6.2 0.5,1 1.5,2.3 2.3,1.9 1.3,-0.7 -0.5,-2.7 -0.2,-4 z m -11.5,-25.4 c 0.6,1.2 1,2.3 1.1,3.4 -0.8,-1.1 -1,-2.2 -1.1,-3.4 z"
         id="path4366" />
      <path
         fill-rule="evenodd"
         clip-rule="evenodd"
         d="m 412.2,692.2 c -0.1,0.6 0.3,0.5 0.3,1.1 0.1,-0.1 0.2,-0.2 0.5,-0.2 -0.1,-0.6 -0.4,-0.9 -0.8,-0.9 z"
         id="path4368" />
      <path
         fill-rule="evenodd"
         clip-rule="evenodd"
         d="m 406,612.8 c 0,0.5 0.1,0.8 0.5,0.7 0,-0.5 0,-0.9 -0.5,-0.7 z"
         id="path4370" />
      <path
         fill-rule="evenodd"
         clip-rule="evenodd"
         d="m 421.1,764.8 c -0.3,0.4 0.1,1.5 0.1,2.2 0.4,-0.6 1.3,0.3 1.7,-0.3 -0.1,-1.3 -1.1,-1.4 -1.8,-1.9 z"
         id="path4372" />
      <path
         fill-rule="evenodd"
         clip-rule="evenodd"
         d="m 416.6,697.4 c -0.3,0.5 0.2,1.1 0.5,1.4 0.4,-0.3 0.1,-1.4 -0.5,-1.4 z"
         id="path4374" />
      <path
         fill-rule="evenodd"
         clip-rule="evenodd"
         d="m 423.1,733.8 c 0.1,-0.2 0.2,-0.5 0.1,-0.9 -0.2,-0.2 -0.8,-0.2 -0.9,0 0,0.7 0.3,1 0.8,0.9 z"
         id="path4376" />
      <path
         fill-rule="evenodd"
         clip-rule="evenodd"
         d="m 420.6,703.2 c -0.3,0.5 0,1.6 0.3,2 1.8,0.3 1,-2.5 -0.3,-2 z"
         id="path4378" />
      <path
         fill-rule="evenodd"
         clip-rule="evenodd"
         d="m 423.5,719 c -0.1,-0.2 -0.4,-0.1 -0.5,-0.3 -0.7,0.2 -1.2,0.7 -0.9,1.8 0.7,-0.3 1.5,-0.4 1.4,-1.5 z"
         id="path4380" />
      <path
         fill-rule="evenodd"
         clip-rule="evenodd"
         d="m 414.7,631.7 c 0.3,-0.4 -0.1,-1 -0.6,-0.9 0.1,0.6 0.1,1 0.6,0.9 z"
         id="path4382" />
      <path
         fill-rule="evenodd"
         clip-rule="evenodd"
         d="m 423.6,715.2 c 0.1,-0.5 -0.3,-0.3 -0.4,-0.7 -0.2,0.1 -0.1,0.4 -0.3,0.4 0.2,0.3 0.4,0.4 0.7,0.3 z"
         id="path4384" />
      <path
         fill-rule="evenodd"
         clip-rule="evenodd"
         d="m 409.9,558.6 c 0.1,0.6 0.7,1 1.1,0.5 0.1,-1 -0.8,-1.1 -1.1,-0.5 z"
         id="path4386" />
      <path
         fill-rule="evenodd"
         clip-rule="evenodd"
         d="m 419.4,646.5 c -0.1,0.2 -0.2,0.5 -0.1,0.9 0.4,0 0.6,0 0.8,-0.2 0,-0.4 -0.3,-0.7 -0.7,-0.7 z"
         id="path4388" />
      <path
         fill-rule="evenodd"
         clip-rule="evenodd"
         d="m 440,747 c -0.3,0 -0.3,0.5 -0.2,0.9 0.2,0 0.4,0 0.6,0 0.1,-0.6 -0.3,-0.5 -0.4,-0.9 z"
         id="path4390" />
      <path
         fill-rule="evenodd"
         clip-rule="evenodd"
         d="m 444.3,747.9 c 0,0.4 0.2,0.5 0.2,0.7 0.4,0.1 0.3,-0.4 0.6,-0.4 0,-0.3 -0.4,-0.3 -0.8,-0.3 z"
         id="path4392" />
      <path
         fill-rule="evenodd"
         clip-rule="evenodd"
         d="m 441.3,699.4 c -0.5,1 0.2,2.6 1.2,2.8 0.4,-1.1 -0.4,-2.3 -1.2,-2.8 z"
         id="path4394" />
      <path
         fill-rule="evenodd"
         clip-rule="evenodd"
         d="m 447.5,748.3 c -0.6,0.9 0.1,2.4 0.5,3.2 1,0 0.4,-2.3 0.2,-3.1 -0.3,0.1 -0.4,-0.1 -0.7,-0.1 z"
         id="path4396" />
      <path
         fill-rule="evenodd"
         clip-rule="evenodd"
         d="m 444.3,659.2 c 0,0.5 0.1,0.8 0.5,0.7 0,-0.5 -0.1,-0.8 -0.5,-0.7 z"
         id="path4398" />
      <path
         fill-rule="evenodd"
         clip-rule="evenodd"
         d="m 442.6,603.5 c 0.3,-1.5 -0.7,-2.9 -2,-2.8 -0.5,1.3 0.8,2.5 2,2.8 z"
         id="path4400" />
      <path
         fill-rule="evenodd"
         clip-rule="evenodd"
         d="m 456.1,762.2 c 0.1,1.2 1.5,1.8 2.5,1.2 -0.3,-1.4 -1.8,-2 -2.5,-1.2 z"
         id="path4402" />
      <path
         fill-rule="evenodd"
         clip-rule="evenodd"
         d="m 448.2,667.4 c -0.4,0 -0.3,0.7 -0.1,0.9 0.3,0.1 0.4,-0.1 0.6,-0.2 0.1,-0.6 -0.4,-0.4 -0.5,-0.7 z"
         id="path4404" />
      <path
         fill-rule="evenodd"
         clip-rule="evenodd"
         d="m 457.7,745 c 2.4,1.2 4.4,4.9 7.4,3.8 -0.5,-2.9 -3.2,-3 -5.1,-4.1 -0.7,-0.4 -1.1,-1.2 -2,-1.2 -0.4,0.3 -0.5,0.7 -0.3,1.5 z"
         id="path4406" />
      <path
         fill-rule="evenodd"
         clip-rule="evenodd"
         d="m 442.3,566.3 c 0,0.2 0.3,0.1 0.5,0.2 0,-0.3 -0.2,-0.3 -0.2,-0.5 -0.2,-0.1 -0.1,0.2 -0.3,0.3 z"
         id="path4408" />
      <path
         fill-rule="evenodd"
         clip-rule="evenodd"
         d="m 464,758.3 c -1.3,0.5 -0.4,2.9 0.6,3.2 1.4,-0.6 0.7,-2.7 -0.6,-3.2 z"
         id="path4410" />
      <path
         fill-rule="evenodd"
         clip-rule="evenodd"
         d="m 450.2,619 c 0,0.7 0.3,1.1 0.9,1 0.2,-0.3 0.1,-1 -0.1,-1.3 -0.4,0.1 -0.6,0.2 -0.8,0.3 z"
         id="path4412" />
      <path
         fill-rule="evenodd"
         clip-rule="evenodd"
         d="m 463.9,750.9 c 0.4,0 0.7,-0.1 0.6,-0.6 -0.1,-0.1 -0.3,-0.2 -0.5,-0.2 -0.2,0.2 -0.2,0.5 -0.1,0.8 z"
         id="path4414" />
      <path
         fill-rule="evenodd"
         clip-rule="evenodd"
         d="m 466.6,762.9 c 0,-0.9 -0.5,-1.2 -1.1,-1.4 -0.1,0.2 -0.3,0.3 -0.6,0.4 0.3,0.4 0.4,1.1 0.9,1.2 0.5,0.1 0.4,-0.3 0.8,-0.2 z"
         id="path4416" />
      <path
         fill-rule="evenodd"
         clip-rule="evenodd"
         d="m 460.6,712.4 c 0.8,-0.1 0.9,-0.9 0.9,-1.7 -0.6,0.2 -1.1,0.6 -0.9,1.7 z"
         id="path4418" />
      <path
         fill-rule="evenodd"
         clip-rule="evenodd"
         d="m 470.9,766.5 c 0,0.2 0,0.4 0.1,0.5 0.2,0 0.4,0 0.6,0 -0.1,-0.5 -0.3,-0.6 -0.7,-0.5 z"
         id="path4420" />
      <path
         fill-rule="evenodd"
         clip-rule="evenodd"
         d="m 472.8,744.7 c -0.1,-2.1 -2.9,-2.4 -3.9,-1.8 0.5,1.5 2.4,2.3 3.9,1.8 z"
         id="path4422" />
      <path
         fill-rule="evenodd"
         clip-rule="evenodd"
         d="m 471.2,702.7 c 0,-1.3 -0.5,-1.8 -1.4,-1.9 0.2,0.9 0.4,1.9 1.4,1.9 z"
         id="path4424" />
      <path
         fill-rule="evenodd"
         clip-rule="evenodd"
         d="m 466.9,647.2 c 0,0.2 0,0.5 0.1,0.7 0.2,0 0.4,0 0.6,0 0,-0.5 -0.2,-0.8 -0.7,-0.7 z"
         id="path4426" />
      <path
         fill-rule="evenodd"
         clip-rule="evenodd"
         d="m 475.1,715.4 c 0.2,-0.7 -0.3,-1.1 -0.8,-1.4 -1.2,0.1 -0.1,2.4 0.8,1.4 z"
         id="path4428" />
      <path
         fill-rule="evenodd"
         clip-rule="evenodd"
         d="m 476.6,724 c 0,-0.1 0,-0.2 0,-0.4 -0.3,0 -0.3,0.2 -0.4,0.2 0,0.4 0.2,0.4 0.4,0.2 z"
         id="path4430" />
      <path
         fill-rule="evenodd"
         clip-rule="evenodd"
         d="m 475.5,699.8 c -0.4,1.2 0.9,2.4 1.9,1.7 -0.2,-1.5 -1.1,-2.2 -1.9,-1.7 z"
         id="path4432" />
      <path
         fill-rule="evenodd"
         clip-rule="evenodd"
         d="m 479.3,720.4 c 0,0.7 0.3,1.1 0.9,1 0.2,-0.3 0.1,-1 -0.1,-1.3 -0.5,0 -0.4,0.4 -0.8,0.3 z"
         id="path4434" />
      <path
         fill-rule="evenodd"
         clip-rule="evenodd"
         d="m 481.2,736.3 c 0.1,-0.1 0.2,-0.2 0.5,-0.2 0,-0.5 -0.1,-1 -0.1,-1.4 -0.4,0.2 -0.9,0.9 -0.4,1.6 z"
         id="path4436" />
      <path
         fill-rule="evenodd"
         clip-rule="evenodd"
         d="m 477.5,695.2 c 0,0.7 -0.1,0.7 0.1,1.3 1.8,-0.6 1.7,-3.6 3.1,-4.7 -0.2,-1.1 0.4,-0.8 0.4,-1.8 -1.4,1.4 -1.8,4.1 -3.6,5.2 z"
         id="path4438" />
      <path
         fill-rule="evenodd"
         clip-rule="evenodd"
         d="m 483.4,707.1 c 0.5,0.1 0.6,-0.2 0.9,-0.2 0.2,-2.5 -2.4,-1.2 -0.9,0.2 z"
         id="path4440" />
      <path
         fill-rule="evenodd"
         clip-rule="evenodd"
         d="m 485.7,724.7 c 0.3,-0.4 -0.1,-0.6 -0.2,-0.9 -0.4,0.2 -0.4,1 0.2,0.9 z"
         id="path4442" />
      <path
         fill-rule="evenodd"
         clip-rule="evenodd"
         d="m 490.9,691.9 c -0.6,1.2 -2,2.4 -1.5,4.2 1.1,-0.8 1.2,-2.6 1.5,-4.2 z"
         id="path4444" />
      <path
         fill-rule="evenodd"
         clip-rule="evenodd"
         d="m 495.4,725.9 c -0.1,1 0.6,2.4 1.6,2.5 -0.1,-1.5 -0.8,-2.1 -1.6,-2.5 z"
         id="path4446" />
      <path
         fill-rule="evenodd"
         clip-rule="evenodd"
         d="m 504.2,724.8 c 0.8,-0.2 0.1,-1 0.1,-1.8 -0.1,0.5 -0.7,1.3 -0.1,1.8 z"
         id="path4448" />
      <path
         fill-rule="evenodd"
         clip-rule="evenodd"
         d="m 520,754.1 c 0.3,-1.1 -0.4,-1.8 -0.9,-2.5 -3.5,-0.7 -0.7,4.5 0.9,2.5 z"
         id="path4450" />
      <path
         fill-rule="evenodd"
         clip-rule="evenodd"
         d="m 519.5,740.8 c 0.5,-2.1 -0.7,-3.6 -2.7,-3.5 -0.6,0.7 -0.1,1.4 0,2.7 0.9,0.3 1.5,1.4 2.7,0.8 z"
         id="path4452" />
      <path
         fill-rule="evenodd"
         clip-rule="evenodd"
         d="m 513.7,705.3 c -0.5,0.7 -0.1,1.7 0.8,1.6 0.5,-0.6 0.3,-1.8 -0.8,-1.6 z"
         id="path4454" />
      <path
         fill-rule="evenodd"
         clip-rule="evenodd"
         d="m 514.7,711 c -0.8,1.2 0.4,3.7 2.3,3.2 0.4,-1.9 -1,-2.9 -2.3,-3.2 z"
         id="path4456" />
      <path
         fill-rule="evenodd"
         clip-rule="evenodd"
         d="m 524.7,765.7 c 0.1,0.1 0.2,0.3 0.2,0.5 0.5,0.1 0.9,-0.1 0.7,-0.8 -0.5,-0.1 -0.6,-0.1 -0.9,0.3 z"
         id="path4458" />
      <path
         fill-rule="evenodd"
         clip-rule="evenodd"
         d="m 519.4,693.1 c -0.9,-0.1 -1,1.3 -0.6,2 1,0 0.8,-1 0.6,-2 z"
         id="path4460" />
      <path
         fill-rule="evenodd"
         clip-rule="evenodd"
         d="m 530.5,745 c 0,0.6 0.3,0.6 0.7,0.7 0.4,-0.5 -0.3,-1.3 -0.7,-0.7 z"
         id="path4462" />
      <path
         fill-rule="evenodd"
         clip-rule="evenodd"
         d="m 530.9,743 c 1,0.3 1,-1 0.6,-1.6 -0.9,-0.1 -0.9,0.8 -0.6,1.6 z"
         id="path4464" />
      <path
         fill-rule="evenodd"
         clip-rule="evenodd"
         d="m 537.4,757.6 c -1.1,2 2.2,5.3 3.9,3.4 0.1,-2.3 -1.9,-3.4 -3.9,-3.4 z"
         id="path4466" />
      <path
         fill-rule="evenodd"
         clip-rule="evenodd"
         d="m 538.6,733.1 c 0.3,2.6 1.5,6.7 4.2,6.1 0.4,-2.3 -2.7,-7 -4.2,-6.1 z"
         id="path4468" />
      <path
         fill-rule="evenodd"
         clip-rule="evenodd"
         d="m 545.6,763.7 c 0.3,-2.1 -1.4,-3.9 -0.8,-6.3 -0.6,1.1 -0.8,-1 -1.1,-1.6 -0.4,2.7 1.4,4.9 1,7.2 0.4,0.2 0.4,0.8 0.9,0.7 z"
         id="path4470" />
      <path
         fill-rule="evenodd"
         clip-rule="evenodd"
         d="m 543.6,749.5 c 0,0.3 0.1,0.6 0.1,0.9 1,0.3 0.9,-1.2 -0.1,-0.9 z"
         id="path4472" />
      <path
         fill-rule="evenodd"
         clip-rule="evenodd"
         d="m 545,755.3 c 0.3,-0.2 0.3,-0.7 0.2,-1.3 -0.3,0.3 -0.2,0.8 -0.2,1.3 z"
         id="path4474" />
      <path
         fill-rule="evenodd"
         clip-rule="evenodd"
         d="m 545.4,751.8 c -0.6,0.1 -0.1,1.4 -0.4,1.8 0.4,0.4 0.3,-1.2 0.4,-1.8 z"
         id="path4476" />
      <path
         fill-rule="evenodd"
         clip-rule="evenodd"
         d="m 545.7,748.7 c -0.6,1.3 0.4,2.4 1.4,1.9 0.1,-1.2 -0.2,-2.1 -1.4,-1.9 z"
         id="path4478" />
      <path
         fill-rule="evenodd"
         clip-rule="evenodd"
         d="m 545,712.8 c 0.8,-1.2 -0.2,-3.5 -2,-3 -0.5,1.3 0.4,3.3 2,3 z"
         id="path4480" />
      <path
         fill-rule="evenodd"
         clip-rule="evenodd"
         d="m 548.6,752 c 0.5,0.2 0.2,-0.6 0.2,-0.9 -0.2,0.2 -0.2,0.6 -0.2,0.9 z"
         id="path4482" />
      <path
         fill-rule="evenodd"
         clip-rule="evenodd"
         d="m 551.4,765.1 c -0.4,-1.9 -1,-3.5 -1.7,-5 0.2,1.3 0.3,4.5 1.7,5 z"
         id="path4484" />
      <path
         fill-rule="evenodd"
         clip-rule="evenodd"
         d="m 547.8,710.3 c -0.4,0.7 -0.3,1.3 -0.1,2.4 0.9,0 1.7,1.3 2.3,1.2 1.1,-0.3 0.9,-2.3 0.6,-3.6 -0.8,-0.3 -1.8,0.5 -2.8,0 z"
         id="path4486" />
      <path
         fill-rule="evenodd"
         clip-rule="evenodd"
         d="m 549.1,713.9 c -0.8,-0.2 -0.9,0.9 -0.5,1.5 0.9,0.1 0.9,-1.2 0.5,-1.5 z"
         id="path4488" />
      <path
         fill-rule="evenodd"
         clip-rule="evenodd"
         d="m 556.1,728.6 c 0.8,0.1 0.8,-0.6 0.5,-1.1 -0.8,-0.2 -0.8,0.6 -0.5,1.1 z"
         id="path4490" />
      <path
         fill-rule="evenodd"
         clip-rule="evenodd"
         d="m 559.4,757.4 c -0.1,0.5 0.3,0.5 0.2,0.9 0.1,-0.1 0.2,-0.2 0.4,-0.2 0.1,-0.6 -0.1,-0.8 -0.6,-0.7 z"
         id="path4492" />
      <path
         fill-rule="evenodd"
         clip-rule="evenodd"
         d="m 555.3,699.5 c -0.5,0.2 -0.5,1.3 0.3,1.2 0.1,-0.5 0.1,-0.8 -0.3,-1.2 z"
         id="path4494" />
      <path
         fill-rule="evenodd"
         clip-rule="evenodd"
         d="m 561.6,750.8 c 0.4,-0.6 -0.4,-0.8 -0.4,-1.4 -0.4,0.2 -0.2,1.5 0.4,1.4 z"
         id="path4496" />
      <path
         fill-rule="evenodd"
         clip-rule="evenodd"
         d="m 560.3,681.8 c -0.9,-3 0,-7.6 -1.1,-10.8 -1.4,2.9 0,7.1 0.1,10.8 0,1.4 -0.5,2.9 0.7,3.9 1.4,-0.8 0.7,-2.6 0.3,-3.9 z"
         id="path4498" />
      <path
         fill-rule="evenodd"
         clip-rule="evenodd"
         d="m 560.8,675.8 c 0.3,-0.5 0.3,-2.1 -0.4,-2.3 -0.1,0.6 -0.1,2 0.4,2.3 z"
         id="path4500" />
      <path
         fill-rule="evenodd"
         clip-rule="evenodd"
         d="m 570.7,683 c 0.1,0 0.3,0 0.4,-0.1 1.4,-2.8 0.3,-4.5 -1.8,-5.4 -0.2,-1.2 -0.5,-2.4 -0.7,-3.5 -0.4,0 -0.5,-0.3 -1,-0.1 0,1.1 0.1,2.1 0.2,3.1 -2.5,-0.7 -5.6,-0.6 -7.4,-0.1 -2.4,4 4.3,6.1 8.7,6.2 0,0 0,0 0,0.1 0.2,0.1 0.4,0.3 0.5,0.4 0.1,-0.1 0.1,-0.2 0.2,-0.2 0.1,0.2 0.2,0.4 0.3,0.6 0.4,1.4 0.1,4 1.8,3.9 1.1,-1.3 -0.4,-2.6 -0.9,-3.9 -0.1,-0.4 -0.2,-0.7 -0.3,-1 z"
         id="path4502" />
      <path
         fill-rule="evenodd"
         clip-rule="evenodd"
         d="m 568.2,669.4 c -0.2,0.6 0,2.4 0.3,3.1 0.4,-0.9 -0.4,-1.9 -0.3,-3.1 z"
         id="path4504" />
      <path
         fill-rule="evenodd"
         clip-rule="evenodd"
         d="m 572.4,697 c 0.5,-0.2 0,-0.4 0.1,-1.1 -0.5,0 -0.3,0.9 -0.1,1.1 z"
         id="path4506" />
      <path
         fill-rule="evenodd"
         clip-rule="evenodd"
         d="m 574.9,695.3 c 0.6,-0.2 -0.1,-0.6 0,-1.3 -0.3,0.1 0.1,0.9 0,1.3 z"
         id="path4508" />
      <path
         fill-rule="evenodd"
         clip-rule="evenodd"
         d="m 582.5,750.2 c -1.2,0.4 -0.4,2.7 0,3.6 0.7,-0.4 0.9,-1.3 1.4,-1.9 -0.2,-0.9 -0.9,-1.2 -1.4,-1.7 z"
         id="path4510" />
      <path
         fill-rule="evenodd"
         clip-rule="evenodd"
         d="m 576.5,686.3 c 0.3,1.3 0.2,2.9 0.8,3.8 1.2,-0.5 -0.1,-3.1 -0.8,-3.8 z"
         id="path4512" />
      <path
         fill-rule="evenodd"
         clip-rule="evenodd"
         d="m 582.7,732 c 1.7,-1 0.9,-3.8 -0.5,-5 -0.4,0 -0.7,0 -1.1,0 -0.9,1.5 0.1,4.5 1.6,5 z"
         id="path4514" />
      <path
         fill-rule="evenodd"
         clip-rule="evenodd"
         d="m 584.6,727 c 1.8,-0.9 0.4,-4.4 -1.5,-4.3 -0.8,1.7 -0.1,3.5 1.5,4.3 z"
         id="path4516" />
      <path
         fill-rule="evenodd"
         clip-rule="evenodd"
         d="m 586.6,716.1 c -0.2,0 -0.3,0 -0.5,0 -0.1,0.6 0.8,0.5 0.5,0 z"
         id="path4518" />
      <path
         fill-rule="evenodd"
         clip-rule="evenodd"
         d="m 599.5,724.8 c -1,-0.2 -0.9,1.8 -0.1,2 1.2,0.1 0.6,-1.7 0.1,-2 z"
         id="path4520" />
      <path
         fill-rule="evenodd"
         clip-rule="evenodd"
         d="m 618,686.8 c 0.3,-0.5 0.2,-0.9 -0.1,-1.4 -1.4,-0.4 -0.9,1.6 0.1,1.4 z"
         id="path4522" />
      <path
         fill-rule="evenodd"
         clip-rule="evenodd"
         d="m 618.7,689.5 c 0.6,-2.8 -2.4,-0.3 0,0 z"
         id="path4524" />
      <path
         fill-rule="evenodd"
         clip-rule="evenodd"
         d="m 624.3,668.1 c 0,0.9 1.3,4.7 2.7,4.8 2.6,0.1 2.1,-7.5 -1,-7.4 -1.3,0 -1.7,0.8 -1.7,2.6 z"
         id="path4526" />
      <path
         fill-rule="evenodd"
         clip-rule="evenodd"
         d="m 658,636.7 c -0.1,0.1 -0.3,0.2 -0.4,0.3 0.1,-1.1 -1.6,-2.5 -2.3,-2.7 0.7,1 1.3,2.5 2.1,3 -0.6,1 -0.6,2.5 0.5,2.8 1,-0.4 1.4,-3.1 0.1,-3.4 z"
         id="path4528" />
      <path
         fill-rule="evenodd"
         clip-rule="evenodd"
         d="m 657,640.3 c -0.5,0.3 -0.9,0.7 -0.8,1.6 0.4,-0.1 0.3,0.3 0.8,0.1 0.4,-0.3 0.5,-0.9 0.7,-1.4 -0.3,0 -0.6,-0.1 -0.7,-0.3 z"
         id="path4530" />
      <path
         fill-rule="evenodd"
         clip-rule="evenodd"
         d="m 652.9,658.4 c 0.4,-0.2 0.4,0.2 0.8,0.1 0.3,-0.3 0.6,-0.5 0.5,-1.2 -0.7,-0.2 -1.4,0 -1.3,1.1 z"
         id="path4532" />
      <path
         fill-rule="evenodd"
         clip-rule="evenodd"
         d="m 652.2,647 c 0.2,0 0.4,-0.1 0.6,-0.1 0,-0.2 0,-0.4 0,-0.6 -0.5,0.1 -0.7,0.2 -0.6,0.7 z"
         id="path4534" />
      <path
         fill-rule="evenodd"
         clip-rule="evenodd"
         d="m 652.4,655.8 c -0.1,0.2 -0.2,0.5 -0.1,1 0.3,-0.1 0.3,0.2 0.6,0.1 0,-0.3 0,-0.4 0.1,-0.6 -0.3,0 -0.3,-0.5 -0.6,-0.5 z"
         id="path4536" />
      <path
         fill-rule="evenodd"
         clip-rule="evenodd"
         d="m 643.8,640.6 c 0.9,-0.7 0.8,-2.4 1.6,-3.3 1.5,4.1 3.7,7.8 4.8,12.3 0.2,0.8 0.4,2.2 1.3,2.2 0.9,-1.6 -0.4,-3 -1,-4.4 -1.7,-4 -2.7,-8.8 -4.9,-11.1 0.4,-0.6 0.6,-1.5 0.6,-2.5 -1.6,1.4 -1.5,4.6 -2.4,6.8 z"
         id="path4538" />
      <path
         fill-rule="evenodd"
         clip-rule="evenodd"
         d="m 652.7,675.5 c -0.9,1.2 -1,4.4 0.3,5 0.7,-1.1 1,-3.9 -0.3,-5 z"
         id="path4540" />
      <path
         fill-rule="evenodd"
         clip-rule="evenodd"
         d="m 649.8,669.4 c 0.1,0.4 0.2,0.8 0.5,0.9 0.2,-0.3 0.2,-0.9 -0.1,-1.1 -0.2,-0.1 -0.3,0.1 -0.4,0.2 z"
         id="path4542" />
      <path
         fill-rule="evenodd"
         clip-rule="evenodd"
         d="m 646.8,650.4 c 0.7,-0.3 0.4,-2 -0.3,-2 -0.7,0.5 -0.6,2 0.3,2 z"
         id="path4544" />
      <path
         fill-rule="evenodd"
         clip-rule="evenodd"
         d="m 646.6,674.4 c 0.2,0 0.3,0 0.5,0.1 0,-0.3 0.2,-0.4 0.1,-0.8 -0.4,0 -0.6,0.2 -0.6,0.7 z"
         id="path4546" />
      <path
         fill-rule="evenodd"
         clip-rule="evenodd"
         d="m 640.6,595.1 c 1,0.9 1.7,-1.7 0.5,-1.6 -0.4,0.4 -0.8,1 -0.5,1.6 z"
         id="path4548" />
      <path
         fill-rule="evenodd"
         clip-rule="evenodd"
         d="m 639.4,676.4 c 0,0.5 0,1.1 0.2,1.3 0.6,-0.2 0.8,-1.7 -0.2,-1.3 z"
         id="path4550" />
      <path
         fill-rule="evenodd"
         clip-rule="evenodd"
         d="m 635.8,664.9 c -0.4,0 -0.7,1 -0.4,1.2 0.2,-0.3 0.7,-0.8 0.4,-1.2 z"
         id="path4552" />
      <path
         fill-rule="evenodd"
         clip-rule="evenodd"
         d="m 626.2,661.2 c -0.7,0.1 -1,0.5 -0.8,1.4 0.8,0.2 1.3,-0.7 0.8,-1.4 z"
         id="path4554" />
      <path
         fill-rule="evenodd"
         clip-rule="evenodd"
         d="m 619.3,683.7 c -0.2,0.3 -0.4,1.2 -0.1,1.5 0.4,0.1 0.4,-0.3 0.7,-0.3 0,-0.4 0,-0.7 -0.1,-1.1 -0.2,0.1 -0.2,-0.1 -0.5,-0.1 z"
         id="path4556" />
      <path
         fill-rule="evenodd"
         clip-rule="evenodd"
         d="m 609.9,673.1 c 0.5,0.5 1.7,0.3 1.6,-0.8 -0.5,-0.3 -1.6,0 -1.6,0.8 z"
         id="path4558" />
      <path
         fill-rule="evenodd"
         clip-rule="evenodd"
         d="m 612.1,682.7 c -0.7,-2 0.3,-5.4 -1,-6.1 -0.3,1.8 -0.2,5.9 1,6.1 z"
         id="path4560" />
      <path
         fill-rule="evenodd"
         clip-rule="evenodd"
         d="m 583.9,669.7 c 0.5,-1.5 -0.7,-2 -0.9,-3.1 -1.4,0.8 -0.3,3.1 0.9,3.1 z"
         id="path4562" />
      <path
         fill-rule="evenodd"
         clip-rule="evenodd"
         d="m 634.3,577.5 c 0.4,0.5 0.1,1.3 0.7,1 -0.3,-0.3 -0.4,-1.2 -0.7,-1 z"
         id="path4564" />
      <path
         fill-rule="evenodd"
         clip-rule="evenodd"
         d="m 629.8,619.3 c -0.2,0.6 0.2,2.4 1.1,1.5 0.5,-0.6 -0.4,-2.3 -1.1,-1.5 z"
         id="path4566" />
      <path
         fill-rule="evenodd"
         clip-rule="evenodd"
         d="m 659.6,585.6 c 0.3,0.2 0.7,0.7 1.1,0.3 0.1,-0.5 -0.2,-0.9 -0.7,-1 0,0.4 -0.4,0.3 -0.4,0.7 z"
         id="path4568" />
      <path
         fill-rule="evenodd"
         clip-rule="evenodd"
         d="m 380.8,598.2 c 0.1,-0.1 0.1,-0.2 0.2,-0.3 -0.6,-0.6 -0.8,0.6 -0.2,0.3 z"
         id="path4570" />
      <path
         fill-rule="evenodd"
         clip-rule="evenodd"
         d="m 439,617.6 c 0.3,0.3 0.6,0.4 0.8,-0.1 -0.3,-0.3 -0.6,-0.5 -0.8,0.1 z"
         id="path4572" />
      <path
         fill-rule="evenodd"
         clip-rule="evenodd"
         d="m 578.9,711.4 c 0.5,-0.7 -1,-1.4 -1.4,-1.2 -0.6,0.9 0.9,1.5 1.4,1.2 z"
         id="path4574" />
      <path
         fill-rule="evenodd"
         clip-rule="evenodd"
         d="m 456.4,621.4 c 0.4,0.3 0.7,0.5 0.9,0 0,-0.5 -0.6,-0.5 -0.9,0 z"
         id="path4576" />
      <path
         fill-rule="evenodd"
         clip-rule="evenodd"
         d="m 565.2,695.7 c 0.2,0.3 0.3,0.9 0.8,0.8 0.3,-0.5 0.2,-0.9 -0.2,-1.2 -0.1,0.3 -0.4,-0.1 -0.6,0.4 z"
         id="path4578" />
      <path
         fill-rule="evenodd"
         clip-rule="evenodd"
         d="m 405,580.5 c 0.4,0.3 1.1,-0.1 1.1,-0.7 -0.7,-0.6 -1.3,0.1 -1.1,0.7 z"
         id="path4580" />
      <path
         fill-rule="evenodd"
         clip-rule="evenodd"
         d="m 471.3,626.1 c -0.3,-0.2 -0.7,-0.2 -0.9,0.2 0.1,0.2 0.2,0.5 0.6,0.6 0.2,-0.3 0.3,-0.5 0.3,-0.8 z"
         id="path4582" />
      <path
         fill-rule="evenodd"
         clip-rule="evenodd"
         d="m 591.8,693.5 c 0.1,-0.1 0.2,-0.3 0.3,-0.4 -0.1,-0.1 -0.3,-0.2 -0.4,-0.3 -0.2,0.2 0,0.3 -0.1,0.5 0,0.1 0.1,0.2 0.2,0.2 z"
         id="path4584" />
      <path
         fill-rule="evenodd"
         clip-rule="evenodd"
         d="m 456,578.8 c -0.3,-0.4 -0.7,-0.7 -1.1,-0.8 0.1,-0.4 0.1,-0.8 -0.1,-1 -1.7,-0.7 -2.5,0.1 -2.9,1.5 0.2,0.3 0.6,0.5 1,0.6 0.6,1 2.2,0.6 3.1,-0.3 z"
         id="path4586" />
      <path
         fill-rule="evenodd"
         clip-rule="evenodd"
         d="m 431,555.8 c -0.2,-0.2 -0.3,0 -0.5,-0.1 -0.1,0.2 0.2,0.3 0.1,0.5 0.2,0 0.3,-0.2 0.4,-0.4 z"
         id="path4588" />
      <path
         fill-rule="evenodd"
         clip-rule="evenodd"
         d="m 604.7,676.7 c -0.7,1.4 1.9,2.3 2.6,1.7 0.2,-1.2 -1.7,-1.9 -2.6,-1.7 z"
         id="path4590" />
      <path
         fill-rule="evenodd"
         clip-rule="evenodd"
         d="m 568.9,650 c -0.1,0.1 -0.3,0.1 -0.4,0.3 0,0.2 0.2,0.4 0.4,0.5 0.4,-0.3 0.4,-0.6 0,-0.8 z"
         id="path4592" />
      <path
         fill-rule="evenodd"
         clip-rule="evenodd"
         d="m 608.7,671.7 c 0.8,-0.5 0.5,-1.2 -0.1,-1.9 0.2,0 0.4,0 0.6,0 0.2,-1.7 -2.2,-2.9 -3.6,-2.6 0.1,1.3 1.4,2.2 2.5,2.5 -0.4,0.5 0,1.6 0.6,2 z"
         id="path4594" />
      <path
         fill-rule="evenodd"
         clip-rule="evenodd"
         d="m 607.2,652.6 c -0.2,0.4 0.2,1 0.7,1 0.4,-0.3 -0.1,-0.5 0.1,-0.8 -0.3,-0.2 -0.6,0 -0.8,-0.2 z"
         id="path4596" />
      <path
         fill-rule="evenodd"
         clip-rule="evenodd"
         d="m 409.7,551.4 c -0.1,0 -0.2,0 -0.3,0 -0.5,0.2 0.3,0.8 0.3,0 z"
         id="path4598" />
      <path
         fill-rule="evenodd"
         clip-rule="evenodd"
         d="m 433.4,543.9 c 0.2,0.6 1,0.5 1,-0.4 -0.2,-0.4 -0.8,-0.1 -1,0.4 z"
         id="path4600" />
      <path
         fill-rule="evenodd"
         clip-rule="evenodd"
         d="m 380.9,617.8 c -0.4,0.5 0.6,0.6 0.3,-0.1 -0.2,0.1 -0.3,0.1 -0.3,0.1 z"
         id="path4602" />
      <path
         fill-rule="evenodd"
         clip-rule="evenodd"
         d="m 400.6,598.5 c 0.4,0.4 1.1,-0.1 0.8,-0.9 -0.5,-0.2 -0.9,0.4 -0.8,0.9 z"
         id="path4604" />
      <path
         fill-rule="evenodd"
         clip-rule="evenodd"
         d="m 415.8,548.1 c -0.9,0.7 -1.7,2.2 -0.9,3.1 1.1,-0.4 1.6,-2 0.9,-3.1 z"
         id="path4606" />
      <path
         fill-rule="evenodd"
         clip-rule="evenodd"
         d="m 426.1,579.3 c -0.2,0.1 -0.4,0.1 -0.4,0.3 0.2,-0.1 0.2,0.2 0.3,0.2 0,-0.2 0.2,-0.3 0.1,-0.5 z"
         id="path4608" />
      <path
         fill-rule="evenodd"
         clip-rule="evenodd"
         d="m 445.2,544.7 c -0.1,-0.4 -0.2,-0.7 -0.5,-0.5 0,0.4 0.2,0.7 0.5,0.5 z"
         id="path4610" />
    </g>
  </g>
</svg>
