<?xml version="1.0" encoding="UTF-8" standalone="no"?>
<svg
   xmlns:dc="http://purl.org/dc/elements/1.1/"
   xmlns:cc="http://creativecommons.org/ns#"
   xmlns:rdf="http://www.w3.org/1999/02/22-rdf-syntax-ns#"
   xmlns:svg="http://www.w3.org/2000/svg"
   xmlns="http://www.w3.org/2000/svg"
   id="svg4773"
   version="1.1"
   viewBox="0 0 99.033539 102.07625"
   height="102.07625mm"
   width="99.033539mm">
  <defs
     id="defs4767" />
  <metadata
     id="metadata4770">
    <rdf:RDF>
      <cc:Work
         rdf:about="">
        <dc:format>image/svg+xml</dc:format>
        <dc:type
           rdf:resource="http://purl.org/dc/dcmitype/StillImage" />
        <dc:title></dc:title>
      </cc:Work>
    </rdf:RDF>
  </metadata>
  <g
     transform="translate(-56.316563,-97.128542)"
     id="layer1">
    <g
       transform="matrix(0.26458333,0,0,0.26458333,45.41573,-0.76728979)"
       id="g3980">
      <path
         fill-rule="evenodd"
         clip-rule="evenodd"
         d="m 48.7,531.9 c 0,0.8 -0.8,0.9 -0.7,2.3 0.1,1.7 2.5,2.7 2.5,2.7 2.1,0 3,-2.2 3.2,-2.2 0,-1.8 -0.6,-3.2 -2.5,-3.4 0.2,-0.6 0.5,-1 0.8,-1.3 -0.4,-1.9 -0.1,-1.7 -1.6,-3.7 -1.8,0 -3.8,0.3 -3.8,3.2 -0.1,1.3 2.1,1.5 2.1,2.4 z"
         id="path3822" />
      <path
         fill-rule="evenodd"
         clip-rule="evenodd"
         d="m 58.9,617.2 c 0.3,0.5 -0.1,0.9 0.9,0.9 0.3,0 0.4,0 0.5,-0.6 0,-0.1 -0.1,-0.1 -0.1,-0.5 -0.6,-0.1 -0.9,0 -1.3,0.2 z"
         id="path3824" />
      <path
         fill-rule="evenodd"
         clip-rule="evenodd"
         d="m 46.5,573.7 c -3.2,0 -4.2,2.9 -4.2,3.4 -0.4,0.3 -0.9,1.2 -1.1,1.4 0,3.1 0.8,6.1 3.2,6.6 0.1,0.1 0.1,0.1 0.1,0.2 0,0.1 -0.1,0.1 -0.1,0.3 0,0.5 3.1,1 3.3,0.9 0,-0.1 -0.1,-0.1 -0.1,-0.1 3.6,0 5.2,-3 5.3,-3 0,-1.4 1,-1.8 1,-3.2 0,-0.8 -0.3,-1.5 -0.5,-2.3 -0.1,-3.1 -4.9,-4.3 -6.9,-4.2 z"
         id="path3826" />
      <path
         fill-rule="evenodd"
         clip-rule="evenodd"
         d="m 50.5,477.3 c 0.4,-0.1 0.6,-0.3 0.6,-0.4 0,-0.4 -0.8,-0.9 -1.3,-1 -0.2,0.4 -0.4,0.8 -0.4,1 0.1,0.4 0.2,0.4 1.1,0.4 z"
         id="path3828" />
      <path
         fill-rule="evenodd"
         clip-rule="evenodd"
         d="m 63.6,498.6 c 0.5,0 0.9,-0.1 1.1,-0.4 -0.3,-0.6 -0.3,-1.3 -1.6,-1.3 0,0 -1,0.1 -1,0.7 0.1,0.7 0.7,1.1 1.5,1 z"
         id="path3830" />
      <path
         fill-rule="evenodd"
         clip-rule="evenodd"
         d="m 160,417.4 c -0.2,-0.9 -0.8,-1.3 -1.5,-1.3 -0.4,0 -0.9,0.2 -1.7,0.2 0.2,1.5 2.3,1.1 3.2,1.1 z"
         id="path3832" />
      <path
         fill-rule="evenodd"
         clip-rule="evenodd"
         d="m 151.5,404 c 0.2,0 0.4,-0.9 0.5,-1.5 0.4,-0.6 0.7,-1.3 0.7,-2 0,-0.6 -0.4,-0.9 -1.1,-1.1 0,1.5 -0.3,2.6 -0.3,3.7 0,0.7 0,0.9 0.2,0.9 z"
         id="path3834" />
      <path
         fill-rule="evenodd"
         clip-rule="evenodd"
         d="m 156.1,395.4 c 0.3,-0.9 0.6,-1.9 1,-2.8 -2,-0.8 -3.8,-1.4 -4.3,0.9 0.6,0.9 1.6,1.6 3.3,1.9 z"
         id="path3836" />
      <path
         fill-rule="evenodd"
         clip-rule="evenodd"
         d="m 60.5,614.2 c 0,0 0,0 0.3,0 -0.4,0 -1.4,0 -1.4,0.9 0,0.4 0.6,0.6 0.8,0.6 1.1,0 6.5,-1.2 7,-3.2 -0.6,-0.2 -1.3,-0.2 -1.9,-0.2 -0.5,0.7 -4.8,1.8 -4.8,1.9 z"
         id="path3838" />
      <path
         fill-rule="evenodd"
         clip-rule="evenodd"
         d="m 71.9,535.6 c 0.1,4.3 3.5,8.1 8.8,8.1 3.1,0 5.2,-1.4 6.4,-3.3 0.4,0.1 0.9,0.2 1.2,0.2 0.3,0 1.2,0.1 1.1,-0.3 -0.6,-0.2 -1.3,-0.5 -1.9,-0.7 0.9,-1.7 1.2,-3.8 1.2,-5.6 -0.1,-4.3 -4.9,-8.1 -8.3,-8.1 -4.8,0.1 -8.6,4 -8.5,9.7 z"
         id="path3840" />
      <path
         fill-rule="evenodd"
         clip-rule="evenodd"
         d="m 110.9,417.1 c 0.6,0 0.4,0 0.7,0.5 h 2.2 c -0.6,-3.9 -3,-3.9 -5.4,-4.6 0,1.3 1,3.7 2.5,4.1 z"
         id="path3842" />
      <path
         fill-rule="evenodd"
         clip-rule="evenodd"
         d="m 139.4,370 c -0.8,0.4 -1.1,1.8 -2.1,1.6 -4.5,11.7 14.2,1.9 2.1,-1.6 z"
         id="path3844" />
      <path
         fill-rule="evenodd"
         clip-rule="evenodd"
         d="m 89.7,543.5 c 0.2,0 0.4,0 0.4,-0.2 0,0 -0.2,-0.2 -0.9,-0.2 -0.1,0.4 0.1,0.4 0.5,0.4 z"
         id="path3846" />
      <path
         fill-rule="evenodd"
         clip-rule="evenodd"
         d="m 149.1,449.6 c 0,-1.5 -0.4,-4.1 -1.9,-4.1 -0.7,0 -0.7,0.8 -0.7,1.9 0,2.6 1.6,7.4 1.6,7.8 1.1,-0.4 1,-4.4 1,-5.6 z"
         id="path3848" />
      <path
         fill-rule="evenodd"
         clip-rule="evenodd"
         d="m 69.5,526 c 0.3,-0.1 0.5,-0.1 0.6,-0.1 0.4,0 0.6,0.1 0.9,0.1 2,0 3.1,-1.5 3.5,-3 -0.3,0 -0.4,-0.3 -0.4,-0.4 0,-0.5 0.4,-1.2 0.4,-1.3 -0.7,-0.8 -1.8,-2.2 -3.2,-2.1 -1.4,0 -3.7,0.7 -3.7,3 0.1,2.9 1.5,2.1 1.9,3.8 z"
         id="path3850" />
      <path
         fill-rule="evenodd"
         clip-rule="evenodd"
         d="m 151.3,404.3 c -0.4,0.7 -0.3,1.9 -0.3,2.8 0.4,-0.4 0.9,-1.5 0.9,-2.2 0,-0.4 -0.2,-0.6 -0.6,-0.6 z"
         id="path3852" />
      <path
         fill-rule="evenodd"
         clip-rule="evenodd"
         d="m 174.9,434.6 c 3.5,0.7 3.9,4.2 7.1,4.2 0.7,-0.4 1.7,0.2 1.6,-1.9 -0.1,-5.3 -6.7,-6.8 -7.7,-7.2 -0.6,0.3 -1.9,0.9 -2.2,1.6 0.8,0 1,2.6 1.2,3.3 z"
         id="path3854" />
      <path
         fill-rule="evenodd"
         clip-rule="evenodd"
         d="m 71.6,439.4 c -1.1,-1.3 -3.2,-3.7 -5.4,-2.6 -0.3,0.9 -0.6,1.9 -1,2.8 2.5,1.6 5,3.2 6.4,-0.2 z"
         id="path3856" />
      <path
         fill-rule="evenodd"
         clip-rule="evenodd"
         d="m 88.6,543.1 c 0.4,0 0.4,0 0.4,-0.2 0,-0.2 -1.5,-0.7 -1.7,-0.7 0,0.7 0.3,0.9 1.3,0.9 z"
         id="path3858" />
      <path
         fill-rule="evenodd"
         clip-rule="evenodd"
         d="m 205.6,412.5 c 0,-2 0.3,-4.5 -1.9,-5 -0.2,0.2 -0.2,0.7 -0.2,1.1 0,1.7 0.6,3.9 2.1,3.9 z"
         id="path3860" />
      <path
         fill-rule="evenodd"
         clip-rule="evenodd"
         d="m 318.9,390.7 c -2.5,-1.5 -3.6,2.3 -2.9,3.8 1.9,0.5 2.2,-1.9 2.9,-3.8 z"
         id="path3862" />
      <path
         fill-rule="evenodd"
         clip-rule="evenodd"
         d="m 272.7,394 c -1.2,5.9 -6.7,3.2 -8.8,7.3 2.4,2 13.1,-3.3 8.8,-7.3 z"
         id="path3864" />
      <path
         fill-rule="evenodd"
         clip-rule="evenodd"
         d="m 265.7,431.8 c 0,0.2 0.2,0.5 0.7,0.5 0.2,0 0.5,0 1,-0.2 0.5,0 0.5,-0.5 0.5,-0.7 0,-0.5 -0.7,-1.2 -1.5,-1.2 -0.2,0.3 -0.7,1.1 -0.7,1.6 z"
         id="path3866" />
      <path
         fill-rule="evenodd"
         clip-rule="evenodd"
         d="m 175.9,429.7 c 0.2,-0.1 0.4,-0.1 0.4,-0.1 -0.5,0 -0.6,0 -0.4,0.1 z"
         id="path3868" />
      <path
         fill-rule="evenodd"
         clip-rule="evenodd"
         d="m 348.6,430.2 c 0.2,0.2 0.5,0.5 0.7,0.5 1.7,0 3.3,-4.4 3.3,-5.6 -1.9,0.3 -4.8,2.5 -4.7,4.6 0,0.3 0.2,0.5 0.7,0.5 z"
         id="path3870" />
      <path
         fill-rule="evenodd"
         clip-rule="evenodd"
         d="m 411.5,491.6 c 0.8,0 0.6,-0.1 0.7,-1 -0.1,-0.1 -0.1,0 -0.3,-0.1 -0.4,0 -0.8,0 -1.1,0.1 0,0.5 0,1 0.7,1 z"
         id="path3872" />
      <path
         fill-rule="evenodd"
         clip-rule="evenodd"
         d="m 364.8,434.8 c -5.1,-2.9 -7.2,5.3 -6,8.2 2.9,-0.9 4.4,-4.6 6,-8.2 z"
         id="path3874" />
      <path
         fill-rule="evenodd"
         clip-rule="evenodd"
         d="m 250.9,410.9 c 0.7,0 1.1,-0.4 1.1,-1.1 0,-0.4 0,-0.7 -1.1,-0.7 -0.7,0 -1.1,0.4 -1.1,0.8 0,0.2 0.4,1 1.1,1 z"
         id="path3876" />
      <path
         fill-rule="evenodd"
         clip-rule="evenodd"
         d="m 349.9,449.4 c -0.6,-1.5 -1.5,-1.3 -3,-1.4 1,1.1 1.5,1.4 3,1.4 z"
         id="path3878" />
      <path
         fill-rule="evenodd"
         clip-rule="evenodd"
         d="m 254.2,434.7 c 0.4,0 0.9,-0.4 1.5,-0.6 0.2,-0.7 0.4,-1.3 1.1,-1.7 v -1.5 c -0.2,0 -0.2,0.2 -0.2,0.2 -0.2,0 -0.4,-0.2 -0.4,-0.4 0,0 0.2,0 0.2,-0.2 -1.5,0.6 -1.8,1.3 -2.9,1.9 0,0.8 0,2.3 0.7,2.3 z"
         id="path3880" />
      <path
         fill-rule="evenodd"
         clip-rule="evenodd"
         d="m 193.7,391.6 c -1.8,-1.2 -1.9,0.9 -3.3,0.5 -0.5,1.2 0.4,1.8 -0.3,3.1 3.4,1.5 5.1,-1.6 3.6,-3.6 z"
         id="path3882" />
      <path
         fill-rule="evenodd"
         clip-rule="evenodd"
         d="m 187.5,390.9 c 0.5,-0.9 2,-2.6 2,-3.6 -1.1,0 -4.4,3.2 -4.4,5.1 h 1.3 c 0,-0.9 0.3,-0.9 1.1,-1.5 z"
         id="path3884" />
      <path
         fill-rule="evenodd"
         clip-rule="evenodd"
         d="m 197.9,437.5 c -0.4,-1.9 -0.8,-4.1 -1.2,-5.9 0,-1.1 0,-2.2 -1.1,-2.2 0.1,6.7 1.1,3 1.2,5.9 l 0.4,-0.4 c 0,0.4 -0.4,1.1 -0.4,1.5 0,0.4 0.3,1.1 1.1,1.1 z"
         id="path3886" />
      <path
         fill-rule="evenodd"
         clip-rule="evenodd"
         d="m 185,418 c 1.1,-0.2 1.7,-0.2 1.7,-0.9 0,-2.8 -1.3,-2.8 -3.2,-4.6 -1.7,0 -1.8,0.2 -1.8,1.9 0.2,0.7 0.8,2 1.3,2.6 0.5,0.4 2,0.2 2,1 z"
         id="path3888" />
      <path
         fill-rule="evenodd"
         clip-rule="evenodd"
         d="m 204.5,416 c 0.5,1.4 0.5,2.9 2,2.9 0.2,0 0.5,-0.2 0.7,-0.2 0.5,-0.2 0.5,-0.5 0.5,-1 0,-0.2 0,-0.5 -0.1,-0.8 0.4,0.2 0.8,0.4 1.2,0.5 0,-0.2 -0.2,-0.2 -0.2,-0.4 0,-0.4 0.6,0.4 0.6,-0.7 0,-1.7 -0.8,-4.1 -3.2,-4 0,0.4 -0.2,0.7 -0.2,1.1 0,0.6 0.2,1.3 0.4,2 -0.6,0.1 -1.2,0.6 -1.7,0.6 z"
         id="path3890" />
      <path
         fill-rule="evenodd"
         clip-rule="evenodd"
         d="m 60.2,574.3 c -1.5,0 -2.2,0 -2.4,1.3 1,0 2.4,-0.6 2.4,-1.3 z"
         id="path3892" />
      <path
         fill-rule="evenodd"
         clip-rule="evenodd"
         d="m 196.5,403.4 c 0,1.1 2.1,2.8 1.9,2.8 0.2,0 0.4,-0.4 0.9,-0.4 -0.4,-0.7 -0.2,-1.3 -0.2,-2.4 0,-1.3 -1.4,-5.5 -3.8,-6.1 -0.2,0.2 -0.6,0.4 -0.7,0.8 0,-0.1 0.4,4.5 1.9,5.3 z"
         id="path3894" />
      <path
         fill-rule="evenodd"
         clip-rule="evenodd"
         d="m 203,401.8 c 0,-0.6 0.2,-0.6 0.2,-1.5 -0.4,0 -0.6,-0.4 -1.3,-0.4 0,1.4 -0.2,1.6 1.1,1.9 z"
         id="path3896" />
      <path
         fill-rule="evenodd"
         clip-rule="evenodd"
         d="m 202,407.9 c -0.2,-0.6 0,-0.4 -0.4,-0.7 0,0.2 -0.2,0.4 -0.2,0.6 0,0.1 0.2,0.1 0.6,0.1 z"
         id="path3898" />
      <path
         fill-rule="evenodd"
         clip-rule="evenodd"
         d="m 249.1,665.7 c 0,-1 -2.3,-2 -3.5,-2.4 0,1 2.4,2 3.5,2.4 z"
         id="path3900" />
      <path
         fill-rule="evenodd"
         clip-rule="evenodd"
         d="m 369.1,537.4 c 0,2 2.3,2.8 3.4,2.7 2.8,0 5.4,-0.4 5.3,-3.2 -1.3,-0.4 -2.4,-1.1 -3.5,-1.4 -0.4,-0.2 -0.7,-0.2 -0.9,-0.2 -1.6,0 -4.4,1 -4.3,2.1 z"
         id="path3902" />
      <path
         fill-rule="evenodd"
         clip-rule="evenodd"
         d="m 381.5,554.5 c 0,-1 0,-1.9 -0.3,-2.9 h -3.8 c -0.5,0.7 -1.4,1.2 -1.4,2.2 0,0.5 2.7,1.4 2.7,1.4 1,-0.3 1.7,-0.3 2.6,-0.3 l -0.2,-0.2 c -0.1,-0.2 0.1,-0.2 0.4,-0.2 z"
         id="path3904" />
      <path
         fill-rule="evenodd"
         clip-rule="evenodd"
         d="m 403.9,504.7 c 0,-1 -0.3,-1.7 -1.2,-2.1 -1.2,-0.5 -1.2,-0.9 -2.7,-0.9 -9.4,0.1 -8.4,4.2 -13.2,4.3 0,2.2 -9.1,4 -9.1,5.2 -6.7,1.8 -6.2,5.4 -7.9,5.6 -1.9,5.1 -4,3.9 -5.9,6.6 -0.8,0 -1.7,0 -2.5,-0.1 -1.5,-3 -4.1,-5.8 -7.1,-8.2 1.6,-2.4 3.5,-5.8 3.7,-5.8 0,0 -0.2,0.2 -0.2,0.5 2.2,0 3.4,-0.8 5.3,-1.5 -0.1,-5.3 -5.8,-1.4 -5.8,-5.7 -0.1,-5.5 5,-2.9 6.2,-6.3 -3.1,0 -5.3,-4 -6.1,-9.3 0.9,-1 1.9,-2.4 2.4,-2.4 0.2,0 0.5,0.2 0.7,0.2 1.4,0 2.6,-5.1 3.1,-5.1 0,-2.2 -1.2,-2.9 -2.9,-2.9 -1,0 -3.1,0.5 -3.6,0.5 -1,0 -3.4,-3.8 -3.4,-5 0,-0.5 0.2,-0.2 0.2,-0.7 0,-1.4 -0.7,-2.2 -0.8,-3.1 0,-1.9 2.4,-3.4 2.6,-3.4 0,-0.2 -0.3,-0.2 -0.3,-0.2 0,-0.2 0.2,-0.5 1.2,-0.5 0,-1.7 -0.3,-2.6 -2,-3.1 0,1 -2.6,1 -3.3,1 -1.9,0 -6.3,-7.4 -7.8,-7.3 0,-0.7 0,-2.6 0.9,-2.7 0,-1.7 0,-2.9 -1.5,-2.9 -1.7,0 -1.9,0.7 -2.9,0.8 -1.2,0 -1.9,-0.5 -1.9,-0.9 0,-1.4 3.8,-4.1 3.8,-5.3 -1.2,0.3 -1.7,1.2 -2.4,1.2 -1.4,0 -1.2,-2.9 -3.6,-2.8 -1.9,0 -4.6,1.5 -6.2,1.5 -0.8,0 -1.3,-0.1 -1.9,-0.2 -0.1,-0.1 -0.2,-0.2 -0.5,-0.2 -0.1,0 -0.2,0.1 -0.3,0.1 -5.7,-1.4 -2.2,-8 -5.6,-8 -1.2,0 -2.1,1.7 -3.1,3.2 -3.1,0 -4.3,-1.6 -4.4,-3.1 0,-1.9 1.1,-4.3 1.1,-6 0,0 2.5,-7.5 2.5,-11.3 -6,0.1 -5.6,16.4 -9.9,16.5 -1.4,0 -1.9,-1.2 -3.1,-1.2 -3.6,0 -2.4,3.2 -6,3.2 -0.7,0 -1.7,-1.2 -2.9,-1.2 0.2,-0.5 0.5,-1.2 0.5,-1.9 0,-1.4 -1,-3.1 -2.4,-3.6 -0.9,2.4 -2.8,7 -6.4,7.1 -2.4,0 -2.4,-3.1 -5.1,-3.1 -1.4,0 -0.2,5.8 -3.3,5.8 -3.4,0 -0.5,-2.9 -4.1,-2.8 -1,0 -1.9,0.5 -1.9,1.2 0,0.5 0.2,1 0.3,1.4 0,1.9 -0.9,5.1 -5.5,5.1 -2.9,0 -2,-2.1 -4.4,-2.1 -0.9,0 -1.3,0.9 -1.8,1.9 -0.6,-0.5 -1.3,-0.9 -2.2,-1.4 -2.2,1.1 -1,2.6 -0.9,4.2 -0.1,0 -0.2,0.1 -0.3,0.1 -3.4,-3.4 -5.1,-6.1 -6.2,-8.1 0,-0.1 0,-0.2 0,-0.3 -0.1,0 -0.1,0 -0.2,-0.1 -1.1,-2.3 -1.5,-3.7 -2.7,-4.2 0,-1.9 -0.8,-4 -1.6,-5.4 1.4,-1.4 1.3,-4.3 -1.6,-5.1 -0.5,0.5 -1.1,1.1 -1.9,0.9 -1.1,1.8 -0.2,2.6 0.3,3.5 -0.6,0.6 -0.9,1.4 -0.9,2 0,2.7 4.9,4.3 5.6,7.2 -0.2,-0.1 -0.4,-0.1 -0.6,-0.2 -2.5,2.2 -0.3,3.6 -1.5,6.6 -1.3,1.8 -4.2,0.3 -5.9,1.2 -3.7,-1.3 -0.4,-6.1 -5.6,-6.7 -3.6,11.7 -14.3,2.6 -21.1,6.3 -0.6,-1.3 -1.3,-2.5 -2.3,-3.6 0.3,0.3 0.5,0.5 0.5,0.6 0.2,0 1.8,-0.6 1.8,-1.5 0,-0.4 -0.2,-0.7 -0.2,-1.1 0,-0.2 0,-0.4 0.4,-0.4 -0.4,-1.7 -4,-5.3 -4.7,-5.3 -0.7,0 -1.3,1.1 -1.8,1.1 0,2 0.9,3.5 1.8,4.6 -1.4,-1 -3.2,-1.9 -5.4,-2.5 -4,1.9 -6.4,2.1 -7.8,4.4 -5.3,9 8.8,18.7 -5.1,23.2 -0.7,-0.4 -1.3,-0.9 -1.7,-1.4 0.4,-3.4 1.4,-6.3 1.3,-9.2 0,-0.5 0,-1 -0.5,-1 -6.2,0.1 -1.8,9.6 -11.4,9.8 -2.4,0 -8.7,0.1 -8.7,-3.7 0,-1.4 0.4,-2.4 0.4,-3.4 0,-1.9 -0.5,-3.8 -2,-5.3 -0.3,-2.6 -0.4,-8.8 -0.7,-14.3 0.2,-0.2 0.2,-0.4 0.2,-0.6 0,-0.6 -0.1,-1 -0.3,-1.4 -0.3,-4.6 -0.9,-8.2 -1.9,-8.2 0.5,2.3 0.7,4.7 0.9,7.3 -0.5,-0.2 -1.1,-0.3 -1.8,-0.3 -0.4,0.7 -0.9,1.1 -0.9,1.7 0,1.7 2.2,1.8 2.8,1.8 0.1,4.5 0.2,9.3 0.7,14 -0.5,1.5 -1.9,3.4 -1.8,6.8 0,1 0.5,1.9 0.5,2.9 0,2.4 -5.2,3.9 -8.6,4 -4.3,0.1 -6.3,-7.6 -7.8,-11.4 0.1,6.7 -2.8,6.3 -2.8,8.2 0,1.4 1,3.8 1,3.8 -0.5,0 -2.7,3.1 -5.1,5.8 -1.6,-0.9 -3.1,-1.9 -4.2,-3.1 -1.7,-0.3 -2.6,-2.3 -3.8,-4.3 0.1,0.1 0.2,0.1 0.2,0.1 h 2.6 c 2.2,0 3.7,-3.6 3.6,-5.4 0,-0.9 -2.8,-4.2 -5.1,-4.2 -2.6,0 -3.8,2.1 -4.2,4.3 -0.7,-1.6 -1.4,-3.1 -2.7,-3.3 -0.9,1.4 0.9,3 1.9,4.3 -0.3,0.1 -0.2,0.5 -0.7,0.5 0,0.3 0,0.6 0.1,0.7 -1.7,-0.5 -3,-1.6 -4.5,-2.6 -0.8,-0.5 -1.2,-1.3 -1.9,-1.8 -0.5,-0.4 -1.2,-0.3 -1.7,-0.7 -2.7,-2 -4.4,-5.9 -7.7,-6.8 -0.9,0.7 -1.5,0.5 -2,1.3 -0.1,4.4 4.7,5.2 7.2,7.1 0.8,0.6 1.5,1.6 2.2,2.5 -0.2,0 -0.3,0 -0.5,0 -1.4,0 -1,1.2 -1.6,1.2 0,1.5 0.4,1.5 1.3,2.5 0.8,0 1.4,-0.1 2.2,-0.5 0,-0.3 0.1,-0.7 0.2,-1.2 0.4,0.4 0.7,0.7 1.1,1 1.5,0.9 3.3,1.7 4.9,2.9 3.5,2.5 6.8,4.9 9.8,8.1 -0.5,-0.2 -1.1,-0.2 -1.6,-0.2 -0.5,0 -1,0.5 -1.6,1 -1.7,-1.9 -3.6,-5.7 -4.7,-5.7 -1,0 -1.9,1.5 -1.9,2.4 0,1.7 1.6,3.1 2.8,4.6 -0.2,0.3 -0.4,0.7 -0.5,0.9 -1.1,-0.2 -1.4,-2.3 -1.6,-2.3 v 0.3 c -0.2,0 -0.1,-0.2 -0.1,-0.8 -1.1,-1.9 -1.6,-2.4 -1.8,-2.4 -0.3,0 -0.4,0.3 -0.4,0.3 0,0 0,0 0,-0.3 0,-0.6 -2.6,-3 -2.6,-3.2 -0.4,-0.3 -0.6,-0.8 -1,-1.2 0.1,-0.7 0.2,-1.3 0.4,-2.1 -1.3,-0.5 -2.1,0 -2.8,0.7 -0.3,0 -0.7,-0.1 -1.1,-0.1 -0.9,0 -0.6,0.6 -1.9,0.8 h 0.1 c 0,0 -0.1,0 -0.2,0.1 -3.3,-2.6 -7.8,-6.7 -10.2,-3 -0.1,0 -0.1,-0.1 -0.2,-0.1 -0.2,-0.2 -0.4,-0.3 -0.5,-0.5 -1,-1.4 0.2,-3.8 -2.3,-4.4 -3.9,6.5 -10.6,7.2 -15.7,11.3 1.6,3.3 -1.7,4.5 -2.4,7.1 -0.2,0.8 -0.3,1.5 -0.4,2.3 -0.4,0.2 -0.7,0.4 -1.1,0.8 0.5,0.8 0.1,1.4 0.4,2.2 0.2,0.1 0.3,0.3 0.5,0.4 0.2,5.9 3.1,10.8 5,16.4 4.8,-0.5 4.3,2.8 7.1,4.8 2.9,-0.7 6.6,0.4 9.9,0.6 3.4,0.7 6.8,1.9 6.8,5 0,0.7 -0.2,1.1 -0.4,1.9 -0.9,0.5 -1.6,1.2 -2.2,1.8 -0.1,-0.6 -0.3,-1.1 -0.9,-1.1 0,0.4 0.2,1.7 -0.3,1.7 0.1,0.4 0.2,0.5 0.3,0.7 -0.4,0.6 -0.6,1 -0.7,1 0,0 0,0 0,-0.4 -0.1,0.3 -0.3,0.6 -0.4,0.8 -0.3,0.3 -0.5,0.8 -0.6,1.4 -0.3,0.7 -0.4,1.1 -0.4,1.1 0.4,1.5 0.8,2.6 0.8,3.7 0,0.7 0,1.1 -0.7,1.1 0.9,2.1 1.1,5 1.2,6.3 0,0.4 -0.3,1.1 -0.3,1.4 0,0 0.1,0 0.1,0.1 0,0 0,0 0,0 0,0 0,0 0,0 -1.8,0 -2.2,1 -2.5,2.2 -0.7,-1.2 -1.1,-2.7 -2.3,-2.6 -0.7,0.7 -1.5,1.5 -2.2,1.5 -2.2,0 -3.7,-1.8 -5.6,-1.8 1.9,1.6 3.7,4 5.9,5.2 -0.1,0.3 -0.2,0.5 -0.2,0.8 0,0.2 0,0.4 0.1,0.6 -6.1,0.3 -3.3,6.4 -6.2,7.8 0,-0.2 -0.2,-0.4 -0.4,-0.4 -0.9,0 -2.9,1.2 -3.5,1.2 0.4,0.4 0.7,0.2 0.7,0.4 0,0 -0.2,0.2 -0.4,0.7 1.5,1.4 2.2,2.7 2.7,3.6 0,0 -0.1,0.1 -0.1,0.1 0.1,0.1 0.2,0.3 0.2,0.6 -6.8,-0.6 -13.6,-1.3 -20.4,-2.1 0.3,-0.3 0.5,-0.5 0.5,-0.8 -1.3,-0.4 -2.8,-1.1 -4.3,-1.1 -0.4,0 -1.8,0.6 -2.4,1.2 -4.5,-0.5 -8.9,-1.1 -13.3,-1.7 -0.6,-0.1 -1,0.2 -1.3,0.5 -1.3,-0.5 -2.4,-0.8 -2.3,-0.7 -0.6,0.9 -2.4,-0.1 -2.4,0.8 -0.1,0 -0.3,-0.1 -0.4,-0.1 -3.7,0 -4.8,5.8 -5.2,6.1 0,3.2 1.1,6 1.4,6 0.1,0 0.1,-0.1 0.1,-0.3 0,1.2 1.4,1.9 1.5,2.1 0,0 0.1,-0.1 0.2,-0.1 0.1,0 0.3,0.6 0.4,0.6 0.1,0 0.1,0 0.1,-0.1 0.6,0 3.5,0.9 3.5,1.9 0,0.5 -0.2,1.2 -0.2,1.5 0.4,0.1 1.3,1.7 1.4,1.7 0.1,0 0.1,0 0.1,-0.1 0,2.6 2.9,2.9 3,2.9 0,0.5 0.4,0.5 0.9,0.5 0.6,0 1.4,-0.4 2,-0.4 0.4,0 0.9,0.1 1.3,0.1 0.3,0 0.5,-0.1 0.6,-0.1 0.1,0 3.1,-1.4 3,-2.7 0,-0.1 -0.1,0 -0.1,-0.1 0,0 0.1,-0.1 0.5,-0.4 0.5,-0.4 0.6,-1.2 1,-1.2 0,-1.7 -0.5,-2.8 -0.6,-4.3 v -1 h -0.3 c 0,-0.2 -0.2,-0.3 -0.4,-0.5 9,0.5 18,1.1 26.9,1.8 -0.1,0.6 -0.2,1.1 -1,1.1 -0.3,0 -1.6,3.3 -1.6,5 0,0.5 0.1,0.9 0.5,0.9 -0.1,0.7 -0.1,1.5 -0.3,2.1 -0.6,0.3 -1.2,0.6 -1.3,0.7 -0.3,-0.1 -0.5,-0.3 -1,-0.3 -1.1,0.2 -1.1,0.6 -1.1,1.5 0.1,-0.1 1.8,-0.9 3.2,-1.3 -0.3,0.8 -0.8,1.4 -1.8,1.7 -0.4,0.1 -3.6,0.6 -3.6,0.7 v 2.2 c -0.8,0.5 -1.5,0.9 -2,1.5 -2.3,0.9 -4.4,1.9 -6.5,1.9 0,0.9 0.2,1.1 0.8,1.1 0.4,0 0.7,-0.2 1.5,-0.2 0.6,-1.8 2.7,-1.8 4.4,-1.9 0.9,0.6 1.3,2.8 1.3,4 0,1.4 -1.2,3.2 -1.2,4.6 0,3.6 3.6,2.8 4.2,4.8 0.9,0 1.2,0.8 1.4,1.9 -0.7,0.2 -3.4,1.5 -3.7,3.3 0.8,-0.1 2.5,-1.4 3.8,-2.6 17.5,-5.4 2.7,3.2 14.5,2.1 0.5,0 0.9,0.2 1.3,0.4 0.2,0.4 0.6,0.6 1.4,0.6 0,0 0,0 0,-0.1 0.1,0 0.1,0 0.2,0 0.6,0 0.7,-0.6 0.7,-1.3 1,-0.9 2.6,-1.6 3.6,-1.6 0.2,1.9 0.6,2.8 3,2.7 0.6,0 1.1,0 1.1,-0.6 0,0.6 2.2,0.5 2.3,2.4 0,1.5 -0.9,2 -0.9,4.1 0,0.7 0.2,1.3 0.6,1.3 0,2.6 -0.6,4.4 -1.3,5.8 -1.8,-0.4 -3.6,-0.7 -4.5,0.2 0.5,1.3 2.3,1.1 3.9,1 -0.6,0.9 -1.2,1.8 -1.5,2.6 -0.6,0.2 -1.2,0.4 -1.8,0.7 -0.8,0.3 -1.8,0.2 -2.5,0.5 -0.6,0.2 -0.9,0.8 -1.5,1 -3.2,1 -7.3,0.2 -10,2.3 0,1.1 -0.5,1.5 -0.1,2.4 3.5,2.7 7,-0.8 10,-1.7 2.2,-0.7 5.4,0 7.3,-0.8 1.6,-0.7 3.3,-1.7 5.2,-2.3 4.5,-1.6 8.9,-3 13.8,-3.4 0.1,0 0.3,0.1 0.5,0.1 v -0.2 c 1,-0.1 2,-0.1 3.1,-0.1 -0.8,-0.8 -2.1,-0.5 -3.1,-0.7 v -0.6 c 1,-0.4 2.3,-0.3 3.2,0.2 4.4,-1.5 10.8,1.8 13.9,-2.2 2.7,-1.3 5.9,-1.8 8.7,-2.9 0.4,0.6 0.6,1.1 1.4,1.1 0.1,0 0.2,0 0.4,0 0,0.7 0.4,1.2 0.9,1.4 0.6,0.2 1,0.1 1.2,-0.2 0,0 0,0 0.1,0.1 -0.1,0.2 -0.1,0.6 -0.1,1 0.4,0.1 0.3,1.3 1.2,1.5 0.1,-0.4 0.2,-0.8 0.2,-1.2 0,0 0,0 0.1,0.1 0.3,0.9 0.4,1.7 0.4,2.4 -1.2,0.5 -2.4,1.1 -3.5,1.5 -5,1.3 -7,5.3 -12.6,6.1 -1.1,0.8 -4,2.4 -1.8,4 4.6,-1 5.8,-5.1 10.8,-5.7 1.2,-1.1 3,-2.5 4.8,-2.3 0,0.5 -0.1,0.9 -0.2,1.3 -0.4,0.4 -0.8,0.7 -1.2,1.1 0,0.3 -0.1,0.6 -0.1,1 -0.5,0.5 -1,1.1 -1.3,1.7 -4.6,3.5 -8.2,8.8 -13.6,10.9 -1.2,1.4 -3.4,1.9 -3.8,4.1 1.3,2.7 3.2,0.6 5.3,-1 2,-1.5 3.8,-4.8 6.6,-4 0,0.3 0.1,0.6 0.2,0.8 -0.6,1.3 -2.5,1.4 -3.5,2.3 -0.4,2.3 1.5,2.3 2.4,2.1 -3.1,1 -5.6,3.5 -8.7,4.6 -0.8,0.3 -1.7,0.2 -2.5,0.5 -2.6,0.9 -4.5,2.7 -7,3.8 -2.1,0.9 -4.2,1.6 -6.2,2.6 -0.4,0 -0.8,0 -1.2,0 -0.4,0.6 -1.2,0.9 -2.3,0.9 -5.4,3.1 -12.1,4.9 -18.1,7.5 -0.7,1.2 -2.3,1.6 -1.8,4 0.9,0 1.2,0.8 2,0.9 2.1,-0.7 4.5,-1.2 6.2,-2.2 1.8,-2.9 6,-3.5 9.5,-4.8 3.2,-1.9 7.1,-4.3 11.7,-4.3 0.7,-1.1 2.1,-0.7 3.3,-1.1 2.2,-0.6 3.8,-2.5 5.8,-3.3 1,-0.4 1.6,0.1 2.4,0.1 3.2,0.2 6,-2.5 9.6,-2.1 0.7,-0.2 1.5,-0.3 2.3,-0.4 0,0.3 0,0.6 0.1,1 0.4,-0.2 0.9,-0.5 1.5,-0.7 0.1,0.1 0.2,0.1 0.3,0.2 0.5,0.2 1.1,-0.1 1.6,-0.1 0,0.1 0.1,0.2 0.1,0.3 0.2,0.1 0.5,0 0.8,-0.1 0.4,0.3 0.5,0.7 0.4,1.1 -0.9,1.1 -1.4,1.1 -2,0.9 -0.3,-0.1 -0.5,-0.3 -0.7,-0.4 -0.2,-0.1 -0.4,0 -0.7,0.6 -0.1,0.4 -0.2,0.9 -0.2,1.2 0.9,0.3 1.8,0.3 2.2,-0.5 0.1,-0.2 0,-0.3 0.1,-0.6 0.2,-0.5 2,-0.1 2.3,0 0.4,0.1 0.6,0.3 0.8,0.6 -0.3,0.2 -0.1,0.8 -0.3,0.9 -4.4,1 -9.6,-0.6 -13.7,1.8 -0.8,-0.1 -1.7,-1 -2.4,-0.5 0.3,2.1 2.7,3.4 4.3,3.6 3.4,0.5 7.7,-1.4 11.3,-1.9 0,0.1 0,0.3 0,0.4 -0.3,-0.1 -1.2,0.7 -1.4,1.4 1,0.3 2.1,-0.7 3,-1.9 0.8,0 1.6,0.1 2.3,0.4 0.7,0 0.3,-1 0.9,-1 0.4,0 0.8,0 1.1,0 0.2,0.3 0.3,0.5 0.4,0.5 -0.7,0.8 -1.7,2.9 -2.1,4 0.5,0.2 2,-2.6 2.6,-3.4 0.4,0.1 0.5,0.5 0.4,0.9 -0.2,0.5 -0.9,0.5 -1,0.9 -0.1,0.4 -0.2,0.8 -0.3,1.1 -0.3,0.8 -1.3,0.5 -1.7,1.4 -0.2,-0.2 -0.2,-0.3 -0.3,-0.4 -0.5,-0.2 -1,1.1 -1.2,1.8 -0.1,0.3 0.1,0.6 0.1,0.6 0.2,0 1.1,-1.5 1.2,-1.4 0.1,0 0.1,0.1 0,0.3 0.8,0 4,-2.9 4.2,-2.9 1.1,0.4 2.1,-0.2 2.9,0.1 0.1,0 1.6,2.3 1.5,2.3 0.1,0 0.1,-0.1 0.2,-0.3 l 0.4,0.1 c 0,0.3 0,0.7 0.1,1 -0.1,0.1 -0.2,0.2 -0.3,0.3 -0.1,0.3 0,0.7 -0.1,0.8 0.9,0.2 1.5,0.3 1.9,-0.4 0.4,0 0.9,-0.1 1.4,-0.1 -0.1,0.7 -0.2,1.3 -0.4,1.8 1.7,0.2 2.6,-1.9 2.8,-1.8 0,0 0,0 0,0.1 0.1,-0.2 0.3,-0.4 0.6,-0.7 0.9,-0.7 1.7,-1.7 2.7,-2.2 0.3,-0.2 0.6,-0.2 1,-0.3 0.2,0 0.4,0.1 0.6,0.1 0,0.3 -0.1,0.7 -0.2,1.1 -1,-0.4 -2,2.3 -2,2.2 -0.3,0.7 -0.3,1.3 0.8,1.7 0.8,0.3 1.5,0.3 2.5,-0.2 1,-2.9 -1.3,-2.9 -0.8,-5.2 0.3,-0.1 0.6,-0.1 0.8,-0.2 0.2,-0.1 0.4,-0.2 0.6,-0.3 0.7,0.2 1.2,0.4 0.8,1.3 -0.1,0.3 -0.9,0.5 -1,0.8 -0.1,0.4 0.4,1.2 0.3,1.6 1,0 1.8,-0.3 2.3,-0.7 0.1,0.4 0.2,0.9 0.3,1.3 -0.1,0.2 -0.3,0.3 -0.4,0.5 0.3,0.1 0.1,0.3 0.3,0.6 0,-0.1 0.1,-0.2 0.2,-0.3 0.2,0.8 0.3,1.7 0.3,2.5 -0.1,0.6 -0.1,1.3 0.1,1.8 0.1,3.9 -0.4,8 -0.5,11.8 0,0.8 -0.5,1.8 -0.6,2.7 -0.1,1 0.4,1.9 0.3,2.8 -0.2,1.4 -1.2,2.8 -1.3,4.2 0.9,2 0.7,3.7 1.7,4.6 3,0.5 2.7,-2.8 2.8,-4.7 0.7,-0.2 1,0 1.5,-0.5 0.1,-1 -0.2,-1.3 -0.6,-2.5 -0.4,-0.1 -1,0.2 -1.2,0 -0.7,-2.5 0.3,-4.4 -0.3,-7.3 1.3,-6 1.5,-13.1 2.3,-19.5 1.2,0 2.4,0 2.8,-0.2 0,0 0.1,0.1 0.1,0.1 -2.4,6.1 -1.6,14.2 -1,22.1 0,0.1 0,0.2 0,0.3 -0.1,0 -0.3,0 -0.4,0 0,0.3 0,0.5 0,0.8 0.2,0 0.3,0 0.5,0 0.4,3.4 1.5,6.7 1.8,9.7 0.2,2.3 0.8,5 1.8,7.3 0.2,0.6 -0.9,0.6 -0.6,1.2 2.9,3.3 1.3,10.5 3.6,14.8 0.8,1.4 2.8,3.2 4.8,2.8 0.2,-0.8 -0.9,-1.4 -1.3,-2.1 0.9,-4.7 -2.4,-9 -3,-13.5 0.1,-0.2 0.9,-0.2 0.7,-0.9 -0.4,-0.9 -0.4,0.3 -0.9,0.3 -1,-2.5 0.5,-3.8 0.3,-5.9 0.7,-0.3 1.6,0.3 2.1,-0.5 -0.4,-1.3 -1.3,-1.7 -2.3,-1.9 -0.2,-1.2 0.8,-2.8 2.2,-2.2 0.4,6.1 3.9,12.3 4.4,17.8 1.6,3.2 0.1,6.7 1.3,9.7 0.3,0.7 1,1.1 0.9,2.2 -0.1,2.2 -1.3,4.3 -1.2,6.6 0.1,1.3 0.9,2.4 0.1,3.5 1.5,4.3 0.7,8.8 -0.1,12.4 0,3.7 0.8,7.9 -1.3,10.6 -0.4,2 0,4.4 0.1,6.6 0.4,0.7 1.2,0.7 1.5,1.6 2.4,-0.3 2.2,-2 3.1,-3.1 0.3,-6.5 -0.2,-13.4 0.8,-19.5 -0.5,-1.1 -0.4,-1.9 0,-2.5 -0.1,-0.4 -0.2,-0.8 -0.4,-1.1 0.2,-2.2 0.2,-4.4 0.3,-6.7 0.1,-2.7 1.2,-5 1.2,-7.8 0,-0.9 -0.4,-1.7 -0.4,-2.6 0,-3.3 1.5,-6.5 1.4,-9.8 0.1,1 0.7,2.8 2.8,1.6 0.5,-1.2 0,-3 1,-4 0.2,0.1 0.5,0.1 0.8,-0.1 1.8,2.3 -0.7,5.2 -1.5,7.5 -0.8,2.5 -2.1,5 0.9,5.3 1.8,-1.1 1.6,-3.4 2.5,-5 0.1,-5.8 3.9,-11 5.6,-16.5 1.2,-1.5 1.5,-3.4 3.8,-4.3 0.8,1.7 0.1,3.9 -0.5,5.3 1.2,4.9 -2.3,7.5 -1.6,12.1 2.3,1.5 2.7,-1.7 3.1,-3.1 -1.1,-5.3 1.7,-8.6 1.5,-13.5 0.5,0.6 1,1.2 1.2,1.8 l 0.8,0.3 c -0.1,0.2 -0.1,0.3 0,0.3 0.2,0.1 0.6,-0.1 0.7,-0.1 0.1,-0.7 -0.3,-1 -0.7,-1.5 0.2,-0.5 -1,-0.6 -0.8,-1 -0.6,-0.2 -0.9,-0.7 -1.2,-1.2 0.3,-4.3 0.8,-9.5 -1.3,-13.6 0.6,0.6 1.3,1 2,0.8 0.4,-1.1 -0.4,-5 -1.9,-5.7 0.2,-0.8 0,-1.8 0.3,-2.3 0.6,-1.6 2.6,-3.4 3.5,-5.7 0.4,-1.1 0.6,-2.5 1.3,-3.7 0.2,-0.3 0.3,-0.7 0.5,-1 0.3,0.3 0.6,0.5 1,0.6 1.1,0.4 2.3,0.6 2.6,-0.4 -0.9,-0.5 -1.7,-1.2 -2.7,-1.7 -0.1,0 -0.3,-0.1 -0.4,0 0.2,-0.6 0.4,-1.2 0.6,-1.7 0.3,-0.7 1,-1.9 1.7,-2.9 0.8,0.3 0.7,0.8 1.2,1 1.1,0.4 1.3,-0.5 2.1,-0.2 0.8,0.3 1,0.3 1.2,1.1 0.3,0.1 0.6,0 0.8,0 0.8,3.7 0.1,7.7 -0.9,10.9 0.4,3 0.7,5.6 2.4,7.9 -1.5,1 -1.4,3 -1.8,4.5 -1.3,-1.3 -0.9,-4.7 -3.2,-4.7 0,3 1,6.5 1.8,10 -1,0.1 -0.7,-1.4 -1.8,-1.7 -1.5,1.1 0,2.8 0.1,4.1 0.1,1.2 -0.7,1.8 -0.9,3 -0.6,3.5 0.5,7.4 0.1,11 -2.7,4.3 2.5,9.1 2.7,13.8 0.9,0.9 1.5,2.4 1.2,3.7 -1.2,-0.7 -1,-2.6 -2.3,-3.2 2.4,6.1 2.6,11.7 2.7,17.6 0,2.1 -0.3,4 -0.4,5.7 -0.1,2 1.6,4.8 1.7,7.1 0.2,3.1 -1.9,7.6 1.8,10 1,0 1.1,-0.6 2.2,-0.9 1.1,-3.2 -1.1,-6.8 -1.3,-10.1 0,-0.6 0.4,-1.1 0.4,-1.8 0,-0.8 -0.5,-1.7 -0.4,-2.6 0.1,-2.1 -0.1,-4.3 0.8,-6.3 1.5,0.7 1.1,5.2 3.4,5.3 0.8,-1.9 -1.8,-4.6 -2.8,-6.7 -0.3,-0.6 -0.6,-1.4 -0.9,-2.2 -0.9,-2.3 -2.4,-4.5 -1.6,-6.1 -0.8,-3.4 0.3,-7.6 0.4,-10.9 0.1,-2.5 -0.3,-4.8 1.8,-6.4 0.4,-1.3 0.2,-2.3 -0.1,-4.1 -0.7,-5 0.4,-9.8 0.3,-14.8 0.4,-0.9 0.8,-1.8 1.7,-2.4 2,0.9 2.3,5.1 4.8,5.1 -0.4,-3.1 -4.9,-4.3 -4.4,-7.7 0,-0.3 0.5,-0.5 0.6,-0.8 0,-0.4 -0.4,-0.4 -0.4,-0.7 -0.1,-0.9 0.9,-5.4 1.8,-6 -0.2,-0.5 -0.4,-1 -0.2,-1.4 1.7,-3.3 1.3,-6.9 -0.3,-10.9 -1,-2.5 -2,-5.8 -1.1,-7.7 -0.2,-0.9 -0.3,-1.8 -0.2,-2.6 0.1,0 0.1,0 0.2,0 0.2,0.1 0.4,0.3 0.7,0.4 0.2,0.1 0.5,0.1 0.6,-0.2 0.2,-0.6 -0.3,-1.1 -0.2,-1.4 0.1,-0.3 0.3,-0.6 0.5,-0.8 1.6,1.7 3.3,3.3 5,4.9 0,0 0,0 0,0.1 -0.4,1.2 -0.2,2.1 0.4,2.6 -0.1,0 -0.1,-0.1 -0.2,-0.1 -1.6,-0.6 -4.1,-0.9 -4.7,-0.2 0.3,0.1 0.4,0.4 0.8,0.5 0.1,-0.1 0.1,-0.2 0.3,-0.1 0.3,0.1 0.1,0.3 0.2,0.3 0,0 0.1,0 0.2,-0.2 l 0.8,0.3 c 0.7,0.3 0.8,0.5 1.4,0.7 0.9,0.3 1.1,0.2 2.1,0 0.1,-0.4 0.2,-0.5 0,-0.7 0.2,0.1 0.5,0.2 0.7,0.3 1.4,0.5 2.4,-0.6 2.9,-2.2 -0.1,0 -0.2,-0.2 -0.2,-0.4 2.3,-0.4 3.9,1.4 6.8,2 2,-1.7 0.4,-3.4 2.4,-4.7 2.3,-1.4 5.5,0 5.4,2.6 3.1,-1.8 8.4,0.5 10.6,3.6 -0.7,1.8 -3.3,-0.3 -3.3,2.8 4.3,-2.3 8.1,-0.3 10.9,2.7 0.3,1 0.6,2 1.4,2.8 -0.1,0.7 -0.6,1.1 -0.1,2.1 0.3,0.6 0.9,0.7 1.6,0.5 -0.1,1.2 1,1.8 1.5,2.6 0.6,1.1 1.1,2.4 1.5,3.7 -1.3,3.4 -0.6,8.4 2.1,9.3 0.8,0.3 1.7,0.2 2.5,0 0.3,0 0.6,0 0.9,-0.2 0.4,-0.2 0.6,-0.4 0.8,-0.7 3.7,-2.8 5.2,-9.9 -3.1,-11.4 -0.3,0.1 -0.7,0.2 -1,0.3 -0.5,-1.2 -1.1,-2.5 -1.6,-3.8 4.2,-0.7 7.3,-3.8 11.6,-4.5 2.8,0.7 1.1,5.6 4,4.5 0.1,-3.6 2.7,-6.5 7.1,-7.1 2.9,0.7 3,2.8 5.9,3.6 3,-2.5 -0.1,-4.3 -0.9,-6.6 2.3,0 3.7,-1.2 4.7,-2.9 2.3,1.9 4.6,3.9 6.9,5.7 1.2,0.9 3,-0.6 2.3,-1.9 -2,-3.5 -4.3,-6.5 -7,-9.2 1.2,-3.4 2.7,-6.6 6.6,-6.2 1.1,-2.9 -2.7,-3.4 -0.9,-6.6 0.8,-3.5 5.1,0 5.9,-3.5 -1.9,-1.6 -4.1,-0.6 -5.2,-3.3 0.1,-0.1 0.1,-0.3 0.2,-0.4 0.4,-0.3 0.6,-0.7 0.7,-1.1 l 4,2 c 1.5,0.7 2.5,-1.2 1.7,-2.3 0,-0.6 -0.2,-1.2 -0.9,-1.5 -1.6,-0.9 -3.3,-1.7 -4.9,-2.6 -0.7,-1.5 -1.9,-2.9 -1.7,-4.9 1.6,1.1 3.2,2.5 3.8,2.5 0,0.5 0.5,1 0.5,1 0,-0.2 -0.8,-2.2 -1.7,-4.1 1.6,0.2 3.4,0.7 4.6,0.2 -0.1,-0.5 -0.3,-1 -0.6,-1.4 h 1.8 c 0.9,-0.1 3.2,-3 3.3,-3.5 2.3,-1.2 0.4,-5.8 3.8,-5.8 0.6,0 1,0.4 1,0.9 0.6,0 2.2,-0.3 2.2,-1.2 0,-0.9 -0.9,-1.5 -0.9,-2.3 1.4,-2.6 1.6,-3.1 1.6,-3.9 l -0.1,-4.4 c 0,-0.3 -0.3,0 -0.3,-0.3 0,-0.7 -0.2,-1.3 -0.5,-1.8 1,0 2.3,-0.1 2.8,-1 -0.5,-0.5 -1,-0.5 -1.4,-0.5 -0.7,0 -1.5,0.1 -2.1,0.3 -0.8,-0.9 -1.7,-1.4 -1.7,-1.4 -0.3,-0.9 -1.9,-1.3 -2.5,-1.9 -0.5,0 -1,0.1 -1.5,0.3 l -1,-0.1 c 1.2,-0.7 2.5,-1.6 3.3,-2.4 -1.5,-0.5 -4.8,-0.4 -5.3,-0.9 -0.2,-0.3 -0.3,-0.7 -0.5,-1 0.9,-0.3 1.6,-0.6 2.5,-0.1 4.2,-1.9 8.7,-1.4 12.4,-1 3.7,-0.3 7.8,-1.4 10.6,0.4 2,0.2 4.4,-0.4 6.6,-0.6 0.7,-0.5 0.6,-1.3 1.4,-1.7 -0.5,-2.4 -2.2,-2.1 -3.3,-2.9 -6.5,0.2 -13.3,1.3 -19.5,0.8 -1,0.6 -1.8,0.6 -2.5,0.2 -0.4,0.2 -0.7,0.3 -1.1,0.5 -2.3,0 -4.4,0.2 -6.7,0.3 -0.2,0 -0.4,0 -0.6,0 0.9,-3.2 3.5,-4.7 3.4,-5.9 0,-2.4 -4.3,-0.9 -5.8,-2.3 -1.5,-2.4 -2,-5.3 -3.5,-8.1 1.6,-1.6 4.2,-2.6 5.6,-4.6 0.6,0.2 1.2,0.4 1.9,0.4 l -0.2,-0.2 c 0,-0.2 0.4,-0.2 0.6,-0.2 -0.3,-0.9 -1,-1.7 -1.8,-2.1 -0.2,-0.4 -0.6,-0.6 -1.2,-0.6 -0.7,0 -1.2,0.2 -1.5,0.5 0,0 0,0 -0.1,0 0,0 0,0 0,0.1 -1.4,1.3 -1.2,4.3 -4.6,4.3 -1.9,0 -2.6,-0.6 -3,-1.4 1.6,-2.4 3.5,-4.2 5.4,-6.2 5.5,2.7 8.3,0.2 12.5,0.3 0.3,-4.1 -5.6,-1.8 -6.8,-5.5 -3,-0.9 -4.5,1.3 -6.9,1.6 0,-0.7 0,-1.3 0.2,-1.9 2.9,-0.6 5.9,-0.9 8.9,-1.2 1.8,-0.2 3.4,-0.1 5,-0.1 1.9,0.9 3.7,3.1 5.8,3.1 4.1,-0.1 5.5,-5.1 5.7,-5.4 v 0 c 1.2,0 2.5,0 3.6,-0.4 v 0.3 c 0,0.3 0.1,0.1 0.3,0.1 0,0 0.1,1.2 0.1,1.4 2.8,0 1.9,1.9 4,1.9 3.7,0 3,-3.5 4.4,-4.2 -0.3,-1.5 -0.9,-2.7 -1.6,-3.4 -0.9,-0.9 -1.8,-1 -2.8,-1 -0.8,0 -2,0.2 -3,0.7 0,0 0,-0.1 -0.1,-0.1 -2.3,-0.6 -4.7,0.5 -7,1.3 -0.5,0 -1.1,0 -1.6,-0.1 0,0.6 -0.9,0.4 -1.5,0.9 -0.6,0.1 -1.2,-0.3 -1.8,-0.3 -0.3,0 -0.7,0.1 -1,0.3 -2,-0.5 -3.8,-1 -5.3,-1.5 1.3,-0.5 2.5,-1.1 2.5,-2.3 -1.3,-0.4 -2.8,0.7 -4.3,1.8 -1.8,-0.5 -3.2,-1 -4.4,-1.3 2,-2.4 3.8,-5 4.4,-7.8 0.3,-1.5 0.3,-2.9 0.1,-4.3 0.6,-0.4 0.9,-0.7 1,-0.7 6.7,-2.2 7.4,-7.1 16.2,-8.9 6.7,-1.3 8.6,-3.7 9.3,-3.7 2.4,0 3.6,-2.4 5.5,-2.5 1.4,0 2.9,0.4 4.3,0.4 3.1,-0.8 4.8,-3.7 4.7,-7.1 z M 250.1,707.3 c -1,-2.4 -3.4,-7.1 -2.6,-9.7 1.7,2.9 2.7,7.1 2.6,9.7 z m 2.4,-261.4 c 0,0.3 -0.1,0.5 -0.1,0.8 -0.1,-0.3 -0.2,-0.7 -0.3,-1 0,0.1 0.2,0.2 0.4,0.2 z m -0.6,-2.9 c 0,0.4 -0.1,0.9 -0.2,1.3 -0.1,-0.5 -0.1,-1 -0.1,-1.4 0.1,0 0.2,0.1 0.3,0.1 z M 147.3,599.3 c -0.3,-0.5 -0.5,-0.8 -0.5,-0.8 0,-0.6 -0.5,-1.3 -1.1,-1.9 0.2,-0.2 0.5,-0.4 0.7,-0.7 1.1,0.9 2.2,1.9 3.2,2.6 -0.6,0.3 -1.4,0.6 -2.3,0.8 z m -11,0.6 c -0.2,0.2 -0.4,0.5 -0.9,0.5 0.2,-0.2 0.5,-0.3 0.9,-0.5 z M 98,557.7 c 0.5,-0.1 0.9,-0.2 1.1,-0.4 0,0.1 0,0.2 0,0.3 -0.2,0.1 -0.4,0.1 -0.6,0.1 -0.2,0 -0.4,0 -0.5,0 z m 47.5,41.8 c 0.1,0.1 0.1,0.2 0.2,0.2 -0.1,0 -0.1,0 -0.2,0 0,0 0,-0.1 0,-0.2 z m -7.8,-124.7 c 0.3,0 0.7,0 1.2,0.1 -0.4,0.2 -0.7,0.4 -1,0.4 -0.2,-0.1 -0.3,-0.2 -0.5,-0.4 0.1,-0.1 0.2,-0.1 0.3,-0.1 z M 89.1,556 c 0.1,0.6 0.6,0.9 1.2,1 -4.7,-0.4 -9.3,-0.7 -14,-1 0,0 0,-0.1 0,-0.1 0,-0.7 -0.3,-0.8 -1,-1.3 0.7,0 1.1,0.2 1.2,0.5 0.2,-0.1 0.5,-0.3 0.7,-0.3 0.1,0 -0.1,0.3 0.3,0.3 0.1,0 0.1,-0.4 0.1,-0.5 -0.9,-0.4 -1.8,-0.5 -2.7,-0.7 -4.2,-0.5 -4.9,-1.1 -7.2,-1.3 0,2.6 4.1,2.2 6.7,2.2 -0.5,0.2 -0.7,0.5 -0.7,1 0,0.1 0,0.2 0,0.3 -3.2,-0.2 -6.4,-0.4 -9.6,-0.6 -0.3,0 -0.5,0.1 -0.7,0.2 -0.3,-1.3 -2.5,-3.1 -2.6,-5.2 0,-0.1 0.1,-0.4 0.1,-0.5 0,0 -0.2,0 -0.5,-0.2 12.8,2.4 25.7,4.5 38.6,6.1 0,0.1 0,0.1 0,0.2 0,0.4 0,0.8 0,1.2 h -0.5 c -1,0 -1.6,-0.1 -1.8,0.4 -1.5,-0.1 -3,-0.3 -4.4,-0.4 -0.3,-1.1 -1.9,-1.7 -3.2,-1.3 z m 25.9,55.9 c 0.3,-0.6 0.5,-1.2 0.7,-1.9 0.6,0 1.1,0.1 1.4,0.4 -0.6,0.6 -1.3,1.1 -2.1,1.5 z m 22,-7.1 c -1,0.4 -1.9,0.9 -3,1.4 0,-0.1 -0.1,-0.2 -0.3,-0.2 -0.1,0.2 -0.1,0.3 -0.1,0.5 -2.2,1.1 -4.4,2.2 -6.7,2.5 -1.3,1.3 -3.8,0.7 -6.3,0.6 -0.8,0 -1.7,-0.1 -2.4,-0.1 -0.7,-0.1 -1.5,-0.2 -2.2,-0.4 0.5,-2 0.7,-3.9 1.2,-3.9 0,0 2.1,-7.1 4,-7.1 0.6,0 0.9,0 0.9,0.4 0.5,-0.2 0.9,-0.2 1.5,-0.4 0,0.7 1.3,1.1 1.5,1.1 2.8,0 7.3,6.2 8.2,6.2 0.6,0 0.9,-0.4 1.2,-1.1 0.7,0.3 1.6,0.4 1.9,0.4 1.3,0 2.6,-0.2 2.9,-2 -0.3,0 -0.4,-0.1 -0.4,-0.3 0,-0.5 0.5,-1.2 0.6,-1.4 -0.5,-0.1 -1.2,-0.1 -1.7,-0.1 -1.1,-0.1 -0.5,-0.9 -1,-1.1 1.4,-0.4 3.2,-0.5 3.7,-0.5 0.2,0 0.5,0.3 0.7,0.7 0,0.4 0.2,0.7 0.4,0.9 0.1,0.2 0.2,0.5 0.3,0.7 -0.7,1.9 -2.7,2.4 -4.9,3.2 z m 2.5,3.7 c 1.2,-0.5 2.8,-0.9 4.5,-1 0.5,1.2 1.1,1.7 1.4,-0.1 1.4,-0.1 2.8,0 4.1,0.2 -2.1,1.6 -7.4,1 -10,0.9 z m 29.3,13.9 c -1.4,0.8 -2.7,1.7 -2.8,2.2 -0.3,1 -0.1,0.9 0,1.1 -1.3,-0.2 -2,0.8 -2.7,0.5 0.1,-0.3 -0.2,-0.4 -0.4,-0.4 0,-2.9 3.8,-4.7 5.9,-3.4 z m -14.1,12.1 c -0.1,-0.9 1.5,-2.7 2.7,-2.1 -0.4,1.2 -1.9,1.3 -2.7,2.1 z m 11.7,10.7 c 0.4,0.1 1.3,-0.5 2,-0.4 0,0.1 -0.1,0.2 -0.1,0.3 -0.6,0.4 -1.4,0.6 -2.5,0.6 -0.1,-0.2 0.1,-0.4 0.2,-0.5 0.2,-0.1 0.3,-0.1 0.4,0 z m 42.9,26 c -0.3,1.1 -1.4,2.5 -1,3.4 -1.4,0 -2.4,-0.8 -3.7,-1.1 -0.7,-1.1 -0.8,-2.2 -0.7,-3.4 0.4,0 0.6,0.1 0.7,-0.4 0,-0.2 0,-0.5 -0.3,-0.6 0.1,-0.4 0.1,-0.9 0,-1.5 0.2,-0.7 0.3,-1.4 0.5,-2 0.3,0.9 0.3,2.2 1.1,2.9 l -0.1,-0.1 c 0,-0.1 0.2,0 0.3,0 0.1,-1.2 -0.8,-2.6 -1.3,-3.2 0.1,-0.5 0.1,-1 0.1,-1.5 0,-1.3 -1.1,-3.5 -1.5,-5.3 -0.5,-2 -0.6,-4.2 -1.6,-5.6 1,-0.4 2.5,-2.4 4,-3.2 3,4 1.5,10.4 2,15 0.6,2.3 1.5,4.7 1.5,6.6 z m 5.1,5 c -0.9,-2.5 -2.9,-6.4 1.3,-8.1 0.5,1.1 1.1,1.9 1.9,2.5 -1.5,1.7 -2.4,3.6 -3.2,5.6 z m 6,25.8 c 0.5,-1 0,-2.5 1,-3.2 1,0.8 -0.1,2.9 -1,3.2 z m 7.8,-29.3 c -0.3,1.7 0,3.8 -1.5,5 -0.6,2.7 0.9,4.2 0.2,6.8 2,1.5 1.6,5.8 -1.1,6.8 -0.1,-0.2 -0.2,-0.4 -0.5,-0.3 -0.6,-0.6 0.2,-1.7 -0.5,-2.9 -0.3,-0.6 -1.1,-0.1 -1.3,-0.8 -2.6,-5.2 2.4,-11.8 -3,-15.6 -0.9,0.6 -1.1,0.3 -2,0.2 -0.1,-0.3 -0.2,-0.5 -0.2,-0.7 0.3,-0.5 1.4,0.2 1.6,-0.7 0.1,-1 -0.9,-1.3 -1.2,-2.3 0.3,-3.7 6.3,-5.1 8.9,-3.1 1.6,2.5 1,5.7 0.6,7.6 z m 25.2,8.3 c -0.4,-1 -0.5,-2.5 -1.5,-2.2 -0.2,0.7 -0.2,1.4 -0.8,1.9 -1.1,-3.3 1.1,-6.9 1.7,-9.3 1.6,3.4 2.4,6.6 0.6,9.6 z M 353.7,545.4 c 0.8,-1.4 1.8,-2.7 2.8,-4 0.9,0.3 1.5,1 2,1.8 0,0 0,0 -0.1,0 -1.7,0.8 -3.2,2 -4.7,2.2 z"
         id="path3906" />
      <path
         fill-rule="evenodd"
         clip-rule="evenodd"
         d="m 382.5,557.6 c -0.2,0 -0.5,0.2 -0.7,0.2 -0.2,0 -0.5,-0.2 -0.5,-0.7 -1.7,0.3 -2.2,0.5 -2.2,1 0,0.5 0.3,1 0.8,1.9 2.1,-0.5 2.6,0 2.6,-2.4 z"
         id="path3908" />
      <path
         fill-rule="evenodd"
         clip-rule="evenodd"
         d="m 395.3,546.4 c 0,1.2 0.3,3.6 1.5,3.6 0.7,0 1.4,-0.5 1.4,-1.2 0,-2.5 -1.7,-2 -2.9,-2.4 z"
         id="path3910" />
      <path
         fill-rule="evenodd"
         clip-rule="evenodd"
         d="m 355.3,562.3 c 0,1.5 -1.5,-0.7 -1.4,3 0.7,0 1.1,0.4 1.9,0.3 1.5,0 2.6,-1.1 3.3,-1.2 -1.2,-1.4 -1.6,-2.1 -3.8,-2.1 z"
         id="path3912" />
      <path
         fill-rule="evenodd"
         clip-rule="evenodd"
         d="m 76.5,555.1 c 0,0 0,0 0,0 -0.1,0 -0.1,0 -0.1,0 0.1,0 0.1,0 0.1,0 z"
         id="path3914" />
      <path
         fill-rule="evenodd"
         clip-rule="evenodd"
         d="m 388.6,587.3 c -0.2,0.4 -0.5,0.5 -0.5,0.7 0,0.1 0.3,0.1 0.8,0.1 0,-0.3 -0.1,-0.6 -0.3,-0.8 z"
         id="path3916" />
      <path
         fill-rule="evenodd"
         clip-rule="evenodd"
         d="m 49.6,560.6 c 0,0 -0.1,-0.1 0,0 -0.1,0 -0.1,0 -0.1,0 0.1,0 0.1,0 0.1,0 z"
         id="path3918" />
      <path
         fill-rule="evenodd"
         clip-rule="evenodd"
         d="m 388.4,634.9 c -4.8,3.7 3.6,10.8 5.2,3.3 -0.7,-1.6 -2.3,-2.8 -5.2,-3.3 z"
         id="path3920" />
      <path
         fill-rule="evenodd"
         clip-rule="evenodd"
         d="m 70.4,582.7 c -0.6,0.6 -0.7,0.7 -1.5,0.8 0,0.4 0.2,0.4 0.4,0.4 0.7,0 2,-1 2,-1 0,-0.3 -0.2,-0.2 -0.9,-0.2 z"
         id="path3922" />
      <path
         fill-rule="evenodd"
         clip-rule="evenodd"
         d="m 404.5,549.1 c 0,1 -1.2,0.5 -1.2,1.5 0,0.7 0.3,1.4 1.7,1.4 1.4,0 2.2,0 2.1,-1.7 0,-0.2 0,-0.5 -0.3,-0.7 -0.6,-0.5 -0.9,-0.5 -2.3,-0.5 z"
         id="path3924" />
      <path
         fill-rule="evenodd"
         clip-rule="evenodd"
         d="m 96.5,540.4 c -1.6,-1.2 -3.5,-2.2 -4.3,0.9 2.1,0.8 3.9,1.4 4.3,-0.9 z"
         id="path3926" />
      <path
         fill-rule="evenodd"
         clip-rule="evenodd"
         d="m 404.8,517.1 c 1.2,3.4 9.1,2.4 10.7,-1.1 -5.3,-3 -7.2,0.7 -10.7,1.1 z"
         id="path3928" />
      <path
         fill-rule="evenodd"
         clip-rule="evenodd"
         d="m 105.6,609.5 c 0,-0.2 -0.2,-0.2 -0.8,-0.2 0.2,0.4 0,0.4 0.4,0.6 0,-0.2 0.4,-0.4 0.4,-0.4 z"
         id="path3930" />
      <path
         fill-rule="evenodd"
         clip-rule="evenodd"
         d="m 104.5,611.3 c -0.2,-0.6 0,-0.4 -0.4,-0.7 0,0.2 -0.2,0.4 -0.2,0.4 0,0.5 0,0.3 0.6,0.3 z"
         id="path3932" />
      <path
         fill-rule="evenodd"
         clip-rule="evenodd"
         d="m 105.9,607.8 c 0,0.2 -0.2,0.4 -0.2,0.6 0,0.2 0.2,0.2 0.6,0.2 -0.2,-0.6 0,-0.4 -0.4,-0.8 z"
         id="path3934" />
      <path
         fill-rule="evenodd"
         clip-rule="evenodd"
         d="m 83.8,572.1 c -0.9,0.4 -1.1,0.4 -1.1,1.5 1.1,-0.4 1.1,-0.4 1.1,-1.5 z"
         id="path3936" />
      <path
         fill-rule="evenodd"
         clip-rule="evenodd"
         d="M 107.4,605.9 H 107 c -0.4,0.7 -0.5,1.3 -0.5,1.5 0,0.2 0,0.2 0.2,0.2 0.3,0 0.7,-1.1 0.7,-1.7 z"
         id="path3938" />
      <path
         fill-rule="evenodd"
         clip-rule="evenodd"
         d="m 405.3,597.9 c 0,0.1 0,0.3 -0.1,0.3 -0.1,0 -0.3,-0.1 -0.5,-0.1 -0.5,0 -0.5,0.5 -1,0.8 0.3,0.6 0.8,1 1.3,1 0.5,0 1.3,-0.8 1.3,-1 -0.1,-0.5 -0.5,-0.7 -1,-1 z"
         id="path3940" />
      <path
         fill-rule="evenodd"
         clip-rule="evenodd"
         d="m 180.5,657.5 c -0.4,0 -1,-0.1 -1.1,0.2 -0.2,0.6 0.3,0.7 0.8,0.8 z"
         id="path3942" />
      <path
         fill-rule="evenodd"
         clip-rule="evenodd"
         d="m 180.2,659 c -0.8,-0.3 -2,-0.4 -2.3,0.6 0,0.1 -0.1,0.3 0,0.5 0.2,0.1 0.4,1.3 1.4,1.7 0.5,0.2 1.4,0.1 1.4,-0.1 0,-0.1 -0.1,-0.1 -0.1,-0.1 0,-0.1 0.2,-0.2 0.4,-0.1 0.2,-1.3 0.2,-2.2 -0.8,-2.5 z"
         id="path3944" />
      <path
         fill-rule="evenodd"
         clip-rule="evenodd"
         d="m 189.3,699.9 c 3.5,0.4 3.8,-5.1 3.4,-7.6 -3.6,-0.8 -4.3,5.7 -3.4,7.6 z"
         id="path3946" />
      <path
         fill-rule="evenodd"
         clip-rule="evenodd"
         d="m 164.1,674 c -0.9,0.6 -1.6,1.6 -1.9,3.3 1.6,0.8 2.8,0.8 3.8,0.5 0.5,-1.8 -0.1,-3.1 -1.9,-3.8 z"
         id="path3948" />
      <path
         fill-rule="evenodd"
         clip-rule="evenodd"
         d="m 268.2,696.9 c -0.3,0.8 2,2.6 2.1,2.6 0.1,0 0.3,0 0.4,0 0.2,0.1 0.1,0.3 0.6,0.4 0.4,0.1 0.7,0.3 1,-0.5 -1.7,-1.4 -2.3,-2.2 -3.8,-3 -0.2,0.2 -0.3,0.4 -0.3,0.5 z"
         id="path3950" />
      <path
         fill-rule="evenodd"
         clip-rule="evenodd"
         d="m 82.2,617.6 c -0.4,0 -0.5,0.1 -0.6,0.7 0,0.3 0.1,0.1 0.1,0.5 0.8,0 1.2,-0.1 1.1,-0.5 0,-0.4 0,-0.7 -0.6,-0.7 z"
         id="path3952" />
      <path
         fill-rule="evenodd"
         clip-rule="evenodd"
         d="m 66.9,559.2 c 0,1.5 0.2,1.5 1.7,1.5 0,-1.6 -0.4,-1.6 -1.7,-1.5 z"
         id="path3954" />
      <path
         fill-rule="evenodd"
         clip-rule="evenodd"
         d="m 159.5,653.9 c -0.7,0 -1,0.5 -1.2,1 -0.3,0.9 0.1,1.1 0.8,1.3 0.7,0.3 1.2,-0.3 1.2,-0.4 0.3,-0.9 0.1,-1.5 -0.8,-1.9 z"
         id="path3956" />
      <path
         fill-rule="evenodd"
         clip-rule="evenodd"
         d="m 92.8,615 c -0.2,0.7 -0.2,1.3 -0.3,1.9 h 0.7 c 0,-0.4 0.2,-0.7 0.4,-1.1 -0.6,-0.1 -0.4,-0.4 -0.8,-0.8 z"
         id="path3958" />
      <path
         fill-rule="evenodd"
         clip-rule="evenodd"
         d="m 309.1,684.6 c -1.7,1 -0.2,0.9 -1,2.8 2.6,1.5 3.9,-2.5 1,-2.8 z"
         id="path3960" />
      <path
         fill-rule="evenodd"
         clip-rule="evenodd"
         d="m 356.8,702.3 c -1.2,2.7 1.1,5.6 4,4.5 0.1,-2.1 -0.9,-3.8 -4,-4.5 z"
         id="path3962" />
      <path
         fill-rule="evenodd"
         clip-rule="evenodd"
         d="m 358.2,630.9 c 1.6,1 3.2,2.7 4,-0.2 -1.4,-0.2 -3.9,-2.4 -4,0.2 z"
         id="path3964" />
      <path
         fill-rule="evenodd"
         clip-rule="evenodd"
         d="m 338.8,664.6 c -2.8,2.7 -7.9,0.7 -10.7,3.5 5.2,1.4 9.7,1.4 12.6,-2.1 -0.4,-0.5 -0.9,-1.1 -1.9,-1.4 z"
         id="path3966" />
      <path
         fill-rule="evenodd"
         clip-rule="evenodd"
         d="m 373.9,602.2 c -1.2,0.3 -2.2,0.8 -2.9,0.8 0.5,2.9 2.2,3.6 4.6,3.5 1.4,0 2.2,-0.5 2.1,-1.5 0.1,-1.9 -2.1,-2.8 -3.8,-2.8 z"
         id="path3968" />
      <path
         fill-rule="evenodd"
         clip-rule="evenodd"
         d="m 283.5,662.4 c 1.8,1.2 1.9,-0.9 3.3,-0.5 -0.8,-3.3 1.2,-4.6 1,-7.6 -2.4,0.5 -4.6,6.1 -4.3,8.1 z"
         id="path3970" />
      <path
         fill-rule="evenodd"
         clip-rule="evenodd"
         d="m 272.5,689.4 c -0.1,0 -0.2,-0.1 -0.2,0 h 0.1 c 0,0.1 -0.1,0.1 -0.5,0 -0.4,0.3 -0.6,0.6 -0.7,0.9 -0.1,0.4 0.1,0.8 0.5,1 0.2,0.1 0.4,0.1 0.6,0.1 0.5,-0.1 0.8,-0.2 0.9,-0.5 0.1,-0.3 0.1,-0.6 0.1,-1 -0.2,-0.1 -0.5,0 -0.6,-0.1 -0.3,0 -0.3,-0.2 -0.2,-0.4 z"
         id="path3972" />
      <path
         fill-rule="evenodd"
         clip-rule="evenodd"
         d="m 271.4,664.9 c -0.3,1 -2,0.9 -2.4,2.3 1.8,0.6 5.3,-1.5 5.7,-2.6 -1.3,-0.4 -2.2,0.4 -3.3,0.3 z"
         id="path3974" />
      <path
         fill-rule="evenodd"
         clip-rule="evenodd"
         d="m 378,593.4 c -0.2,0.7 -0.5,1.4 -0.7,2.1 0.9,0.2 1.2,0.6 1.2,1.2 3.5,0.3 3,-4.1 -0.5,-3.3 z"
         id="path3976" />
      <path
         fill-rule="evenodd"
         clip-rule="evenodd"
         d="m 293,683 c -1.7,1.9 -1,2.3 -1.7,5 2.8,1.9 5.1,-4.8 1.7,-5 z"
         id="path3978" />
    </g>
  </g>
</svg>
